%
M48
M72
T01C0.0276
T02C0.0320
T03C0.0354
T04C0.0394
T05C0.0400
T06C0.0472
T07C0.0512
T08C0.1260
T09C0.1300
%
T01
X3207Y8441
X4207Y8441
X4207Y9441
X5207Y9441
X7207Y12441
X7207Y13441
X6207Y14441
X5207Y14441
X13207Y12941
X14207Y12941
X14207Y11441
X13707Y9941
X13207Y11441
X14707Y9941
X14207Y7941
X13207Y7941
X13707Y14941
X13707Y16941
X15207Y16941
X16207Y16941
X16207Y14941
X15207Y14941
X15707Y21441
X16707Y21441
T02
X11707Y20441
X11707Y19441
X11707Y18441
X11707Y17441
X11707Y16441
X11707Y15441
X11707Y14441
X11707Y13441
X11707Y12441
X11707Y11441
X11707Y10441
X11707Y9441
X11707Y8441
X11707Y7441
X13207Y5941
X13207Y4941
X13957Y5441
X8707Y7441
X8707Y8441
X8707Y9441
X8707Y10441
X8707Y11441
X8707Y12441
X8707Y13441
X8707Y14441
X8707Y15441
X8707Y16441
X8707Y17441
X8707Y18441
X8707Y19441
X8707Y20441
X6207Y13441
X5207Y13441
X4207Y13441
X3207Y13441
X3207Y10441
X4207Y10441
X5207Y10441
X6207Y10441
T03
X6207Y9441
X7207Y9441
X7207Y5441
X6207Y5441
X2207Y9941
X2207Y13941
X3707Y17941
X3707Y19441
X3707Y20941
X7707Y20941
X7707Y19441
X7707Y17941
T04
X8957Y27941
X9457Y28941
X9957Y27941
X10457Y28941
X10957Y27941
X11457Y28941
X11957Y27941
X12457Y28941
X15207Y5441
X15207Y1441
T05
X11207Y5391
X10207Y5491
X9207Y5391
X8207Y5491
X8707Y24441
X8707Y25441
X8707Y26441
X10707Y26441
X10707Y25441
X10707Y24441
X12707Y24441
X12707Y25441
X12707Y26441
T06
X1723Y3473
X2707Y3473
X4676Y5441
X2707Y7410
X1723Y7410
T07
X2707Y5441
X4676Y4457
X4676Y3473
X4676Y6426
X4676Y7410
X9707Y1441
X11676Y1441
T08
X12957Y31441
X8457Y31441
T09
X2207Y31541
X18507Y31541
X18507Y1441
X2207Y1441
M30
