G75*
G70*
%OFA0B0*%
%FSLAX24Y24*%
%IPPOS*%
%LPD*%
%AMOC8*
5,1,8,0,0,1.08239X$1,22.5*
%
%ADD10C,0.0480*%
%ADD11R,0.0740X0.0740*%
%ADD12C,0.0740*%
%ADD13C,0.0600*%
%ADD14C,0.0650*%
%ADD15R,0.0650X0.0650*%
%ADD16C,0.0780*%
%ADD17R,0.0800X0.0800*%
%ADD18C,0.0800*%
%ADD19OC8,0.0630*%
%ADD20C,0.0860*%
%ADD21C,0.0500*%
%ADD22C,0.0160*%
D10*
X008467Y007441D02*
X008947Y007441D01*
X008947Y008441D02*
X008467Y008441D01*
X008467Y009441D02*
X008947Y009441D01*
X008947Y010441D02*
X008467Y010441D01*
X008467Y011441D02*
X008947Y011441D01*
X008947Y012441D02*
X008467Y012441D01*
X008467Y013441D02*
X008947Y013441D01*
X008947Y014441D02*
X008467Y014441D01*
X008467Y015441D02*
X008947Y015441D01*
X008947Y016441D02*
X008467Y016441D01*
X008467Y017441D02*
X008947Y017441D01*
X008947Y018441D02*
X008467Y018441D01*
X008467Y019441D02*
X008947Y019441D01*
X008947Y020441D02*
X008467Y020441D01*
X011467Y020441D02*
X011947Y020441D01*
X011947Y019441D02*
X011467Y019441D01*
X011467Y018441D02*
X011947Y018441D01*
X011947Y017441D02*
X011467Y017441D01*
X011467Y016441D02*
X011947Y016441D01*
X011947Y015441D02*
X011467Y015441D01*
X011467Y014441D02*
X011947Y014441D01*
X011947Y013441D02*
X011467Y013441D01*
X011467Y012441D02*
X011947Y012441D01*
X011947Y011441D02*
X011467Y011441D01*
X011467Y010441D02*
X011947Y010441D01*
X011947Y009441D02*
X011467Y009441D01*
X011467Y008441D02*
X011947Y008441D01*
X011947Y007441D02*
X011467Y007441D01*
D11*
X008207Y005491D03*
X012457Y028941D03*
D12*
X011957Y027941D03*
X011457Y028941D03*
X010957Y027941D03*
X010457Y028941D03*
X009957Y027941D03*
X009457Y028941D03*
X008957Y027941D03*
X007707Y020941D03*
X007707Y019441D03*
X007707Y017941D03*
X003707Y017941D03*
X003707Y019441D03*
X003707Y020941D03*
X002207Y013941D03*
X002207Y009941D03*
X006207Y009441D03*
X007207Y009441D03*
X007207Y005441D03*
X006207Y005441D03*
X009207Y005391D03*
X010207Y005491D03*
X011207Y005391D03*
X013207Y004941D03*
X013207Y005941D03*
X013957Y005441D03*
D13*
X013007Y024441D02*
X012407Y024441D01*
X012407Y025441D02*
X013007Y025441D01*
X013007Y026441D02*
X012407Y026441D01*
X011007Y026441D02*
X010407Y026441D01*
X010407Y025441D02*
X011007Y025441D01*
X011007Y024441D02*
X010407Y024441D01*
X009007Y024441D02*
X008407Y024441D01*
X008407Y025441D02*
X009007Y025441D01*
X009007Y026441D02*
X008407Y026441D01*
D14*
X013707Y016941D03*
X013707Y014941D03*
X013207Y012941D03*
X014207Y012941D03*
X014207Y011441D03*
X013707Y009941D03*
X013207Y011441D03*
X014707Y009941D03*
X014207Y007941D03*
X015207Y014941D03*
X016207Y014941D03*
X016207Y016941D03*
X015207Y016941D03*
X016707Y021441D03*
X007207Y013441D03*
X007207Y012441D03*
X006207Y014441D03*
X005207Y014441D03*
X005207Y009441D03*
X004207Y009441D03*
X004207Y008441D03*
X003207Y008441D03*
D15*
X013207Y007941D03*
X015707Y021441D03*
D16*
X015207Y005441D03*
X015207Y001441D03*
D17*
X009707Y001441D03*
D18*
X011676Y001441D03*
D19*
X006207Y010441D03*
X005207Y010441D03*
X004207Y010441D03*
X003207Y010441D03*
X003207Y013441D03*
X004207Y013441D03*
X005207Y013441D03*
X006207Y013441D03*
D20*
X004676Y007410D03*
X004676Y006426D03*
X004676Y004457D03*
X004676Y003473D03*
X002707Y005441D03*
D21*
X001512Y002774D02*
X001512Y002494D01*
X001628Y002578D01*
X001628Y002578D01*
X002008Y002701D01*
X002102Y002701D01*
X002102Y002701D01*
X002207Y002701D01*
X002207Y002701D01*
X002313Y002701D01*
X002313Y002701D01*
X002407Y002701D01*
X002786Y002578D01*
X003109Y002343D01*
X003109Y002343D01*
X003109Y002343D01*
X003344Y002020D01*
X003467Y001641D01*
X003467Y001641D01*
X003467Y001242D01*
X003344Y000862D01*
X003344Y000862D01*
X003214Y000683D01*
X008972Y000683D01*
X008892Y000764D01*
X008817Y000944D01*
X008817Y001939D01*
X008892Y002119D01*
X009030Y002257D01*
X009210Y002331D01*
X010205Y002331D01*
X010385Y002257D01*
X010523Y002119D01*
X010597Y001939D01*
X010597Y000944D01*
X010523Y000764D01*
X010442Y000683D01*
X014738Y000683D01*
X014709Y000695D01*
X014461Y000943D01*
X014327Y001266D01*
X014327Y001616D01*
X014461Y001940D01*
X012238Y001940D01*
X012312Y001866D02*
X012101Y002077D01*
X011825Y002191D01*
X011676Y002191D01*
X011676Y001442D01*
X011676Y001442D01*
X011676Y001441D02*
X012426Y001441D01*
X011676Y001441D01*
X011676Y001441D01*
X011676Y000691D01*
X011825Y000691D01*
X012101Y000805D01*
X012312Y001016D01*
X012426Y001292D01*
X012426Y001441D01*
X012426Y001590D01*
X012312Y001866D01*
X011676Y001940D02*
X011676Y001940D01*
X011676Y002191D02*
X011527Y002191D01*
X011251Y002077D01*
X011040Y001866D01*
X010926Y001590D01*
X010926Y001441D01*
X010926Y001292D01*
X011040Y001016D01*
X011251Y000805D01*
X011527Y000691D01*
X011676Y000691D01*
X011676Y001441D01*
X011676Y001441D01*
X014327Y001441D01*
X014461Y001940D02*
X014709Y002187D01*
X015032Y002321D01*
X015382Y002321D01*
X015706Y002187D01*
X015953Y001940D01*
X017344Y001940D01*
X017371Y002020D02*
X017247Y001641D01*
X017247Y001242D01*
X017247Y001242D01*
X017371Y000862D01*
X017501Y000683D01*
X015677Y000683D01*
X015706Y000695D01*
X015953Y000943D01*
X017344Y000943D01*
X017247Y001441D02*
X016087Y001441D01*
X016087Y001266D02*
X016087Y001616D01*
X015953Y001940D01*
X016087Y001266D02*
X015953Y000943D01*
X014461Y000943D02*
X012238Y000943D01*
X011676Y000943D02*
X011676Y000943D01*
X011675Y001441D02*
X010926Y001441D01*
X011675Y001441D01*
X011675Y001441D01*
X010597Y001441D01*
X010597Y001940D02*
X011114Y001940D01*
X011676Y002191D02*
X011676Y001442D01*
X011114Y000943D02*
X010597Y000943D01*
X008818Y000943D02*
X003370Y000943D01*
X003467Y001441D02*
X008817Y001441D01*
X008818Y001940D02*
X003370Y001940D01*
X002978Y002438D02*
X017736Y002438D01*
X017605Y002343D02*
X017928Y002578D01*
X017928Y002578D01*
X018308Y002701D01*
X018402Y002701D01*
X018402Y002701D01*
X018505Y002701D01*
X018507Y002701D01*
X018613Y002701D01*
X018613Y002701D01*
X018707Y002701D01*
X019086Y002578D01*
X019402Y002348D01*
X019402Y030634D01*
X019086Y030405D01*
X019086Y030405D01*
X018707Y030281D01*
X018613Y030281D01*
X018613Y030281D01*
X018547Y030281D01*
X018507Y030281D01*
X018402Y030281D01*
X018402Y030281D01*
X018308Y030281D01*
X017928Y030405D01*
X017605Y030639D01*
X017605Y030639D01*
X017371Y030962D01*
X017247Y031342D01*
X017247Y031342D01*
X017247Y031741D01*
X017371Y032120D01*
X017371Y032120D01*
X017425Y032195D01*
X013787Y032195D01*
X013853Y032129D01*
X014001Y031874D01*
X014077Y031589D01*
X014077Y031294D01*
X014001Y031009D01*
X013853Y030754D01*
X013645Y030545D01*
X013389Y030398D01*
X013105Y030321D01*
X012810Y030321D01*
X012525Y030398D01*
X012270Y030545D01*
X012061Y030754D01*
X011914Y031009D01*
X011837Y031294D01*
X011837Y031589D01*
X011914Y031874D01*
X012061Y032129D01*
X012128Y032195D01*
X009287Y032195D01*
X009353Y032129D01*
X009501Y031874D01*
X009577Y031589D01*
X009577Y031294D01*
X009501Y031009D01*
X009353Y030754D01*
X009145Y030545D01*
X008889Y030398D01*
X008605Y030321D01*
X008310Y030321D01*
X008025Y030398D01*
X007770Y030545D01*
X007561Y030754D01*
X007414Y031009D01*
X007337Y031294D01*
X007337Y031589D01*
X007414Y031874D01*
X007561Y032129D01*
X007628Y032195D01*
X003289Y032195D01*
X003344Y032120D01*
X003467Y031741D01*
X003467Y031741D01*
X003467Y031342D01*
X003344Y030962D01*
X003344Y030962D01*
X003109Y030639D01*
X002786Y030405D01*
X002786Y030405D01*
X002407Y030281D01*
X002313Y030281D01*
X002313Y030281D01*
X002207Y030281D01*
X002190Y030281D01*
X002102Y030281D01*
X002102Y030281D01*
X002008Y030281D01*
X001628Y030405D01*
X001512Y030489D01*
X001512Y014462D01*
X001720Y014670D01*
X002036Y014801D01*
X002378Y014801D01*
X002694Y014670D01*
X002936Y014428D01*
X003012Y014246D01*
X003541Y014246D01*
X003707Y014080D01*
X003874Y014246D01*
X004541Y014246D01*
X004569Y014218D01*
X004532Y014307D01*
X004532Y014441D01*
X005207Y014441D01*
X005207Y014441D01*
X005207Y014106D01*
X005207Y013442D01*
X005207Y013442D01*
X005207Y014106D01*
X005207Y014441D01*
X005207Y014441D01*
X004532Y014441D01*
X004532Y014576D01*
X004635Y014824D01*
X004825Y015013D01*
X005073Y015116D01*
X005207Y015116D01*
X005207Y014442D01*
X005207Y014442D01*
X005207Y015116D01*
X005341Y015116D01*
X005590Y015013D01*
X005608Y014995D01*
X005746Y015132D01*
X006045Y015256D01*
X006369Y015256D01*
X006669Y015132D01*
X006898Y014903D01*
X007022Y014603D01*
X007022Y014279D01*
X006930Y014057D01*
X007073Y014116D01*
X007207Y014116D01*
X007207Y013511D01*
X007207Y013511D01*
X007207Y014116D01*
X007341Y014116D01*
X007590Y014013D01*
X007779Y013824D01*
X007882Y013576D01*
X007882Y013571D01*
X007967Y013775D01*
X008034Y013842D01*
X007848Y014028D01*
X007737Y014296D01*
X007737Y014586D01*
X007848Y014855D01*
X007935Y014941D01*
X007848Y015028D01*
X007737Y015296D01*
X007737Y015586D01*
X007848Y015855D01*
X007935Y015941D01*
X007848Y016028D01*
X007737Y016296D01*
X007737Y016586D01*
X007848Y016855D01*
X007935Y016941D01*
X007848Y017028D01*
X007826Y017081D01*
X007536Y017081D01*
X007220Y017212D01*
X006978Y017454D01*
X006847Y017770D01*
X006847Y018112D01*
X006978Y018428D01*
X007220Y018670D01*
X007271Y018691D01*
X007220Y018712D01*
X006978Y018954D01*
X006847Y019270D01*
X006847Y019612D01*
X006978Y019928D01*
X007220Y020170D01*
X007271Y020191D01*
X007220Y020212D01*
X006978Y020454D01*
X006847Y020770D01*
X006847Y021112D01*
X006978Y021428D01*
X007220Y021670D01*
X007536Y021801D01*
X007878Y021801D01*
X008194Y021670D01*
X008436Y021428D01*
X008543Y021171D01*
X009092Y021171D01*
X009361Y021060D01*
X009566Y020855D01*
X009677Y020586D01*
X009677Y020296D01*
X009566Y020028D01*
X009480Y019941D01*
X009566Y019855D01*
X009677Y019586D01*
X009677Y019296D01*
X009566Y019028D01*
X009480Y018941D01*
X009566Y018855D01*
X009677Y018586D01*
X009677Y018296D01*
X009566Y018028D01*
X009480Y017941D01*
X009566Y017855D01*
X009677Y017586D01*
X009677Y017296D01*
X009566Y017028D01*
X009480Y016941D01*
X009566Y016855D01*
X009677Y016586D01*
X009677Y016296D01*
X009566Y016028D01*
X009480Y015941D01*
X009566Y015855D01*
X009677Y015586D01*
X009677Y015296D01*
X009566Y015028D01*
X009480Y014941D01*
X009566Y014855D01*
X009677Y014586D01*
X009677Y014296D01*
X009566Y014028D01*
X009381Y013842D01*
X009447Y013775D01*
X009537Y013559D01*
X009537Y013511D01*
X009594Y013511D01*
X009821Y013511D01*
X010030Y013424D01*
X010776Y012679D01*
X010848Y012855D01*
X010935Y012941D01*
X010848Y013028D01*
X010737Y013296D01*
X010737Y013586D01*
X010848Y013855D01*
X011034Y014040D01*
X010967Y014107D01*
X010877Y014324D01*
X010877Y014441D01*
X011707Y014441D01*
X011707Y014441D01*
X010877Y014441D01*
X010877Y014559D01*
X010967Y014775D01*
X011034Y014842D01*
X010848Y015028D01*
X010737Y015296D01*
X010737Y015586D01*
X010848Y015855D01*
X010935Y015941D01*
X010848Y016028D01*
X010737Y016296D01*
X010737Y016586D01*
X010848Y016855D01*
X010935Y016941D01*
X010848Y017028D01*
X010737Y017296D01*
X010737Y017586D01*
X010848Y017855D01*
X010935Y017941D01*
X010848Y018028D01*
X010737Y018296D01*
X010737Y018586D01*
X010848Y018855D01*
X010935Y018941D01*
X010848Y019028D01*
X010737Y019296D01*
X010737Y019586D01*
X010848Y019855D01*
X010935Y019941D01*
X010848Y020028D01*
X010737Y020296D01*
X010737Y020586D01*
X010848Y020855D01*
X011054Y021060D01*
X011322Y021171D01*
X012092Y021171D01*
X012361Y021060D01*
X012566Y020855D01*
X012677Y020586D01*
X012677Y020296D01*
X012566Y020028D01*
X012480Y019941D01*
X012566Y019855D01*
X012677Y019586D01*
X012677Y019296D01*
X012566Y019028D01*
X012480Y018941D01*
X012566Y018855D01*
X012677Y018586D01*
X012677Y018296D01*
X012566Y018028D01*
X012480Y017941D01*
X012566Y017855D01*
X012677Y017586D01*
X012677Y017296D01*
X012566Y017028D01*
X012480Y016941D01*
X012566Y016855D01*
X012677Y016586D01*
X012677Y016296D01*
X012566Y016028D01*
X012480Y015941D01*
X012566Y015855D01*
X012677Y015586D01*
X012677Y015296D01*
X012566Y015028D01*
X012381Y014842D01*
X012447Y014775D01*
X012537Y014559D01*
X012537Y014441D01*
X011708Y014441D01*
X011708Y014441D01*
X012537Y014441D01*
X012537Y014324D01*
X012447Y014107D01*
X012381Y014040D01*
X012566Y013855D01*
X012677Y013586D01*
X012677Y013564D01*
X012746Y013632D01*
X013045Y013756D01*
X013369Y013756D01*
X013669Y013632D01*
X013806Y013495D01*
X013825Y013513D01*
X014073Y013616D01*
X014207Y013616D01*
X014207Y012942D01*
X014207Y012942D01*
X014207Y013616D01*
X014341Y013616D01*
X014590Y013513D01*
X014779Y013324D01*
X014882Y013076D01*
X014882Y012941D01*
X014208Y012941D01*
X014208Y012941D01*
X014882Y012941D01*
X014882Y012807D01*
X014779Y012559D01*
X014590Y012369D01*
X014341Y012266D01*
X014207Y012266D01*
X014207Y012941D01*
X014207Y012941D01*
X014207Y012266D01*
X014073Y012266D01*
X013825Y012369D01*
X013806Y012388D01*
X013669Y012250D01*
X013526Y012191D01*
X013669Y012132D01*
X013806Y011995D01*
X013825Y012013D01*
X014073Y012116D01*
X014207Y012116D01*
X014207Y011442D01*
X014207Y011442D01*
X014207Y012116D01*
X014341Y012116D01*
X014590Y012013D01*
X014779Y011824D01*
X014882Y011576D01*
X014882Y011441D01*
X014208Y011441D01*
X014208Y011441D01*
X014882Y011441D01*
X014882Y011307D01*
X014779Y011059D01*
X014590Y010869D01*
X014341Y010766D01*
X014207Y010766D01*
X014207Y011441D01*
X014207Y011441D01*
X014207Y010766D01*
X014073Y010766D01*
X013825Y010869D01*
X013806Y010888D01*
X013675Y010756D01*
X013869Y010756D01*
X014169Y010632D01*
X014306Y010495D01*
X014325Y010513D01*
X014573Y010616D01*
X014707Y010616D01*
X014707Y009942D01*
X014707Y009942D01*
X014707Y010616D01*
X014841Y010616D01*
X015090Y010513D01*
X015279Y010324D01*
X015382Y010076D01*
X015382Y009941D01*
X014708Y009941D01*
X014708Y009941D01*
X015382Y009941D01*
X015382Y009807D01*
X015279Y009559D01*
X015090Y009369D01*
X014841Y009266D01*
X014707Y009266D01*
X014707Y009941D01*
X014707Y009941D01*
X014707Y009266D01*
X014573Y009266D01*
X014325Y009369D01*
X014306Y009388D01*
X014169Y009250D01*
X013869Y009126D01*
X013545Y009126D01*
X013246Y009250D01*
X013016Y009480D01*
X012892Y009779D01*
X012892Y010103D01*
X013016Y010403D01*
X013240Y010626D01*
X013194Y010626D01*
X013190Y010618D01*
X012690Y010118D01*
X012530Y009958D01*
X012482Y009938D01*
X012566Y009855D01*
X012677Y009586D01*
X012677Y009296D01*
X012566Y009028D01*
X012480Y008941D01*
X012566Y008855D01*
X012633Y008693D01*
X012785Y008756D01*
X013630Y008756D01*
X013810Y008682D01*
X013933Y008558D01*
X014073Y008616D01*
X014207Y008616D01*
X014207Y007942D01*
X014207Y007942D01*
X014207Y008616D01*
X014341Y008616D01*
X014590Y008513D01*
X014779Y008324D01*
X014882Y008076D01*
X014882Y007941D01*
X014208Y007941D01*
X014208Y007941D01*
X014882Y007941D01*
X014882Y007807D01*
X014779Y007559D01*
X014590Y007369D01*
X014341Y007266D01*
X014207Y007266D01*
X014207Y007941D01*
X014207Y007941D01*
X014207Y007266D01*
X014073Y007266D01*
X013933Y007324D01*
X013810Y007201D01*
X013630Y007126D01*
X012785Y007126D01*
X012633Y007189D01*
X012566Y007028D01*
X012361Y006822D01*
X012092Y006711D01*
X011322Y006711D01*
X011054Y006822D01*
X010848Y007028D01*
X010737Y007296D01*
X010737Y007586D01*
X010848Y007855D01*
X010935Y007941D01*
X010848Y008028D01*
X010737Y008296D01*
X010737Y008586D01*
X010848Y008855D01*
X010935Y008941D01*
X010848Y009028D01*
X010737Y009296D01*
X010737Y009586D01*
X010848Y009855D01*
X010935Y009941D01*
X010848Y010028D01*
X010737Y010296D01*
X010737Y010371D01*
X009677Y010371D01*
X009677Y010296D01*
X009566Y010028D01*
X009480Y009941D01*
X009566Y009855D01*
X009677Y009586D01*
X009677Y009296D01*
X009566Y009028D01*
X009480Y008941D01*
X009566Y008855D01*
X009677Y008586D01*
X009677Y008296D01*
X009566Y008028D01*
X009480Y007941D01*
X009566Y007855D01*
X009677Y007586D01*
X009677Y007296D01*
X009566Y007028D01*
X009361Y006822D01*
X009092Y006711D01*
X008322Y006711D01*
X008054Y006822D01*
X007848Y007028D01*
X007737Y007296D01*
X007737Y007586D01*
X007848Y007855D01*
X007935Y007941D01*
X007848Y008028D01*
X007737Y008296D01*
X007737Y008586D01*
X007848Y008855D01*
X007935Y008941D01*
X007929Y008947D01*
X007694Y008712D01*
X007378Y008581D01*
X007036Y008581D01*
X006720Y008712D01*
X006707Y008725D01*
X006694Y008712D01*
X006378Y008581D01*
X006036Y008581D01*
X005720Y008712D01*
X005571Y008861D01*
X005341Y008766D01*
X005207Y008766D01*
X005207Y009441D01*
X005207Y009441D01*
X005207Y008766D01*
X005073Y008766D01*
X004930Y008825D01*
X005022Y008603D01*
X005022Y008279D01*
X005016Y008265D01*
X005197Y008190D01*
X005456Y007931D01*
X005596Y007593D01*
X005596Y007227D01*
X005468Y006918D01*
X005596Y006609D01*
X005596Y006242D01*
X005456Y005904D01*
X005324Y005773D01*
X005369Y005665D01*
X005478Y005928D01*
X005466Y005928D01*
X005478Y005928D02*
X005720Y006170D01*
X006036Y006301D01*
X006378Y006301D01*
X006694Y006170D01*
X006707Y006157D01*
X006720Y006170D01*
X007036Y006301D01*
X007378Y006301D01*
X007524Y006241D01*
X007560Y006277D01*
X007740Y006351D01*
X008675Y006351D01*
X008855Y006277D01*
X008993Y006139D01*
X009013Y006090D01*
X009064Y006111D01*
X009207Y006111D01*
X009207Y005392D01*
X009207Y005392D01*
X009207Y006111D01*
X009350Y006111D01*
X009535Y006035D01*
X009720Y006220D01*
X010036Y006351D01*
X010378Y006351D01*
X010694Y006220D01*
X010773Y006142D01*
X011036Y006251D01*
X011378Y006251D01*
X011694Y006120D01*
X011936Y005878D01*
X012067Y005562D01*
X012067Y005220D01*
X011936Y004904D01*
X011694Y004662D01*
X011378Y004531D01*
X011036Y004531D01*
X010720Y004662D01*
X010642Y004740D01*
X010378Y004631D01*
X010036Y004631D01*
X009720Y004762D01*
X009658Y004824D01*
X009615Y004781D01*
X009350Y004671D01*
X009207Y004671D01*
X009207Y005391D01*
X009207Y005391D01*
X009207Y004671D01*
X009064Y004671D01*
X008892Y004743D01*
X008855Y004706D01*
X008675Y004631D01*
X007740Y004631D01*
X007619Y004681D01*
X007378Y004581D01*
X007036Y004581D01*
X006720Y004712D01*
X006707Y004725D01*
X006694Y004712D01*
X006378Y004581D01*
X006036Y004581D01*
X005720Y004712D01*
X005478Y004954D01*
X005369Y005218D01*
X005324Y005109D01*
X005456Y004978D01*
X005596Y004640D01*
X005596Y004274D01*
X005468Y003965D01*
X005596Y003656D01*
X005596Y003290D01*
X005456Y002952D01*
X005197Y002693D01*
X004859Y002553D01*
X004493Y002553D01*
X004155Y002693D01*
X003896Y002952D01*
X003756Y003290D01*
X003756Y003656D01*
X003884Y003965D01*
X003756Y004274D01*
X003756Y004640D01*
X003896Y004978D01*
X004027Y005109D01*
X003950Y005297D01*
X003950Y005586D01*
X004027Y005773D01*
X003896Y005904D01*
X003756Y006242D01*
X003756Y006609D01*
X003884Y006918D01*
X003756Y007227D01*
X003756Y007593D01*
X003810Y007724D01*
X003746Y007750D01*
X003707Y007789D01*
X003669Y007750D01*
X003399Y007638D01*
X003433Y007554D01*
X003433Y007265D01*
X003323Y006998D01*
X003119Y006794D01*
X002852Y006684D01*
X002563Y006684D01*
X002296Y006794D01*
X002215Y006875D01*
X002134Y006794D01*
X001867Y006684D01*
X001579Y006684D01*
X001512Y006711D01*
X001512Y004171D01*
X001579Y004199D01*
X001867Y004199D01*
X002134Y004088D01*
X002215Y004008D01*
X002296Y004088D01*
X002563Y004199D01*
X002852Y004199D01*
X003119Y004088D01*
X003323Y003884D01*
X003433Y003617D01*
X003433Y003328D01*
X003323Y003061D01*
X003119Y002857D01*
X002852Y002747D01*
X002563Y002747D01*
X002296Y002857D01*
X002215Y002938D01*
X002134Y002857D01*
X001867Y002747D01*
X001579Y002747D01*
X001512Y002774D01*
X002214Y002937D02*
X002216Y002937D01*
X003198Y002937D02*
X003911Y002937D01*
X003756Y003435D02*
X003433Y003435D01*
X003273Y003934D02*
X003871Y003934D01*
X003756Y004433D02*
X001512Y004433D01*
X001512Y004931D02*
X002114Y004931D01*
X002046Y004999D02*
X002265Y004780D01*
X002552Y004661D01*
X002707Y004661D01*
X002707Y005441D01*
X002707Y005441D01*
X001927Y005441D01*
X001927Y005286D01*
X002046Y004999D01*
X001927Y005430D02*
X001512Y005430D01*
X001512Y005928D02*
X002091Y005928D01*
X002046Y005883D02*
X001927Y005596D01*
X001927Y005441D01*
X002707Y005441D01*
X002707Y005441D01*
X002707Y004661D01*
X002862Y004661D01*
X003149Y004780D01*
X003368Y004999D01*
X003487Y005286D01*
X003487Y005441D01*
X002708Y005441D01*
X002708Y005441D01*
X003487Y005441D01*
X003487Y005596D01*
X003368Y005883D01*
X003149Y006102D01*
X002862Y006221D01*
X002707Y006221D01*
X002552Y006221D01*
X002265Y006102D01*
X002046Y005883D01*
X002707Y005928D02*
X002707Y005928D01*
X002707Y006221D02*
X002707Y005442D01*
X002707Y005442D01*
X002707Y006221D01*
X002707Y005430D02*
X002707Y005430D01*
X002707Y004931D02*
X002707Y004931D01*
X003300Y004931D02*
X003876Y004931D01*
X003950Y005430D02*
X003487Y005430D01*
X003323Y005928D02*
X003886Y005928D01*
X003756Y006427D02*
X001512Y006427D01*
X003250Y006925D02*
X003881Y006925D01*
X003756Y007424D02*
X003433Y007424D01*
X005022Y008421D02*
X007737Y008421D01*
X007902Y008919D02*
X007913Y008919D01*
X007916Y007922D02*
X005459Y007922D01*
X005596Y007424D02*
X007737Y007424D01*
X007951Y006925D02*
X005471Y006925D01*
X005596Y006427D02*
X012674Y006427D01*
X012597Y006349D02*
X012487Y006084D01*
X012487Y005941D01*
X012487Y005798D01*
X012593Y005543D01*
X012478Y005428D01*
X012347Y005112D01*
X012347Y004770D01*
X012478Y004454D01*
X012720Y004212D01*
X013036Y004081D01*
X013378Y004081D01*
X013694Y004212D01*
X013936Y004454D01*
X013989Y004581D01*
X014128Y004581D01*
X014444Y004712D01*
X014568Y004836D01*
X014709Y004695D01*
X015032Y004561D01*
X015382Y004561D01*
X015706Y004695D01*
X015953Y004943D01*
X016087Y005266D01*
X016087Y005616D01*
X015953Y005940D01*
X015706Y006187D01*
X015382Y006321D01*
X015032Y006321D01*
X014709Y006187D01*
X014568Y006047D01*
X014444Y006170D01*
X014128Y006301D01*
X013837Y006301D01*
X013818Y006349D01*
X013615Y006552D01*
X013350Y006661D01*
X013207Y006661D01*
X013064Y006661D01*
X012799Y006552D01*
X012597Y006349D01*
X012487Y005941D02*
X013207Y005941D01*
X012487Y005941D01*
X012487Y005928D02*
X011887Y005928D01*
X012067Y005430D02*
X012479Y005430D01*
X012347Y004931D02*
X011947Y004931D01*
X012500Y004433D02*
X005596Y004433D01*
X005501Y004931D02*
X005475Y004931D01*
X005480Y003934D02*
X019402Y003934D01*
X019402Y003435D02*
X005596Y003435D01*
X005441Y002937D02*
X019402Y002937D01*
X019402Y002438D02*
X019278Y002438D01*
X019402Y004433D02*
X013915Y004433D01*
X013207Y005941D02*
X013207Y005941D01*
X013207Y005942D02*
X013207Y006661D01*
X013207Y005942D01*
X013207Y005942D01*
X013207Y006427D02*
X013207Y006427D01*
X013740Y006427D02*
X019402Y006427D01*
X019402Y005928D02*
X015958Y005928D01*
X016087Y005430D02*
X019402Y005430D01*
X019402Y004931D02*
X015942Y004931D01*
X014644Y007424D02*
X019402Y007424D01*
X019402Y006925D02*
X012464Y006925D01*
X012501Y008919D02*
X019402Y008919D01*
X019402Y008421D02*
X014682Y008421D01*
X014882Y007922D02*
X019402Y007922D01*
X019402Y009418D02*
X015139Y009418D01*
X015382Y009916D02*
X019402Y009916D01*
X019402Y010415D02*
X015188Y010415D01*
X014707Y010415D02*
X014707Y010415D01*
X014634Y010914D02*
X019402Y010914D01*
X019402Y011412D02*
X014882Y011412D01*
X014692Y011911D02*
X019402Y011911D01*
X019402Y012409D02*
X014630Y012409D01*
X014207Y012409D02*
X014207Y012409D01*
X014207Y011911D02*
X014207Y011911D01*
X014207Y011412D02*
X014207Y011412D01*
X014207Y010914D02*
X014207Y010914D01*
X014707Y009916D02*
X014707Y009916D01*
X014707Y009418D02*
X014707Y009418D01*
X014207Y008421D02*
X014207Y008421D01*
X014207Y007922D02*
X014207Y007922D01*
X014207Y007424D02*
X014207Y007424D01*
X013078Y009418D02*
X012677Y009418D01*
X012504Y009916D02*
X012892Y009916D01*
X012987Y010415D02*
X013028Y010415D01*
X014207Y012908D02*
X014207Y012908D01*
X014207Y013406D02*
X014207Y013406D01*
X013869Y014126D02*
X014169Y014250D01*
X014398Y014480D01*
X014457Y014622D01*
X014516Y014480D01*
X014746Y014250D01*
X015045Y014126D01*
X015369Y014126D01*
X015669Y014250D01*
X015806Y014388D01*
X015825Y014369D01*
X016073Y014266D01*
X016207Y014266D01*
X016207Y014941D01*
X016207Y014941D01*
X016207Y014266D01*
X016341Y014266D01*
X016590Y014369D01*
X016779Y014559D01*
X016882Y014807D01*
X016882Y014941D01*
X016208Y014941D01*
X016208Y014941D01*
X016882Y014941D01*
X016882Y015076D01*
X016779Y015324D01*
X016590Y015513D01*
X016341Y015616D01*
X016207Y015616D01*
X016073Y015616D01*
X015825Y015513D01*
X015806Y015495D01*
X015669Y015632D01*
X015369Y015756D01*
X015045Y015756D01*
X014746Y015632D01*
X014516Y015403D01*
X014457Y015260D01*
X014398Y015403D01*
X014169Y015632D01*
X013869Y015756D01*
X013545Y015756D01*
X013246Y015632D01*
X013016Y015403D01*
X012892Y015103D01*
X012892Y014779D01*
X013016Y014480D01*
X013246Y014250D01*
X013545Y014126D01*
X013869Y014126D01*
X014322Y014403D02*
X014592Y014403D01*
X014515Y015400D02*
X014399Y015400D01*
X014169Y016250D02*
X013869Y016126D01*
X013545Y016126D01*
X013246Y016250D01*
X013016Y016480D01*
X012892Y016779D01*
X012892Y017103D01*
X013016Y017403D01*
X013246Y017632D01*
X013545Y017756D01*
X013869Y017756D01*
X014169Y017632D01*
X014398Y017403D01*
X014457Y017260D01*
X014516Y017403D01*
X014746Y017632D01*
X015045Y017756D01*
X015369Y017756D01*
X015669Y017632D01*
X015806Y017495D01*
X015825Y017513D01*
X016073Y017616D01*
X016207Y017616D01*
X016207Y016942D01*
X016207Y016942D01*
X016207Y017616D01*
X016341Y017616D01*
X016590Y017513D01*
X016779Y017324D01*
X016882Y017076D01*
X016882Y016941D01*
X016208Y016941D01*
X016208Y016941D01*
X016882Y016941D01*
X016882Y016807D01*
X016779Y016559D01*
X016590Y016369D01*
X016341Y016266D01*
X016207Y016266D01*
X016207Y016941D01*
X016207Y016941D01*
X016207Y016266D01*
X016073Y016266D01*
X015825Y016369D01*
X015806Y016388D01*
X015669Y016250D01*
X015369Y016126D01*
X015045Y016126D01*
X014746Y016250D01*
X014516Y016480D01*
X014457Y016622D01*
X014398Y016480D01*
X014169Y016250D01*
X014316Y016398D02*
X014598Y016398D01*
X014513Y017395D02*
X014402Y017395D01*
X013098Y016398D02*
X012677Y016398D01*
X012522Y015899D02*
X019402Y015899D01*
X019402Y016398D02*
X016618Y016398D01*
X016207Y016398D02*
X016207Y016398D01*
X016207Y016896D02*
X016207Y016896D01*
X016207Y017395D02*
X016207Y017395D01*
X016708Y017395D02*
X019402Y017395D01*
X019402Y017893D02*
X012528Y017893D01*
X012677Y017395D02*
X013013Y017395D01*
X012892Y016896D02*
X012525Y016896D01*
X012677Y018392D02*
X019402Y018392D01*
X019402Y018890D02*
X012531Y018890D01*
X012677Y019389D02*
X019402Y019389D01*
X019402Y019887D02*
X012533Y019887D01*
X012677Y020386D02*
X019402Y020386D01*
X019402Y020884D02*
X017105Y020884D01*
X017090Y020869D02*
X017279Y021059D01*
X017382Y021307D01*
X017382Y021441D01*
X016708Y021441D01*
X016708Y021441D01*
X017382Y021441D01*
X017382Y021576D01*
X017279Y021824D01*
X017090Y022013D01*
X016841Y022116D01*
X016707Y022116D01*
X016573Y022116D01*
X016433Y022058D01*
X016310Y022182D01*
X016130Y022256D01*
X015285Y022256D01*
X015105Y022182D01*
X014967Y022044D01*
X014892Y021864D01*
X014892Y021019D01*
X014967Y020839D01*
X015105Y020701D01*
X015285Y020626D01*
X016130Y020626D01*
X016310Y020701D01*
X016433Y020824D01*
X016573Y020766D01*
X016707Y020766D01*
X016707Y021441D01*
X016707Y021441D01*
X016707Y020766D01*
X016841Y020766D01*
X017090Y020869D01*
X017382Y021383D02*
X019402Y021383D01*
X019402Y021882D02*
X017221Y021882D01*
X016707Y021882D02*
X016707Y021882D01*
X016707Y022116D02*
X016707Y021442D01*
X016707Y021442D01*
X016707Y022116D01*
X016707Y021383D02*
X016707Y021383D01*
X016707Y020884D02*
X016707Y020884D01*
X014948Y020884D02*
X012536Y020884D01*
X012250Y023651D02*
X013164Y023651D01*
X013455Y023772D01*
X013677Y023994D01*
X013797Y024284D01*
X013797Y024598D01*
X013677Y024889D01*
X013624Y024941D01*
X013677Y024994D01*
X013797Y025284D01*
X013797Y025598D01*
X013677Y025889D01*
X013525Y026040D01*
X013558Y026073D01*
X013657Y026312D01*
X013657Y026441D01*
X012708Y026441D01*
X012708Y026441D01*
X013657Y026441D01*
X013657Y026571D01*
X013558Y026809D01*
X013375Y026992D01*
X013137Y027091D01*
X012707Y027091D01*
X012278Y027091D01*
X012039Y026992D01*
X011856Y026809D01*
X011757Y026571D01*
X011757Y026441D01*
X011757Y026312D01*
X011856Y026073D01*
X011889Y026040D01*
X011738Y025889D01*
X011707Y025816D01*
X011677Y025889D01*
X011525Y026040D01*
X011558Y026073D01*
X011657Y026312D01*
X011657Y026441D01*
X010708Y026441D01*
X010708Y026441D01*
X011657Y026441D01*
X011657Y026571D01*
X011558Y026809D01*
X011375Y026992D01*
X011144Y027088D01*
X011444Y027212D01*
X011457Y027225D01*
X011470Y027212D01*
X011786Y027081D01*
X012128Y027081D01*
X012444Y027212D01*
X012686Y027454D01*
X012817Y027770D01*
X012817Y028081D01*
X012925Y028081D01*
X013105Y028156D01*
X013243Y028294D01*
X013317Y028474D01*
X013317Y029409D01*
X013243Y029589D01*
X013105Y029727D01*
X012925Y029801D01*
X011990Y029801D01*
X011810Y029727D01*
X011809Y029726D01*
X011628Y029801D01*
X011286Y029801D01*
X010970Y029670D01*
X010957Y029657D01*
X010944Y029670D01*
X010628Y029801D01*
X010286Y029801D01*
X009970Y029670D01*
X009957Y029657D01*
X009944Y029670D01*
X009628Y029801D01*
X009286Y029801D01*
X008970Y029670D01*
X008728Y029428D01*
X008597Y029112D01*
X008597Y028770D01*
X008614Y028730D01*
X008470Y028670D01*
X008228Y028428D01*
X008097Y028112D01*
X008097Y027770D01*
X008228Y027454D01*
X008470Y027212D01*
X008762Y027091D01*
X008707Y027091D01*
X008278Y027091D01*
X008039Y026992D01*
X007856Y026809D01*
X007757Y026571D01*
X007757Y026441D01*
X007757Y026312D01*
X007856Y026073D01*
X007889Y026040D01*
X007738Y025889D01*
X007617Y025598D01*
X007617Y025284D01*
X007738Y024994D01*
X007790Y024941D01*
X007738Y024889D01*
X007617Y024598D01*
X007617Y024284D01*
X007738Y023994D01*
X007960Y023772D01*
X008250Y023651D01*
X009164Y023651D01*
X009455Y023772D01*
X009677Y023994D01*
X009707Y024067D01*
X009738Y023994D01*
X009960Y023772D01*
X010250Y023651D01*
X011164Y023651D01*
X011455Y023772D01*
X011677Y023994D01*
X011707Y024067D01*
X011738Y023994D01*
X011960Y023772D01*
X012250Y023651D01*
X011856Y023876D02*
X011559Y023876D01*
X011685Y025870D02*
X011730Y025870D01*
X011757Y026368D02*
X011657Y026368D01*
X011757Y026441D02*
X012707Y026441D01*
X012707Y026441D01*
X011757Y026441D01*
X011914Y026867D02*
X011501Y026867D01*
X010762Y027091D02*
X010707Y027091D01*
X010278Y027091D01*
X010039Y026992D01*
X009856Y026809D01*
X009757Y026571D01*
X009757Y026441D01*
X009757Y026312D01*
X009856Y026073D01*
X009889Y026040D01*
X009738Y025889D01*
X009707Y025816D01*
X009677Y025889D01*
X009525Y026040D01*
X009558Y026073D01*
X009657Y026312D01*
X009657Y026441D01*
X008708Y026441D01*
X008708Y026441D01*
X009657Y026441D01*
X009657Y026571D01*
X009558Y026809D01*
X009375Y026992D01*
X009144Y027088D01*
X009444Y027212D01*
X009457Y027225D01*
X009470Y027212D01*
X009786Y027081D01*
X010128Y027081D01*
X010444Y027212D01*
X010457Y027225D01*
X010470Y027212D01*
X010762Y027091D01*
X010707Y027091D02*
X010707Y026442D01*
X010707Y027091D01*
X010707Y026867D02*
X010707Y026867D01*
X010707Y026442D02*
X010707Y026442D01*
X010707Y026441D02*
X010707Y026441D01*
X009757Y026441D01*
X010707Y026441D01*
X009914Y026867D02*
X009501Y026867D01*
X009657Y026368D02*
X009757Y026368D01*
X009730Y025870D02*
X009685Y025870D01*
X008707Y026442D02*
X008707Y026442D01*
X008707Y027091D01*
X008707Y026442D01*
X008707Y026441D02*
X008707Y026441D01*
X007757Y026441D01*
X008707Y026441D01*
X008707Y026867D02*
X008707Y026867D01*
X008317Y027366D02*
X001512Y027366D01*
X001512Y027864D02*
X008097Y027864D01*
X008201Y028363D02*
X001512Y028363D01*
X001512Y028861D02*
X008597Y028861D01*
X008700Y029360D02*
X001512Y029360D01*
X001512Y029858D02*
X019402Y029858D01*
X019402Y030357D02*
X018939Y030357D01*
X019402Y029360D02*
X013317Y029360D01*
X013317Y028861D02*
X019402Y028861D01*
X019402Y028363D02*
X013271Y028363D01*
X012817Y027864D02*
X019402Y027864D01*
X019402Y027366D02*
X012598Y027366D01*
X012707Y027091D02*
X012707Y026442D01*
X012707Y026442D01*
X012707Y027091D01*
X012707Y026867D02*
X012707Y026867D01*
X013501Y026867D02*
X019402Y026867D01*
X019402Y026368D02*
X013657Y026368D01*
X013685Y025870D02*
X019402Y025870D01*
X019402Y025371D02*
X013797Y025371D01*
X013684Y024873D02*
X019402Y024873D01*
X019402Y024374D02*
X013797Y024374D01*
X013559Y023876D02*
X019402Y023876D01*
X019402Y023377D02*
X001512Y023377D01*
X001512Y023876D02*
X007856Y023876D01*
X007617Y024374D02*
X001512Y024374D01*
X001512Y024873D02*
X007731Y024873D01*
X007617Y025371D02*
X001512Y025371D01*
X001512Y025870D02*
X007730Y025870D01*
X007757Y026368D02*
X001512Y026368D01*
X001512Y026867D02*
X007914Y026867D01*
X009559Y023876D02*
X009856Y023876D01*
X008455Y021383D02*
X014892Y021383D01*
X014900Y021882D02*
X001512Y021882D01*
X001512Y022380D02*
X019402Y022380D01*
X019402Y022879D02*
X001512Y022879D01*
X001512Y021383D02*
X002959Y021383D01*
X002978Y021428D02*
X002847Y021112D01*
X002847Y020770D01*
X002978Y020454D01*
X003220Y020212D01*
X003271Y020191D01*
X003220Y020170D01*
X002978Y019928D01*
X002847Y019612D01*
X002847Y019270D01*
X002978Y018954D01*
X003220Y018712D01*
X003271Y018691D01*
X003220Y018670D01*
X002978Y018428D01*
X002847Y018112D01*
X002847Y017770D01*
X002978Y017454D01*
X003220Y017212D01*
X003536Y017081D01*
X003878Y017081D01*
X004194Y017212D01*
X004436Y017454D01*
X004567Y017770D01*
X004567Y018112D01*
X004436Y018428D01*
X004194Y018670D01*
X004144Y018691D01*
X004194Y018712D01*
X004436Y018954D01*
X004567Y019270D01*
X004567Y019612D01*
X004436Y019928D01*
X004194Y020170D01*
X004144Y020191D01*
X004194Y020212D01*
X004436Y020454D01*
X004567Y020770D01*
X004567Y021112D01*
X004436Y021428D01*
X004194Y021670D01*
X003878Y021801D01*
X003536Y021801D01*
X003220Y021670D01*
X002978Y021428D01*
X002847Y020884D02*
X001512Y020884D01*
X001512Y020386D02*
X003046Y020386D01*
X002961Y019887D02*
X001512Y019887D01*
X001512Y019389D02*
X002847Y019389D01*
X003042Y018890D02*
X001512Y018890D01*
X001512Y018392D02*
X002963Y018392D01*
X002847Y017893D02*
X001512Y017893D01*
X001512Y017395D02*
X003038Y017395D01*
X004377Y017395D02*
X007038Y017395D01*
X006847Y017893D02*
X004567Y017893D01*
X004451Y018392D02*
X006963Y018392D01*
X007042Y018890D02*
X004372Y018890D01*
X004567Y019389D02*
X006847Y019389D01*
X006961Y019887D02*
X004453Y019887D01*
X004368Y020386D02*
X007046Y020386D01*
X006847Y020884D02*
X004567Y020884D01*
X004455Y021383D02*
X006959Y021383D01*
X007890Y016896D02*
X001512Y016896D01*
X001512Y016398D02*
X007737Y016398D01*
X007893Y015899D02*
X001512Y015899D01*
X001512Y015400D02*
X007737Y015400D01*
X007896Y014902D02*
X006899Y014902D01*
X007022Y014403D02*
X007737Y014403D01*
X007698Y013905D02*
X007971Y013905D01*
X007207Y013905D02*
X007207Y013905D01*
X005207Y013905D02*
X005207Y013905D01*
X005207Y014403D02*
X005207Y014403D01*
X005207Y014902D02*
X005207Y014902D01*
X004713Y014902D02*
X001512Y014902D01*
X002947Y014403D02*
X004532Y014403D01*
X005207Y009418D02*
X005207Y009418D01*
X005207Y008919D02*
X005207Y008919D01*
X009207Y005928D02*
X009207Y005928D01*
X009207Y005430D02*
X009207Y005430D01*
X009207Y004931D02*
X009207Y004931D01*
X009464Y006925D02*
X010951Y006925D01*
X010737Y007424D02*
X009677Y007424D01*
X009499Y007922D02*
X010916Y007922D01*
X010737Y008421D02*
X009677Y008421D01*
X009501Y008919D02*
X010913Y008919D01*
X010737Y009418D02*
X009677Y009418D01*
X009504Y009916D02*
X010910Y009916D01*
X010901Y012908D02*
X010547Y012908D01*
X010737Y013406D02*
X010048Y013406D01*
X009443Y013905D02*
X010899Y013905D01*
X010877Y014403D02*
X009677Y014403D01*
X009519Y014902D02*
X010974Y014902D01*
X010737Y015400D02*
X009677Y015400D01*
X009522Y015899D02*
X010893Y015899D01*
X010737Y016398D02*
X009677Y016398D01*
X009525Y016896D02*
X010890Y016896D01*
X010737Y017395D02*
X009677Y017395D01*
X009528Y017893D02*
X010887Y017893D01*
X010737Y018392D02*
X009677Y018392D01*
X009531Y018890D02*
X010884Y018890D01*
X010737Y019389D02*
X009677Y019389D01*
X009533Y019887D02*
X010881Y019887D01*
X010737Y020386D02*
X009677Y020386D01*
X009536Y020884D02*
X010878Y020884D01*
X012677Y015400D02*
X013015Y015400D01*
X012892Y014902D02*
X012440Y014902D01*
X012537Y014403D02*
X013092Y014403D01*
X012516Y013905D02*
X019402Y013905D01*
X019402Y013406D02*
X014697Y013406D01*
X014882Y012908D02*
X019402Y012908D01*
X019402Y014403D02*
X016624Y014403D01*
X016207Y014403D02*
X016207Y014403D01*
X016207Y014902D02*
X016207Y014902D01*
X016207Y014942D02*
X016207Y015616D01*
X016207Y014942D01*
X016207Y014942D01*
X016207Y015400D02*
X016207Y015400D01*
X016703Y015400D02*
X019402Y015400D01*
X019402Y014902D02*
X016882Y014902D01*
X016882Y016896D02*
X019402Y016896D01*
X018075Y030357D02*
X013237Y030357D01*
X012677Y030357D02*
X008737Y030357D01*
X008177Y030357D02*
X002639Y030357D01*
X003266Y030855D02*
X007502Y030855D01*
X007337Y031354D02*
X003467Y031354D01*
X003431Y031852D02*
X007408Y031852D01*
X009412Y030855D02*
X012002Y030855D01*
X011837Y031354D02*
X009577Y031354D01*
X009506Y031852D02*
X011908Y031852D01*
X014006Y031852D02*
X017284Y031852D01*
X017247Y031354D02*
X014077Y031354D01*
X013912Y030855D02*
X017448Y030855D01*
X001775Y030357D02*
X001512Y030357D01*
X017605Y002343D02*
X017371Y002020D01*
X017371Y002020D01*
D22*
X012207Y010441D02*
X012707Y010941D01*
X012707Y011441D01*
X012207Y011941D01*
X010707Y011941D01*
X009707Y012941D01*
X006707Y012941D01*
X006207Y012441D01*
X003707Y012441D01*
X003207Y012941D01*
X003207Y013441D01*
X005207Y010941D02*
X005207Y010441D01*
X005207Y010941D02*
X005707Y011441D01*
X006707Y011441D01*
X007207Y010941D01*
X010707Y010941D01*
X011207Y011441D01*
X011707Y011441D01*
X011707Y010441D02*
X012207Y010441D01*
M02*
