G75*
G70*
%OFA0B0*%
%FSLAX24Y24*%
%IPPOS*%
%LPD*%
%AMOC8*
5,1,8,0,0,1.08239X$1,22.5*
%
%ADD10C,0.0000*%
D10*
X000100Y003162D02*
X000100Y034392D01*
X043930Y034392D01*
X043930Y003162D01*
X000100Y003162D01*
X000680Y004392D02*
X000682Y004442D01*
X000688Y004492D01*
X000698Y004542D01*
X000711Y004590D01*
X000728Y004638D01*
X000749Y004684D01*
X000773Y004728D01*
X000801Y004770D01*
X000832Y004810D01*
X000866Y004847D01*
X000903Y004882D01*
X000942Y004913D01*
X000983Y004942D01*
X001027Y004967D01*
X001073Y004989D01*
X001120Y005007D01*
X001168Y005021D01*
X001217Y005032D01*
X001267Y005039D01*
X001317Y005042D01*
X001368Y005041D01*
X001418Y005036D01*
X001468Y005027D01*
X001516Y005015D01*
X001564Y004998D01*
X001610Y004978D01*
X001655Y004955D01*
X001698Y004928D01*
X001738Y004898D01*
X001776Y004865D01*
X001811Y004829D01*
X001844Y004790D01*
X001873Y004749D01*
X001899Y004706D01*
X001922Y004661D01*
X001941Y004614D01*
X001956Y004566D01*
X001968Y004517D01*
X001976Y004467D01*
X001980Y004417D01*
X001980Y004367D01*
X001976Y004317D01*
X001968Y004267D01*
X001956Y004218D01*
X001941Y004170D01*
X001922Y004123D01*
X001899Y004078D01*
X001873Y004035D01*
X001844Y003994D01*
X001811Y003955D01*
X001776Y003919D01*
X001738Y003886D01*
X001698Y003856D01*
X001655Y003829D01*
X001610Y003806D01*
X001564Y003786D01*
X001516Y003769D01*
X001468Y003757D01*
X001418Y003748D01*
X001368Y003743D01*
X001317Y003742D01*
X001267Y003745D01*
X001217Y003752D01*
X001168Y003763D01*
X001120Y003777D01*
X001073Y003795D01*
X001027Y003817D01*
X000983Y003842D01*
X000942Y003871D01*
X000903Y003902D01*
X000866Y003937D01*
X000832Y003974D01*
X000801Y004014D01*
X000773Y004056D01*
X000749Y004100D01*
X000728Y004146D01*
X000711Y004194D01*
X000698Y004242D01*
X000688Y004292D01*
X000682Y004342D01*
X000680Y004392D01*
X002950Y004392D02*
X002952Y004442D01*
X002958Y004492D01*
X002968Y004541D01*
X002982Y004589D01*
X002999Y004636D01*
X003020Y004681D01*
X003045Y004725D01*
X003073Y004766D01*
X003105Y004805D01*
X003139Y004842D01*
X003176Y004876D01*
X003216Y004906D01*
X003258Y004933D01*
X003302Y004957D01*
X003348Y004978D01*
X003395Y004994D01*
X003443Y005007D01*
X003493Y005016D01*
X003542Y005021D01*
X003593Y005022D01*
X003643Y005019D01*
X003692Y005012D01*
X003741Y005001D01*
X003789Y004986D01*
X003835Y004968D01*
X003880Y004946D01*
X003923Y004920D01*
X003964Y004891D01*
X004003Y004859D01*
X004039Y004824D01*
X004071Y004786D01*
X004101Y004746D01*
X004128Y004703D01*
X004151Y004659D01*
X004170Y004613D01*
X004186Y004565D01*
X004198Y004516D01*
X004206Y004467D01*
X004210Y004417D01*
X004210Y004367D01*
X004206Y004317D01*
X004198Y004268D01*
X004186Y004219D01*
X004170Y004171D01*
X004151Y004125D01*
X004128Y004081D01*
X004101Y004038D01*
X004071Y003998D01*
X004039Y003960D01*
X004003Y003925D01*
X003964Y003893D01*
X003923Y003864D01*
X003880Y003838D01*
X003835Y003816D01*
X003789Y003798D01*
X003741Y003783D01*
X003692Y003772D01*
X003643Y003765D01*
X003593Y003762D01*
X003542Y003763D01*
X003493Y003768D01*
X003443Y003777D01*
X003395Y003790D01*
X003348Y003806D01*
X003302Y003827D01*
X003258Y003851D01*
X003216Y003878D01*
X003176Y003908D01*
X003139Y003942D01*
X003105Y003979D01*
X003073Y004018D01*
X003045Y004059D01*
X003020Y004103D01*
X002999Y004148D01*
X002982Y004195D01*
X002968Y004243D01*
X002958Y004292D01*
X002952Y004342D01*
X002950Y004392D01*
X007450Y004392D02*
X007452Y004442D01*
X007458Y004492D01*
X007468Y004541D01*
X007482Y004589D01*
X007499Y004636D01*
X007520Y004681D01*
X007545Y004725D01*
X007573Y004766D01*
X007605Y004805D01*
X007639Y004842D01*
X007676Y004876D01*
X007716Y004906D01*
X007758Y004933D01*
X007802Y004957D01*
X007848Y004978D01*
X007895Y004994D01*
X007943Y005007D01*
X007993Y005016D01*
X008042Y005021D01*
X008093Y005022D01*
X008143Y005019D01*
X008192Y005012D01*
X008241Y005001D01*
X008289Y004986D01*
X008335Y004968D01*
X008380Y004946D01*
X008423Y004920D01*
X008464Y004891D01*
X008503Y004859D01*
X008539Y004824D01*
X008571Y004786D01*
X008601Y004746D01*
X008628Y004703D01*
X008651Y004659D01*
X008670Y004613D01*
X008686Y004565D01*
X008698Y004516D01*
X008706Y004467D01*
X008710Y004417D01*
X008710Y004367D01*
X008706Y004317D01*
X008698Y004268D01*
X008686Y004219D01*
X008670Y004171D01*
X008651Y004125D01*
X008628Y004081D01*
X008601Y004038D01*
X008571Y003998D01*
X008539Y003960D01*
X008503Y003925D01*
X008464Y003893D01*
X008423Y003864D01*
X008380Y003838D01*
X008335Y003816D01*
X008289Y003798D01*
X008241Y003783D01*
X008192Y003772D01*
X008143Y003765D01*
X008093Y003762D01*
X008042Y003763D01*
X007993Y003768D01*
X007943Y003777D01*
X007895Y003790D01*
X007848Y003806D01*
X007802Y003827D01*
X007758Y003851D01*
X007716Y003878D01*
X007676Y003908D01*
X007639Y003942D01*
X007605Y003979D01*
X007573Y004018D01*
X007545Y004059D01*
X007520Y004103D01*
X007499Y004148D01*
X007482Y004195D01*
X007468Y004243D01*
X007458Y004292D01*
X007452Y004342D01*
X007450Y004392D01*
X008950Y004392D02*
X008952Y004442D01*
X008958Y004492D01*
X008968Y004541D01*
X008982Y004589D01*
X008999Y004636D01*
X009020Y004681D01*
X009045Y004725D01*
X009073Y004766D01*
X009105Y004805D01*
X009139Y004842D01*
X009176Y004876D01*
X009216Y004906D01*
X009258Y004933D01*
X009302Y004957D01*
X009348Y004978D01*
X009395Y004994D01*
X009443Y005007D01*
X009493Y005016D01*
X009542Y005021D01*
X009593Y005022D01*
X009643Y005019D01*
X009692Y005012D01*
X009741Y005001D01*
X009789Y004986D01*
X009835Y004968D01*
X009880Y004946D01*
X009923Y004920D01*
X009964Y004891D01*
X010003Y004859D01*
X010039Y004824D01*
X010071Y004786D01*
X010101Y004746D01*
X010128Y004703D01*
X010151Y004659D01*
X010170Y004613D01*
X010186Y004565D01*
X010198Y004516D01*
X010206Y004467D01*
X010210Y004417D01*
X010210Y004367D01*
X010206Y004317D01*
X010198Y004268D01*
X010186Y004219D01*
X010170Y004171D01*
X010151Y004125D01*
X010128Y004081D01*
X010101Y004038D01*
X010071Y003998D01*
X010039Y003960D01*
X010003Y003925D01*
X009964Y003893D01*
X009923Y003864D01*
X009880Y003838D01*
X009835Y003816D01*
X009789Y003798D01*
X009741Y003783D01*
X009692Y003772D01*
X009643Y003765D01*
X009593Y003762D01*
X009542Y003763D01*
X009493Y003768D01*
X009443Y003777D01*
X009395Y003790D01*
X009348Y003806D01*
X009302Y003827D01*
X009258Y003851D01*
X009216Y003878D01*
X009176Y003908D01*
X009139Y003942D01*
X009105Y003979D01*
X009073Y004018D01*
X009045Y004059D01*
X009020Y004103D01*
X008999Y004148D01*
X008982Y004195D01*
X008968Y004243D01*
X008958Y004292D01*
X008952Y004342D01*
X008950Y004392D01*
X013450Y004392D02*
X013452Y004442D01*
X013458Y004492D01*
X013468Y004541D01*
X013482Y004589D01*
X013499Y004636D01*
X013520Y004681D01*
X013545Y004725D01*
X013573Y004766D01*
X013605Y004805D01*
X013639Y004842D01*
X013676Y004876D01*
X013716Y004906D01*
X013758Y004933D01*
X013802Y004957D01*
X013848Y004978D01*
X013895Y004994D01*
X013943Y005007D01*
X013993Y005016D01*
X014042Y005021D01*
X014093Y005022D01*
X014143Y005019D01*
X014192Y005012D01*
X014241Y005001D01*
X014289Y004986D01*
X014335Y004968D01*
X014380Y004946D01*
X014423Y004920D01*
X014464Y004891D01*
X014503Y004859D01*
X014539Y004824D01*
X014571Y004786D01*
X014601Y004746D01*
X014628Y004703D01*
X014651Y004659D01*
X014670Y004613D01*
X014686Y004565D01*
X014698Y004516D01*
X014706Y004467D01*
X014710Y004417D01*
X014710Y004367D01*
X014706Y004317D01*
X014698Y004268D01*
X014686Y004219D01*
X014670Y004171D01*
X014651Y004125D01*
X014628Y004081D01*
X014601Y004038D01*
X014571Y003998D01*
X014539Y003960D01*
X014503Y003925D01*
X014464Y003893D01*
X014423Y003864D01*
X014380Y003838D01*
X014335Y003816D01*
X014289Y003798D01*
X014241Y003783D01*
X014192Y003772D01*
X014143Y003765D01*
X014093Y003762D01*
X014042Y003763D01*
X013993Y003768D01*
X013943Y003777D01*
X013895Y003790D01*
X013848Y003806D01*
X013802Y003827D01*
X013758Y003851D01*
X013716Y003878D01*
X013676Y003908D01*
X013639Y003942D01*
X013605Y003979D01*
X013573Y004018D01*
X013545Y004059D01*
X013520Y004103D01*
X013499Y004148D01*
X013482Y004195D01*
X013468Y004243D01*
X013458Y004292D01*
X013452Y004342D01*
X013450Y004392D01*
X014950Y004392D02*
X014952Y004442D01*
X014958Y004492D01*
X014968Y004541D01*
X014982Y004589D01*
X014999Y004636D01*
X015020Y004681D01*
X015045Y004725D01*
X015073Y004766D01*
X015105Y004805D01*
X015139Y004842D01*
X015176Y004876D01*
X015216Y004906D01*
X015258Y004933D01*
X015302Y004957D01*
X015348Y004978D01*
X015395Y004994D01*
X015443Y005007D01*
X015493Y005016D01*
X015542Y005021D01*
X015593Y005022D01*
X015643Y005019D01*
X015692Y005012D01*
X015741Y005001D01*
X015789Y004986D01*
X015835Y004968D01*
X015880Y004946D01*
X015923Y004920D01*
X015964Y004891D01*
X016003Y004859D01*
X016039Y004824D01*
X016071Y004786D01*
X016101Y004746D01*
X016128Y004703D01*
X016151Y004659D01*
X016170Y004613D01*
X016186Y004565D01*
X016198Y004516D01*
X016206Y004467D01*
X016210Y004417D01*
X016210Y004367D01*
X016206Y004317D01*
X016198Y004268D01*
X016186Y004219D01*
X016170Y004171D01*
X016151Y004125D01*
X016128Y004081D01*
X016101Y004038D01*
X016071Y003998D01*
X016039Y003960D01*
X016003Y003925D01*
X015964Y003893D01*
X015923Y003864D01*
X015880Y003838D01*
X015835Y003816D01*
X015789Y003798D01*
X015741Y003783D01*
X015692Y003772D01*
X015643Y003765D01*
X015593Y003762D01*
X015542Y003763D01*
X015493Y003768D01*
X015443Y003777D01*
X015395Y003790D01*
X015348Y003806D01*
X015302Y003827D01*
X015258Y003851D01*
X015216Y003878D01*
X015176Y003908D01*
X015139Y003942D01*
X015105Y003979D01*
X015073Y004018D01*
X015045Y004059D01*
X015020Y004103D01*
X014999Y004148D01*
X014982Y004195D01*
X014968Y004243D01*
X014958Y004292D01*
X014952Y004342D01*
X014950Y004392D01*
X019450Y004392D02*
X019452Y004442D01*
X019458Y004492D01*
X019468Y004541D01*
X019482Y004589D01*
X019499Y004636D01*
X019520Y004681D01*
X019545Y004725D01*
X019573Y004766D01*
X019605Y004805D01*
X019639Y004842D01*
X019676Y004876D01*
X019716Y004906D01*
X019758Y004933D01*
X019802Y004957D01*
X019848Y004978D01*
X019895Y004994D01*
X019943Y005007D01*
X019993Y005016D01*
X020042Y005021D01*
X020093Y005022D01*
X020143Y005019D01*
X020192Y005012D01*
X020241Y005001D01*
X020289Y004986D01*
X020335Y004968D01*
X020380Y004946D01*
X020423Y004920D01*
X020464Y004891D01*
X020503Y004859D01*
X020539Y004824D01*
X020571Y004786D01*
X020601Y004746D01*
X020628Y004703D01*
X020651Y004659D01*
X020670Y004613D01*
X020686Y004565D01*
X020698Y004516D01*
X020706Y004467D01*
X020710Y004417D01*
X020710Y004367D01*
X020706Y004317D01*
X020698Y004268D01*
X020686Y004219D01*
X020670Y004171D01*
X020651Y004125D01*
X020628Y004081D01*
X020601Y004038D01*
X020571Y003998D01*
X020539Y003960D01*
X020503Y003925D01*
X020464Y003893D01*
X020423Y003864D01*
X020380Y003838D01*
X020335Y003816D01*
X020289Y003798D01*
X020241Y003783D01*
X020192Y003772D01*
X020143Y003765D01*
X020093Y003762D01*
X020042Y003763D01*
X019993Y003768D01*
X019943Y003777D01*
X019895Y003790D01*
X019848Y003806D01*
X019802Y003827D01*
X019758Y003851D01*
X019716Y003878D01*
X019676Y003908D01*
X019639Y003942D01*
X019605Y003979D01*
X019573Y004018D01*
X019545Y004059D01*
X019520Y004103D01*
X019499Y004148D01*
X019482Y004195D01*
X019468Y004243D01*
X019458Y004292D01*
X019452Y004342D01*
X019450Y004392D01*
X020950Y004392D02*
X020952Y004442D01*
X020958Y004492D01*
X020968Y004541D01*
X020982Y004589D01*
X020999Y004636D01*
X021020Y004681D01*
X021045Y004725D01*
X021073Y004766D01*
X021105Y004805D01*
X021139Y004842D01*
X021176Y004876D01*
X021216Y004906D01*
X021258Y004933D01*
X021302Y004957D01*
X021348Y004978D01*
X021395Y004994D01*
X021443Y005007D01*
X021493Y005016D01*
X021542Y005021D01*
X021593Y005022D01*
X021643Y005019D01*
X021692Y005012D01*
X021741Y005001D01*
X021789Y004986D01*
X021835Y004968D01*
X021880Y004946D01*
X021923Y004920D01*
X021964Y004891D01*
X022003Y004859D01*
X022039Y004824D01*
X022071Y004786D01*
X022101Y004746D01*
X022128Y004703D01*
X022151Y004659D01*
X022170Y004613D01*
X022186Y004565D01*
X022198Y004516D01*
X022206Y004467D01*
X022210Y004417D01*
X022210Y004367D01*
X022206Y004317D01*
X022198Y004268D01*
X022186Y004219D01*
X022170Y004171D01*
X022151Y004125D01*
X022128Y004081D01*
X022101Y004038D01*
X022071Y003998D01*
X022039Y003960D01*
X022003Y003925D01*
X021964Y003893D01*
X021923Y003864D01*
X021880Y003838D01*
X021835Y003816D01*
X021789Y003798D01*
X021741Y003783D01*
X021692Y003772D01*
X021643Y003765D01*
X021593Y003762D01*
X021542Y003763D01*
X021493Y003768D01*
X021443Y003777D01*
X021395Y003790D01*
X021348Y003806D01*
X021302Y003827D01*
X021258Y003851D01*
X021216Y003878D01*
X021176Y003908D01*
X021139Y003942D01*
X021105Y003979D01*
X021073Y004018D01*
X021045Y004059D01*
X021020Y004103D01*
X020999Y004148D01*
X020982Y004195D01*
X020968Y004243D01*
X020958Y004292D01*
X020952Y004342D01*
X020950Y004392D01*
X025450Y004392D02*
X025452Y004442D01*
X025458Y004492D01*
X025468Y004541D01*
X025482Y004589D01*
X025499Y004636D01*
X025520Y004681D01*
X025545Y004725D01*
X025573Y004766D01*
X025605Y004805D01*
X025639Y004842D01*
X025676Y004876D01*
X025716Y004906D01*
X025758Y004933D01*
X025802Y004957D01*
X025848Y004978D01*
X025895Y004994D01*
X025943Y005007D01*
X025993Y005016D01*
X026042Y005021D01*
X026093Y005022D01*
X026143Y005019D01*
X026192Y005012D01*
X026241Y005001D01*
X026289Y004986D01*
X026335Y004968D01*
X026380Y004946D01*
X026423Y004920D01*
X026464Y004891D01*
X026503Y004859D01*
X026539Y004824D01*
X026571Y004786D01*
X026601Y004746D01*
X026628Y004703D01*
X026651Y004659D01*
X026670Y004613D01*
X026686Y004565D01*
X026698Y004516D01*
X026706Y004467D01*
X026710Y004417D01*
X026710Y004367D01*
X026706Y004317D01*
X026698Y004268D01*
X026686Y004219D01*
X026670Y004171D01*
X026651Y004125D01*
X026628Y004081D01*
X026601Y004038D01*
X026571Y003998D01*
X026539Y003960D01*
X026503Y003925D01*
X026464Y003893D01*
X026423Y003864D01*
X026380Y003838D01*
X026335Y003816D01*
X026289Y003798D01*
X026241Y003783D01*
X026192Y003772D01*
X026143Y003765D01*
X026093Y003762D01*
X026042Y003763D01*
X025993Y003768D01*
X025943Y003777D01*
X025895Y003790D01*
X025848Y003806D01*
X025802Y003827D01*
X025758Y003851D01*
X025716Y003878D01*
X025676Y003908D01*
X025639Y003942D01*
X025605Y003979D01*
X025573Y004018D01*
X025545Y004059D01*
X025520Y004103D01*
X025499Y004148D01*
X025482Y004195D01*
X025468Y004243D01*
X025458Y004292D01*
X025452Y004342D01*
X025450Y004392D01*
X026950Y004392D02*
X026952Y004442D01*
X026958Y004492D01*
X026968Y004541D01*
X026982Y004589D01*
X026999Y004636D01*
X027020Y004681D01*
X027045Y004725D01*
X027073Y004766D01*
X027105Y004805D01*
X027139Y004842D01*
X027176Y004876D01*
X027216Y004906D01*
X027258Y004933D01*
X027302Y004957D01*
X027348Y004978D01*
X027395Y004994D01*
X027443Y005007D01*
X027493Y005016D01*
X027542Y005021D01*
X027593Y005022D01*
X027643Y005019D01*
X027692Y005012D01*
X027741Y005001D01*
X027789Y004986D01*
X027835Y004968D01*
X027880Y004946D01*
X027923Y004920D01*
X027964Y004891D01*
X028003Y004859D01*
X028039Y004824D01*
X028071Y004786D01*
X028101Y004746D01*
X028128Y004703D01*
X028151Y004659D01*
X028170Y004613D01*
X028186Y004565D01*
X028198Y004516D01*
X028206Y004467D01*
X028210Y004417D01*
X028210Y004367D01*
X028206Y004317D01*
X028198Y004268D01*
X028186Y004219D01*
X028170Y004171D01*
X028151Y004125D01*
X028128Y004081D01*
X028101Y004038D01*
X028071Y003998D01*
X028039Y003960D01*
X028003Y003925D01*
X027964Y003893D01*
X027923Y003864D01*
X027880Y003838D01*
X027835Y003816D01*
X027789Y003798D01*
X027741Y003783D01*
X027692Y003772D01*
X027643Y003765D01*
X027593Y003762D01*
X027542Y003763D01*
X027493Y003768D01*
X027443Y003777D01*
X027395Y003790D01*
X027348Y003806D01*
X027302Y003827D01*
X027258Y003851D01*
X027216Y003878D01*
X027176Y003908D01*
X027139Y003942D01*
X027105Y003979D01*
X027073Y004018D01*
X027045Y004059D01*
X027020Y004103D01*
X026999Y004148D01*
X026982Y004195D01*
X026968Y004243D01*
X026958Y004292D01*
X026952Y004342D01*
X026950Y004392D01*
X031450Y004392D02*
X031452Y004442D01*
X031458Y004492D01*
X031468Y004541D01*
X031482Y004589D01*
X031499Y004636D01*
X031520Y004681D01*
X031545Y004725D01*
X031573Y004766D01*
X031605Y004805D01*
X031639Y004842D01*
X031676Y004876D01*
X031716Y004906D01*
X031758Y004933D01*
X031802Y004957D01*
X031848Y004978D01*
X031895Y004994D01*
X031943Y005007D01*
X031993Y005016D01*
X032042Y005021D01*
X032093Y005022D01*
X032143Y005019D01*
X032192Y005012D01*
X032241Y005001D01*
X032289Y004986D01*
X032335Y004968D01*
X032380Y004946D01*
X032423Y004920D01*
X032464Y004891D01*
X032503Y004859D01*
X032539Y004824D01*
X032571Y004786D01*
X032601Y004746D01*
X032628Y004703D01*
X032651Y004659D01*
X032670Y004613D01*
X032686Y004565D01*
X032698Y004516D01*
X032706Y004467D01*
X032710Y004417D01*
X032710Y004367D01*
X032706Y004317D01*
X032698Y004268D01*
X032686Y004219D01*
X032670Y004171D01*
X032651Y004125D01*
X032628Y004081D01*
X032601Y004038D01*
X032571Y003998D01*
X032539Y003960D01*
X032503Y003925D01*
X032464Y003893D01*
X032423Y003864D01*
X032380Y003838D01*
X032335Y003816D01*
X032289Y003798D01*
X032241Y003783D01*
X032192Y003772D01*
X032143Y003765D01*
X032093Y003762D01*
X032042Y003763D01*
X031993Y003768D01*
X031943Y003777D01*
X031895Y003790D01*
X031848Y003806D01*
X031802Y003827D01*
X031758Y003851D01*
X031716Y003878D01*
X031676Y003908D01*
X031639Y003942D01*
X031605Y003979D01*
X031573Y004018D01*
X031545Y004059D01*
X031520Y004103D01*
X031499Y004148D01*
X031482Y004195D01*
X031468Y004243D01*
X031458Y004292D01*
X031452Y004342D01*
X031450Y004392D01*
X042020Y004392D02*
X042022Y004442D01*
X042028Y004492D01*
X042038Y004542D01*
X042051Y004590D01*
X042068Y004638D01*
X042089Y004684D01*
X042113Y004728D01*
X042141Y004770D01*
X042172Y004810D01*
X042206Y004847D01*
X042243Y004882D01*
X042282Y004913D01*
X042323Y004942D01*
X042367Y004967D01*
X042413Y004989D01*
X042460Y005007D01*
X042508Y005021D01*
X042557Y005032D01*
X042607Y005039D01*
X042657Y005042D01*
X042708Y005041D01*
X042758Y005036D01*
X042808Y005027D01*
X042856Y005015D01*
X042904Y004998D01*
X042950Y004978D01*
X042995Y004955D01*
X043038Y004928D01*
X043078Y004898D01*
X043116Y004865D01*
X043151Y004829D01*
X043184Y004790D01*
X043213Y004749D01*
X043239Y004706D01*
X043262Y004661D01*
X043281Y004614D01*
X043296Y004566D01*
X043308Y004517D01*
X043316Y004467D01*
X043320Y004417D01*
X043320Y004367D01*
X043316Y004317D01*
X043308Y004267D01*
X043296Y004218D01*
X043281Y004170D01*
X043262Y004123D01*
X043239Y004078D01*
X043213Y004035D01*
X043184Y003994D01*
X043151Y003955D01*
X043116Y003919D01*
X043078Y003886D01*
X043038Y003856D01*
X042995Y003829D01*
X042950Y003806D01*
X042904Y003786D01*
X042856Y003769D01*
X042808Y003757D01*
X042758Y003748D01*
X042708Y003743D01*
X042657Y003742D01*
X042607Y003745D01*
X042557Y003752D01*
X042508Y003763D01*
X042460Y003777D01*
X042413Y003795D01*
X042367Y003817D01*
X042323Y003842D01*
X042282Y003871D01*
X042243Y003902D01*
X042206Y003937D01*
X042172Y003974D01*
X042141Y004014D01*
X042113Y004056D01*
X042089Y004100D01*
X042068Y004146D01*
X042051Y004194D01*
X042038Y004242D01*
X042028Y004292D01*
X042022Y004342D01*
X042020Y004392D01*
X038594Y030923D02*
X038596Y030953D01*
X038602Y030983D01*
X038611Y031012D01*
X038624Y031039D01*
X038641Y031064D01*
X038660Y031087D01*
X038683Y031108D01*
X038708Y031125D01*
X038734Y031139D01*
X038763Y031149D01*
X038792Y031156D01*
X038822Y031159D01*
X038853Y031158D01*
X038883Y031153D01*
X038912Y031144D01*
X038939Y031132D01*
X038965Y031117D01*
X038989Y031098D01*
X039010Y031076D01*
X039028Y031052D01*
X039043Y031025D01*
X039054Y030997D01*
X039062Y030968D01*
X039066Y030938D01*
X039066Y030908D01*
X039062Y030878D01*
X039054Y030849D01*
X039043Y030821D01*
X039028Y030794D01*
X039010Y030770D01*
X038989Y030748D01*
X038965Y030729D01*
X038939Y030714D01*
X038912Y030702D01*
X038883Y030693D01*
X038853Y030688D01*
X038822Y030687D01*
X038792Y030690D01*
X038763Y030697D01*
X038734Y030707D01*
X038708Y030721D01*
X038683Y030738D01*
X038660Y030759D01*
X038641Y030782D01*
X038624Y030807D01*
X038611Y030834D01*
X038602Y030863D01*
X038596Y030893D01*
X038594Y030923D01*
X036625Y032892D02*
X036627Y032922D01*
X036633Y032952D01*
X036642Y032981D01*
X036655Y033008D01*
X036672Y033033D01*
X036691Y033056D01*
X036714Y033077D01*
X036739Y033094D01*
X036765Y033108D01*
X036794Y033118D01*
X036823Y033125D01*
X036853Y033128D01*
X036884Y033127D01*
X036914Y033122D01*
X036943Y033113D01*
X036970Y033101D01*
X036996Y033086D01*
X037020Y033067D01*
X037041Y033045D01*
X037059Y033021D01*
X037074Y032994D01*
X037085Y032966D01*
X037093Y032937D01*
X037097Y032907D01*
X037097Y032877D01*
X037093Y032847D01*
X037085Y032818D01*
X037074Y032790D01*
X037059Y032763D01*
X037041Y032739D01*
X037020Y032717D01*
X036996Y032698D01*
X036970Y032683D01*
X036943Y032671D01*
X036914Y032662D01*
X036884Y032657D01*
X036853Y032656D01*
X036823Y032659D01*
X036794Y032666D01*
X036765Y032676D01*
X036739Y032690D01*
X036714Y032707D01*
X036691Y032728D01*
X036672Y032751D01*
X036655Y032776D01*
X036642Y032803D01*
X036633Y032832D01*
X036627Y032862D01*
X036625Y032892D01*
X036625Y033876D02*
X036627Y033906D01*
X036633Y033936D01*
X036642Y033965D01*
X036655Y033992D01*
X036672Y034017D01*
X036691Y034040D01*
X036714Y034061D01*
X036739Y034078D01*
X036765Y034092D01*
X036794Y034102D01*
X036823Y034109D01*
X036853Y034112D01*
X036884Y034111D01*
X036914Y034106D01*
X036943Y034097D01*
X036970Y034085D01*
X036996Y034070D01*
X037020Y034051D01*
X037041Y034029D01*
X037059Y034005D01*
X037074Y033978D01*
X037085Y033950D01*
X037093Y033921D01*
X037097Y033891D01*
X037097Y033861D01*
X037093Y033831D01*
X037085Y033802D01*
X037074Y033774D01*
X037059Y033747D01*
X037041Y033723D01*
X037020Y033701D01*
X036996Y033682D01*
X036970Y033667D01*
X036943Y033655D01*
X036914Y033646D01*
X036884Y033641D01*
X036853Y033640D01*
X036823Y033643D01*
X036794Y033650D01*
X036765Y033660D01*
X036739Y033674D01*
X036714Y033691D01*
X036691Y033712D01*
X036672Y033735D01*
X036655Y033760D01*
X036642Y033787D01*
X036633Y033816D01*
X036627Y033846D01*
X036625Y033876D01*
X040563Y033876D02*
X040565Y033906D01*
X040571Y033936D01*
X040580Y033965D01*
X040593Y033992D01*
X040610Y034017D01*
X040629Y034040D01*
X040652Y034061D01*
X040677Y034078D01*
X040703Y034092D01*
X040732Y034102D01*
X040761Y034109D01*
X040791Y034112D01*
X040822Y034111D01*
X040852Y034106D01*
X040881Y034097D01*
X040908Y034085D01*
X040934Y034070D01*
X040958Y034051D01*
X040979Y034029D01*
X040997Y034005D01*
X041012Y033978D01*
X041023Y033950D01*
X041031Y033921D01*
X041035Y033891D01*
X041035Y033861D01*
X041031Y033831D01*
X041023Y033802D01*
X041012Y033774D01*
X040997Y033747D01*
X040979Y033723D01*
X040958Y033701D01*
X040934Y033682D01*
X040908Y033667D01*
X040881Y033655D01*
X040852Y033646D01*
X040822Y033641D01*
X040791Y033640D01*
X040761Y033643D01*
X040732Y033650D01*
X040703Y033660D01*
X040677Y033674D01*
X040652Y033691D01*
X040629Y033712D01*
X040610Y033735D01*
X040593Y033760D01*
X040580Y033787D01*
X040571Y033816D01*
X040565Y033846D01*
X040563Y033876D01*
X040563Y032892D02*
X040565Y032922D01*
X040571Y032952D01*
X040580Y032981D01*
X040593Y033008D01*
X040610Y033033D01*
X040629Y033056D01*
X040652Y033077D01*
X040677Y033094D01*
X040703Y033108D01*
X040732Y033118D01*
X040761Y033125D01*
X040791Y033128D01*
X040822Y033127D01*
X040852Y033122D01*
X040881Y033113D01*
X040908Y033101D01*
X040934Y033086D01*
X040958Y033067D01*
X040979Y033045D01*
X040997Y033021D01*
X041012Y032994D01*
X041023Y032966D01*
X041031Y032937D01*
X041035Y032907D01*
X041035Y032877D01*
X041031Y032847D01*
X041023Y032818D01*
X041012Y032790D01*
X040997Y032763D01*
X040979Y032739D01*
X040958Y032717D01*
X040934Y032698D01*
X040908Y032683D01*
X040881Y032671D01*
X040852Y032662D01*
X040822Y032657D01*
X040791Y032656D01*
X040761Y032659D01*
X040732Y032666D01*
X040703Y032676D01*
X040677Y032690D01*
X040652Y032707D01*
X040629Y032728D01*
X040610Y032751D01*
X040593Y032776D01*
X040580Y032803D01*
X040571Y032832D01*
X040565Y032862D01*
X040563Y032892D01*
X042020Y033192D02*
X042022Y033242D01*
X042028Y033292D01*
X042038Y033342D01*
X042051Y033390D01*
X042068Y033438D01*
X042089Y033484D01*
X042113Y033528D01*
X042141Y033570D01*
X042172Y033610D01*
X042206Y033647D01*
X042243Y033682D01*
X042282Y033713D01*
X042323Y033742D01*
X042367Y033767D01*
X042413Y033789D01*
X042460Y033807D01*
X042508Y033821D01*
X042557Y033832D01*
X042607Y033839D01*
X042657Y033842D01*
X042708Y033841D01*
X042758Y033836D01*
X042808Y033827D01*
X042856Y033815D01*
X042904Y033798D01*
X042950Y033778D01*
X042995Y033755D01*
X043038Y033728D01*
X043078Y033698D01*
X043116Y033665D01*
X043151Y033629D01*
X043184Y033590D01*
X043213Y033549D01*
X043239Y033506D01*
X043262Y033461D01*
X043281Y033414D01*
X043296Y033366D01*
X043308Y033317D01*
X043316Y033267D01*
X043320Y033217D01*
X043320Y033167D01*
X043316Y033117D01*
X043308Y033067D01*
X043296Y033018D01*
X043281Y032970D01*
X043262Y032923D01*
X043239Y032878D01*
X043213Y032835D01*
X043184Y032794D01*
X043151Y032755D01*
X043116Y032719D01*
X043078Y032686D01*
X043038Y032656D01*
X042995Y032629D01*
X042950Y032606D01*
X042904Y032586D01*
X042856Y032569D01*
X042808Y032557D01*
X042758Y032548D01*
X042708Y032543D01*
X042657Y032542D01*
X042607Y032545D01*
X042557Y032552D01*
X042508Y032563D01*
X042460Y032577D01*
X042413Y032595D01*
X042367Y032617D01*
X042323Y032642D01*
X042282Y032671D01*
X042243Y032702D01*
X042206Y032737D01*
X042172Y032774D01*
X042141Y032814D01*
X042113Y032856D01*
X042089Y032900D01*
X042068Y032946D01*
X042051Y032994D01*
X042038Y033042D01*
X042028Y033092D01*
X042022Y033142D01*
X042020Y033192D01*
X031450Y032892D02*
X031452Y032942D01*
X031458Y032992D01*
X031468Y033041D01*
X031482Y033089D01*
X031499Y033136D01*
X031520Y033181D01*
X031545Y033225D01*
X031573Y033266D01*
X031605Y033305D01*
X031639Y033342D01*
X031676Y033376D01*
X031716Y033406D01*
X031758Y033433D01*
X031802Y033457D01*
X031848Y033478D01*
X031895Y033494D01*
X031943Y033507D01*
X031993Y033516D01*
X032042Y033521D01*
X032093Y033522D01*
X032143Y033519D01*
X032192Y033512D01*
X032241Y033501D01*
X032289Y033486D01*
X032335Y033468D01*
X032380Y033446D01*
X032423Y033420D01*
X032464Y033391D01*
X032503Y033359D01*
X032539Y033324D01*
X032571Y033286D01*
X032601Y033246D01*
X032628Y033203D01*
X032651Y033159D01*
X032670Y033113D01*
X032686Y033065D01*
X032698Y033016D01*
X032706Y032967D01*
X032710Y032917D01*
X032710Y032867D01*
X032706Y032817D01*
X032698Y032768D01*
X032686Y032719D01*
X032670Y032671D01*
X032651Y032625D01*
X032628Y032581D01*
X032601Y032538D01*
X032571Y032498D01*
X032539Y032460D01*
X032503Y032425D01*
X032464Y032393D01*
X032423Y032364D01*
X032380Y032338D01*
X032335Y032316D01*
X032289Y032298D01*
X032241Y032283D01*
X032192Y032272D01*
X032143Y032265D01*
X032093Y032262D01*
X032042Y032263D01*
X031993Y032268D01*
X031943Y032277D01*
X031895Y032290D01*
X031848Y032306D01*
X031802Y032327D01*
X031758Y032351D01*
X031716Y032378D01*
X031676Y032408D01*
X031639Y032442D01*
X031605Y032479D01*
X031573Y032518D01*
X031545Y032559D01*
X031520Y032603D01*
X031499Y032648D01*
X031482Y032695D01*
X031468Y032743D01*
X031458Y032792D01*
X031452Y032842D01*
X031450Y032892D01*
X026950Y032892D02*
X026952Y032942D01*
X026958Y032992D01*
X026968Y033041D01*
X026982Y033089D01*
X026999Y033136D01*
X027020Y033181D01*
X027045Y033225D01*
X027073Y033266D01*
X027105Y033305D01*
X027139Y033342D01*
X027176Y033376D01*
X027216Y033406D01*
X027258Y033433D01*
X027302Y033457D01*
X027348Y033478D01*
X027395Y033494D01*
X027443Y033507D01*
X027493Y033516D01*
X027542Y033521D01*
X027593Y033522D01*
X027643Y033519D01*
X027692Y033512D01*
X027741Y033501D01*
X027789Y033486D01*
X027835Y033468D01*
X027880Y033446D01*
X027923Y033420D01*
X027964Y033391D01*
X028003Y033359D01*
X028039Y033324D01*
X028071Y033286D01*
X028101Y033246D01*
X028128Y033203D01*
X028151Y033159D01*
X028170Y033113D01*
X028186Y033065D01*
X028198Y033016D01*
X028206Y032967D01*
X028210Y032917D01*
X028210Y032867D01*
X028206Y032817D01*
X028198Y032768D01*
X028186Y032719D01*
X028170Y032671D01*
X028151Y032625D01*
X028128Y032581D01*
X028101Y032538D01*
X028071Y032498D01*
X028039Y032460D01*
X028003Y032425D01*
X027964Y032393D01*
X027923Y032364D01*
X027880Y032338D01*
X027835Y032316D01*
X027789Y032298D01*
X027741Y032283D01*
X027692Y032272D01*
X027643Y032265D01*
X027593Y032262D01*
X027542Y032263D01*
X027493Y032268D01*
X027443Y032277D01*
X027395Y032290D01*
X027348Y032306D01*
X027302Y032327D01*
X027258Y032351D01*
X027216Y032378D01*
X027176Y032408D01*
X027139Y032442D01*
X027105Y032479D01*
X027073Y032518D01*
X027045Y032559D01*
X027020Y032603D01*
X026999Y032648D01*
X026982Y032695D01*
X026968Y032743D01*
X026958Y032792D01*
X026952Y032842D01*
X026950Y032892D01*
X025450Y032892D02*
X025452Y032942D01*
X025458Y032992D01*
X025468Y033041D01*
X025482Y033089D01*
X025499Y033136D01*
X025520Y033181D01*
X025545Y033225D01*
X025573Y033266D01*
X025605Y033305D01*
X025639Y033342D01*
X025676Y033376D01*
X025716Y033406D01*
X025758Y033433D01*
X025802Y033457D01*
X025848Y033478D01*
X025895Y033494D01*
X025943Y033507D01*
X025993Y033516D01*
X026042Y033521D01*
X026093Y033522D01*
X026143Y033519D01*
X026192Y033512D01*
X026241Y033501D01*
X026289Y033486D01*
X026335Y033468D01*
X026380Y033446D01*
X026423Y033420D01*
X026464Y033391D01*
X026503Y033359D01*
X026539Y033324D01*
X026571Y033286D01*
X026601Y033246D01*
X026628Y033203D01*
X026651Y033159D01*
X026670Y033113D01*
X026686Y033065D01*
X026698Y033016D01*
X026706Y032967D01*
X026710Y032917D01*
X026710Y032867D01*
X026706Y032817D01*
X026698Y032768D01*
X026686Y032719D01*
X026670Y032671D01*
X026651Y032625D01*
X026628Y032581D01*
X026601Y032538D01*
X026571Y032498D01*
X026539Y032460D01*
X026503Y032425D01*
X026464Y032393D01*
X026423Y032364D01*
X026380Y032338D01*
X026335Y032316D01*
X026289Y032298D01*
X026241Y032283D01*
X026192Y032272D01*
X026143Y032265D01*
X026093Y032262D01*
X026042Y032263D01*
X025993Y032268D01*
X025943Y032277D01*
X025895Y032290D01*
X025848Y032306D01*
X025802Y032327D01*
X025758Y032351D01*
X025716Y032378D01*
X025676Y032408D01*
X025639Y032442D01*
X025605Y032479D01*
X025573Y032518D01*
X025545Y032559D01*
X025520Y032603D01*
X025499Y032648D01*
X025482Y032695D01*
X025468Y032743D01*
X025458Y032792D01*
X025452Y032842D01*
X025450Y032892D01*
X020950Y032892D02*
X020952Y032942D01*
X020958Y032992D01*
X020968Y033041D01*
X020982Y033089D01*
X020999Y033136D01*
X021020Y033181D01*
X021045Y033225D01*
X021073Y033266D01*
X021105Y033305D01*
X021139Y033342D01*
X021176Y033376D01*
X021216Y033406D01*
X021258Y033433D01*
X021302Y033457D01*
X021348Y033478D01*
X021395Y033494D01*
X021443Y033507D01*
X021493Y033516D01*
X021542Y033521D01*
X021593Y033522D01*
X021643Y033519D01*
X021692Y033512D01*
X021741Y033501D01*
X021789Y033486D01*
X021835Y033468D01*
X021880Y033446D01*
X021923Y033420D01*
X021964Y033391D01*
X022003Y033359D01*
X022039Y033324D01*
X022071Y033286D01*
X022101Y033246D01*
X022128Y033203D01*
X022151Y033159D01*
X022170Y033113D01*
X022186Y033065D01*
X022198Y033016D01*
X022206Y032967D01*
X022210Y032917D01*
X022210Y032867D01*
X022206Y032817D01*
X022198Y032768D01*
X022186Y032719D01*
X022170Y032671D01*
X022151Y032625D01*
X022128Y032581D01*
X022101Y032538D01*
X022071Y032498D01*
X022039Y032460D01*
X022003Y032425D01*
X021964Y032393D01*
X021923Y032364D01*
X021880Y032338D01*
X021835Y032316D01*
X021789Y032298D01*
X021741Y032283D01*
X021692Y032272D01*
X021643Y032265D01*
X021593Y032262D01*
X021542Y032263D01*
X021493Y032268D01*
X021443Y032277D01*
X021395Y032290D01*
X021348Y032306D01*
X021302Y032327D01*
X021258Y032351D01*
X021216Y032378D01*
X021176Y032408D01*
X021139Y032442D01*
X021105Y032479D01*
X021073Y032518D01*
X021045Y032559D01*
X021020Y032603D01*
X020999Y032648D01*
X020982Y032695D01*
X020968Y032743D01*
X020958Y032792D01*
X020952Y032842D01*
X020950Y032892D01*
X019450Y032892D02*
X019452Y032942D01*
X019458Y032992D01*
X019468Y033041D01*
X019482Y033089D01*
X019499Y033136D01*
X019520Y033181D01*
X019545Y033225D01*
X019573Y033266D01*
X019605Y033305D01*
X019639Y033342D01*
X019676Y033376D01*
X019716Y033406D01*
X019758Y033433D01*
X019802Y033457D01*
X019848Y033478D01*
X019895Y033494D01*
X019943Y033507D01*
X019993Y033516D01*
X020042Y033521D01*
X020093Y033522D01*
X020143Y033519D01*
X020192Y033512D01*
X020241Y033501D01*
X020289Y033486D01*
X020335Y033468D01*
X020380Y033446D01*
X020423Y033420D01*
X020464Y033391D01*
X020503Y033359D01*
X020539Y033324D01*
X020571Y033286D01*
X020601Y033246D01*
X020628Y033203D01*
X020651Y033159D01*
X020670Y033113D01*
X020686Y033065D01*
X020698Y033016D01*
X020706Y032967D01*
X020710Y032917D01*
X020710Y032867D01*
X020706Y032817D01*
X020698Y032768D01*
X020686Y032719D01*
X020670Y032671D01*
X020651Y032625D01*
X020628Y032581D01*
X020601Y032538D01*
X020571Y032498D01*
X020539Y032460D01*
X020503Y032425D01*
X020464Y032393D01*
X020423Y032364D01*
X020380Y032338D01*
X020335Y032316D01*
X020289Y032298D01*
X020241Y032283D01*
X020192Y032272D01*
X020143Y032265D01*
X020093Y032262D01*
X020042Y032263D01*
X019993Y032268D01*
X019943Y032277D01*
X019895Y032290D01*
X019848Y032306D01*
X019802Y032327D01*
X019758Y032351D01*
X019716Y032378D01*
X019676Y032408D01*
X019639Y032442D01*
X019605Y032479D01*
X019573Y032518D01*
X019545Y032559D01*
X019520Y032603D01*
X019499Y032648D01*
X019482Y032695D01*
X019468Y032743D01*
X019458Y032792D01*
X019452Y032842D01*
X019450Y032892D01*
X014950Y032892D02*
X014952Y032942D01*
X014958Y032992D01*
X014968Y033041D01*
X014982Y033089D01*
X014999Y033136D01*
X015020Y033181D01*
X015045Y033225D01*
X015073Y033266D01*
X015105Y033305D01*
X015139Y033342D01*
X015176Y033376D01*
X015216Y033406D01*
X015258Y033433D01*
X015302Y033457D01*
X015348Y033478D01*
X015395Y033494D01*
X015443Y033507D01*
X015493Y033516D01*
X015542Y033521D01*
X015593Y033522D01*
X015643Y033519D01*
X015692Y033512D01*
X015741Y033501D01*
X015789Y033486D01*
X015835Y033468D01*
X015880Y033446D01*
X015923Y033420D01*
X015964Y033391D01*
X016003Y033359D01*
X016039Y033324D01*
X016071Y033286D01*
X016101Y033246D01*
X016128Y033203D01*
X016151Y033159D01*
X016170Y033113D01*
X016186Y033065D01*
X016198Y033016D01*
X016206Y032967D01*
X016210Y032917D01*
X016210Y032867D01*
X016206Y032817D01*
X016198Y032768D01*
X016186Y032719D01*
X016170Y032671D01*
X016151Y032625D01*
X016128Y032581D01*
X016101Y032538D01*
X016071Y032498D01*
X016039Y032460D01*
X016003Y032425D01*
X015964Y032393D01*
X015923Y032364D01*
X015880Y032338D01*
X015835Y032316D01*
X015789Y032298D01*
X015741Y032283D01*
X015692Y032272D01*
X015643Y032265D01*
X015593Y032262D01*
X015542Y032263D01*
X015493Y032268D01*
X015443Y032277D01*
X015395Y032290D01*
X015348Y032306D01*
X015302Y032327D01*
X015258Y032351D01*
X015216Y032378D01*
X015176Y032408D01*
X015139Y032442D01*
X015105Y032479D01*
X015073Y032518D01*
X015045Y032559D01*
X015020Y032603D01*
X014999Y032648D01*
X014982Y032695D01*
X014968Y032743D01*
X014958Y032792D01*
X014952Y032842D01*
X014950Y032892D01*
X013450Y032892D02*
X013452Y032942D01*
X013458Y032992D01*
X013468Y033041D01*
X013482Y033089D01*
X013499Y033136D01*
X013520Y033181D01*
X013545Y033225D01*
X013573Y033266D01*
X013605Y033305D01*
X013639Y033342D01*
X013676Y033376D01*
X013716Y033406D01*
X013758Y033433D01*
X013802Y033457D01*
X013848Y033478D01*
X013895Y033494D01*
X013943Y033507D01*
X013993Y033516D01*
X014042Y033521D01*
X014093Y033522D01*
X014143Y033519D01*
X014192Y033512D01*
X014241Y033501D01*
X014289Y033486D01*
X014335Y033468D01*
X014380Y033446D01*
X014423Y033420D01*
X014464Y033391D01*
X014503Y033359D01*
X014539Y033324D01*
X014571Y033286D01*
X014601Y033246D01*
X014628Y033203D01*
X014651Y033159D01*
X014670Y033113D01*
X014686Y033065D01*
X014698Y033016D01*
X014706Y032967D01*
X014710Y032917D01*
X014710Y032867D01*
X014706Y032817D01*
X014698Y032768D01*
X014686Y032719D01*
X014670Y032671D01*
X014651Y032625D01*
X014628Y032581D01*
X014601Y032538D01*
X014571Y032498D01*
X014539Y032460D01*
X014503Y032425D01*
X014464Y032393D01*
X014423Y032364D01*
X014380Y032338D01*
X014335Y032316D01*
X014289Y032298D01*
X014241Y032283D01*
X014192Y032272D01*
X014143Y032265D01*
X014093Y032262D01*
X014042Y032263D01*
X013993Y032268D01*
X013943Y032277D01*
X013895Y032290D01*
X013848Y032306D01*
X013802Y032327D01*
X013758Y032351D01*
X013716Y032378D01*
X013676Y032408D01*
X013639Y032442D01*
X013605Y032479D01*
X013573Y032518D01*
X013545Y032559D01*
X013520Y032603D01*
X013499Y032648D01*
X013482Y032695D01*
X013468Y032743D01*
X013458Y032792D01*
X013452Y032842D01*
X013450Y032892D01*
X008950Y032892D02*
X008952Y032942D01*
X008958Y032992D01*
X008968Y033041D01*
X008982Y033089D01*
X008999Y033136D01*
X009020Y033181D01*
X009045Y033225D01*
X009073Y033266D01*
X009105Y033305D01*
X009139Y033342D01*
X009176Y033376D01*
X009216Y033406D01*
X009258Y033433D01*
X009302Y033457D01*
X009348Y033478D01*
X009395Y033494D01*
X009443Y033507D01*
X009493Y033516D01*
X009542Y033521D01*
X009593Y033522D01*
X009643Y033519D01*
X009692Y033512D01*
X009741Y033501D01*
X009789Y033486D01*
X009835Y033468D01*
X009880Y033446D01*
X009923Y033420D01*
X009964Y033391D01*
X010003Y033359D01*
X010039Y033324D01*
X010071Y033286D01*
X010101Y033246D01*
X010128Y033203D01*
X010151Y033159D01*
X010170Y033113D01*
X010186Y033065D01*
X010198Y033016D01*
X010206Y032967D01*
X010210Y032917D01*
X010210Y032867D01*
X010206Y032817D01*
X010198Y032768D01*
X010186Y032719D01*
X010170Y032671D01*
X010151Y032625D01*
X010128Y032581D01*
X010101Y032538D01*
X010071Y032498D01*
X010039Y032460D01*
X010003Y032425D01*
X009964Y032393D01*
X009923Y032364D01*
X009880Y032338D01*
X009835Y032316D01*
X009789Y032298D01*
X009741Y032283D01*
X009692Y032272D01*
X009643Y032265D01*
X009593Y032262D01*
X009542Y032263D01*
X009493Y032268D01*
X009443Y032277D01*
X009395Y032290D01*
X009348Y032306D01*
X009302Y032327D01*
X009258Y032351D01*
X009216Y032378D01*
X009176Y032408D01*
X009139Y032442D01*
X009105Y032479D01*
X009073Y032518D01*
X009045Y032559D01*
X009020Y032603D01*
X008999Y032648D01*
X008982Y032695D01*
X008968Y032743D01*
X008958Y032792D01*
X008952Y032842D01*
X008950Y032892D01*
X007450Y032892D02*
X007452Y032942D01*
X007458Y032992D01*
X007468Y033041D01*
X007482Y033089D01*
X007499Y033136D01*
X007520Y033181D01*
X007545Y033225D01*
X007573Y033266D01*
X007605Y033305D01*
X007639Y033342D01*
X007676Y033376D01*
X007716Y033406D01*
X007758Y033433D01*
X007802Y033457D01*
X007848Y033478D01*
X007895Y033494D01*
X007943Y033507D01*
X007993Y033516D01*
X008042Y033521D01*
X008093Y033522D01*
X008143Y033519D01*
X008192Y033512D01*
X008241Y033501D01*
X008289Y033486D01*
X008335Y033468D01*
X008380Y033446D01*
X008423Y033420D01*
X008464Y033391D01*
X008503Y033359D01*
X008539Y033324D01*
X008571Y033286D01*
X008601Y033246D01*
X008628Y033203D01*
X008651Y033159D01*
X008670Y033113D01*
X008686Y033065D01*
X008698Y033016D01*
X008706Y032967D01*
X008710Y032917D01*
X008710Y032867D01*
X008706Y032817D01*
X008698Y032768D01*
X008686Y032719D01*
X008670Y032671D01*
X008651Y032625D01*
X008628Y032581D01*
X008601Y032538D01*
X008571Y032498D01*
X008539Y032460D01*
X008503Y032425D01*
X008464Y032393D01*
X008423Y032364D01*
X008380Y032338D01*
X008335Y032316D01*
X008289Y032298D01*
X008241Y032283D01*
X008192Y032272D01*
X008143Y032265D01*
X008093Y032262D01*
X008042Y032263D01*
X007993Y032268D01*
X007943Y032277D01*
X007895Y032290D01*
X007848Y032306D01*
X007802Y032327D01*
X007758Y032351D01*
X007716Y032378D01*
X007676Y032408D01*
X007639Y032442D01*
X007605Y032479D01*
X007573Y032518D01*
X007545Y032559D01*
X007520Y032603D01*
X007499Y032648D01*
X007482Y032695D01*
X007468Y032743D01*
X007458Y032792D01*
X007452Y032842D01*
X007450Y032892D01*
X002950Y032892D02*
X002952Y032942D01*
X002958Y032992D01*
X002968Y033041D01*
X002982Y033089D01*
X002999Y033136D01*
X003020Y033181D01*
X003045Y033225D01*
X003073Y033266D01*
X003105Y033305D01*
X003139Y033342D01*
X003176Y033376D01*
X003216Y033406D01*
X003258Y033433D01*
X003302Y033457D01*
X003348Y033478D01*
X003395Y033494D01*
X003443Y033507D01*
X003493Y033516D01*
X003542Y033521D01*
X003593Y033522D01*
X003643Y033519D01*
X003692Y033512D01*
X003741Y033501D01*
X003789Y033486D01*
X003835Y033468D01*
X003880Y033446D01*
X003923Y033420D01*
X003964Y033391D01*
X004003Y033359D01*
X004039Y033324D01*
X004071Y033286D01*
X004101Y033246D01*
X004128Y033203D01*
X004151Y033159D01*
X004170Y033113D01*
X004186Y033065D01*
X004198Y033016D01*
X004206Y032967D01*
X004210Y032917D01*
X004210Y032867D01*
X004206Y032817D01*
X004198Y032768D01*
X004186Y032719D01*
X004170Y032671D01*
X004151Y032625D01*
X004128Y032581D01*
X004101Y032538D01*
X004071Y032498D01*
X004039Y032460D01*
X004003Y032425D01*
X003964Y032393D01*
X003923Y032364D01*
X003880Y032338D01*
X003835Y032316D01*
X003789Y032298D01*
X003741Y032283D01*
X003692Y032272D01*
X003643Y032265D01*
X003593Y032262D01*
X003542Y032263D01*
X003493Y032268D01*
X003443Y032277D01*
X003395Y032290D01*
X003348Y032306D01*
X003302Y032327D01*
X003258Y032351D01*
X003216Y032378D01*
X003176Y032408D01*
X003139Y032442D01*
X003105Y032479D01*
X003073Y032518D01*
X003045Y032559D01*
X003020Y032603D01*
X002999Y032648D01*
X002982Y032695D01*
X002968Y032743D01*
X002958Y032792D01*
X002952Y032842D01*
X002950Y032892D01*
X000680Y033192D02*
X000682Y033242D01*
X000688Y033292D01*
X000698Y033342D01*
X000711Y033390D01*
X000728Y033438D01*
X000749Y033484D01*
X000773Y033528D01*
X000801Y033570D01*
X000832Y033610D01*
X000866Y033647D01*
X000903Y033682D01*
X000942Y033713D01*
X000983Y033742D01*
X001027Y033767D01*
X001073Y033789D01*
X001120Y033807D01*
X001168Y033821D01*
X001217Y033832D01*
X001267Y033839D01*
X001317Y033842D01*
X001368Y033841D01*
X001418Y033836D01*
X001468Y033827D01*
X001516Y033815D01*
X001564Y033798D01*
X001610Y033778D01*
X001655Y033755D01*
X001698Y033728D01*
X001738Y033698D01*
X001776Y033665D01*
X001811Y033629D01*
X001844Y033590D01*
X001873Y033549D01*
X001899Y033506D01*
X001922Y033461D01*
X001941Y033414D01*
X001956Y033366D01*
X001968Y033317D01*
X001976Y033267D01*
X001980Y033217D01*
X001980Y033167D01*
X001976Y033117D01*
X001968Y033067D01*
X001956Y033018D01*
X001941Y032970D01*
X001922Y032923D01*
X001899Y032878D01*
X001873Y032835D01*
X001844Y032794D01*
X001811Y032755D01*
X001776Y032719D01*
X001738Y032686D01*
X001698Y032656D01*
X001655Y032629D01*
X001610Y032606D01*
X001564Y032586D01*
X001516Y032569D01*
X001468Y032557D01*
X001418Y032548D01*
X001368Y032543D01*
X001317Y032542D01*
X001267Y032545D01*
X001217Y032552D01*
X001168Y032563D01*
X001120Y032577D01*
X001073Y032595D01*
X001027Y032617D01*
X000983Y032642D01*
X000942Y032671D01*
X000903Y032702D01*
X000866Y032737D01*
X000832Y032774D01*
X000801Y032814D01*
X000773Y032856D01*
X000749Y032900D01*
X000728Y032946D01*
X000711Y032994D01*
X000698Y033042D01*
X000688Y033092D01*
X000682Y033142D01*
X000680Y033192D01*
M02*
