G75*
G70*
%OFA0B0*%
%FSLAX24Y24*%
%IPPOS*%
%LPD*%
%AMOC8*
5,1,8,0,0,1.08239X$1,22.5*
%
%ADD10C,0.0000*%
%ADD11C,0.0060*%
%ADD12C,0.0080*%
%ADD13C,0.0050*%
%ADD14C,0.0010*%
%ADD15R,0.0400X0.4000*%
%ADD16C,0.0240*%
%ADD17C,0.0100*%
%ADD18C,0.0020*%
D10*
X000100Y003162D02*
X000100Y034392D01*
X043930Y034392D01*
X043930Y003162D01*
X000100Y003162D01*
X000680Y004392D02*
X000682Y004442D01*
X000688Y004492D01*
X000698Y004542D01*
X000711Y004590D01*
X000728Y004638D01*
X000749Y004684D01*
X000773Y004728D01*
X000801Y004770D01*
X000832Y004810D01*
X000866Y004847D01*
X000903Y004882D01*
X000942Y004913D01*
X000983Y004942D01*
X001027Y004967D01*
X001073Y004989D01*
X001120Y005007D01*
X001168Y005021D01*
X001217Y005032D01*
X001267Y005039D01*
X001317Y005042D01*
X001368Y005041D01*
X001418Y005036D01*
X001468Y005027D01*
X001516Y005015D01*
X001564Y004998D01*
X001610Y004978D01*
X001655Y004955D01*
X001698Y004928D01*
X001738Y004898D01*
X001776Y004865D01*
X001811Y004829D01*
X001844Y004790D01*
X001873Y004749D01*
X001899Y004706D01*
X001922Y004661D01*
X001941Y004614D01*
X001956Y004566D01*
X001968Y004517D01*
X001976Y004467D01*
X001980Y004417D01*
X001980Y004367D01*
X001976Y004317D01*
X001968Y004267D01*
X001956Y004218D01*
X001941Y004170D01*
X001922Y004123D01*
X001899Y004078D01*
X001873Y004035D01*
X001844Y003994D01*
X001811Y003955D01*
X001776Y003919D01*
X001738Y003886D01*
X001698Y003856D01*
X001655Y003829D01*
X001610Y003806D01*
X001564Y003786D01*
X001516Y003769D01*
X001468Y003757D01*
X001418Y003748D01*
X001368Y003743D01*
X001317Y003742D01*
X001267Y003745D01*
X001217Y003752D01*
X001168Y003763D01*
X001120Y003777D01*
X001073Y003795D01*
X001027Y003817D01*
X000983Y003842D01*
X000942Y003871D01*
X000903Y003902D01*
X000866Y003937D01*
X000832Y003974D01*
X000801Y004014D01*
X000773Y004056D01*
X000749Y004100D01*
X000728Y004146D01*
X000711Y004194D01*
X000698Y004242D01*
X000688Y004292D01*
X000682Y004342D01*
X000680Y004392D01*
X002950Y004392D02*
X002952Y004442D01*
X002958Y004492D01*
X002968Y004541D01*
X002982Y004589D01*
X002999Y004636D01*
X003020Y004681D01*
X003045Y004725D01*
X003073Y004766D01*
X003105Y004805D01*
X003139Y004842D01*
X003176Y004876D01*
X003216Y004906D01*
X003258Y004933D01*
X003302Y004957D01*
X003348Y004978D01*
X003395Y004994D01*
X003443Y005007D01*
X003493Y005016D01*
X003542Y005021D01*
X003593Y005022D01*
X003643Y005019D01*
X003692Y005012D01*
X003741Y005001D01*
X003789Y004986D01*
X003835Y004968D01*
X003880Y004946D01*
X003923Y004920D01*
X003964Y004891D01*
X004003Y004859D01*
X004039Y004824D01*
X004071Y004786D01*
X004101Y004746D01*
X004128Y004703D01*
X004151Y004659D01*
X004170Y004613D01*
X004186Y004565D01*
X004198Y004516D01*
X004206Y004467D01*
X004210Y004417D01*
X004210Y004367D01*
X004206Y004317D01*
X004198Y004268D01*
X004186Y004219D01*
X004170Y004171D01*
X004151Y004125D01*
X004128Y004081D01*
X004101Y004038D01*
X004071Y003998D01*
X004039Y003960D01*
X004003Y003925D01*
X003964Y003893D01*
X003923Y003864D01*
X003880Y003838D01*
X003835Y003816D01*
X003789Y003798D01*
X003741Y003783D01*
X003692Y003772D01*
X003643Y003765D01*
X003593Y003762D01*
X003542Y003763D01*
X003493Y003768D01*
X003443Y003777D01*
X003395Y003790D01*
X003348Y003806D01*
X003302Y003827D01*
X003258Y003851D01*
X003216Y003878D01*
X003176Y003908D01*
X003139Y003942D01*
X003105Y003979D01*
X003073Y004018D01*
X003045Y004059D01*
X003020Y004103D01*
X002999Y004148D01*
X002982Y004195D01*
X002968Y004243D01*
X002958Y004292D01*
X002952Y004342D01*
X002950Y004392D01*
X007450Y004392D02*
X007452Y004442D01*
X007458Y004492D01*
X007468Y004541D01*
X007482Y004589D01*
X007499Y004636D01*
X007520Y004681D01*
X007545Y004725D01*
X007573Y004766D01*
X007605Y004805D01*
X007639Y004842D01*
X007676Y004876D01*
X007716Y004906D01*
X007758Y004933D01*
X007802Y004957D01*
X007848Y004978D01*
X007895Y004994D01*
X007943Y005007D01*
X007993Y005016D01*
X008042Y005021D01*
X008093Y005022D01*
X008143Y005019D01*
X008192Y005012D01*
X008241Y005001D01*
X008289Y004986D01*
X008335Y004968D01*
X008380Y004946D01*
X008423Y004920D01*
X008464Y004891D01*
X008503Y004859D01*
X008539Y004824D01*
X008571Y004786D01*
X008601Y004746D01*
X008628Y004703D01*
X008651Y004659D01*
X008670Y004613D01*
X008686Y004565D01*
X008698Y004516D01*
X008706Y004467D01*
X008710Y004417D01*
X008710Y004367D01*
X008706Y004317D01*
X008698Y004268D01*
X008686Y004219D01*
X008670Y004171D01*
X008651Y004125D01*
X008628Y004081D01*
X008601Y004038D01*
X008571Y003998D01*
X008539Y003960D01*
X008503Y003925D01*
X008464Y003893D01*
X008423Y003864D01*
X008380Y003838D01*
X008335Y003816D01*
X008289Y003798D01*
X008241Y003783D01*
X008192Y003772D01*
X008143Y003765D01*
X008093Y003762D01*
X008042Y003763D01*
X007993Y003768D01*
X007943Y003777D01*
X007895Y003790D01*
X007848Y003806D01*
X007802Y003827D01*
X007758Y003851D01*
X007716Y003878D01*
X007676Y003908D01*
X007639Y003942D01*
X007605Y003979D01*
X007573Y004018D01*
X007545Y004059D01*
X007520Y004103D01*
X007499Y004148D01*
X007482Y004195D01*
X007468Y004243D01*
X007458Y004292D01*
X007452Y004342D01*
X007450Y004392D01*
X008950Y004392D02*
X008952Y004442D01*
X008958Y004492D01*
X008968Y004541D01*
X008982Y004589D01*
X008999Y004636D01*
X009020Y004681D01*
X009045Y004725D01*
X009073Y004766D01*
X009105Y004805D01*
X009139Y004842D01*
X009176Y004876D01*
X009216Y004906D01*
X009258Y004933D01*
X009302Y004957D01*
X009348Y004978D01*
X009395Y004994D01*
X009443Y005007D01*
X009493Y005016D01*
X009542Y005021D01*
X009593Y005022D01*
X009643Y005019D01*
X009692Y005012D01*
X009741Y005001D01*
X009789Y004986D01*
X009835Y004968D01*
X009880Y004946D01*
X009923Y004920D01*
X009964Y004891D01*
X010003Y004859D01*
X010039Y004824D01*
X010071Y004786D01*
X010101Y004746D01*
X010128Y004703D01*
X010151Y004659D01*
X010170Y004613D01*
X010186Y004565D01*
X010198Y004516D01*
X010206Y004467D01*
X010210Y004417D01*
X010210Y004367D01*
X010206Y004317D01*
X010198Y004268D01*
X010186Y004219D01*
X010170Y004171D01*
X010151Y004125D01*
X010128Y004081D01*
X010101Y004038D01*
X010071Y003998D01*
X010039Y003960D01*
X010003Y003925D01*
X009964Y003893D01*
X009923Y003864D01*
X009880Y003838D01*
X009835Y003816D01*
X009789Y003798D01*
X009741Y003783D01*
X009692Y003772D01*
X009643Y003765D01*
X009593Y003762D01*
X009542Y003763D01*
X009493Y003768D01*
X009443Y003777D01*
X009395Y003790D01*
X009348Y003806D01*
X009302Y003827D01*
X009258Y003851D01*
X009216Y003878D01*
X009176Y003908D01*
X009139Y003942D01*
X009105Y003979D01*
X009073Y004018D01*
X009045Y004059D01*
X009020Y004103D01*
X008999Y004148D01*
X008982Y004195D01*
X008968Y004243D01*
X008958Y004292D01*
X008952Y004342D01*
X008950Y004392D01*
X013450Y004392D02*
X013452Y004442D01*
X013458Y004492D01*
X013468Y004541D01*
X013482Y004589D01*
X013499Y004636D01*
X013520Y004681D01*
X013545Y004725D01*
X013573Y004766D01*
X013605Y004805D01*
X013639Y004842D01*
X013676Y004876D01*
X013716Y004906D01*
X013758Y004933D01*
X013802Y004957D01*
X013848Y004978D01*
X013895Y004994D01*
X013943Y005007D01*
X013993Y005016D01*
X014042Y005021D01*
X014093Y005022D01*
X014143Y005019D01*
X014192Y005012D01*
X014241Y005001D01*
X014289Y004986D01*
X014335Y004968D01*
X014380Y004946D01*
X014423Y004920D01*
X014464Y004891D01*
X014503Y004859D01*
X014539Y004824D01*
X014571Y004786D01*
X014601Y004746D01*
X014628Y004703D01*
X014651Y004659D01*
X014670Y004613D01*
X014686Y004565D01*
X014698Y004516D01*
X014706Y004467D01*
X014710Y004417D01*
X014710Y004367D01*
X014706Y004317D01*
X014698Y004268D01*
X014686Y004219D01*
X014670Y004171D01*
X014651Y004125D01*
X014628Y004081D01*
X014601Y004038D01*
X014571Y003998D01*
X014539Y003960D01*
X014503Y003925D01*
X014464Y003893D01*
X014423Y003864D01*
X014380Y003838D01*
X014335Y003816D01*
X014289Y003798D01*
X014241Y003783D01*
X014192Y003772D01*
X014143Y003765D01*
X014093Y003762D01*
X014042Y003763D01*
X013993Y003768D01*
X013943Y003777D01*
X013895Y003790D01*
X013848Y003806D01*
X013802Y003827D01*
X013758Y003851D01*
X013716Y003878D01*
X013676Y003908D01*
X013639Y003942D01*
X013605Y003979D01*
X013573Y004018D01*
X013545Y004059D01*
X013520Y004103D01*
X013499Y004148D01*
X013482Y004195D01*
X013468Y004243D01*
X013458Y004292D01*
X013452Y004342D01*
X013450Y004392D01*
X014950Y004392D02*
X014952Y004442D01*
X014958Y004492D01*
X014968Y004541D01*
X014982Y004589D01*
X014999Y004636D01*
X015020Y004681D01*
X015045Y004725D01*
X015073Y004766D01*
X015105Y004805D01*
X015139Y004842D01*
X015176Y004876D01*
X015216Y004906D01*
X015258Y004933D01*
X015302Y004957D01*
X015348Y004978D01*
X015395Y004994D01*
X015443Y005007D01*
X015493Y005016D01*
X015542Y005021D01*
X015593Y005022D01*
X015643Y005019D01*
X015692Y005012D01*
X015741Y005001D01*
X015789Y004986D01*
X015835Y004968D01*
X015880Y004946D01*
X015923Y004920D01*
X015964Y004891D01*
X016003Y004859D01*
X016039Y004824D01*
X016071Y004786D01*
X016101Y004746D01*
X016128Y004703D01*
X016151Y004659D01*
X016170Y004613D01*
X016186Y004565D01*
X016198Y004516D01*
X016206Y004467D01*
X016210Y004417D01*
X016210Y004367D01*
X016206Y004317D01*
X016198Y004268D01*
X016186Y004219D01*
X016170Y004171D01*
X016151Y004125D01*
X016128Y004081D01*
X016101Y004038D01*
X016071Y003998D01*
X016039Y003960D01*
X016003Y003925D01*
X015964Y003893D01*
X015923Y003864D01*
X015880Y003838D01*
X015835Y003816D01*
X015789Y003798D01*
X015741Y003783D01*
X015692Y003772D01*
X015643Y003765D01*
X015593Y003762D01*
X015542Y003763D01*
X015493Y003768D01*
X015443Y003777D01*
X015395Y003790D01*
X015348Y003806D01*
X015302Y003827D01*
X015258Y003851D01*
X015216Y003878D01*
X015176Y003908D01*
X015139Y003942D01*
X015105Y003979D01*
X015073Y004018D01*
X015045Y004059D01*
X015020Y004103D01*
X014999Y004148D01*
X014982Y004195D01*
X014968Y004243D01*
X014958Y004292D01*
X014952Y004342D01*
X014950Y004392D01*
X019450Y004392D02*
X019452Y004442D01*
X019458Y004492D01*
X019468Y004541D01*
X019482Y004589D01*
X019499Y004636D01*
X019520Y004681D01*
X019545Y004725D01*
X019573Y004766D01*
X019605Y004805D01*
X019639Y004842D01*
X019676Y004876D01*
X019716Y004906D01*
X019758Y004933D01*
X019802Y004957D01*
X019848Y004978D01*
X019895Y004994D01*
X019943Y005007D01*
X019993Y005016D01*
X020042Y005021D01*
X020093Y005022D01*
X020143Y005019D01*
X020192Y005012D01*
X020241Y005001D01*
X020289Y004986D01*
X020335Y004968D01*
X020380Y004946D01*
X020423Y004920D01*
X020464Y004891D01*
X020503Y004859D01*
X020539Y004824D01*
X020571Y004786D01*
X020601Y004746D01*
X020628Y004703D01*
X020651Y004659D01*
X020670Y004613D01*
X020686Y004565D01*
X020698Y004516D01*
X020706Y004467D01*
X020710Y004417D01*
X020710Y004367D01*
X020706Y004317D01*
X020698Y004268D01*
X020686Y004219D01*
X020670Y004171D01*
X020651Y004125D01*
X020628Y004081D01*
X020601Y004038D01*
X020571Y003998D01*
X020539Y003960D01*
X020503Y003925D01*
X020464Y003893D01*
X020423Y003864D01*
X020380Y003838D01*
X020335Y003816D01*
X020289Y003798D01*
X020241Y003783D01*
X020192Y003772D01*
X020143Y003765D01*
X020093Y003762D01*
X020042Y003763D01*
X019993Y003768D01*
X019943Y003777D01*
X019895Y003790D01*
X019848Y003806D01*
X019802Y003827D01*
X019758Y003851D01*
X019716Y003878D01*
X019676Y003908D01*
X019639Y003942D01*
X019605Y003979D01*
X019573Y004018D01*
X019545Y004059D01*
X019520Y004103D01*
X019499Y004148D01*
X019482Y004195D01*
X019468Y004243D01*
X019458Y004292D01*
X019452Y004342D01*
X019450Y004392D01*
X020950Y004392D02*
X020952Y004442D01*
X020958Y004492D01*
X020968Y004541D01*
X020982Y004589D01*
X020999Y004636D01*
X021020Y004681D01*
X021045Y004725D01*
X021073Y004766D01*
X021105Y004805D01*
X021139Y004842D01*
X021176Y004876D01*
X021216Y004906D01*
X021258Y004933D01*
X021302Y004957D01*
X021348Y004978D01*
X021395Y004994D01*
X021443Y005007D01*
X021493Y005016D01*
X021542Y005021D01*
X021593Y005022D01*
X021643Y005019D01*
X021692Y005012D01*
X021741Y005001D01*
X021789Y004986D01*
X021835Y004968D01*
X021880Y004946D01*
X021923Y004920D01*
X021964Y004891D01*
X022003Y004859D01*
X022039Y004824D01*
X022071Y004786D01*
X022101Y004746D01*
X022128Y004703D01*
X022151Y004659D01*
X022170Y004613D01*
X022186Y004565D01*
X022198Y004516D01*
X022206Y004467D01*
X022210Y004417D01*
X022210Y004367D01*
X022206Y004317D01*
X022198Y004268D01*
X022186Y004219D01*
X022170Y004171D01*
X022151Y004125D01*
X022128Y004081D01*
X022101Y004038D01*
X022071Y003998D01*
X022039Y003960D01*
X022003Y003925D01*
X021964Y003893D01*
X021923Y003864D01*
X021880Y003838D01*
X021835Y003816D01*
X021789Y003798D01*
X021741Y003783D01*
X021692Y003772D01*
X021643Y003765D01*
X021593Y003762D01*
X021542Y003763D01*
X021493Y003768D01*
X021443Y003777D01*
X021395Y003790D01*
X021348Y003806D01*
X021302Y003827D01*
X021258Y003851D01*
X021216Y003878D01*
X021176Y003908D01*
X021139Y003942D01*
X021105Y003979D01*
X021073Y004018D01*
X021045Y004059D01*
X021020Y004103D01*
X020999Y004148D01*
X020982Y004195D01*
X020968Y004243D01*
X020958Y004292D01*
X020952Y004342D01*
X020950Y004392D01*
X025450Y004392D02*
X025452Y004442D01*
X025458Y004492D01*
X025468Y004541D01*
X025482Y004589D01*
X025499Y004636D01*
X025520Y004681D01*
X025545Y004725D01*
X025573Y004766D01*
X025605Y004805D01*
X025639Y004842D01*
X025676Y004876D01*
X025716Y004906D01*
X025758Y004933D01*
X025802Y004957D01*
X025848Y004978D01*
X025895Y004994D01*
X025943Y005007D01*
X025993Y005016D01*
X026042Y005021D01*
X026093Y005022D01*
X026143Y005019D01*
X026192Y005012D01*
X026241Y005001D01*
X026289Y004986D01*
X026335Y004968D01*
X026380Y004946D01*
X026423Y004920D01*
X026464Y004891D01*
X026503Y004859D01*
X026539Y004824D01*
X026571Y004786D01*
X026601Y004746D01*
X026628Y004703D01*
X026651Y004659D01*
X026670Y004613D01*
X026686Y004565D01*
X026698Y004516D01*
X026706Y004467D01*
X026710Y004417D01*
X026710Y004367D01*
X026706Y004317D01*
X026698Y004268D01*
X026686Y004219D01*
X026670Y004171D01*
X026651Y004125D01*
X026628Y004081D01*
X026601Y004038D01*
X026571Y003998D01*
X026539Y003960D01*
X026503Y003925D01*
X026464Y003893D01*
X026423Y003864D01*
X026380Y003838D01*
X026335Y003816D01*
X026289Y003798D01*
X026241Y003783D01*
X026192Y003772D01*
X026143Y003765D01*
X026093Y003762D01*
X026042Y003763D01*
X025993Y003768D01*
X025943Y003777D01*
X025895Y003790D01*
X025848Y003806D01*
X025802Y003827D01*
X025758Y003851D01*
X025716Y003878D01*
X025676Y003908D01*
X025639Y003942D01*
X025605Y003979D01*
X025573Y004018D01*
X025545Y004059D01*
X025520Y004103D01*
X025499Y004148D01*
X025482Y004195D01*
X025468Y004243D01*
X025458Y004292D01*
X025452Y004342D01*
X025450Y004392D01*
X026950Y004392D02*
X026952Y004442D01*
X026958Y004492D01*
X026968Y004541D01*
X026982Y004589D01*
X026999Y004636D01*
X027020Y004681D01*
X027045Y004725D01*
X027073Y004766D01*
X027105Y004805D01*
X027139Y004842D01*
X027176Y004876D01*
X027216Y004906D01*
X027258Y004933D01*
X027302Y004957D01*
X027348Y004978D01*
X027395Y004994D01*
X027443Y005007D01*
X027493Y005016D01*
X027542Y005021D01*
X027593Y005022D01*
X027643Y005019D01*
X027692Y005012D01*
X027741Y005001D01*
X027789Y004986D01*
X027835Y004968D01*
X027880Y004946D01*
X027923Y004920D01*
X027964Y004891D01*
X028003Y004859D01*
X028039Y004824D01*
X028071Y004786D01*
X028101Y004746D01*
X028128Y004703D01*
X028151Y004659D01*
X028170Y004613D01*
X028186Y004565D01*
X028198Y004516D01*
X028206Y004467D01*
X028210Y004417D01*
X028210Y004367D01*
X028206Y004317D01*
X028198Y004268D01*
X028186Y004219D01*
X028170Y004171D01*
X028151Y004125D01*
X028128Y004081D01*
X028101Y004038D01*
X028071Y003998D01*
X028039Y003960D01*
X028003Y003925D01*
X027964Y003893D01*
X027923Y003864D01*
X027880Y003838D01*
X027835Y003816D01*
X027789Y003798D01*
X027741Y003783D01*
X027692Y003772D01*
X027643Y003765D01*
X027593Y003762D01*
X027542Y003763D01*
X027493Y003768D01*
X027443Y003777D01*
X027395Y003790D01*
X027348Y003806D01*
X027302Y003827D01*
X027258Y003851D01*
X027216Y003878D01*
X027176Y003908D01*
X027139Y003942D01*
X027105Y003979D01*
X027073Y004018D01*
X027045Y004059D01*
X027020Y004103D01*
X026999Y004148D01*
X026982Y004195D01*
X026968Y004243D01*
X026958Y004292D01*
X026952Y004342D01*
X026950Y004392D01*
X031450Y004392D02*
X031452Y004442D01*
X031458Y004492D01*
X031468Y004541D01*
X031482Y004589D01*
X031499Y004636D01*
X031520Y004681D01*
X031545Y004725D01*
X031573Y004766D01*
X031605Y004805D01*
X031639Y004842D01*
X031676Y004876D01*
X031716Y004906D01*
X031758Y004933D01*
X031802Y004957D01*
X031848Y004978D01*
X031895Y004994D01*
X031943Y005007D01*
X031993Y005016D01*
X032042Y005021D01*
X032093Y005022D01*
X032143Y005019D01*
X032192Y005012D01*
X032241Y005001D01*
X032289Y004986D01*
X032335Y004968D01*
X032380Y004946D01*
X032423Y004920D01*
X032464Y004891D01*
X032503Y004859D01*
X032539Y004824D01*
X032571Y004786D01*
X032601Y004746D01*
X032628Y004703D01*
X032651Y004659D01*
X032670Y004613D01*
X032686Y004565D01*
X032698Y004516D01*
X032706Y004467D01*
X032710Y004417D01*
X032710Y004367D01*
X032706Y004317D01*
X032698Y004268D01*
X032686Y004219D01*
X032670Y004171D01*
X032651Y004125D01*
X032628Y004081D01*
X032601Y004038D01*
X032571Y003998D01*
X032539Y003960D01*
X032503Y003925D01*
X032464Y003893D01*
X032423Y003864D01*
X032380Y003838D01*
X032335Y003816D01*
X032289Y003798D01*
X032241Y003783D01*
X032192Y003772D01*
X032143Y003765D01*
X032093Y003762D01*
X032042Y003763D01*
X031993Y003768D01*
X031943Y003777D01*
X031895Y003790D01*
X031848Y003806D01*
X031802Y003827D01*
X031758Y003851D01*
X031716Y003878D01*
X031676Y003908D01*
X031639Y003942D01*
X031605Y003979D01*
X031573Y004018D01*
X031545Y004059D01*
X031520Y004103D01*
X031499Y004148D01*
X031482Y004195D01*
X031468Y004243D01*
X031458Y004292D01*
X031452Y004342D01*
X031450Y004392D01*
X042020Y004392D02*
X042022Y004442D01*
X042028Y004492D01*
X042038Y004542D01*
X042051Y004590D01*
X042068Y004638D01*
X042089Y004684D01*
X042113Y004728D01*
X042141Y004770D01*
X042172Y004810D01*
X042206Y004847D01*
X042243Y004882D01*
X042282Y004913D01*
X042323Y004942D01*
X042367Y004967D01*
X042413Y004989D01*
X042460Y005007D01*
X042508Y005021D01*
X042557Y005032D01*
X042607Y005039D01*
X042657Y005042D01*
X042708Y005041D01*
X042758Y005036D01*
X042808Y005027D01*
X042856Y005015D01*
X042904Y004998D01*
X042950Y004978D01*
X042995Y004955D01*
X043038Y004928D01*
X043078Y004898D01*
X043116Y004865D01*
X043151Y004829D01*
X043184Y004790D01*
X043213Y004749D01*
X043239Y004706D01*
X043262Y004661D01*
X043281Y004614D01*
X043296Y004566D01*
X043308Y004517D01*
X043316Y004467D01*
X043320Y004417D01*
X043320Y004367D01*
X043316Y004317D01*
X043308Y004267D01*
X043296Y004218D01*
X043281Y004170D01*
X043262Y004123D01*
X043239Y004078D01*
X043213Y004035D01*
X043184Y003994D01*
X043151Y003955D01*
X043116Y003919D01*
X043078Y003886D01*
X043038Y003856D01*
X042995Y003829D01*
X042950Y003806D01*
X042904Y003786D01*
X042856Y003769D01*
X042808Y003757D01*
X042758Y003748D01*
X042708Y003743D01*
X042657Y003742D01*
X042607Y003745D01*
X042557Y003752D01*
X042508Y003763D01*
X042460Y003777D01*
X042413Y003795D01*
X042367Y003817D01*
X042323Y003842D01*
X042282Y003871D01*
X042243Y003902D01*
X042206Y003937D01*
X042172Y003974D01*
X042141Y004014D01*
X042113Y004056D01*
X042089Y004100D01*
X042068Y004146D01*
X042051Y004194D01*
X042038Y004242D01*
X042028Y004292D01*
X042022Y004342D01*
X042020Y004392D01*
X038594Y030923D02*
X038596Y030953D01*
X038602Y030983D01*
X038611Y031012D01*
X038624Y031039D01*
X038641Y031064D01*
X038660Y031087D01*
X038683Y031108D01*
X038708Y031125D01*
X038734Y031139D01*
X038763Y031149D01*
X038792Y031156D01*
X038822Y031159D01*
X038853Y031158D01*
X038883Y031153D01*
X038912Y031144D01*
X038939Y031132D01*
X038965Y031117D01*
X038989Y031098D01*
X039010Y031076D01*
X039028Y031052D01*
X039043Y031025D01*
X039054Y030997D01*
X039062Y030968D01*
X039066Y030938D01*
X039066Y030908D01*
X039062Y030878D01*
X039054Y030849D01*
X039043Y030821D01*
X039028Y030794D01*
X039010Y030770D01*
X038989Y030748D01*
X038965Y030729D01*
X038939Y030714D01*
X038912Y030702D01*
X038883Y030693D01*
X038853Y030688D01*
X038822Y030687D01*
X038792Y030690D01*
X038763Y030697D01*
X038734Y030707D01*
X038708Y030721D01*
X038683Y030738D01*
X038660Y030759D01*
X038641Y030782D01*
X038624Y030807D01*
X038611Y030834D01*
X038602Y030863D01*
X038596Y030893D01*
X038594Y030923D01*
X036625Y032892D02*
X036627Y032922D01*
X036633Y032952D01*
X036642Y032981D01*
X036655Y033008D01*
X036672Y033033D01*
X036691Y033056D01*
X036714Y033077D01*
X036739Y033094D01*
X036765Y033108D01*
X036794Y033118D01*
X036823Y033125D01*
X036853Y033128D01*
X036884Y033127D01*
X036914Y033122D01*
X036943Y033113D01*
X036970Y033101D01*
X036996Y033086D01*
X037020Y033067D01*
X037041Y033045D01*
X037059Y033021D01*
X037074Y032994D01*
X037085Y032966D01*
X037093Y032937D01*
X037097Y032907D01*
X037097Y032877D01*
X037093Y032847D01*
X037085Y032818D01*
X037074Y032790D01*
X037059Y032763D01*
X037041Y032739D01*
X037020Y032717D01*
X036996Y032698D01*
X036970Y032683D01*
X036943Y032671D01*
X036914Y032662D01*
X036884Y032657D01*
X036853Y032656D01*
X036823Y032659D01*
X036794Y032666D01*
X036765Y032676D01*
X036739Y032690D01*
X036714Y032707D01*
X036691Y032728D01*
X036672Y032751D01*
X036655Y032776D01*
X036642Y032803D01*
X036633Y032832D01*
X036627Y032862D01*
X036625Y032892D01*
X036625Y033876D02*
X036627Y033906D01*
X036633Y033936D01*
X036642Y033965D01*
X036655Y033992D01*
X036672Y034017D01*
X036691Y034040D01*
X036714Y034061D01*
X036739Y034078D01*
X036765Y034092D01*
X036794Y034102D01*
X036823Y034109D01*
X036853Y034112D01*
X036884Y034111D01*
X036914Y034106D01*
X036943Y034097D01*
X036970Y034085D01*
X036996Y034070D01*
X037020Y034051D01*
X037041Y034029D01*
X037059Y034005D01*
X037074Y033978D01*
X037085Y033950D01*
X037093Y033921D01*
X037097Y033891D01*
X037097Y033861D01*
X037093Y033831D01*
X037085Y033802D01*
X037074Y033774D01*
X037059Y033747D01*
X037041Y033723D01*
X037020Y033701D01*
X036996Y033682D01*
X036970Y033667D01*
X036943Y033655D01*
X036914Y033646D01*
X036884Y033641D01*
X036853Y033640D01*
X036823Y033643D01*
X036794Y033650D01*
X036765Y033660D01*
X036739Y033674D01*
X036714Y033691D01*
X036691Y033712D01*
X036672Y033735D01*
X036655Y033760D01*
X036642Y033787D01*
X036633Y033816D01*
X036627Y033846D01*
X036625Y033876D01*
X040563Y033876D02*
X040565Y033906D01*
X040571Y033936D01*
X040580Y033965D01*
X040593Y033992D01*
X040610Y034017D01*
X040629Y034040D01*
X040652Y034061D01*
X040677Y034078D01*
X040703Y034092D01*
X040732Y034102D01*
X040761Y034109D01*
X040791Y034112D01*
X040822Y034111D01*
X040852Y034106D01*
X040881Y034097D01*
X040908Y034085D01*
X040934Y034070D01*
X040958Y034051D01*
X040979Y034029D01*
X040997Y034005D01*
X041012Y033978D01*
X041023Y033950D01*
X041031Y033921D01*
X041035Y033891D01*
X041035Y033861D01*
X041031Y033831D01*
X041023Y033802D01*
X041012Y033774D01*
X040997Y033747D01*
X040979Y033723D01*
X040958Y033701D01*
X040934Y033682D01*
X040908Y033667D01*
X040881Y033655D01*
X040852Y033646D01*
X040822Y033641D01*
X040791Y033640D01*
X040761Y033643D01*
X040732Y033650D01*
X040703Y033660D01*
X040677Y033674D01*
X040652Y033691D01*
X040629Y033712D01*
X040610Y033735D01*
X040593Y033760D01*
X040580Y033787D01*
X040571Y033816D01*
X040565Y033846D01*
X040563Y033876D01*
X040563Y032892D02*
X040565Y032922D01*
X040571Y032952D01*
X040580Y032981D01*
X040593Y033008D01*
X040610Y033033D01*
X040629Y033056D01*
X040652Y033077D01*
X040677Y033094D01*
X040703Y033108D01*
X040732Y033118D01*
X040761Y033125D01*
X040791Y033128D01*
X040822Y033127D01*
X040852Y033122D01*
X040881Y033113D01*
X040908Y033101D01*
X040934Y033086D01*
X040958Y033067D01*
X040979Y033045D01*
X040997Y033021D01*
X041012Y032994D01*
X041023Y032966D01*
X041031Y032937D01*
X041035Y032907D01*
X041035Y032877D01*
X041031Y032847D01*
X041023Y032818D01*
X041012Y032790D01*
X040997Y032763D01*
X040979Y032739D01*
X040958Y032717D01*
X040934Y032698D01*
X040908Y032683D01*
X040881Y032671D01*
X040852Y032662D01*
X040822Y032657D01*
X040791Y032656D01*
X040761Y032659D01*
X040732Y032666D01*
X040703Y032676D01*
X040677Y032690D01*
X040652Y032707D01*
X040629Y032728D01*
X040610Y032751D01*
X040593Y032776D01*
X040580Y032803D01*
X040571Y032832D01*
X040565Y032862D01*
X040563Y032892D01*
X042020Y033192D02*
X042022Y033242D01*
X042028Y033292D01*
X042038Y033342D01*
X042051Y033390D01*
X042068Y033438D01*
X042089Y033484D01*
X042113Y033528D01*
X042141Y033570D01*
X042172Y033610D01*
X042206Y033647D01*
X042243Y033682D01*
X042282Y033713D01*
X042323Y033742D01*
X042367Y033767D01*
X042413Y033789D01*
X042460Y033807D01*
X042508Y033821D01*
X042557Y033832D01*
X042607Y033839D01*
X042657Y033842D01*
X042708Y033841D01*
X042758Y033836D01*
X042808Y033827D01*
X042856Y033815D01*
X042904Y033798D01*
X042950Y033778D01*
X042995Y033755D01*
X043038Y033728D01*
X043078Y033698D01*
X043116Y033665D01*
X043151Y033629D01*
X043184Y033590D01*
X043213Y033549D01*
X043239Y033506D01*
X043262Y033461D01*
X043281Y033414D01*
X043296Y033366D01*
X043308Y033317D01*
X043316Y033267D01*
X043320Y033217D01*
X043320Y033167D01*
X043316Y033117D01*
X043308Y033067D01*
X043296Y033018D01*
X043281Y032970D01*
X043262Y032923D01*
X043239Y032878D01*
X043213Y032835D01*
X043184Y032794D01*
X043151Y032755D01*
X043116Y032719D01*
X043078Y032686D01*
X043038Y032656D01*
X042995Y032629D01*
X042950Y032606D01*
X042904Y032586D01*
X042856Y032569D01*
X042808Y032557D01*
X042758Y032548D01*
X042708Y032543D01*
X042657Y032542D01*
X042607Y032545D01*
X042557Y032552D01*
X042508Y032563D01*
X042460Y032577D01*
X042413Y032595D01*
X042367Y032617D01*
X042323Y032642D01*
X042282Y032671D01*
X042243Y032702D01*
X042206Y032737D01*
X042172Y032774D01*
X042141Y032814D01*
X042113Y032856D01*
X042089Y032900D01*
X042068Y032946D01*
X042051Y032994D01*
X042038Y033042D01*
X042028Y033092D01*
X042022Y033142D01*
X042020Y033192D01*
X031450Y032892D02*
X031452Y032942D01*
X031458Y032992D01*
X031468Y033041D01*
X031482Y033089D01*
X031499Y033136D01*
X031520Y033181D01*
X031545Y033225D01*
X031573Y033266D01*
X031605Y033305D01*
X031639Y033342D01*
X031676Y033376D01*
X031716Y033406D01*
X031758Y033433D01*
X031802Y033457D01*
X031848Y033478D01*
X031895Y033494D01*
X031943Y033507D01*
X031993Y033516D01*
X032042Y033521D01*
X032093Y033522D01*
X032143Y033519D01*
X032192Y033512D01*
X032241Y033501D01*
X032289Y033486D01*
X032335Y033468D01*
X032380Y033446D01*
X032423Y033420D01*
X032464Y033391D01*
X032503Y033359D01*
X032539Y033324D01*
X032571Y033286D01*
X032601Y033246D01*
X032628Y033203D01*
X032651Y033159D01*
X032670Y033113D01*
X032686Y033065D01*
X032698Y033016D01*
X032706Y032967D01*
X032710Y032917D01*
X032710Y032867D01*
X032706Y032817D01*
X032698Y032768D01*
X032686Y032719D01*
X032670Y032671D01*
X032651Y032625D01*
X032628Y032581D01*
X032601Y032538D01*
X032571Y032498D01*
X032539Y032460D01*
X032503Y032425D01*
X032464Y032393D01*
X032423Y032364D01*
X032380Y032338D01*
X032335Y032316D01*
X032289Y032298D01*
X032241Y032283D01*
X032192Y032272D01*
X032143Y032265D01*
X032093Y032262D01*
X032042Y032263D01*
X031993Y032268D01*
X031943Y032277D01*
X031895Y032290D01*
X031848Y032306D01*
X031802Y032327D01*
X031758Y032351D01*
X031716Y032378D01*
X031676Y032408D01*
X031639Y032442D01*
X031605Y032479D01*
X031573Y032518D01*
X031545Y032559D01*
X031520Y032603D01*
X031499Y032648D01*
X031482Y032695D01*
X031468Y032743D01*
X031458Y032792D01*
X031452Y032842D01*
X031450Y032892D01*
X026950Y032892D02*
X026952Y032942D01*
X026958Y032992D01*
X026968Y033041D01*
X026982Y033089D01*
X026999Y033136D01*
X027020Y033181D01*
X027045Y033225D01*
X027073Y033266D01*
X027105Y033305D01*
X027139Y033342D01*
X027176Y033376D01*
X027216Y033406D01*
X027258Y033433D01*
X027302Y033457D01*
X027348Y033478D01*
X027395Y033494D01*
X027443Y033507D01*
X027493Y033516D01*
X027542Y033521D01*
X027593Y033522D01*
X027643Y033519D01*
X027692Y033512D01*
X027741Y033501D01*
X027789Y033486D01*
X027835Y033468D01*
X027880Y033446D01*
X027923Y033420D01*
X027964Y033391D01*
X028003Y033359D01*
X028039Y033324D01*
X028071Y033286D01*
X028101Y033246D01*
X028128Y033203D01*
X028151Y033159D01*
X028170Y033113D01*
X028186Y033065D01*
X028198Y033016D01*
X028206Y032967D01*
X028210Y032917D01*
X028210Y032867D01*
X028206Y032817D01*
X028198Y032768D01*
X028186Y032719D01*
X028170Y032671D01*
X028151Y032625D01*
X028128Y032581D01*
X028101Y032538D01*
X028071Y032498D01*
X028039Y032460D01*
X028003Y032425D01*
X027964Y032393D01*
X027923Y032364D01*
X027880Y032338D01*
X027835Y032316D01*
X027789Y032298D01*
X027741Y032283D01*
X027692Y032272D01*
X027643Y032265D01*
X027593Y032262D01*
X027542Y032263D01*
X027493Y032268D01*
X027443Y032277D01*
X027395Y032290D01*
X027348Y032306D01*
X027302Y032327D01*
X027258Y032351D01*
X027216Y032378D01*
X027176Y032408D01*
X027139Y032442D01*
X027105Y032479D01*
X027073Y032518D01*
X027045Y032559D01*
X027020Y032603D01*
X026999Y032648D01*
X026982Y032695D01*
X026968Y032743D01*
X026958Y032792D01*
X026952Y032842D01*
X026950Y032892D01*
X025450Y032892D02*
X025452Y032942D01*
X025458Y032992D01*
X025468Y033041D01*
X025482Y033089D01*
X025499Y033136D01*
X025520Y033181D01*
X025545Y033225D01*
X025573Y033266D01*
X025605Y033305D01*
X025639Y033342D01*
X025676Y033376D01*
X025716Y033406D01*
X025758Y033433D01*
X025802Y033457D01*
X025848Y033478D01*
X025895Y033494D01*
X025943Y033507D01*
X025993Y033516D01*
X026042Y033521D01*
X026093Y033522D01*
X026143Y033519D01*
X026192Y033512D01*
X026241Y033501D01*
X026289Y033486D01*
X026335Y033468D01*
X026380Y033446D01*
X026423Y033420D01*
X026464Y033391D01*
X026503Y033359D01*
X026539Y033324D01*
X026571Y033286D01*
X026601Y033246D01*
X026628Y033203D01*
X026651Y033159D01*
X026670Y033113D01*
X026686Y033065D01*
X026698Y033016D01*
X026706Y032967D01*
X026710Y032917D01*
X026710Y032867D01*
X026706Y032817D01*
X026698Y032768D01*
X026686Y032719D01*
X026670Y032671D01*
X026651Y032625D01*
X026628Y032581D01*
X026601Y032538D01*
X026571Y032498D01*
X026539Y032460D01*
X026503Y032425D01*
X026464Y032393D01*
X026423Y032364D01*
X026380Y032338D01*
X026335Y032316D01*
X026289Y032298D01*
X026241Y032283D01*
X026192Y032272D01*
X026143Y032265D01*
X026093Y032262D01*
X026042Y032263D01*
X025993Y032268D01*
X025943Y032277D01*
X025895Y032290D01*
X025848Y032306D01*
X025802Y032327D01*
X025758Y032351D01*
X025716Y032378D01*
X025676Y032408D01*
X025639Y032442D01*
X025605Y032479D01*
X025573Y032518D01*
X025545Y032559D01*
X025520Y032603D01*
X025499Y032648D01*
X025482Y032695D01*
X025468Y032743D01*
X025458Y032792D01*
X025452Y032842D01*
X025450Y032892D01*
X020950Y032892D02*
X020952Y032942D01*
X020958Y032992D01*
X020968Y033041D01*
X020982Y033089D01*
X020999Y033136D01*
X021020Y033181D01*
X021045Y033225D01*
X021073Y033266D01*
X021105Y033305D01*
X021139Y033342D01*
X021176Y033376D01*
X021216Y033406D01*
X021258Y033433D01*
X021302Y033457D01*
X021348Y033478D01*
X021395Y033494D01*
X021443Y033507D01*
X021493Y033516D01*
X021542Y033521D01*
X021593Y033522D01*
X021643Y033519D01*
X021692Y033512D01*
X021741Y033501D01*
X021789Y033486D01*
X021835Y033468D01*
X021880Y033446D01*
X021923Y033420D01*
X021964Y033391D01*
X022003Y033359D01*
X022039Y033324D01*
X022071Y033286D01*
X022101Y033246D01*
X022128Y033203D01*
X022151Y033159D01*
X022170Y033113D01*
X022186Y033065D01*
X022198Y033016D01*
X022206Y032967D01*
X022210Y032917D01*
X022210Y032867D01*
X022206Y032817D01*
X022198Y032768D01*
X022186Y032719D01*
X022170Y032671D01*
X022151Y032625D01*
X022128Y032581D01*
X022101Y032538D01*
X022071Y032498D01*
X022039Y032460D01*
X022003Y032425D01*
X021964Y032393D01*
X021923Y032364D01*
X021880Y032338D01*
X021835Y032316D01*
X021789Y032298D01*
X021741Y032283D01*
X021692Y032272D01*
X021643Y032265D01*
X021593Y032262D01*
X021542Y032263D01*
X021493Y032268D01*
X021443Y032277D01*
X021395Y032290D01*
X021348Y032306D01*
X021302Y032327D01*
X021258Y032351D01*
X021216Y032378D01*
X021176Y032408D01*
X021139Y032442D01*
X021105Y032479D01*
X021073Y032518D01*
X021045Y032559D01*
X021020Y032603D01*
X020999Y032648D01*
X020982Y032695D01*
X020968Y032743D01*
X020958Y032792D01*
X020952Y032842D01*
X020950Y032892D01*
X019450Y032892D02*
X019452Y032942D01*
X019458Y032992D01*
X019468Y033041D01*
X019482Y033089D01*
X019499Y033136D01*
X019520Y033181D01*
X019545Y033225D01*
X019573Y033266D01*
X019605Y033305D01*
X019639Y033342D01*
X019676Y033376D01*
X019716Y033406D01*
X019758Y033433D01*
X019802Y033457D01*
X019848Y033478D01*
X019895Y033494D01*
X019943Y033507D01*
X019993Y033516D01*
X020042Y033521D01*
X020093Y033522D01*
X020143Y033519D01*
X020192Y033512D01*
X020241Y033501D01*
X020289Y033486D01*
X020335Y033468D01*
X020380Y033446D01*
X020423Y033420D01*
X020464Y033391D01*
X020503Y033359D01*
X020539Y033324D01*
X020571Y033286D01*
X020601Y033246D01*
X020628Y033203D01*
X020651Y033159D01*
X020670Y033113D01*
X020686Y033065D01*
X020698Y033016D01*
X020706Y032967D01*
X020710Y032917D01*
X020710Y032867D01*
X020706Y032817D01*
X020698Y032768D01*
X020686Y032719D01*
X020670Y032671D01*
X020651Y032625D01*
X020628Y032581D01*
X020601Y032538D01*
X020571Y032498D01*
X020539Y032460D01*
X020503Y032425D01*
X020464Y032393D01*
X020423Y032364D01*
X020380Y032338D01*
X020335Y032316D01*
X020289Y032298D01*
X020241Y032283D01*
X020192Y032272D01*
X020143Y032265D01*
X020093Y032262D01*
X020042Y032263D01*
X019993Y032268D01*
X019943Y032277D01*
X019895Y032290D01*
X019848Y032306D01*
X019802Y032327D01*
X019758Y032351D01*
X019716Y032378D01*
X019676Y032408D01*
X019639Y032442D01*
X019605Y032479D01*
X019573Y032518D01*
X019545Y032559D01*
X019520Y032603D01*
X019499Y032648D01*
X019482Y032695D01*
X019468Y032743D01*
X019458Y032792D01*
X019452Y032842D01*
X019450Y032892D01*
X014950Y032892D02*
X014952Y032942D01*
X014958Y032992D01*
X014968Y033041D01*
X014982Y033089D01*
X014999Y033136D01*
X015020Y033181D01*
X015045Y033225D01*
X015073Y033266D01*
X015105Y033305D01*
X015139Y033342D01*
X015176Y033376D01*
X015216Y033406D01*
X015258Y033433D01*
X015302Y033457D01*
X015348Y033478D01*
X015395Y033494D01*
X015443Y033507D01*
X015493Y033516D01*
X015542Y033521D01*
X015593Y033522D01*
X015643Y033519D01*
X015692Y033512D01*
X015741Y033501D01*
X015789Y033486D01*
X015835Y033468D01*
X015880Y033446D01*
X015923Y033420D01*
X015964Y033391D01*
X016003Y033359D01*
X016039Y033324D01*
X016071Y033286D01*
X016101Y033246D01*
X016128Y033203D01*
X016151Y033159D01*
X016170Y033113D01*
X016186Y033065D01*
X016198Y033016D01*
X016206Y032967D01*
X016210Y032917D01*
X016210Y032867D01*
X016206Y032817D01*
X016198Y032768D01*
X016186Y032719D01*
X016170Y032671D01*
X016151Y032625D01*
X016128Y032581D01*
X016101Y032538D01*
X016071Y032498D01*
X016039Y032460D01*
X016003Y032425D01*
X015964Y032393D01*
X015923Y032364D01*
X015880Y032338D01*
X015835Y032316D01*
X015789Y032298D01*
X015741Y032283D01*
X015692Y032272D01*
X015643Y032265D01*
X015593Y032262D01*
X015542Y032263D01*
X015493Y032268D01*
X015443Y032277D01*
X015395Y032290D01*
X015348Y032306D01*
X015302Y032327D01*
X015258Y032351D01*
X015216Y032378D01*
X015176Y032408D01*
X015139Y032442D01*
X015105Y032479D01*
X015073Y032518D01*
X015045Y032559D01*
X015020Y032603D01*
X014999Y032648D01*
X014982Y032695D01*
X014968Y032743D01*
X014958Y032792D01*
X014952Y032842D01*
X014950Y032892D01*
X013450Y032892D02*
X013452Y032942D01*
X013458Y032992D01*
X013468Y033041D01*
X013482Y033089D01*
X013499Y033136D01*
X013520Y033181D01*
X013545Y033225D01*
X013573Y033266D01*
X013605Y033305D01*
X013639Y033342D01*
X013676Y033376D01*
X013716Y033406D01*
X013758Y033433D01*
X013802Y033457D01*
X013848Y033478D01*
X013895Y033494D01*
X013943Y033507D01*
X013993Y033516D01*
X014042Y033521D01*
X014093Y033522D01*
X014143Y033519D01*
X014192Y033512D01*
X014241Y033501D01*
X014289Y033486D01*
X014335Y033468D01*
X014380Y033446D01*
X014423Y033420D01*
X014464Y033391D01*
X014503Y033359D01*
X014539Y033324D01*
X014571Y033286D01*
X014601Y033246D01*
X014628Y033203D01*
X014651Y033159D01*
X014670Y033113D01*
X014686Y033065D01*
X014698Y033016D01*
X014706Y032967D01*
X014710Y032917D01*
X014710Y032867D01*
X014706Y032817D01*
X014698Y032768D01*
X014686Y032719D01*
X014670Y032671D01*
X014651Y032625D01*
X014628Y032581D01*
X014601Y032538D01*
X014571Y032498D01*
X014539Y032460D01*
X014503Y032425D01*
X014464Y032393D01*
X014423Y032364D01*
X014380Y032338D01*
X014335Y032316D01*
X014289Y032298D01*
X014241Y032283D01*
X014192Y032272D01*
X014143Y032265D01*
X014093Y032262D01*
X014042Y032263D01*
X013993Y032268D01*
X013943Y032277D01*
X013895Y032290D01*
X013848Y032306D01*
X013802Y032327D01*
X013758Y032351D01*
X013716Y032378D01*
X013676Y032408D01*
X013639Y032442D01*
X013605Y032479D01*
X013573Y032518D01*
X013545Y032559D01*
X013520Y032603D01*
X013499Y032648D01*
X013482Y032695D01*
X013468Y032743D01*
X013458Y032792D01*
X013452Y032842D01*
X013450Y032892D01*
X008950Y032892D02*
X008952Y032942D01*
X008958Y032992D01*
X008968Y033041D01*
X008982Y033089D01*
X008999Y033136D01*
X009020Y033181D01*
X009045Y033225D01*
X009073Y033266D01*
X009105Y033305D01*
X009139Y033342D01*
X009176Y033376D01*
X009216Y033406D01*
X009258Y033433D01*
X009302Y033457D01*
X009348Y033478D01*
X009395Y033494D01*
X009443Y033507D01*
X009493Y033516D01*
X009542Y033521D01*
X009593Y033522D01*
X009643Y033519D01*
X009692Y033512D01*
X009741Y033501D01*
X009789Y033486D01*
X009835Y033468D01*
X009880Y033446D01*
X009923Y033420D01*
X009964Y033391D01*
X010003Y033359D01*
X010039Y033324D01*
X010071Y033286D01*
X010101Y033246D01*
X010128Y033203D01*
X010151Y033159D01*
X010170Y033113D01*
X010186Y033065D01*
X010198Y033016D01*
X010206Y032967D01*
X010210Y032917D01*
X010210Y032867D01*
X010206Y032817D01*
X010198Y032768D01*
X010186Y032719D01*
X010170Y032671D01*
X010151Y032625D01*
X010128Y032581D01*
X010101Y032538D01*
X010071Y032498D01*
X010039Y032460D01*
X010003Y032425D01*
X009964Y032393D01*
X009923Y032364D01*
X009880Y032338D01*
X009835Y032316D01*
X009789Y032298D01*
X009741Y032283D01*
X009692Y032272D01*
X009643Y032265D01*
X009593Y032262D01*
X009542Y032263D01*
X009493Y032268D01*
X009443Y032277D01*
X009395Y032290D01*
X009348Y032306D01*
X009302Y032327D01*
X009258Y032351D01*
X009216Y032378D01*
X009176Y032408D01*
X009139Y032442D01*
X009105Y032479D01*
X009073Y032518D01*
X009045Y032559D01*
X009020Y032603D01*
X008999Y032648D01*
X008982Y032695D01*
X008968Y032743D01*
X008958Y032792D01*
X008952Y032842D01*
X008950Y032892D01*
X007450Y032892D02*
X007452Y032942D01*
X007458Y032992D01*
X007468Y033041D01*
X007482Y033089D01*
X007499Y033136D01*
X007520Y033181D01*
X007545Y033225D01*
X007573Y033266D01*
X007605Y033305D01*
X007639Y033342D01*
X007676Y033376D01*
X007716Y033406D01*
X007758Y033433D01*
X007802Y033457D01*
X007848Y033478D01*
X007895Y033494D01*
X007943Y033507D01*
X007993Y033516D01*
X008042Y033521D01*
X008093Y033522D01*
X008143Y033519D01*
X008192Y033512D01*
X008241Y033501D01*
X008289Y033486D01*
X008335Y033468D01*
X008380Y033446D01*
X008423Y033420D01*
X008464Y033391D01*
X008503Y033359D01*
X008539Y033324D01*
X008571Y033286D01*
X008601Y033246D01*
X008628Y033203D01*
X008651Y033159D01*
X008670Y033113D01*
X008686Y033065D01*
X008698Y033016D01*
X008706Y032967D01*
X008710Y032917D01*
X008710Y032867D01*
X008706Y032817D01*
X008698Y032768D01*
X008686Y032719D01*
X008670Y032671D01*
X008651Y032625D01*
X008628Y032581D01*
X008601Y032538D01*
X008571Y032498D01*
X008539Y032460D01*
X008503Y032425D01*
X008464Y032393D01*
X008423Y032364D01*
X008380Y032338D01*
X008335Y032316D01*
X008289Y032298D01*
X008241Y032283D01*
X008192Y032272D01*
X008143Y032265D01*
X008093Y032262D01*
X008042Y032263D01*
X007993Y032268D01*
X007943Y032277D01*
X007895Y032290D01*
X007848Y032306D01*
X007802Y032327D01*
X007758Y032351D01*
X007716Y032378D01*
X007676Y032408D01*
X007639Y032442D01*
X007605Y032479D01*
X007573Y032518D01*
X007545Y032559D01*
X007520Y032603D01*
X007499Y032648D01*
X007482Y032695D01*
X007468Y032743D01*
X007458Y032792D01*
X007452Y032842D01*
X007450Y032892D01*
X002950Y032892D02*
X002952Y032942D01*
X002958Y032992D01*
X002968Y033041D01*
X002982Y033089D01*
X002999Y033136D01*
X003020Y033181D01*
X003045Y033225D01*
X003073Y033266D01*
X003105Y033305D01*
X003139Y033342D01*
X003176Y033376D01*
X003216Y033406D01*
X003258Y033433D01*
X003302Y033457D01*
X003348Y033478D01*
X003395Y033494D01*
X003443Y033507D01*
X003493Y033516D01*
X003542Y033521D01*
X003593Y033522D01*
X003643Y033519D01*
X003692Y033512D01*
X003741Y033501D01*
X003789Y033486D01*
X003835Y033468D01*
X003880Y033446D01*
X003923Y033420D01*
X003964Y033391D01*
X004003Y033359D01*
X004039Y033324D01*
X004071Y033286D01*
X004101Y033246D01*
X004128Y033203D01*
X004151Y033159D01*
X004170Y033113D01*
X004186Y033065D01*
X004198Y033016D01*
X004206Y032967D01*
X004210Y032917D01*
X004210Y032867D01*
X004206Y032817D01*
X004198Y032768D01*
X004186Y032719D01*
X004170Y032671D01*
X004151Y032625D01*
X004128Y032581D01*
X004101Y032538D01*
X004071Y032498D01*
X004039Y032460D01*
X004003Y032425D01*
X003964Y032393D01*
X003923Y032364D01*
X003880Y032338D01*
X003835Y032316D01*
X003789Y032298D01*
X003741Y032283D01*
X003692Y032272D01*
X003643Y032265D01*
X003593Y032262D01*
X003542Y032263D01*
X003493Y032268D01*
X003443Y032277D01*
X003395Y032290D01*
X003348Y032306D01*
X003302Y032327D01*
X003258Y032351D01*
X003216Y032378D01*
X003176Y032408D01*
X003139Y032442D01*
X003105Y032479D01*
X003073Y032518D01*
X003045Y032559D01*
X003020Y032603D01*
X002999Y032648D01*
X002982Y032695D01*
X002968Y032743D01*
X002958Y032792D01*
X002952Y032842D01*
X002950Y032892D01*
X000680Y033192D02*
X000682Y033242D01*
X000688Y033292D01*
X000698Y033342D01*
X000711Y033390D01*
X000728Y033438D01*
X000749Y033484D01*
X000773Y033528D01*
X000801Y033570D01*
X000832Y033610D01*
X000866Y033647D01*
X000903Y033682D01*
X000942Y033713D01*
X000983Y033742D01*
X001027Y033767D01*
X001073Y033789D01*
X001120Y033807D01*
X001168Y033821D01*
X001217Y033832D01*
X001267Y033839D01*
X001317Y033842D01*
X001368Y033841D01*
X001418Y033836D01*
X001468Y033827D01*
X001516Y033815D01*
X001564Y033798D01*
X001610Y033778D01*
X001655Y033755D01*
X001698Y033728D01*
X001738Y033698D01*
X001776Y033665D01*
X001811Y033629D01*
X001844Y033590D01*
X001873Y033549D01*
X001899Y033506D01*
X001922Y033461D01*
X001941Y033414D01*
X001956Y033366D01*
X001968Y033317D01*
X001976Y033267D01*
X001980Y033217D01*
X001980Y033167D01*
X001976Y033117D01*
X001968Y033067D01*
X001956Y033018D01*
X001941Y032970D01*
X001922Y032923D01*
X001899Y032878D01*
X001873Y032835D01*
X001844Y032794D01*
X001811Y032755D01*
X001776Y032719D01*
X001738Y032686D01*
X001698Y032656D01*
X001655Y032629D01*
X001610Y032606D01*
X001564Y032586D01*
X001516Y032569D01*
X001468Y032557D01*
X001418Y032548D01*
X001368Y032543D01*
X001317Y032542D01*
X001267Y032545D01*
X001217Y032552D01*
X001168Y032563D01*
X001120Y032577D01*
X001073Y032595D01*
X001027Y032617D01*
X000983Y032642D01*
X000942Y032671D01*
X000903Y032702D01*
X000866Y032737D01*
X000832Y032774D01*
X000801Y032814D01*
X000773Y032856D01*
X000749Y032900D01*
X000728Y032946D01*
X000711Y032994D01*
X000698Y033042D01*
X000688Y033092D01*
X000682Y033142D01*
X000680Y033192D01*
D11*
X003930Y019342D02*
X004730Y019342D01*
X004747Y019340D01*
X004764Y019336D01*
X004780Y019329D01*
X004794Y019319D01*
X004807Y019306D01*
X004817Y019292D01*
X004824Y019276D01*
X004828Y019259D01*
X004830Y019242D01*
X004830Y017542D01*
X004828Y017525D01*
X004824Y017508D01*
X004817Y017492D01*
X004807Y017478D01*
X004794Y017465D01*
X004780Y017455D01*
X004764Y017448D01*
X004747Y017444D01*
X004730Y017442D01*
X003930Y017442D01*
X003913Y017444D01*
X003896Y017448D01*
X003880Y017455D01*
X003866Y017465D01*
X003853Y017478D01*
X003843Y017492D01*
X003836Y017508D01*
X003832Y017525D01*
X003830Y017542D01*
X003830Y019242D01*
X003832Y019259D01*
X003836Y019276D01*
X003843Y019292D01*
X003853Y019306D01*
X003866Y019319D01*
X003880Y019329D01*
X003896Y019336D01*
X003913Y019340D01*
X003930Y019342D01*
X004330Y018542D02*
X004330Y018492D01*
X004330Y018292D02*
X004330Y018242D01*
X010830Y017542D02*
X010830Y019242D01*
X010832Y019259D01*
X010836Y019276D01*
X010843Y019292D01*
X010853Y019306D01*
X010866Y019319D01*
X010880Y019329D01*
X010896Y019336D01*
X010913Y019340D01*
X010930Y019342D01*
X011730Y019342D01*
X011747Y019340D01*
X011764Y019336D01*
X011780Y019329D01*
X011794Y019319D01*
X011807Y019306D01*
X011817Y019292D01*
X011824Y019276D01*
X011828Y019259D01*
X011830Y019242D01*
X011830Y017542D01*
X011828Y017525D01*
X011824Y017508D01*
X011817Y017492D01*
X011807Y017478D01*
X011794Y017465D01*
X011780Y017455D01*
X011764Y017448D01*
X011747Y017444D01*
X011730Y017442D01*
X010930Y017442D01*
X010913Y017444D01*
X010896Y017448D01*
X010880Y017455D01*
X010866Y017465D01*
X010853Y017478D01*
X010843Y017492D01*
X010836Y017508D01*
X010832Y017525D01*
X010830Y017542D01*
X011330Y018242D02*
X011330Y018292D01*
X011330Y018492D02*
X011330Y018542D01*
X013330Y018892D02*
X013332Y018936D01*
X013338Y018980D01*
X013348Y019023D01*
X013361Y019065D01*
X013378Y019106D01*
X013399Y019145D01*
X013423Y019182D01*
X013450Y019217D01*
X013480Y019249D01*
X013513Y019279D01*
X013549Y019305D01*
X013586Y019329D01*
X013626Y019348D01*
X013667Y019365D01*
X013710Y019377D01*
X013753Y019386D01*
X013797Y019391D01*
X013841Y019392D01*
X013885Y019389D01*
X013929Y019382D01*
X013972Y019371D01*
X014014Y019357D01*
X014054Y019339D01*
X014093Y019317D01*
X014129Y019293D01*
X014163Y019265D01*
X014195Y019234D01*
X014224Y019200D01*
X014250Y019164D01*
X014272Y019126D01*
X014291Y019086D01*
X014306Y019044D01*
X014318Y019002D01*
X014326Y018958D01*
X014330Y018914D01*
X014330Y018870D01*
X014326Y018826D01*
X014318Y018782D01*
X014306Y018740D01*
X014291Y018698D01*
X014272Y018658D01*
X014250Y018620D01*
X014224Y018584D01*
X014195Y018550D01*
X014163Y018519D01*
X014129Y018491D01*
X014093Y018467D01*
X014054Y018445D01*
X014014Y018427D01*
X013972Y018413D01*
X013929Y018402D01*
X013885Y018395D01*
X013841Y018392D01*
X013797Y018393D01*
X013753Y018398D01*
X013710Y018407D01*
X013667Y018419D01*
X013626Y018436D01*
X013586Y018455D01*
X013549Y018479D01*
X013513Y018505D01*
X013480Y018535D01*
X013450Y018567D01*
X013423Y018602D01*
X013399Y018639D01*
X013378Y018678D01*
X013361Y018719D01*
X013348Y018761D01*
X013338Y018804D01*
X013332Y018848D01*
X013330Y018892D01*
X016330Y018892D02*
X016332Y018936D01*
X016338Y018980D01*
X016348Y019023D01*
X016361Y019065D01*
X016378Y019106D01*
X016399Y019145D01*
X016423Y019182D01*
X016450Y019217D01*
X016480Y019249D01*
X016513Y019279D01*
X016549Y019305D01*
X016586Y019329D01*
X016626Y019348D01*
X016667Y019365D01*
X016710Y019377D01*
X016753Y019386D01*
X016797Y019391D01*
X016841Y019392D01*
X016885Y019389D01*
X016929Y019382D01*
X016972Y019371D01*
X017014Y019357D01*
X017054Y019339D01*
X017093Y019317D01*
X017129Y019293D01*
X017163Y019265D01*
X017195Y019234D01*
X017224Y019200D01*
X017250Y019164D01*
X017272Y019126D01*
X017291Y019086D01*
X017306Y019044D01*
X017318Y019002D01*
X017326Y018958D01*
X017330Y018914D01*
X017330Y018870D01*
X017326Y018826D01*
X017318Y018782D01*
X017306Y018740D01*
X017291Y018698D01*
X017272Y018658D01*
X017250Y018620D01*
X017224Y018584D01*
X017195Y018550D01*
X017163Y018519D01*
X017129Y018491D01*
X017093Y018467D01*
X017054Y018445D01*
X017014Y018427D01*
X016972Y018413D01*
X016929Y018402D01*
X016885Y018395D01*
X016841Y018392D01*
X016797Y018393D01*
X016753Y018398D01*
X016710Y018407D01*
X016667Y018419D01*
X016626Y018436D01*
X016586Y018455D01*
X016549Y018479D01*
X016513Y018505D01*
X016480Y018535D01*
X016450Y018567D01*
X016423Y018602D01*
X016399Y018639D01*
X016378Y018678D01*
X016361Y018719D01*
X016348Y018761D01*
X016338Y018804D01*
X016332Y018848D01*
X016330Y018892D01*
X017330Y018392D02*
X017332Y018436D01*
X017338Y018480D01*
X017348Y018523D01*
X017361Y018565D01*
X017378Y018606D01*
X017399Y018645D01*
X017423Y018682D01*
X017450Y018717D01*
X017480Y018749D01*
X017513Y018779D01*
X017549Y018805D01*
X017586Y018829D01*
X017626Y018848D01*
X017667Y018865D01*
X017710Y018877D01*
X017753Y018886D01*
X017797Y018891D01*
X017841Y018892D01*
X017885Y018889D01*
X017929Y018882D01*
X017972Y018871D01*
X018014Y018857D01*
X018054Y018839D01*
X018093Y018817D01*
X018129Y018793D01*
X018163Y018765D01*
X018195Y018734D01*
X018224Y018700D01*
X018250Y018664D01*
X018272Y018626D01*
X018291Y018586D01*
X018306Y018544D01*
X018318Y018502D01*
X018326Y018458D01*
X018330Y018414D01*
X018330Y018370D01*
X018326Y018326D01*
X018318Y018282D01*
X018306Y018240D01*
X018291Y018198D01*
X018272Y018158D01*
X018250Y018120D01*
X018224Y018084D01*
X018195Y018050D01*
X018163Y018019D01*
X018129Y017991D01*
X018093Y017967D01*
X018054Y017945D01*
X018014Y017927D01*
X017972Y017913D01*
X017929Y017902D01*
X017885Y017895D01*
X017841Y017892D01*
X017797Y017893D01*
X017753Y017898D01*
X017710Y017907D01*
X017667Y017919D01*
X017626Y017936D01*
X017586Y017955D01*
X017549Y017979D01*
X017513Y018005D01*
X017480Y018035D01*
X017450Y018067D01*
X017423Y018102D01*
X017399Y018139D01*
X017378Y018178D01*
X017361Y018219D01*
X017348Y018261D01*
X017338Y018304D01*
X017332Y018348D01*
X017330Y018392D01*
X020330Y018392D02*
X020332Y018436D01*
X020338Y018480D01*
X020348Y018523D01*
X020361Y018565D01*
X020378Y018606D01*
X020399Y018645D01*
X020423Y018682D01*
X020450Y018717D01*
X020480Y018749D01*
X020513Y018779D01*
X020549Y018805D01*
X020586Y018829D01*
X020626Y018848D01*
X020667Y018865D01*
X020710Y018877D01*
X020753Y018886D01*
X020797Y018891D01*
X020841Y018892D01*
X020885Y018889D01*
X020929Y018882D01*
X020972Y018871D01*
X021014Y018857D01*
X021054Y018839D01*
X021093Y018817D01*
X021129Y018793D01*
X021163Y018765D01*
X021195Y018734D01*
X021224Y018700D01*
X021250Y018664D01*
X021272Y018626D01*
X021291Y018586D01*
X021306Y018544D01*
X021318Y018502D01*
X021326Y018458D01*
X021330Y018414D01*
X021330Y018370D01*
X021326Y018326D01*
X021318Y018282D01*
X021306Y018240D01*
X021291Y018198D01*
X021272Y018158D01*
X021250Y018120D01*
X021224Y018084D01*
X021195Y018050D01*
X021163Y018019D01*
X021129Y017991D01*
X021093Y017967D01*
X021054Y017945D01*
X021014Y017927D01*
X020972Y017913D01*
X020929Y017902D01*
X020885Y017895D01*
X020841Y017892D01*
X020797Y017893D01*
X020753Y017898D01*
X020710Y017907D01*
X020667Y017919D01*
X020626Y017936D01*
X020586Y017955D01*
X020549Y017979D01*
X020513Y018005D01*
X020480Y018035D01*
X020450Y018067D01*
X020423Y018102D01*
X020399Y018139D01*
X020378Y018178D01*
X020361Y018219D01*
X020348Y018261D01*
X020338Y018304D01*
X020332Y018348D01*
X020330Y018392D01*
X023330Y018042D02*
X023330Y019742D01*
X023332Y019759D01*
X023336Y019776D01*
X023343Y019792D01*
X023353Y019806D01*
X023366Y019819D01*
X023380Y019829D01*
X023396Y019836D01*
X023413Y019840D01*
X023430Y019842D01*
X024230Y019842D01*
X024247Y019840D01*
X024264Y019836D01*
X024280Y019829D01*
X024294Y019819D01*
X024307Y019806D01*
X024317Y019792D01*
X024324Y019776D01*
X024328Y019759D01*
X024330Y019742D01*
X024330Y018042D01*
X024328Y018025D01*
X024324Y018008D01*
X024317Y017992D01*
X024307Y017978D01*
X024294Y017965D01*
X024280Y017955D01*
X024264Y017948D01*
X024247Y017944D01*
X024230Y017942D01*
X023430Y017942D01*
X023413Y017944D01*
X023396Y017948D01*
X023380Y017955D01*
X023366Y017965D01*
X023353Y017978D01*
X023343Y017992D01*
X023336Y018008D01*
X023332Y018025D01*
X023330Y018042D01*
X023830Y018742D02*
X023830Y018792D01*
X023830Y018992D02*
X023830Y019042D01*
X033330Y023892D02*
X034330Y023892D01*
X034330Y003892D01*
X036430Y003892D01*
X036432Y003931D01*
X036438Y003970D01*
X036447Y004008D01*
X036460Y004045D01*
X036477Y004081D01*
X036497Y004114D01*
X036521Y004146D01*
X036547Y004175D01*
X036576Y004201D01*
X036608Y004225D01*
X036641Y004245D01*
X036677Y004262D01*
X036714Y004275D01*
X036752Y004284D01*
X036791Y004290D01*
X036830Y004292D01*
X036869Y004290D01*
X036908Y004284D01*
X036946Y004275D01*
X036983Y004262D01*
X037019Y004245D01*
X037052Y004225D01*
X037084Y004201D01*
X037113Y004175D01*
X037139Y004146D01*
X037163Y004114D01*
X037183Y004081D01*
X037200Y004045D01*
X037213Y004008D01*
X037222Y003970D01*
X037228Y003931D01*
X037230Y003892D01*
X039330Y003892D01*
X039330Y023892D01*
X040330Y023892D01*
X040330Y003892D01*
X039330Y003892D01*
X034330Y003892D02*
X033330Y003892D01*
X033330Y023892D01*
X034330Y023892D02*
X039330Y023892D01*
X039230Y024892D02*
X039830Y024892D01*
X039830Y028892D01*
X040830Y028892D01*
X040830Y024892D01*
X039830Y024892D01*
X039230Y024892D02*
X039228Y024931D01*
X039222Y024970D01*
X039213Y025008D01*
X039200Y025045D01*
X039183Y025081D01*
X039163Y025114D01*
X039139Y025146D01*
X039113Y025175D01*
X039084Y025201D01*
X039052Y025225D01*
X039019Y025245D01*
X038983Y025262D01*
X038946Y025275D01*
X038908Y025284D01*
X038869Y025290D01*
X038830Y025292D01*
X038791Y025290D01*
X038752Y025284D01*
X038714Y025275D01*
X038677Y025262D01*
X038641Y025245D01*
X038608Y025225D01*
X038576Y025201D01*
X038547Y025175D01*
X038521Y025146D01*
X038497Y025114D01*
X038477Y025081D01*
X038460Y025045D01*
X038447Y025008D01*
X038438Y024970D01*
X038432Y024931D01*
X038430Y024892D01*
X037830Y024892D02*
X037830Y028892D01*
X039830Y028892D01*
X041330Y029892D02*
X041332Y029936D01*
X041338Y029980D01*
X041348Y030023D01*
X041361Y030065D01*
X041378Y030106D01*
X041399Y030145D01*
X041423Y030182D01*
X041450Y030217D01*
X041480Y030249D01*
X041513Y030279D01*
X041549Y030305D01*
X041586Y030329D01*
X041626Y030348D01*
X041667Y030365D01*
X041710Y030377D01*
X041753Y030386D01*
X041797Y030391D01*
X041841Y030392D01*
X041885Y030389D01*
X041929Y030382D01*
X041972Y030371D01*
X042014Y030357D01*
X042054Y030339D01*
X042093Y030317D01*
X042129Y030293D01*
X042163Y030265D01*
X042195Y030234D01*
X042224Y030200D01*
X042250Y030164D01*
X042272Y030126D01*
X042291Y030086D01*
X042306Y030044D01*
X042318Y030002D01*
X042326Y029958D01*
X042330Y029914D01*
X042330Y029870D01*
X042326Y029826D01*
X042318Y029782D01*
X042306Y029740D01*
X042291Y029698D01*
X042272Y029658D01*
X042250Y029620D01*
X042224Y029584D01*
X042195Y029550D01*
X042163Y029519D01*
X042129Y029491D01*
X042093Y029467D01*
X042054Y029445D01*
X042014Y029427D01*
X041972Y029413D01*
X041929Y029402D01*
X041885Y029395D01*
X041841Y029392D01*
X041797Y029393D01*
X041753Y029398D01*
X041710Y029407D01*
X041667Y029419D01*
X041626Y029436D01*
X041586Y029455D01*
X041549Y029479D01*
X041513Y029505D01*
X041480Y029535D01*
X041450Y029567D01*
X041423Y029602D01*
X041399Y029639D01*
X041378Y029678D01*
X041361Y029719D01*
X041348Y029761D01*
X041338Y029804D01*
X041332Y029848D01*
X041330Y029892D01*
X037830Y028892D02*
X036830Y028892D01*
X036830Y024892D01*
X037830Y024892D01*
X036780Y024992D02*
X036780Y025792D01*
X036778Y025809D01*
X036774Y025826D01*
X036767Y025842D01*
X036757Y025856D01*
X036744Y025869D01*
X036730Y025879D01*
X036714Y025886D01*
X036697Y025890D01*
X036680Y025892D01*
X034980Y025892D01*
X034963Y025890D01*
X034946Y025886D01*
X034930Y025879D01*
X034916Y025869D01*
X034903Y025856D01*
X034893Y025842D01*
X034886Y025826D01*
X034882Y025809D01*
X034880Y025792D01*
X034880Y024992D01*
X034830Y025042D02*
X034830Y026742D01*
X034828Y026759D01*
X034824Y026776D01*
X034817Y026792D01*
X034807Y026806D01*
X034794Y026819D01*
X034780Y026829D01*
X034764Y026836D01*
X034747Y026840D01*
X034730Y026842D01*
X033930Y026842D01*
X033913Y026840D01*
X033896Y026836D01*
X033880Y026829D01*
X033866Y026819D01*
X033853Y026806D01*
X033843Y026792D01*
X033836Y026776D01*
X033832Y026759D01*
X033830Y026742D01*
X033830Y025042D01*
X033832Y025025D01*
X033836Y025008D01*
X033843Y024992D01*
X033853Y024978D01*
X033866Y024965D01*
X033880Y024955D01*
X033896Y024948D01*
X033913Y024944D01*
X033930Y024942D01*
X034730Y024942D01*
X034747Y024944D01*
X034764Y024948D01*
X034780Y024955D01*
X034794Y024965D01*
X034807Y024978D01*
X034817Y024992D01*
X034824Y025008D01*
X034828Y025025D01*
X034830Y025042D01*
X034880Y024992D02*
X034882Y024975D01*
X034886Y024958D01*
X034893Y024942D01*
X034903Y024928D01*
X034916Y024915D01*
X034930Y024905D01*
X034946Y024898D01*
X034963Y024894D01*
X034980Y024892D01*
X036680Y024892D01*
X036697Y024894D01*
X036714Y024898D01*
X036730Y024905D01*
X036744Y024915D01*
X036757Y024928D01*
X036767Y024942D01*
X036774Y024958D01*
X036778Y024975D01*
X036780Y024992D01*
X035980Y025392D02*
X035930Y025392D01*
X035730Y025392D02*
X035680Y025392D01*
X035830Y026392D02*
X035832Y026436D01*
X035838Y026480D01*
X035848Y026523D01*
X035861Y026565D01*
X035878Y026606D01*
X035899Y026645D01*
X035923Y026682D01*
X035950Y026717D01*
X035980Y026749D01*
X036013Y026779D01*
X036049Y026805D01*
X036086Y026829D01*
X036126Y026848D01*
X036167Y026865D01*
X036210Y026877D01*
X036253Y026886D01*
X036297Y026891D01*
X036341Y026892D01*
X036385Y026889D01*
X036429Y026882D01*
X036472Y026871D01*
X036514Y026857D01*
X036554Y026839D01*
X036593Y026817D01*
X036629Y026793D01*
X036663Y026765D01*
X036695Y026734D01*
X036724Y026700D01*
X036750Y026664D01*
X036772Y026626D01*
X036791Y026586D01*
X036806Y026544D01*
X036818Y026502D01*
X036826Y026458D01*
X036830Y026414D01*
X036830Y026370D01*
X036826Y026326D01*
X036818Y026282D01*
X036806Y026240D01*
X036791Y026198D01*
X036772Y026158D01*
X036750Y026120D01*
X036724Y026084D01*
X036695Y026050D01*
X036663Y026019D01*
X036629Y025991D01*
X036593Y025967D01*
X036554Y025945D01*
X036514Y025927D01*
X036472Y025913D01*
X036429Y025902D01*
X036385Y025895D01*
X036341Y025892D01*
X036297Y025893D01*
X036253Y025898D01*
X036210Y025907D01*
X036167Y025919D01*
X036126Y025936D01*
X036086Y025955D01*
X036049Y025979D01*
X036013Y026005D01*
X035980Y026035D01*
X035950Y026067D01*
X035923Y026102D01*
X035899Y026139D01*
X035878Y026178D01*
X035861Y026219D01*
X035848Y026261D01*
X035838Y026304D01*
X035832Y026348D01*
X035830Y026392D01*
X036680Y026892D02*
X034980Y026892D01*
X034963Y026894D01*
X034946Y026898D01*
X034930Y026905D01*
X034916Y026915D01*
X034903Y026928D01*
X034893Y026942D01*
X034886Y026958D01*
X034882Y026975D01*
X034880Y026992D01*
X034880Y027792D01*
X034882Y027809D01*
X034886Y027826D01*
X034893Y027842D01*
X034903Y027856D01*
X034916Y027869D01*
X034930Y027879D01*
X034946Y027886D01*
X034963Y027890D01*
X034980Y027892D01*
X036680Y027892D01*
X034980Y027892D01*
X034963Y027894D01*
X034946Y027898D01*
X034930Y027905D01*
X034916Y027915D01*
X034903Y027928D01*
X034893Y027942D01*
X034886Y027958D01*
X034882Y027975D01*
X034880Y027992D01*
X034880Y028792D01*
X034882Y028809D01*
X034886Y028826D01*
X034893Y028842D01*
X034903Y028856D01*
X034916Y028869D01*
X034930Y028879D01*
X034946Y028886D01*
X034963Y028890D01*
X034980Y028892D01*
X036680Y028892D01*
X036697Y028890D01*
X036714Y028886D01*
X036730Y028879D01*
X036744Y028869D01*
X036757Y028856D01*
X036767Y028842D01*
X036774Y028826D01*
X036778Y028809D01*
X036780Y028792D01*
X036780Y027992D01*
X036778Y027975D01*
X036774Y027958D01*
X036767Y027942D01*
X036757Y027928D01*
X036744Y027915D01*
X036730Y027905D01*
X036714Y027898D01*
X036697Y027894D01*
X036680Y027892D01*
X036697Y027890D01*
X036714Y027886D01*
X036730Y027879D01*
X036744Y027869D01*
X036757Y027856D01*
X036767Y027842D01*
X036774Y027826D01*
X036778Y027809D01*
X036780Y027792D01*
X036780Y026992D01*
X036778Y026975D01*
X036774Y026958D01*
X036767Y026942D01*
X036757Y026928D01*
X036744Y026915D01*
X036730Y026905D01*
X036714Y026898D01*
X036697Y026894D01*
X036680Y026892D01*
X035980Y027392D02*
X035930Y027392D01*
X035730Y027392D02*
X035680Y027392D01*
X035680Y028392D02*
X035730Y028392D01*
X035930Y028392D02*
X035980Y028392D01*
X035330Y029892D02*
X035332Y029936D01*
X035338Y029980D01*
X035348Y030023D01*
X035361Y030065D01*
X035378Y030106D01*
X035399Y030145D01*
X035423Y030182D01*
X035450Y030217D01*
X035480Y030249D01*
X035513Y030279D01*
X035549Y030305D01*
X035586Y030329D01*
X035626Y030348D01*
X035667Y030365D01*
X035710Y030377D01*
X035753Y030386D01*
X035797Y030391D01*
X035841Y030392D01*
X035885Y030389D01*
X035929Y030382D01*
X035972Y030371D01*
X036014Y030357D01*
X036054Y030339D01*
X036093Y030317D01*
X036129Y030293D01*
X036163Y030265D01*
X036195Y030234D01*
X036224Y030200D01*
X036250Y030164D01*
X036272Y030126D01*
X036291Y030086D01*
X036306Y030044D01*
X036318Y030002D01*
X036326Y029958D01*
X036330Y029914D01*
X036330Y029870D01*
X036326Y029826D01*
X036318Y029782D01*
X036306Y029740D01*
X036291Y029698D01*
X036272Y029658D01*
X036250Y029620D01*
X036224Y029584D01*
X036195Y029550D01*
X036163Y029519D01*
X036129Y029491D01*
X036093Y029467D01*
X036054Y029445D01*
X036014Y029427D01*
X035972Y029413D01*
X035929Y029402D01*
X035885Y029395D01*
X035841Y029392D01*
X035797Y029393D01*
X035753Y029398D01*
X035710Y029407D01*
X035667Y029419D01*
X035626Y029436D01*
X035586Y029455D01*
X035549Y029479D01*
X035513Y029505D01*
X035480Y029535D01*
X035450Y029567D01*
X035423Y029602D01*
X035399Y029639D01*
X035378Y029678D01*
X035361Y029719D01*
X035348Y029761D01*
X035338Y029804D01*
X035332Y029848D01*
X035330Y029892D01*
X034330Y026042D02*
X034330Y025992D01*
X034330Y025792D02*
X034330Y025742D01*
D12*
X032330Y025392D02*
X032330Y025242D01*
X032329Y025208D01*
X032325Y025173D01*
X032317Y025140D01*
X032306Y025107D01*
X032291Y025076D01*
X032274Y025046D01*
X032253Y025018D01*
X032230Y024992D01*
X032204Y024969D01*
X032176Y024948D01*
X032146Y024931D01*
X032115Y024916D01*
X032082Y024905D01*
X032049Y024897D01*
X032014Y024893D01*
X031980Y024892D01*
X031030Y024892D01*
X030630Y024892D01*
X030630Y028892D01*
X031030Y028892D01*
X031030Y024892D01*
X030330Y025242D02*
X030330Y025392D01*
X030330Y025242D02*
X030329Y025208D01*
X030325Y025173D01*
X030317Y025140D01*
X030306Y025107D01*
X030291Y025076D01*
X030274Y025046D01*
X030253Y025018D01*
X030230Y024992D01*
X030204Y024969D01*
X030176Y024948D01*
X030146Y024931D01*
X030115Y024916D01*
X030082Y024905D01*
X030049Y024897D01*
X030014Y024893D01*
X029980Y024892D01*
X029030Y024892D01*
X028630Y024892D01*
X028630Y028892D01*
X029030Y028892D01*
X029030Y024892D01*
X028330Y025242D02*
X028330Y025392D01*
X028330Y025242D02*
X028329Y025208D01*
X028325Y025173D01*
X028317Y025140D01*
X028306Y025107D01*
X028291Y025076D01*
X028274Y025046D01*
X028253Y025018D01*
X028230Y024992D01*
X028204Y024969D01*
X028176Y024948D01*
X028146Y024931D01*
X028115Y024916D01*
X028082Y024905D01*
X028049Y024897D01*
X028014Y024893D01*
X027980Y024892D01*
X027030Y024892D01*
X026630Y024892D01*
X026630Y028892D01*
X027030Y028892D01*
X027030Y024892D01*
X026330Y025242D02*
X026330Y025392D01*
X026330Y025242D02*
X026329Y025208D01*
X026325Y025173D01*
X026317Y025140D01*
X026306Y025107D01*
X026291Y025076D01*
X026274Y025046D01*
X026253Y025018D01*
X026230Y024992D01*
X026204Y024969D01*
X026176Y024948D01*
X026146Y024931D01*
X026115Y024916D01*
X026082Y024905D01*
X026049Y024897D01*
X026014Y024893D01*
X025980Y024892D01*
X025030Y024892D01*
X024630Y024892D01*
X024630Y028892D01*
X025030Y028892D01*
X025030Y024892D01*
X024330Y025242D02*
X024330Y025392D01*
X024330Y025242D02*
X024329Y025208D01*
X024325Y025173D01*
X024317Y025140D01*
X024306Y025107D01*
X024291Y025076D01*
X024274Y025046D01*
X024253Y025018D01*
X024230Y024992D01*
X024204Y024969D01*
X024176Y024948D01*
X024146Y024931D01*
X024115Y024916D01*
X024082Y024905D01*
X024049Y024897D01*
X024014Y024893D01*
X023980Y024892D01*
X023030Y024892D01*
X022630Y024892D01*
X022630Y028892D01*
X023030Y028892D01*
X023030Y024892D01*
X022330Y025242D02*
X022330Y025392D01*
X022330Y025242D02*
X022329Y025208D01*
X022325Y025173D01*
X022317Y025140D01*
X022306Y025107D01*
X022291Y025076D01*
X022274Y025046D01*
X022253Y025018D01*
X022230Y024992D01*
X022204Y024969D01*
X022176Y024948D01*
X022146Y024931D01*
X022115Y024916D01*
X022082Y024905D01*
X022049Y024897D01*
X022014Y024893D01*
X021980Y024892D01*
X021030Y024892D01*
X020630Y024892D01*
X020630Y028892D01*
X021030Y028892D01*
X021030Y024892D01*
X020330Y025242D02*
X020330Y025392D01*
X020330Y025242D02*
X020329Y025208D01*
X020325Y025173D01*
X020317Y025140D01*
X020306Y025107D01*
X020291Y025076D01*
X020274Y025046D01*
X020253Y025018D01*
X020230Y024992D01*
X020204Y024969D01*
X020176Y024948D01*
X020146Y024931D01*
X020115Y024916D01*
X020082Y024905D01*
X020049Y024897D01*
X020014Y024893D01*
X019980Y024892D01*
X019030Y024892D01*
X018630Y024892D01*
X018630Y028892D01*
X019030Y028892D01*
X019030Y024892D01*
X018330Y025242D02*
X018330Y025392D01*
X018330Y025242D02*
X018329Y025208D01*
X018325Y025173D01*
X018317Y025140D01*
X018306Y025107D01*
X018291Y025076D01*
X018274Y025046D01*
X018253Y025018D01*
X018230Y024992D01*
X018204Y024969D01*
X018176Y024948D01*
X018146Y024931D01*
X018115Y024916D01*
X018082Y024905D01*
X018049Y024897D01*
X018014Y024893D01*
X017980Y024892D01*
X017030Y024892D01*
X016630Y024892D01*
X016630Y028892D01*
X017030Y028892D01*
X017030Y024892D01*
X016330Y025242D02*
X016330Y025392D01*
X016330Y025242D02*
X016329Y025208D01*
X016325Y025173D01*
X016317Y025140D01*
X016306Y025107D01*
X016291Y025076D01*
X016274Y025046D01*
X016253Y025018D01*
X016230Y024992D01*
X016204Y024969D01*
X016176Y024948D01*
X016146Y024931D01*
X016115Y024916D01*
X016082Y024905D01*
X016049Y024897D01*
X016014Y024893D01*
X015980Y024892D01*
X015030Y024892D01*
X014630Y024892D01*
X014630Y028892D01*
X015030Y028892D01*
X015030Y024892D01*
X014330Y025242D02*
X014330Y025392D01*
X014330Y025242D02*
X014329Y025208D01*
X014325Y025173D01*
X014317Y025140D01*
X014306Y025107D01*
X014291Y025076D01*
X014274Y025046D01*
X014253Y025018D01*
X014230Y024992D01*
X014204Y024969D01*
X014176Y024948D01*
X014146Y024931D01*
X014115Y024916D01*
X014082Y024905D01*
X014049Y024897D01*
X014014Y024893D01*
X013980Y024892D01*
X013030Y024892D01*
X012630Y024892D01*
X012630Y028892D01*
X013030Y028892D01*
X013030Y024892D01*
X012330Y025242D02*
X012330Y025392D01*
X012330Y025242D02*
X012329Y025208D01*
X012325Y025173D01*
X012317Y025140D01*
X012306Y025107D01*
X012291Y025076D01*
X012274Y025046D01*
X012253Y025018D01*
X012230Y024992D01*
X012204Y024969D01*
X012176Y024948D01*
X012146Y024931D01*
X012115Y024916D01*
X012082Y024905D01*
X012049Y024897D01*
X012014Y024893D01*
X011980Y024892D01*
X011030Y024892D01*
X010630Y024892D01*
X010630Y028892D01*
X011030Y028892D01*
X011030Y024892D01*
X010330Y025242D02*
X010330Y025392D01*
X010330Y025242D02*
X010329Y025208D01*
X010325Y025173D01*
X010317Y025140D01*
X010306Y025107D01*
X010291Y025076D01*
X010274Y025046D01*
X010253Y025018D01*
X010230Y024992D01*
X010204Y024969D01*
X010176Y024948D01*
X010146Y024931D01*
X010115Y024916D01*
X010082Y024905D01*
X010049Y024897D01*
X010014Y024893D01*
X009980Y024892D01*
X009030Y024892D01*
X008630Y024892D01*
X008630Y028892D01*
X009030Y028892D01*
X009030Y024892D01*
X008330Y025242D02*
X008330Y025392D01*
X008330Y025242D02*
X008329Y025208D01*
X008325Y025173D01*
X008317Y025140D01*
X008306Y025107D01*
X008291Y025076D01*
X008274Y025046D01*
X008253Y025018D01*
X008230Y024992D01*
X008204Y024969D01*
X008176Y024948D01*
X008146Y024931D01*
X008115Y024916D01*
X008082Y024905D01*
X008049Y024897D01*
X008014Y024893D01*
X007980Y024892D01*
X007030Y024892D01*
X006630Y024892D01*
X006630Y028892D01*
X007030Y028892D01*
X007030Y024892D01*
X006330Y025242D02*
X006330Y025392D01*
X006330Y025242D02*
X006329Y025208D01*
X006325Y025173D01*
X006317Y025140D01*
X006306Y025107D01*
X006291Y025076D01*
X006274Y025046D01*
X006253Y025018D01*
X006230Y024992D01*
X006204Y024969D01*
X006176Y024948D01*
X006146Y024931D01*
X006115Y024916D01*
X006082Y024905D01*
X006049Y024897D01*
X006014Y024893D01*
X005980Y024892D01*
X005030Y024892D01*
X004630Y024892D01*
X004630Y028892D01*
X005030Y028892D01*
X005030Y024892D01*
X004330Y025242D02*
X004330Y025392D01*
X004330Y025242D02*
X004329Y025208D01*
X004325Y025173D01*
X004317Y025140D01*
X004306Y025107D01*
X004291Y025076D01*
X004274Y025046D01*
X004253Y025018D01*
X004230Y024992D01*
X004204Y024969D01*
X004176Y024948D01*
X004146Y024931D01*
X004115Y024916D01*
X004082Y024905D01*
X004049Y024897D01*
X004014Y024893D01*
X003980Y024892D01*
X003030Y024892D01*
X002630Y024892D01*
X002630Y028892D01*
X003030Y028892D01*
X003030Y024892D01*
X001050Y022392D02*
X001052Y022463D01*
X001058Y022534D01*
X001068Y022605D01*
X001082Y022674D01*
X001099Y022743D01*
X001121Y022811D01*
X001146Y022878D01*
X001175Y022943D01*
X001207Y023006D01*
X001243Y023068D01*
X001282Y023127D01*
X001325Y023184D01*
X001370Y023239D01*
X001419Y023291D01*
X001470Y023340D01*
X001524Y023386D01*
X001581Y023430D01*
X001639Y023470D01*
X001700Y023506D01*
X001763Y023540D01*
X001828Y023569D01*
X001894Y023595D01*
X001962Y023618D01*
X002030Y023636D01*
X002100Y023651D01*
X002170Y023662D01*
X002241Y023669D01*
X002312Y023672D01*
X002383Y023671D01*
X002454Y023666D01*
X002525Y023657D01*
X002595Y023644D01*
X002664Y023628D01*
X002732Y023607D01*
X002799Y023583D01*
X002865Y023555D01*
X002928Y023523D01*
X002990Y023488D01*
X003050Y023450D01*
X003108Y023408D01*
X003163Y023364D01*
X003216Y023316D01*
X003266Y023265D01*
X003313Y023212D01*
X003357Y023156D01*
X003398Y023098D01*
X003436Y023037D01*
X003470Y022975D01*
X003500Y022910D01*
X003527Y022845D01*
X003551Y022777D01*
X003570Y022709D01*
X003586Y022640D01*
X003598Y022569D01*
X003606Y022499D01*
X003610Y022428D01*
X003610Y022356D01*
X003606Y022285D01*
X003598Y022215D01*
X003586Y022144D01*
X003570Y022075D01*
X003551Y022007D01*
X003527Y021939D01*
X003500Y021874D01*
X003470Y021809D01*
X003436Y021747D01*
X003398Y021686D01*
X003357Y021628D01*
X003313Y021572D01*
X003266Y021519D01*
X003216Y021468D01*
X003163Y021420D01*
X003108Y021376D01*
X003050Y021334D01*
X002990Y021296D01*
X002928Y021261D01*
X002865Y021229D01*
X002799Y021201D01*
X002732Y021177D01*
X002664Y021156D01*
X002595Y021140D01*
X002525Y021127D01*
X002454Y021118D01*
X002383Y021113D01*
X002312Y021112D01*
X002241Y021115D01*
X002170Y021122D01*
X002100Y021133D01*
X002030Y021148D01*
X001962Y021166D01*
X001894Y021189D01*
X001828Y021215D01*
X001763Y021244D01*
X001700Y021278D01*
X001639Y021314D01*
X001581Y021354D01*
X001524Y021398D01*
X001470Y021444D01*
X001419Y021493D01*
X001370Y021545D01*
X001325Y021600D01*
X001282Y021657D01*
X001243Y021716D01*
X001207Y021778D01*
X001175Y021841D01*
X001146Y021906D01*
X001121Y021973D01*
X001099Y022041D01*
X001082Y022110D01*
X001068Y022179D01*
X001058Y022250D01*
X001052Y022321D01*
X001050Y022392D01*
X002580Y021892D02*
X003080Y021892D01*
X003630Y021442D02*
X004030Y021442D01*
X003346Y020892D02*
X003348Y020954D01*
X003354Y021017D01*
X003364Y021078D01*
X003378Y021139D01*
X003395Y021199D01*
X003416Y021258D01*
X003442Y021315D01*
X003470Y021370D01*
X003502Y021424D01*
X003538Y021475D01*
X003576Y021525D01*
X003618Y021571D01*
X003662Y021615D01*
X003710Y021656D01*
X003759Y021694D01*
X003811Y021728D01*
X003865Y021759D01*
X003921Y021787D01*
X003979Y021811D01*
X004038Y021832D01*
X004098Y021848D01*
X004159Y021861D01*
X004221Y021870D01*
X004283Y021875D01*
X004346Y021876D01*
X004408Y021873D01*
X004470Y021866D01*
X004532Y021855D01*
X004592Y021840D01*
X004652Y021822D01*
X004710Y021800D01*
X004767Y021774D01*
X004822Y021744D01*
X004875Y021711D01*
X004926Y021675D01*
X004974Y021636D01*
X005020Y021593D01*
X005063Y021548D01*
X005103Y021500D01*
X005140Y021450D01*
X005174Y021397D01*
X005205Y021343D01*
X005231Y021287D01*
X005255Y021229D01*
X005274Y021169D01*
X005290Y021109D01*
X005302Y021047D01*
X005310Y020986D01*
X005314Y020923D01*
X005314Y020861D01*
X005310Y020798D01*
X005302Y020737D01*
X005290Y020675D01*
X005274Y020615D01*
X005255Y020555D01*
X005231Y020497D01*
X005205Y020441D01*
X005174Y020387D01*
X005140Y020334D01*
X005103Y020284D01*
X005063Y020236D01*
X005020Y020191D01*
X004974Y020148D01*
X004926Y020109D01*
X004875Y020073D01*
X004822Y020040D01*
X004767Y020010D01*
X004710Y019984D01*
X004652Y019962D01*
X004592Y019944D01*
X004532Y019929D01*
X004470Y019918D01*
X004408Y019911D01*
X004346Y019908D01*
X004283Y019909D01*
X004221Y019914D01*
X004159Y019923D01*
X004098Y019936D01*
X004038Y019952D01*
X003979Y019973D01*
X003921Y019997D01*
X003865Y020025D01*
X003811Y020056D01*
X003759Y020090D01*
X003710Y020128D01*
X003662Y020169D01*
X003618Y020213D01*
X003576Y020259D01*
X003538Y020309D01*
X003502Y020360D01*
X003470Y020414D01*
X003442Y020469D01*
X003416Y020526D01*
X003395Y020585D01*
X003378Y020645D01*
X003364Y020706D01*
X003354Y020767D01*
X003348Y020830D01*
X003346Y020892D01*
X001050Y019392D02*
X001052Y019463D01*
X001058Y019534D01*
X001068Y019605D01*
X001082Y019674D01*
X001099Y019743D01*
X001121Y019811D01*
X001146Y019878D01*
X001175Y019943D01*
X001207Y020006D01*
X001243Y020068D01*
X001282Y020127D01*
X001325Y020184D01*
X001370Y020239D01*
X001419Y020291D01*
X001470Y020340D01*
X001524Y020386D01*
X001581Y020430D01*
X001639Y020470D01*
X001700Y020506D01*
X001763Y020540D01*
X001828Y020569D01*
X001894Y020595D01*
X001962Y020618D01*
X002030Y020636D01*
X002100Y020651D01*
X002170Y020662D01*
X002241Y020669D01*
X002312Y020672D01*
X002383Y020671D01*
X002454Y020666D01*
X002525Y020657D01*
X002595Y020644D01*
X002664Y020628D01*
X002732Y020607D01*
X002799Y020583D01*
X002865Y020555D01*
X002928Y020523D01*
X002990Y020488D01*
X003050Y020450D01*
X003108Y020408D01*
X003163Y020364D01*
X003216Y020316D01*
X003266Y020265D01*
X003313Y020212D01*
X003357Y020156D01*
X003398Y020098D01*
X003436Y020037D01*
X003470Y019975D01*
X003500Y019910D01*
X003527Y019845D01*
X003551Y019777D01*
X003570Y019709D01*
X003586Y019640D01*
X003598Y019569D01*
X003606Y019499D01*
X003610Y019428D01*
X003610Y019356D01*
X003606Y019285D01*
X003598Y019215D01*
X003586Y019144D01*
X003570Y019075D01*
X003551Y019007D01*
X003527Y018939D01*
X003500Y018874D01*
X003470Y018809D01*
X003436Y018747D01*
X003398Y018686D01*
X003357Y018628D01*
X003313Y018572D01*
X003266Y018519D01*
X003216Y018468D01*
X003163Y018420D01*
X003108Y018376D01*
X003050Y018334D01*
X002990Y018296D01*
X002928Y018261D01*
X002865Y018229D01*
X002799Y018201D01*
X002732Y018177D01*
X002664Y018156D01*
X002595Y018140D01*
X002525Y018127D01*
X002454Y018118D01*
X002383Y018113D01*
X002312Y018112D01*
X002241Y018115D01*
X002170Y018122D01*
X002100Y018133D01*
X002030Y018148D01*
X001962Y018166D01*
X001894Y018189D01*
X001828Y018215D01*
X001763Y018244D01*
X001700Y018278D01*
X001639Y018314D01*
X001581Y018354D01*
X001524Y018398D01*
X001470Y018444D01*
X001419Y018493D01*
X001370Y018545D01*
X001325Y018600D01*
X001282Y018657D01*
X001243Y018716D01*
X001207Y018778D01*
X001175Y018841D01*
X001146Y018906D01*
X001121Y018973D01*
X001099Y019041D01*
X001082Y019110D01*
X001068Y019179D01*
X001058Y019250D01*
X001052Y019321D01*
X001050Y019392D01*
X002580Y018892D02*
X003080Y018892D01*
X003129Y017581D02*
X002736Y017581D01*
X002736Y013171D01*
X000176Y013171D01*
X000176Y017581D01*
X002736Y017581D01*
X003129Y017581D02*
X003129Y013171D01*
X002736Y013171D01*
X002736Y013081D02*
X002736Y008671D01*
X000176Y008671D01*
X000176Y013081D01*
X002736Y013081D01*
X003129Y013081D01*
X003129Y008671D01*
X002736Y008671D01*
X002830Y008329D02*
X002830Y003211D01*
X008830Y003211D01*
X014830Y003211D01*
X020830Y003211D01*
X026830Y003211D01*
X032830Y003211D01*
X032830Y008329D01*
X026830Y008329D01*
X026830Y003211D01*
X026830Y008329D01*
X020830Y008329D01*
X020830Y003211D01*
X020830Y008329D01*
X014830Y008329D01*
X014830Y003211D01*
X014830Y008329D01*
X008830Y008329D01*
X008830Y003211D01*
X008830Y008329D01*
X002830Y008329D01*
X003330Y008742D02*
X003330Y008892D01*
X003330Y008742D02*
X003331Y008708D01*
X003335Y008673D01*
X003343Y008640D01*
X003354Y008607D01*
X003369Y008576D01*
X003386Y008546D01*
X003407Y008518D01*
X003430Y008492D01*
X003456Y008469D01*
X003484Y008448D01*
X003514Y008431D01*
X003545Y008416D01*
X003578Y008405D01*
X003611Y008397D01*
X003646Y008393D01*
X003680Y008392D01*
X004630Y008392D01*
X005030Y008392D01*
X005030Y012392D01*
X004630Y012392D01*
X004630Y008392D01*
X005330Y008742D02*
X005330Y008892D01*
X005330Y008742D02*
X005331Y008708D01*
X005335Y008673D01*
X005343Y008640D01*
X005354Y008607D01*
X005369Y008576D01*
X005386Y008546D01*
X005407Y008518D01*
X005430Y008492D01*
X005456Y008469D01*
X005484Y008448D01*
X005514Y008431D01*
X005545Y008416D01*
X005578Y008405D01*
X005611Y008397D01*
X005646Y008393D01*
X005680Y008392D01*
X006630Y008392D01*
X007030Y008392D01*
X007030Y012392D01*
X006630Y012392D01*
X006630Y008392D01*
X007330Y008742D02*
X007330Y008892D01*
X007330Y008742D02*
X007331Y008708D01*
X007335Y008673D01*
X007343Y008640D01*
X007354Y008607D01*
X007369Y008576D01*
X007386Y008546D01*
X007407Y008518D01*
X007430Y008492D01*
X007456Y008469D01*
X007484Y008448D01*
X007514Y008431D01*
X007545Y008416D01*
X007578Y008405D01*
X007611Y008397D01*
X007646Y008393D01*
X007680Y008392D01*
X008630Y008392D01*
X009030Y008392D01*
X009030Y012392D01*
X008630Y012392D01*
X008630Y008392D01*
X009330Y008742D02*
X009330Y008892D01*
X009330Y008742D02*
X009331Y008708D01*
X009335Y008673D01*
X009343Y008640D01*
X009354Y008607D01*
X009369Y008576D01*
X009386Y008546D01*
X009407Y008518D01*
X009430Y008492D01*
X009456Y008469D01*
X009484Y008448D01*
X009514Y008431D01*
X009545Y008416D01*
X009578Y008405D01*
X009611Y008397D01*
X009646Y008393D01*
X009680Y008392D01*
X010630Y008392D01*
X011030Y008392D01*
X011030Y012392D01*
X010630Y012392D01*
X010630Y008392D01*
X011330Y008742D02*
X011330Y008892D01*
X011330Y008742D02*
X011331Y008708D01*
X011335Y008673D01*
X011343Y008640D01*
X011354Y008607D01*
X011369Y008576D01*
X011386Y008546D01*
X011407Y008518D01*
X011430Y008492D01*
X011456Y008469D01*
X011484Y008448D01*
X011514Y008431D01*
X011545Y008416D01*
X011578Y008405D01*
X011611Y008397D01*
X011646Y008393D01*
X011680Y008392D01*
X012630Y008392D01*
X013030Y008392D01*
X013030Y012392D01*
X012630Y012392D01*
X012630Y008392D01*
X013330Y008742D02*
X013330Y008892D01*
X013330Y008742D02*
X013331Y008708D01*
X013335Y008673D01*
X013343Y008640D01*
X013354Y008607D01*
X013369Y008576D01*
X013386Y008546D01*
X013407Y008518D01*
X013430Y008492D01*
X013456Y008469D01*
X013484Y008448D01*
X013514Y008431D01*
X013545Y008416D01*
X013578Y008405D01*
X013611Y008397D01*
X013646Y008393D01*
X013680Y008392D01*
X014630Y008392D01*
X015030Y008392D01*
X015030Y012392D01*
X014630Y012392D01*
X014630Y008392D01*
X015330Y008742D02*
X015330Y008892D01*
X015330Y008742D02*
X015331Y008708D01*
X015335Y008673D01*
X015343Y008640D01*
X015354Y008607D01*
X015369Y008576D01*
X015386Y008546D01*
X015407Y008518D01*
X015430Y008492D01*
X015456Y008469D01*
X015484Y008448D01*
X015514Y008431D01*
X015545Y008416D01*
X015578Y008405D01*
X015611Y008397D01*
X015646Y008393D01*
X015680Y008392D01*
X016630Y008392D01*
X017030Y008392D01*
X017030Y012392D01*
X016630Y012392D01*
X016630Y008392D01*
X017330Y008742D02*
X017330Y008892D01*
X017330Y008742D02*
X017331Y008708D01*
X017335Y008673D01*
X017343Y008640D01*
X017354Y008607D01*
X017369Y008576D01*
X017386Y008546D01*
X017407Y008518D01*
X017430Y008492D01*
X017456Y008469D01*
X017484Y008448D01*
X017514Y008431D01*
X017545Y008416D01*
X017578Y008405D01*
X017611Y008397D01*
X017646Y008393D01*
X017680Y008392D01*
X018630Y008392D01*
X019030Y008392D01*
X019030Y012392D01*
X018630Y012392D01*
X018630Y008392D01*
X019330Y008742D02*
X019330Y008892D01*
X019330Y008742D02*
X019331Y008708D01*
X019335Y008673D01*
X019343Y008640D01*
X019354Y008607D01*
X019369Y008576D01*
X019386Y008546D01*
X019407Y008518D01*
X019430Y008492D01*
X019456Y008469D01*
X019484Y008448D01*
X019514Y008431D01*
X019545Y008416D01*
X019578Y008405D01*
X019611Y008397D01*
X019646Y008393D01*
X019680Y008392D01*
X020630Y008392D01*
X021030Y008392D01*
X021030Y012392D01*
X020630Y012392D01*
X020630Y008392D01*
X021330Y008742D02*
X021330Y008892D01*
X021330Y008742D02*
X021331Y008708D01*
X021335Y008673D01*
X021343Y008640D01*
X021354Y008607D01*
X021369Y008576D01*
X021386Y008546D01*
X021407Y008518D01*
X021430Y008492D01*
X021456Y008469D01*
X021484Y008448D01*
X021514Y008431D01*
X021545Y008416D01*
X021578Y008405D01*
X021611Y008397D01*
X021646Y008393D01*
X021680Y008392D01*
X022630Y008392D01*
X023030Y008392D01*
X023030Y012392D01*
X022630Y012392D01*
X022630Y008392D01*
X023330Y008742D02*
X023330Y008892D01*
X023330Y008742D02*
X023331Y008708D01*
X023335Y008673D01*
X023343Y008640D01*
X023354Y008607D01*
X023369Y008576D01*
X023386Y008546D01*
X023407Y008518D01*
X023430Y008492D01*
X023456Y008469D01*
X023484Y008448D01*
X023514Y008431D01*
X023545Y008416D01*
X023578Y008405D01*
X023611Y008397D01*
X023646Y008393D01*
X023680Y008392D01*
X024630Y008392D01*
X025030Y008392D01*
X025030Y012392D01*
X024630Y012392D01*
X024630Y008392D01*
X025330Y008742D02*
X025330Y008892D01*
X025330Y008742D02*
X025331Y008708D01*
X025335Y008673D01*
X025343Y008640D01*
X025354Y008607D01*
X025369Y008576D01*
X025386Y008546D01*
X025407Y008518D01*
X025430Y008492D01*
X025456Y008469D01*
X025484Y008448D01*
X025514Y008431D01*
X025545Y008416D01*
X025578Y008405D01*
X025611Y008397D01*
X025646Y008393D01*
X025680Y008392D01*
X026630Y008392D01*
X027030Y008392D01*
X027030Y012392D01*
X026630Y012392D01*
X026630Y008392D01*
X027330Y008742D02*
X027330Y008892D01*
X027330Y008742D02*
X027331Y008708D01*
X027335Y008673D01*
X027343Y008640D01*
X027354Y008607D01*
X027369Y008576D01*
X027386Y008546D01*
X027407Y008518D01*
X027430Y008492D01*
X027456Y008469D01*
X027484Y008448D01*
X027514Y008431D01*
X027545Y008416D01*
X027578Y008405D01*
X027611Y008397D01*
X027646Y008393D01*
X027680Y008392D01*
X028630Y008392D01*
X029030Y008392D01*
X029030Y012392D01*
X028630Y012392D01*
X028630Y008392D01*
X029330Y008742D02*
X029330Y008892D01*
X029330Y008742D02*
X029331Y008708D01*
X029335Y008673D01*
X029343Y008640D01*
X029354Y008607D01*
X029369Y008576D01*
X029386Y008546D01*
X029407Y008518D01*
X029430Y008492D01*
X029456Y008469D01*
X029484Y008448D01*
X029514Y008431D01*
X029545Y008416D01*
X029578Y008405D01*
X029611Y008397D01*
X029646Y008393D01*
X029680Y008392D01*
X030630Y008392D01*
X031030Y008392D01*
X031030Y012392D01*
X030630Y012392D01*
X030630Y008392D01*
X031330Y008742D02*
X031330Y008892D01*
X031330Y008742D02*
X031331Y008708D01*
X031335Y008673D01*
X031343Y008640D01*
X031354Y008607D01*
X031369Y008576D01*
X031386Y008546D01*
X031407Y008518D01*
X031430Y008492D01*
X031456Y008469D01*
X031484Y008448D01*
X031514Y008431D01*
X031545Y008416D01*
X031578Y008405D01*
X031611Y008397D01*
X031646Y008393D01*
X031680Y008392D01*
X032630Y008392D01*
X033030Y008392D01*
X033030Y012392D01*
X032630Y012392D01*
X032630Y008392D01*
X031330Y011892D02*
X031330Y012042D01*
X031331Y012076D01*
X031335Y012111D01*
X031343Y012144D01*
X031354Y012177D01*
X031369Y012208D01*
X031386Y012238D01*
X031407Y012266D01*
X031430Y012292D01*
X031456Y012315D01*
X031484Y012336D01*
X031514Y012353D01*
X031545Y012368D01*
X031578Y012379D01*
X031611Y012387D01*
X031646Y012391D01*
X031680Y012392D01*
X032630Y012392D01*
X030630Y012392D02*
X029680Y012392D01*
X029646Y012391D01*
X029611Y012387D01*
X029578Y012379D01*
X029545Y012368D01*
X029514Y012353D01*
X029484Y012336D01*
X029456Y012315D01*
X029430Y012292D01*
X029407Y012266D01*
X029386Y012238D01*
X029369Y012208D01*
X029354Y012177D01*
X029343Y012144D01*
X029335Y012111D01*
X029331Y012076D01*
X029330Y012042D01*
X029330Y011892D01*
X028630Y012392D02*
X027680Y012392D01*
X027646Y012391D01*
X027611Y012387D01*
X027578Y012379D01*
X027545Y012368D01*
X027514Y012353D01*
X027484Y012336D01*
X027456Y012315D01*
X027430Y012292D01*
X027407Y012266D01*
X027386Y012238D01*
X027369Y012208D01*
X027354Y012177D01*
X027343Y012144D01*
X027335Y012111D01*
X027331Y012076D01*
X027330Y012042D01*
X027330Y011892D01*
X026630Y012392D02*
X025680Y012392D01*
X025646Y012391D01*
X025611Y012387D01*
X025578Y012379D01*
X025545Y012368D01*
X025514Y012353D01*
X025484Y012336D01*
X025456Y012315D01*
X025430Y012292D01*
X025407Y012266D01*
X025386Y012238D01*
X025369Y012208D01*
X025354Y012177D01*
X025343Y012144D01*
X025335Y012111D01*
X025331Y012076D01*
X025330Y012042D01*
X025330Y011892D01*
X024630Y012392D02*
X023680Y012392D01*
X023646Y012391D01*
X023611Y012387D01*
X023578Y012379D01*
X023545Y012368D01*
X023514Y012353D01*
X023484Y012336D01*
X023456Y012315D01*
X023430Y012292D01*
X023407Y012266D01*
X023386Y012238D01*
X023369Y012208D01*
X023354Y012177D01*
X023343Y012144D01*
X023335Y012111D01*
X023331Y012076D01*
X023330Y012042D01*
X023330Y011892D01*
X022630Y012392D02*
X021680Y012392D01*
X021646Y012391D01*
X021611Y012387D01*
X021578Y012379D01*
X021545Y012368D01*
X021514Y012353D01*
X021484Y012336D01*
X021456Y012315D01*
X021430Y012292D01*
X021407Y012266D01*
X021386Y012238D01*
X021369Y012208D01*
X021354Y012177D01*
X021343Y012144D01*
X021335Y012111D01*
X021331Y012076D01*
X021330Y012042D01*
X021330Y011892D01*
X020630Y012392D02*
X019680Y012392D01*
X019646Y012391D01*
X019611Y012387D01*
X019578Y012379D01*
X019545Y012368D01*
X019514Y012353D01*
X019484Y012336D01*
X019456Y012315D01*
X019430Y012292D01*
X019407Y012266D01*
X019386Y012238D01*
X019369Y012208D01*
X019354Y012177D01*
X019343Y012144D01*
X019335Y012111D01*
X019331Y012076D01*
X019330Y012042D01*
X019330Y011892D01*
X018630Y012392D02*
X017680Y012392D01*
X017646Y012391D01*
X017611Y012387D01*
X017578Y012379D01*
X017545Y012368D01*
X017514Y012353D01*
X017484Y012336D01*
X017456Y012315D01*
X017430Y012292D01*
X017407Y012266D01*
X017386Y012238D01*
X017369Y012208D01*
X017354Y012177D01*
X017343Y012144D01*
X017335Y012111D01*
X017331Y012076D01*
X017330Y012042D01*
X017330Y011892D01*
X016630Y012392D02*
X015680Y012392D01*
X015646Y012391D01*
X015611Y012387D01*
X015578Y012379D01*
X015545Y012368D01*
X015514Y012353D01*
X015484Y012336D01*
X015456Y012315D01*
X015430Y012292D01*
X015407Y012266D01*
X015386Y012238D01*
X015369Y012208D01*
X015354Y012177D01*
X015343Y012144D01*
X015335Y012111D01*
X015331Y012076D01*
X015330Y012042D01*
X015330Y011892D01*
X014630Y012392D02*
X013680Y012392D01*
X013646Y012391D01*
X013611Y012387D01*
X013578Y012379D01*
X013545Y012368D01*
X013514Y012353D01*
X013484Y012336D01*
X013456Y012315D01*
X013430Y012292D01*
X013407Y012266D01*
X013386Y012238D01*
X013369Y012208D01*
X013354Y012177D01*
X013343Y012144D01*
X013335Y012111D01*
X013331Y012076D01*
X013330Y012042D01*
X013330Y011892D01*
X012630Y012392D02*
X011680Y012392D01*
X011646Y012391D01*
X011611Y012387D01*
X011578Y012379D01*
X011545Y012368D01*
X011514Y012353D01*
X011484Y012336D01*
X011456Y012315D01*
X011430Y012292D01*
X011407Y012266D01*
X011386Y012238D01*
X011369Y012208D01*
X011354Y012177D01*
X011343Y012144D01*
X011335Y012111D01*
X011331Y012076D01*
X011330Y012042D01*
X011330Y011892D01*
X010630Y012392D02*
X009680Y012392D01*
X009646Y012391D01*
X009611Y012387D01*
X009578Y012379D01*
X009545Y012368D01*
X009514Y012353D01*
X009484Y012336D01*
X009456Y012315D01*
X009430Y012292D01*
X009407Y012266D01*
X009386Y012238D01*
X009369Y012208D01*
X009354Y012177D01*
X009343Y012144D01*
X009335Y012111D01*
X009331Y012076D01*
X009330Y012042D01*
X009330Y011892D01*
X008630Y012392D02*
X007680Y012392D01*
X007646Y012391D01*
X007611Y012387D01*
X007578Y012379D01*
X007545Y012368D01*
X007514Y012353D01*
X007484Y012336D01*
X007456Y012315D01*
X007430Y012292D01*
X007407Y012266D01*
X007386Y012238D01*
X007369Y012208D01*
X007354Y012177D01*
X007343Y012144D01*
X007335Y012111D01*
X007331Y012076D01*
X007330Y012042D01*
X007330Y011892D01*
X006630Y012392D02*
X005680Y012392D01*
X005646Y012391D01*
X005611Y012387D01*
X005578Y012379D01*
X005545Y012368D01*
X005514Y012353D01*
X005484Y012336D01*
X005456Y012315D01*
X005430Y012292D01*
X005407Y012266D01*
X005386Y012238D01*
X005369Y012208D01*
X005354Y012177D01*
X005343Y012144D01*
X005335Y012111D01*
X005331Y012076D01*
X005330Y012042D01*
X005330Y011892D01*
X004630Y012392D02*
X003680Y012392D01*
X003646Y012391D01*
X003611Y012387D01*
X003578Y012379D01*
X003545Y012368D01*
X003514Y012353D01*
X003484Y012336D01*
X003456Y012315D01*
X003430Y012292D01*
X003407Y012266D01*
X003386Y012238D01*
X003369Y012208D01*
X003354Y012177D01*
X003343Y012144D01*
X003335Y012111D01*
X003331Y012076D01*
X003330Y012042D01*
X003330Y011892D01*
X005580Y016892D02*
X007080Y016892D01*
X007080Y020892D01*
X007330Y020892D01*
X007330Y016892D01*
X007080Y016892D01*
X005580Y016892D02*
X005580Y020892D01*
X007080Y020892D01*
X008330Y020692D02*
X008430Y020692D01*
X008330Y020692D02*
X008330Y023092D01*
X008430Y023092D01*
X008330Y028392D02*
X008330Y028542D01*
X008329Y028576D01*
X008325Y028611D01*
X008317Y028644D01*
X008306Y028677D01*
X008291Y028708D01*
X008274Y028738D01*
X008253Y028766D01*
X008230Y028792D01*
X008204Y028815D01*
X008176Y028836D01*
X008146Y028853D01*
X008115Y028868D01*
X008082Y028879D01*
X008049Y028887D01*
X008014Y028891D01*
X007980Y028892D01*
X007030Y028892D01*
X006330Y028542D02*
X006330Y028392D01*
X006330Y028542D02*
X006329Y028576D01*
X006325Y028611D01*
X006317Y028644D01*
X006306Y028677D01*
X006291Y028708D01*
X006274Y028738D01*
X006253Y028766D01*
X006230Y028792D01*
X006204Y028815D01*
X006176Y028836D01*
X006146Y028853D01*
X006115Y028868D01*
X006082Y028879D01*
X006049Y028887D01*
X006014Y028891D01*
X005980Y028892D01*
X005030Y028892D01*
X004330Y028542D02*
X004330Y028392D01*
X004330Y028542D02*
X004329Y028576D01*
X004325Y028611D01*
X004317Y028644D01*
X004306Y028677D01*
X004291Y028708D01*
X004274Y028738D01*
X004253Y028766D01*
X004230Y028792D01*
X004204Y028815D01*
X004176Y028836D01*
X004146Y028853D01*
X004115Y028868D01*
X004082Y028879D01*
X004049Y028887D01*
X004014Y028891D01*
X003980Y028892D01*
X003030Y028892D01*
X002830Y028955D02*
X002830Y034073D01*
X008830Y034073D01*
X008830Y028955D01*
X002830Y028955D01*
X008830Y028955D02*
X008830Y034073D01*
X014830Y034073D01*
X014830Y028955D01*
X008830Y028955D01*
X009030Y028892D02*
X009980Y028892D01*
X010014Y028891D01*
X010049Y028887D01*
X010082Y028879D01*
X010115Y028868D01*
X010146Y028853D01*
X010176Y028836D01*
X010204Y028815D01*
X010230Y028792D01*
X010253Y028766D01*
X010274Y028738D01*
X010291Y028708D01*
X010306Y028677D01*
X010317Y028644D01*
X010325Y028611D01*
X010329Y028576D01*
X010330Y028542D01*
X010330Y028392D01*
X011030Y028892D02*
X011980Y028892D01*
X012014Y028891D01*
X012049Y028887D01*
X012082Y028879D01*
X012115Y028868D01*
X012146Y028853D01*
X012176Y028836D01*
X012204Y028815D01*
X012230Y028792D01*
X012253Y028766D01*
X012274Y028738D01*
X012291Y028708D01*
X012306Y028677D01*
X012317Y028644D01*
X012325Y028611D01*
X012329Y028576D01*
X012330Y028542D01*
X012330Y028392D01*
X013030Y028892D02*
X013980Y028892D01*
X014014Y028891D01*
X014049Y028887D01*
X014082Y028879D01*
X014115Y028868D01*
X014146Y028853D01*
X014176Y028836D01*
X014204Y028815D01*
X014230Y028792D01*
X014253Y028766D01*
X014274Y028738D01*
X014291Y028708D01*
X014306Y028677D01*
X014317Y028644D01*
X014325Y028611D01*
X014329Y028576D01*
X014330Y028542D01*
X014330Y028392D01*
X014830Y028955D02*
X014830Y034073D01*
X020830Y034073D01*
X020830Y028955D01*
X014830Y028955D01*
X015030Y028892D02*
X015980Y028892D01*
X016014Y028891D01*
X016049Y028887D01*
X016082Y028879D01*
X016115Y028868D01*
X016146Y028853D01*
X016176Y028836D01*
X016204Y028815D01*
X016230Y028792D01*
X016253Y028766D01*
X016274Y028738D01*
X016291Y028708D01*
X016306Y028677D01*
X016317Y028644D01*
X016325Y028611D01*
X016329Y028576D01*
X016330Y028542D01*
X016330Y028392D01*
X017030Y028892D02*
X017980Y028892D01*
X018014Y028891D01*
X018049Y028887D01*
X018082Y028879D01*
X018115Y028868D01*
X018146Y028853D01*
X018176Y028836D01*
X018204Y028815D01*
X018230Y028792D01*
X018253Y028766D01*
X018274Y028738D01*
X018291Y028708D01*
X018306Y028677D01*
X018317Y028644D01*
X018325Y028611D01*
X018329Y028576D01*
X018330Y028542D01*
X018330Y028392D01*
X019030Y028892D02*
X019980Y028892D01*
X020014Y028891D01*
X020049Y028887D01*
X020082Y028879D01*
X020115Y028868D01*
X020146Y028853D01*
X020176Y028836D01*
X020204Y028815D01*
X020230Y028792D01*
X020253Y028766D01*
X020274Y028738D01*
X020291Y028708D01*
X020306Y028677D01*
X020317Y028644D01*
X020325Y028611D01*
X020329Y028576D01*
X020330Y028542D01*
X020330Y028392D01*
X020830Y028955D02*
X020830Y034073D01*
X026830Y034073D01*
X026830Y028955D01*
X020830Y028955D01*
X021030Y028892D02*
X021980Y028892D01*
X022014Y028891D01*
X022049Y028887D01*
X022082Y028879D01*
X022115Y028868D01*
X022146Y028853D01*
X022176Y028836D01*
X022204Y028815D01*
X022230Y028792D01*
X022253Y028766D01*
X022274Y028738D01*
X022291Y028708D01*
X022306Y028677D01*
X022317Y028644D01*
X022325Y028611D01*
X022329Y028576D01*
X022330Y028542D01*
X022330Y028392D01*
X023030Y028892D02*
X023980Y028892D01*
X024014Y028891D01*
X024049Y028887D01*
X024082Y028879D01*
X024115Y028868D01*
X024146Y028853D01*
X024176Y028836D01*
X024204Y028815D01*
X024230Y028792D01*
X024253Y028766D01*
X024274Y028738D01*
X024291Y028708D01*
X024306Y028677D01*
X024317Y028644D01*
X024325Y028611D01*
X024329Y028576D01*
X024330Y028542D01*
X024330Y028392D01*
X025030Y028892D02*
X025980Y028892D01*
X026014Y028891D01*
X026049Y028887D01*
X026082Y028879D01*
X026115Y028868D01*
X026146Y028853D01*
X026176Y028836D01*
X026204Y028815D01*
X026230Y028792D01*
X026253Y028766D01*
X026274Y028738D01*
X026291Y028708D01*
X026306Y028677D01*
X026317Y028644D01*
X026325Y028611D01*
X026329Y028576D01*
X026330Y028542D01*
X026330Y028392D01*
X026830Y028955D02*
X026830Y034073D01*
X032830Y034073D01*
X032830Y028955D01*
X026830Y028955D01*
X027030Y028892D02*
X027980Y028892D01*
X028014Y028891D01*
X028049Y028887D01*
X028082Y028879D01*
X028115Y028868D01*
X028146Y028853D01*
X028176Y028836D01*
X028204Y028815D01*
X028230Y028792D01*
X028253Y028766D01*
X028274Y028738D01*
X028291Y028708D01*
X028306Y028677D01*
X028317Y028644D01*
X028325Y028611D01*
X028329Y028576D01*
X028330Y028542D01*
X028330Y028392D01*
X029030Y028892D02*
X029980Y028892D01*
X030014Y028891D01*
X030049Y028887D01*
X030082Y028879D01*
X030115Y028868D01*
X030146Y028853D01*
X030176Y028836D01*
X030204Y028815D01*
X030230Y028792D01*
X030253Y028766D01*
X030274Y028738D01*
X030291Y028708D01*
X030306Y028677D01*
X030317Y028644D01*
X030325Y028611D01*
X030329Y028576D01*
X030330Y028542D01*
X030330Y028392D01*
X031030Y028892D02*
X031980Y028892D01*
X032014Y028891D01*
X032049Y028887D01*
X032082Y028879D01*
X032115Y028868D01*
X032146Y028853D01*
X032176Y028836D01*
X032204Y028815D01*
X032230Y028792D01*
X032253Y028766D01*
X032274Y028738D01*
X032291Y028708D01*
X032306Y028677D01*
X032317Y028644D01*
X032325Y028611D01*
X032329Y028576D01*
X032330Y028542D01*
X032330Y028392D01*
X036468Y029939D02*
X036468Y030333D01*
X036468Y029939D02*
X041192Y029939D01*
X041192Y030333D01*
X041192Y031514D02*
X041192Y034270D01*
X036468Y034270D01*
X036468Y031514D01*
X037830Y024892D02*
X038430Y024892D01*
X029830Y020142D02*
X029830Y019642D01*
X029580Y019392D01*
X029830Y019142D01*
X029830Y018642D01*
X029580Y018392D01*
X029830Y018142D01*
X029830Y017642D01*
X029580Y017392D01*
X029830Y017142D01*
X029830Y016642D01*
X029580Y016392D01*
X029080Y016392D01*
X028830Y016642D01*
X028830Y017142D01*
X029080Y017392D01*
X028830Y017642D01*
X028830Y018142D01*
X029080Y018392D01*
X028830Y018642D01*
X028830Y019142D01*
X029080Y019392D01*
X028830Y019642D01*
X028830Y020142D01*
X029080Y020392D01*
X029580Y020392D01*
X029830Y020142D01*
X026330Y016592D02*
X026230Y016592D01*
X026330Y016592D02*
X026330Y014192D01*
X026230Y014192D01*
X022330Y020692D02*
X022230Y020692D01*
X022330Y020692D02*
X022330Y021392D01*
X022286Y021394D01*
X022243Y021400D01*
X022201Y021409D01*
X022159Y021422D01*
X022119Y021439D01*
X022080Y021459D01*
X022043Y021482D01*
X022009Y021509D01*
X021976Y021538D01*
X021947Y021571D01*
X021920Y021605D01*
X021897Y021642D01*
X021877Y021681D01*
X021860Y021721D01*
X021847Y021763D01*
X021838Y021805D01*
X021832Y021848D01*
X021830Y021892D01*
X021832Y021936D01*
X021838Y021979D01*
X021847Y022021D01*
X021860Y022063D01*
X021877Y022103D01*
X021897Y022142D01*
X021920Y022179D01*
X021947Y022213D01*
X021976Y022246D01*
X022009Y022275D01*
X022043Y022302D01*
X022080Y022325D01*
X022119Y022345D01*
X022159Y022362D01*
X022201Y022375D01*
X022243Y022384D01*
X022286Y022390D01*
X022330Y022392D01*
X022330Y023092D01*
X022230Y023092D01*
X012430Y016592D02*
X012330Y016592D01*
X012330Y015892D01*
X012374Y015890D01*
X012417Y015884D01*
X012459Y015875D01*
X012501Y015862D01*
X012541Y015845D01*
X012580Y015825D01*
X012617Y015802D01*
X012651Y015775D01*
X012684Y015746D01*
X012713Y015713D01*
X012740Y015679D01*
X012763Y015642D01*
X012783Y015603D01*
X012800Y015563D01*
X012813Y015521D01*
X012822Y015479D01*
X012828Y015436D01*
X012830Y015392D01*
X012828Y015348D01*
X012822Y015305D01*
X012813Y015263D01*
X012800Y015221D01*
X012783Y015181D01*
X012763Y015142D01*
X012740Y015105D01*
X012713Y015071D01*
X012684Y015038D01*
X012651Y015009D01*
X012617Y014982D01*
X012580Y014959D01*
X012541Y014939D01*
X012501Y014922D01*
X012459Y014909D01*
X012417Y014900D01*
X012374Y014894D01*
X012330Y014892D01*
X012330Y014192D01*
X012430Y014192D01*
D13*
X013205Y011357D02*
X013205Y011057D01*
X013430Y011057D01*
X013355Y011207D01*
X013355Y011282D01*
X013430Y011357D01*
X013580Y011357D01*
X013655Y011282D01*
X013655Y011132D01*
X013580Y011057D01*
X013580Y010896D02*
X013655Y010821D01*
X013655Y010671D01*
X013580Y010596D01*
X013280Y010596D01*
X013205Y010671D01*
X013205Y010821D01*
X013280Y010896D01*
X013580Y010896D01*
X013655Y010896D02*
X013505Y010746D01*
X015205Y010671D02*
X015205Y010821D01*
X015280Y010896D01*
X015580Y010896D01*
X015655Y010821D01*
X015655Y010671D01*
X015580Y010596D01*
X015280Y010596D01*
X015205Y010671D01*
X015505Y010746D02*
X015655Y010896D01*
X015580Y011057D02*
X015655Y011132D01*
X015655Y011282D01*
X015580Y011357D01*
X015505Y011357D01*
X015430Y011282D01*
X015430Y011057D01*
X015580Y011057D01*
X015430Y011057D02*
X015280Y011207D01*
X015205Y011357D01*
X017205Y011357D02*
X017205Y011057D01*
X017280Y010896D02*
X017580Y010896D01*
X017655Y010821D01*
X017655Y010671D01*
X017580Y010596D01*
X017280Y010596D01*
X017205Y010671D01*
X017205Y010821D01*
X017280Y010896D01*
X017505Y010746D02*
X017655Y010896D01*
X017655Y011057D02*
X017580Y011057D01*
X017280Y011357D01*
X017205Y011357D01*
X019205Y011282D02*
X019205Y011132D01*
X019280Y011057D01*
X019355Y011057D01*
X019430Y011132D01*
X019430Y011282D01*
X019505Y011357D01*
X019580Y011357D01*
X019655Y011282D01*
X019655Y011132D01*
X019580Y011057D01*
X019505Y011057D01*
X019430Y011132D01*
X019430Y011282D02*
X019355Y011357D01*
X019280Y011357D01*
X019205Y011282D01*
X019280Y010896D02*
X019580Y010896D01*
X019655Y010821D01*
X019655Y010671D01*
X019580Y010596D01*
X019280Y010596D01*
X019205Y010671D01*
X019205Y010821D01*
X019280Y010896D01*
X019505Y010746D02*
X019655Y010896D01*
X021205Y010821D02*
X021205Y010671D01*
X021280Y010596D01*
X021580Y010596D01*
X021655Y010671D01*
X021655Y010821D01*
X021580Y010896D01*
X021280Y010896D01*
X021205Y010821D01*
X021280Y011057D02*
X021355Y011057D01*
X021430Y011132D01*
X021430Y011357D01*
X021580Y011357D02*
X021280Y011357D01*
X021205Y011282D01*
X021205Y011132D01*
X021280Y011057D01*
X021580Y011057D02*
X021655Y011132D01*
X021655Y011282D01*
X021580Y011357D01*
X021655Y010896D02*
X021505Y010746D01*
X023205Y010746D02*
X023655Y010746D01*
X023655Y010596D02*
X023655Y010896D01*
X023580Y011057D02*
X023280Y011357D01*
X023580Y011357D01*
X023655Y011282D01*
X023655Y011132D01*
X023580Y011057D01*
X023280Y011057D01*
X023205Y011132D01*
X023205Y011282D01*
X023280Y011357D01*
X023205Y010746D02*
X023355Y010596D01*
X023280Y010436D02*
X023580Y010436D01*
X023655Y010361D01*
X023655Y010211D01*
X023580Y010136D01*
X023280Y010136D01*
X023205Y010211D01*
X023205Y010361D01*
X023280Y010436D01*
X023505Y010286D02*
X023655Y010436D01*
X025205Y010361D02*
X025280Y010436D01*
X025580Y010436D01*
X025655Y010361D01*
X025655Y010211D01*
X025580Y010136D01*
X025280Y010136D01*
X025205Y010211D01*
X025205Y010361D01*
X025355Y010596D02*
X025205Y010746D01*
X025655Y010746D01*
X025655Y010596D02*
X025655Y010896D01*
X025655Y011057D02*
X025655Y011357D01*
X025655Y011207D02*
X025205Y011207D01*
X025355Y011057D01*
X025655Y010436D02*
X025505Y010286D01*
X027205Y010361D02*
X027280Y010436D01*
X027580Y010436D01*
X027655Y010361D01*
X027655Y010211D01*
X027580Y010136D01*
X027280Y010136D01*
X027205Y010211D01*
X027205Y010361D01*
X027355Y010596D02*
X027205Y010746D01*
X027655Y010746D01*
X027655Y010596D02*
X027655Y010896D01*
X027655Y011057D02*
X027355Y011357D01*
X027280Y011357D01*
X027205Y011282D01*
X027205Y011132D01*
X027280Y011057D01*
X027655Y011057D02*
X027655Y011357D01*
X027655Y010436D02*
X027505Y010286D01*
X029205Y010361D02*
X029280Y010436D01*
X029580Y010436D01*
X029655Y010361D01*
X029655Y010211D01*
X029580Y010136D01*
X029280Y010136D01*
X029205Y010211D01*
X029205Y010361D01*
X029355Y010596D02*
X029205Y010746D01*
X029655Y010746D01*
X029655Y010596D02*
X029655Y010896D01*
X029580Y011057D02*
X029655Y011132D01*
X029655Y011282D01*
X029580Y011357D01*
X029505Y011357D01*
X029430Y011282D01*
X029430Y011207D01*
X029430Y011282D02*
X029355Y011357D01*
X029280Y011357D01*
X029205Y011282D01*
X029205Y011132D01*
X029280Y011057D01*
X029655Y010436D02*
X029505Y010286D01*
X031205Y010361D02*
X031280Y010436D01*
X031580Y010436D01*
X031655Y010361D01*
X031655Y010211D01*
X031580Y010136D01*
X031280Y010136D01*
X031205Y010211D01*
X031205Y010361D01*
X031355Y010596D02*
X031205Y010746D01*
X031655Y010746D01*
X031655Y010596D02*
X031655Y010896D01*
X031430Y011057D02*
X031430Y011357D01*
X031655Y011282D02*
X031205Y011282D01*
X031430Y011057D01*
X031655Y010436D02*
X031505Y010286D01*
X033205Y010361D02*
X033280Y010436D01*
X033580Y010436D01*
X033655Y010361D01*
X033655Y010211D01*
X033580Y010136D01*
X033280Y010136D01*
X033205Y010211D01*
X033205Y010361D01*
X033355Y010596D02*
X033205Y010746D01*
X033655Y010746D01*
X033655Y010596D02*
X033655Y010896D01*
X033580Y011057D02*
X033655Y011132D01*
X033655Y011282D01*
X033580Y011357D01*
X033430Y011357D01*
X033355Y011282D01*
X033355Y011207D01*
X033430Y011057D01*
X033205Y011057D01*
X033205Y011357D01*
X033655Y010436D02*
X033505Y010286D01*
X039334Y003742D02*
X039334Y003142D01*
X039259Y003217D02*
X039409Y003217D01*
X039484Y003292D01*
X039484Y003367D01*
X039409Y003442D01*
X039259Y003442D01*
X039184Y003517D01*
X039184Y003592D01*
X039259Y003667D01*
X039409Y003667D01*
X039484Y003592D01*
X039645Y003592D02*
X039720Y003667D01*
X039870Y003667D01*
X039945Y003592D01*
X039945Y003517D01*
X039645Y003217D01*
X039945Y003217D01*
X039259Y003217D02*
X039184Y003292D01*
X039024Y003292D02*
X039024Y003667D01*
X038724Y003667D02*
X038724Y003292D01*
X038799Y003217D01*
X038949Y003217D01*
X039024Y003292D01*
X024830Y018436D02*
X024530Y018436D01*
X024455Y018511D01*
X024455Y018661D01*
X024530Y018736D01*
X024605Y018896D02*
X024455Y019046D01*
X024905Y019046D01*
X024905Y018896D02*
X024905Y019196D01*
X024830Y019357D02*
X024755Y019357D01*
X024680Y019432D01*
X024680Y019582D01*
X024755Y019657D01*
X024830Y019657D01*
X024905Y019582D01*
X024905Y019432D01*
X024830Y019357D01*
X024680Y019432D02*
X024605Y019357D01*
X024530Y019357D01*
X024455Y019432D01*
X024455Y019582D01*
X024530Y019657D01*
X024605Y019657D01*
X024680Y019582D01*
X024830Y018736D02*
X024905Y018661D01*
X024905Y018511D01*
X024830Y018436D01*
X022556Y018817D02*
X022256Y018817D01*
X022406Y018817D02*
X022406Y019267D01*
X022256Y019117D01*
X022096Y019117D02*
X022096Y019192D01*
X022021Y019267D01*
X021870Y019267D01*
X021795Y019192D01*
X021635Y019192D02*
X021635Y019042D01*
X021560Y018967D01*
X021335Y018967D01*
X021335Y018817D02*
X021335Y019267D01*
X021560Y019267D01*
X021635Y019192D01*
X021485Y018967D02*
X021635Y018817D01*
X021795Y018817D02*
X022096Y019117D01*
X022096Y018817D02*
X021795Y018817D01*
X019096Y018817D02*
X018795Y018817D01*
X019096Y019117D01*
X019096Y019192D01*
X019021Y019267D01*
X018870Y019267D01*
X018795Y019192D01*
X018635Y019192D02*
X018635Y019042D01*
X018560Y018967D01*
X018335Y018967D01*
X018335Y018817D02*
X018335Y019267D01*
X018560Y019267D01*
X018635Y019192D01*
X018485Y018967D02*
X018635Y018817D01*
X016215Y018467D02*
X015915Y018467D01*
X015915Y018242D01*
X016065Y018317D01*
X016140Y018317D01*
X016215Y018242D01*
X016215Y018092D01*
X016140Y018017D01*
X015990Y018017D01*
X015915Y018092D01*
X015754Y018017D02*
X015604Y018167D01*
X015679Y018167D02*
X015454Y018167D01*
X015454Y018017D02*
X015454Y018467D01*
X015679Y018467D01*
X015754Y018392D01*
X015754Y018242D01*
X015679Y018167D01*
X013215Y018167D02*
X013140Y018242D01*
X012915Y018242D01*
X012915Y018092D01*
X012990Y018017D01*
X013140Y018017D01*
X013215Y018092D01*
X013215Y018167D01*
X013065Y018392D02*
X012915Y018242D01*
X012754Y018242D02*
X012754Y018392D01*
X012679Y018467D01*
X012454Y018467D01*
X012454Y018017D01*
X012454Y018167D02*
X012679Y018167D01*
X012754Y018242D01*
X012604Y018167D02*
X012754Y018017D01*
X013065Y018392D02*
X013215Y018467D01*
X010705Y018278D02*
X010705Y017977D01*
X010705Y018127D02*
X010255Y018127D01*
X010405Y017977D01*
X010330Y017817D02*
X010255Y017742D01*
X010255Y017592D01*
X010330Y017517D01*
X010630Y017517D01*
X010705Y017592D01*
X010705Y017742D01*
X010630Y017817D01*
X010480Y018438D02*
X010480Y018738D01*
X010705Y018663D02*
X010255Y018663D01*
X010480Y018438D01*
X005405Y018471D02*
X005405Y018621D01*
X005330Y018696D01*
X005330Y018857D02*
X005405Y018857D01*
X005330Y018857D02*
X005030Y019157D01*
X004955Y019157D01*
X004955Y018857D01*
X005030Y018696D02*
X004955Y018621D01*
X004955Y018471D01*
X005030Y018396D01*
X005330Y018396D01*
X005405Y018471D01*
X005655Y011357D02*
X005655Y011057D01*
X005655Y011207D02*
X005205Y011207D01*
X005355Y011057D01*
X005280Y010896D02*
X005580Y010896D01*
X005655Y010821D01*
X005655Y010671D01*
X005580Y010596D01*
X005280Y010596D01*
X005205Y010671D01*
X005205Y010821D01*
X005280Y010896D01*
X005505Y010746D02*
X005655Y010896D01*
X007205Y010821D02*
X007205Y010671D01*
X007280Y010596D01*
X007580Y010596D01*
X007655Y010671D01*
X007655Y010821D01*
X007580Y010896D01*
X007280Y010896D01*
X007205Y010821D01*
X007280Y011057D02*
X007205Y011132D01*
X007205Y011282D01*
X007280Y011357D01*
X007355Y011357D01*
X007655Y011057D01*
X007655Y011357D01*
X007655Y010896D02*
X007505Y010746D01*
X009205Y010671D02*
X009205Y010821D01*
X009280Y010896D01*
X009580Y010896D01*
X009655Y010821D01*
X009655Y010671D01*
X009580Y010596D01*
X009280Y010596D01*
X009205Y010671D01*
X009505Y010746D02*
X009655Y010896D01*
X009580Y011057D02*
X009655Y011132D01*
X009655Y011282D01*
X009580Y011357D01*
X009505Y011357D01*
X009430Y011282D01*
X009430Y011207D01*
X009430Y011282D02*
X009355Y011357D01*
X009280Y011357D01*
X009205Y011282D01*
X009205Y011132D01*
X009280Y011057D01*
X011205Y011282D02*
X011430Y011057D01*
X011430Y011357D01*
X011655Y011282D02*
X011205Y011282D01*
X011280Y010896D02*
X011580Y010896D01*
X011655Y010821D01*
X011655Y010671D01*
X011580Y010596D01*
X011280Y010596D01*
X011205Y010671D01*
X011205Y010821D01*
X011280Y010896D01*
X011505Y010746D02*
X011655Y010896D01*
X012080Y025817D02*
X012005Y025892D01*
X012005Y026042D01*
X012080Y026117D01*
X012380Y026117D01*
X012455Y026042D01*
X012455Y025892D01*
X012380Y025817D01*
X012080Y025817D01*
X012305Y025967D02*
X012455Y026117D01*
X012455Y026277D02*
X012155Y026578D01*
X012080Y026578D01*
X012005Y026503D01*
X012005Y026352D01*
X012080Y026277D01*
X012455Y026277D02*
X012455Y026578D01*
X012380Y026738D02*
X012455Y026813D01*
X012455Y026963D01*
X012380Y027038D01*
X012230Y027038D01*
X012155Y026963D01*
X012155Y026888D01*
X012230Y026738D01*
X012005Y026738D01*
X012005Y027038D01*
X010455Y026963D02*
X010455Y026813D01*
X010380Y026738D01*
X010230Y026738D01*
X010230Y026963D01*
X010305Y027038D01*
X010380Y027038D01*
X010455Y026963D01*
X010230Y026738D02*
X010080Y026888D01*
X010005Y027038D01*
X010080Y026578D02*
X010005Y026503D01*
X010005Y026352D01*
X010080Y026277D01*
X010080Y026117D02*
X010380Y026117D01*
X010455Y026042D01*
X010455Y025892D01*
X010380Y025817D01*
X010080Y025817D01*
X010005Y025892D01*
X010005Y026042D01*
X010080Y026117D01*
X010305Y025967D02*
X010455Y026117D01*
X010455Y026277D02*
X010155Y026578D01*
X010080Y026578D01*
X010455Y026578D02*
X010455Y026277D01*
X008455Y026277D02*
X008155Y026578D01*
X008080Y026578D01*
X008005Y026503D01*
X008005Y026352D01*
X008080Y026277D01*
X008080Y026117D02*
X008380Y026117D01*
X008455Y026042D01*
X008455Y025892D01*
X008380Y025817D01*
X008080Y025817D01*
X008005Y025892D01*
X008005Y026042D01*
X008080Y026117D01*
X008305Y025967D02*
X008455Y026117D01*
X008455Y026277D02*
X008455Y026578D01*
X008455Y026738D02*
X008380Y026738D01*
X008080Y027038D01*
X008005Y027038D01*
X008005Y026738D01*
X006455Y026813D02*
X006380Y026738D01*
X006305Y026738D01*
X006230Y026813D01*
X006230Y026963D01*
X006305Y027038D01*
X006380Y027038D01*
X006455Y026963D01*
X006455Y026813D01*
X006230Y026813D02*
X006155Y026738D01*
X006080Y026738D01*
X006005Y026813D01*
X006005Y026963D01*
X006080Y027038D01*
X006155Y027038D01*
X006230Y026963D01*
X006155Y026578D02*
X006080Y026578D01*
X006005Y026503D01*
X006005Y026352D01*
X006080Y026277D01*
X006080Y026117D02*
X006380Y026117D01*
X006455Y026042D01*
X006455Y025892D01*
X006380Y025817D01*
X006080Y025817D01*
X006005Y025892D01*
X006005Y026042D01*
X006080Y026117D01*
X006305Y025967D02*
X006455Y026117D01*
X006455Y026277D02*
X006155Y026578D01*
X006455Y026578D02*
X006455Y026277D01*
X004455Y026277D02*
X004155Y026578D01*
X004080Y026578D01*
X004005Y026503D01*
X004005Y026352D01*
X004080Y026277D01*
X004080Y026117D02*
X004380Y026117D01*
X004455Y026042D01*
X004455Y025892D01*
X004380Y025817D01*
X004080Y025817D01*
X004005Y025892D01*
X004005Y026042D01*
X004080Y026117D01*
X004305Y025967D02*
X004455Y026117D01*
X004455Y026277D02*
X004455Y026578D01*
X004380Y026738D02*
X004455Y026813D01*
X004455Y026963D01*
X004380Y027038D01*
X004080Y027038D01*
X004005Y026963D01*
X004005Y026813D01*
X004080Y026738D01*
X004155Y026738D01*
X004230Y026813D01*
X004230Y027038D01*
X002455Y026963D02*
X002455Y026813D01*
X002380Y026738D01*
X002080Y027038D01*
X002380Y027038D01*
X002455Y026963D01*
X002380Y026738D02*
X002080Y026738D01*
X002005Y026813D01*
X002005Y026963D01*
X002080Y027038D01*
X002080Y026578D02*
X002155Y026578D01*
X002230Y026503D01*
X002305Y026578D01*
X002380Y026578D01*
X002455Y026503D01*
X002455Y026352D01*
X002380Y026277D01*
X002380Y026117D02*
X002455Y026042D01*
X002455Y025892D01*
X002380Y025817D01*
X002080Y025817D01*
X002005Y025892D01*
X002005Y026042D01*
X002080Y026117D01*
X002380Y026117D01*
X002455Y026117D02*
X002305Y025967D01*
X002080Y026277D02*
X002005Y026352D01*
X002005Y026503D01*
X002080Y026578D01*
X002230Y026503D02*
X002230Y026427D01*
X001505Y026474D02*
X001155Y026474D01*
X001271Y026357D01*
X001505Y026357D02*
X001505Y026591D01*
X001505Y026725D02*
X001155Y026725D01*
X001505Y026959D01*
X001155Y026959D01*
X001330Y027094D02*
X001155Y027269D01*
X001505Y027269D01*
X001330Y027327D02*
X001330Y027094D01*
X001447Y027462D02*
X001213Y027462D01*
X001155Y027520D01*
X001155Y027637D01*
X001213Y027696D01*
X001447Y027462D01*
X001505Y027520D01*
X001505Y027637D01*
X001447Y027696D01*
X001213Y027696D01*
X001213Y027830D02*
X001155Y027889D01*
X001155Y028005D01*
X001213Y028064D01*
X001447Y027830D01*
X001505Y027889D01*
X001505Y028005D01*
X001447Y028064D01*
X001213Y028064D01*
X001330Y028199D02*
X001155Y028374D01*
X001505Y028374D01*
X001330Y028432D02*
X001330Y028199D01*
X001447Y027830D02*
X001213Y027830D01*
X014005Y026963D02*
X014230Y026738D01*
X014230Y027038D01*
X014455Y026963D02*
X014005Y026963D01*
X014080Y026578D02*
X014005Y026503D01*
X014005Y026352D01*
X014080Y026277D01*
X014080Y026117D02*
X014380Y026117D01*
X014455Y026042D01*
X014455Y025892D01*
X014380Y025817D01*
X014080Y025817D01*
X014005Y025892D01*
X014005Y026042D01*
X014080Y026117D01*
X014305Y025967D02*
X014455Y026117D01*
X014455Y026277D02*
X014155Y026578D01*
X014080Y026578D01*
X014455Y026578D02*
X014455Y026277D01*
X016005Y026352D02*
X016080Y026277D01*
X016005Y026352D02*
X016005Y026503D01*
X016080Y026578D01*
X016155Y026578D01*
X016455Y026277D01*
X016455Y026578D01*
X016380Y026738D02*
X016455Y026813D01*
X016455Y026963D01*
X016380Y027038D01*
X016305Y027038D01*
X016230Y026963D01*
X016230Y026888D01*
X016230Y026963D02*
X016155Y027038D01*
X016080Y027038D01*
X016005Y026963D01*
X016005Y026813D01*
X016080Y026738D01*
X016080Y026117D02*
X016380Y026117D01*
X016455Y026042D01*
X016455Y025892D01*
X016380Y025817D01*
X016080Y025817D01*
X016005Y025892D01*
X016005Y026042D01*
X016080Y026117D01*
X016305Y025967D02*
X016455Y026117D01*
X018005Y026042D02*
X018080Y026117D01*
X018380Y026117D01*
X018455Y026042D01*
X018455Y025892D01*
X018380Y025817D01*
X018080Y025817D01*
X018005Y025892D01*
X018005Y026042D01*
X018080Y026277D02*
X018005Y026352D01*
X018005Y026503D01*
X018080Y026578D01*
X018155Y026578D01*
X018455Y026277D01*
X018455Y026578D01*
X018455Y026738D02*
X018155Y027038D01*
X018080Y027038D01*
X018005Y026963D01*
X018005Y026813D01*
X018080Y026738D01*
X018455Y026738D02*
X018455Y027038D01*
X018455Y026117D02*
X018305Y025967D01*
X020005Y025892D02*
X020005Y026042D01*
X020080Y026117D01*
X020380Y026117D01*
X020455Y026042D01*
X020455Y025892D01*
X020380Y025817D01*
X020080Y025817D01*
X020005Y025892D01*
X020305Y025967D02*
X020455Y026117D01*
X020455Y026277D02*
X020155Y026578D01*
X020080Y026578D01*
X020005Y026503D01*
X020005Y026352D01*
X020080Y026277D01*
X020455Y026277D02*
X020455Y026578D01*
X020455Y026738D02*
X020455Y027038D01*
X020455Y026888D02*
X020005Y026888D01*
X020155Y026738D01*
X022005Y026813D02*
X022005Y026963D01*
X022080Y027038D01*
X022380Y026738D01*
X022455Y026813D01*
X022455Y026963D01*
X022380Y027038D01*
X022080Y027038D01*
X022005Y026813D02*
X022080Y026738D01*
X022380Y026738D01*
X022455Y026578D02*
X022455Y026277D01*
X022155Y026578D01*
X022080Y026578D01*
X022005Y026503D01*
X022005Y026352D01*
X022080Y026277D01*
X022080Y026117D02*
X022380Y026117D01*
X022455Y026042D01*
X022455Y025892D01*
X022380Y025817D01*
X022080Y025817D01*
X022005Y025892D01*
X022005Y026042D01*
X022080Y026117D01*
X022305Y025967D02*
X022455Y026117D01*
X024005Y026042D02*
X024080Y026117D01*
X024380Y026117D01*
X024455Y026042D01*
X024455Y025892D01*
X024380Y025817D01*
X024080Y025817D01*
X024005Y025892D01*
X024005Y026042D01*
X024155Y026277D02*
X024005Y026427D01*
X024455Y026427D01*
X024455Y026277D02*
X024455Y026578D01*
X024380Y026738D02*
X024455Y026813D01*
X024455Y026963D01*
X024380Y027038D01*
X024080Y027038D01*
X024005Y026963D01*
X024005Y026813D01*
X024080Y026738D01*
X024155Y026738D01*
X024230Y026813D01*
X024230Y027038D01*
X024455Y026117D02*
X024305Y025967D01*
X026005Y025892D02*
X026005Y026042D01*
X026080Y026117D01*
X026380Y026117D01*
X026455Y026042D01*
X026455Y025892D01*
X026380Y025817D01*
X026080Y025817D01*
X026005Y025892D01*
X026305Y025967D02*
X026455Y026117D01*
X026455Y026277D02*
X026455Y026578D01*
X026455Y026427D02*
X026005Y026427D01*
X026155Y026277D01*
X026155Y026738D02*
X026080Y026738D01*
X026005Y026813D01*
X026005Y026963D01*
X026080Y027038D01*
X026155Y027038D01*
X026230Y026963D01*
X026230Y026813D01*
X026155Y026738D01*
X026230Y026813D02*
X026305Y026738D01*
X026380Y026738D01*
X026455Y026813D01*
X026455Y026963D01*
X026380Y027038D01*
X026305Y027038D01*
X026230Y026963D01*
X028005Y027038D02*
X028005Y026738D01*
X028005Y027038D02*
X028080Y027038D01*
X028380Y026738D01*
X028455Y026738D01*
X028455Y026578D02*
X028455Y026277D01*
X028455Y026427D02*
X028005Y026427D01*
X028155Y026277D01*
X028080Y026117D02*
X028380Y026117D01*
X028455Y026042D01*
X028455Y025892D01*
X028380Y025817D01*
X028080Y025817D01*
X028005Y025892D01*
X028005Y026042D01*
X028080Y026117D01*
X028305Y025967D02*
X028455Y026117D01*
X030005Y026042D02*
X030080Y026117D01*
X030380Y026117D01*
X030455Y026042D01*
X030455Y025892D01*
X030380Y025817D01*
X030080Y025817D01*
X030005Y025892D01*
X030005Y026042D01*
X030155Y026277D02*
X030005Y026427D01*
X030455Y026427D01*
X030455Y026277D02*
X030455Y026578D01*
X030380Y026738D02*
X030455Y026813D01*
X030455Y026963D01*
X030380Y027038D01*
X030305Y027038D01*
X030230Y026963D01*
X030230Y026738D01*
X030380Y026738D01*
X030230Y026738D02*
X030080Y026888D01*
X030005Y027038D01*
X030455Y026117D02*
X030305Y025967D01*
X034494Y025967D02*
X034494Y025517D01*
X034494Y025667D02*
X034719Y025667D01*
X034794Y025742D01*
X034794Y025892D01*
X034719Y025967D01*
X034494Y025967D01*
X034644Y025667D02*
X034794Y025517D01*
X034954Y025517D02*
X035254Y025517D01*
X035104Y025517D02*
X035104Y025967D01*
X034954Y025817D01*
X035030Y025896D02*
X035330Y025896D01*
X035405Y025971D01*
X035405Y026121D01*
X035330Y026196D01*
X035255Y026092D02*
X035180Y026017D01*
X035030Y026017D01*
X034955Y026092D01*
X034955Y026392D01*
X035030Y026467D01*
X035180Y026467D01*
X035255Y026392D01*
X035180Y026357D02*
X035180Y026657D01*
X035405Y026582D02*
X034955Y026582D01*
X035180Y026357D01*
X035030Y026196D02*
X034955Y026121D01*
X034955Y025971D01*
X035030Y025896D01*
X035415Y025892D02*
X035415Y025817D01*
X035490Y025742D01*
X035640Y025742D01*
X035715Y025667D01*
X035715Y025592D01*
X035640Y025517D01*
X035490Y025517D01*
X035415Y025592D01*
X035415Y025667D01*
X035490Y025742D01*
X035640Y025742D02*
X035715Y025817D01*
X035715Y025892D01*
X035640Y025967D01*
X035490Y025967D01*
X035415Y025892D01*
X035415Y026017D02*
X035716Y026017D01*
X035566Y026017D02*
X035566Y026467D01*
X035415Y026317D01*
X035415Y028017D02*
X035716Y028317D01*
X035716Y028392D01*
X035641Y028467D01*
X035490Y028467D01*
X035415Y028392D01*
X035255Y028392D02*
X035180Y028467D01*
X035030Y028467D01*
X034955Y028392D01*
X034955Y028092D01*
X035030Y028017D01*
X035180Y028017D01*
X035255Y028092D01*
X035415Y028017D02*
X035716Y028017D01*
X035641Y029017D02*
X035490Y029017D01*
X035415Y029092D01*
X035255Y029092D02*
X035180Y029017D01*
X035030Y029017D01*
X034955Y029092D01*
X034955Y029392D01*
X035030Y029467D01*
X035180Y029467D01*
X035255Y029392D01*
X035415Y029392D02*
X035490Y029467D01*
X035641Y029467D01*
X035716Y029392D01*
X035716Y029317D01*
X035641Y029242D01*
X035716Y029167D01*
X035716Y029092D01*
X035641Y029017D01*
X035641Y029242D02*
X035566Y029242D01*
X035405Y030397D02*
X034955Y030397D01*
X034955Y030622D01*
X035030Y030697D01*
X035180Y030697D01*
X035255Y030622D01*
X035255Y030397D01*
X035255Y030547D02*
X035405Y030697D01*
X035405Y030857D02*
X035405Y031158D01*
X035405Y031007D02*
X034955Y031007D01*
X035105Y030857D01*
X035105Y031318D02*
X035180Y031393D01*
X035180Y031618D01*
X035330Y031618D02*
X035030Y031618D01*
X034955Y031543D01*
X034955Y031393D01*
X035030Y031318D01*
X035105Y031318D01*
X035330Y031318D02*
X035405Y031393D01*
X035405Y031543D01*
X035330Y031618D01*
X040955Y031543D02*
X041030Y031618D01*
X041330Y031318D01*
X041405Y031393D01*
X041405Y031543D01*
X041330Y031618D01*
X041030Y031618D01*
X040955Y031543D02*
X040955Y031393D01*
X041030Y031318D01*
X041330Y031318D01*
X041405Y031158D02*
X041405Y030857D01*
X041105Y031158D01*
X041030Y031158D01*
X040955Y031083D01*
X040955Y030932D01*
X041030Y030857D01*
X041030Y030697D02*
X041180Y030697D01*
X041255Y030622D01*
X041255Y030397D01*
X041405Y030397D02*
X040955Y030397D01*
X040955Y030622D01*
X041030Y030697D01*
X041255Y030547D02*
X041405Y030697D01*
X040045Y024617D02*
X040045Y024167D01*
X039895Y024167D02*
X040195Y024167D01*
X039895Y024467D02*
X040045Y024617D01*
X039734Y024542D02*
X039659Y024617D01*
X039509Y024617D01*
X039434Y024542D01*
X039434Y024467D01*
X039509Y024392D01*
X039659Y024392D01*
X039734Y024317D01*
X039734Y024242D01*
X039659Y024167D01*
X039509Y024167D01*
X039434Y024242D01*
X039274Y024242D02*
X039274Y024617D01*
X038974Y024617D02*
X038974Y024242D01*
X039049Y024167D01*
X039199Y024167D01*
X039274Y024242D01*
X039584Y024092D02*
X039584Y024692D01*
X030525Y020287D02*
X030525Y019987D01*
X030525Y020137D02*
X030075Y020137D01*
X030225Y019987D01*
X030300Y019826D02*
X030375Y019751D01*
X030375Y019526D01*
X030525Y019526D02*
X030075Y019526D01*
X030075Y019751D01*
X030150Y019826D01*
X030300Y019826D01*
X030075Y019366D02*
X030075Y019216D01*
X030075Y019291D02*
X030450Y019291D01*
X030525Y019216D01*
X030525Y019141D01*
X030450Y019066D01*
D14*
X039835Y033102D02*
X039960Y033102D01*
X039985Y033127D01*
X039985Y033177D01*
X039960Y033202D01*
X039835Y033202D01*
X039885Y033250D02*
X039835Y033300D01*
X039985Y033300D01*
X039985Y033250D02*
X039985Y033350D01*
X004232Y021647D02*
X004182Y021622D01*
X004132Y021572D01*
X004207Y021572D01*
X004232Y021547D01*
X004232Y021522D01*
X004207Y021497D01*
X004157Y021497D01*
X004132Y021522D01*
X004132Y021572D01*
X004085Y021522D02*
X004060Y021497D01*
X004010Y021497D01*
X003985Y021522D01*
X003985Y021622D01*
X004010Y021647D01*
X004060Y021647D01*
X004085Y021622D01*
X002588Y021612D02*
X002563Y021587D01*
X002513Y021587D01*
X002488Y021612D01*
X002440Y021612D02*
X002415Y021587D01*
X002365Y021587D01*
X002340Y021612D01*
X002340Y021712D01*
X002365Y021737D01*
X002415Y021737D01*
X002440Y021712D01*
X002488Y021737D02*
X002488Y021662D01*
X002538Y021687D01*
X002563Y021687D01*
X002588Y021662D01*
X002588Y021612D01*
X002588Y021737D02*
X002488Y021737D01*
X002513Y018737D02*
X002563Y018737D01*
X002588Y018712D01*
X002588Y018687D01*
X002563Y018662D01*
X002513Y018662D01*
X002488Y018687D01*
X002488Y018712D01*
X002513Y018737D01*
X002513Y018662D02*
X002488Y018637D01*
X002488Y018612D01*
X002513Y018587D01*
X002563Y018587D01*
X002588Y018612D01*
X002588Y018637D01*
X002563Y018662D01*
X002440Y018612D02*
X002415Y018587D01*
X002365Y018587D01*
X002340Y018612D01*
X002340Y018712D01*
X002365Y018737D01*
X002415Y018737D01*
X002440Y018712D01*
X000825Y014292D02*
X000825Y014192D01*
X000725Y014292D01*
X000700Y014292D01*
X000675Y014267D01*
X000675Y014217D01*
X000700Y014192D01*
X000700Y014144D02*
X000750Y014144D01*
X000775Y014119D01*
X000775Y014044D01*
X000825Y014044D02*
X000675Y014044D01*
X000675Y014119D01*
X000700Y014144D01*
X000675Y013997D02*
X000675Y013947D01*
X000675Y013972D02*
X000800Y013972D01*
X000825Y013947D01*
X000825Y013922D01*
X000800Y013897D01*
X000800Y009792D02*
X000825Y009767D01*
X000825Y009717D01*
X000800Y009692D01*
X000750Y009644D02*
X000775Y009619D01*
X000775Y009544D01*
X000825Y009544D02*
X000675Y009544D01*
X000675Y009619D01*
X000700Y009644D01*
X000750Y009644D01*
X000700Y009692D02*
X000675Y009717D01*
X000675Y009767D01*
X000700Y009792D01*
X000725Y009792D01*
X000750Y009767D01*
X000775Y009792D01*
X000800Y009792D01*
X000750Y009767D02*
X000750Y009742D01*
X000675Y009497D02*
X000675Y009447D01*
X000675Y009472D02*
X000800Y009472D01*
X000825Y009447D01*
X000825Y009422D01*
X000800Y009397D01*
D15*
X004830Y010392D03*
X006830Y010392D03*
X008830Y010392D03*
X010830Y010392D03*
X012830Y010392D03*
X014830Y010392D03*
X016830Y010392D03*
X018830Y010392D03*
X020830Y010392D03*
X022830Y010392D03*
X024830Y010392D03*
X026830Y010392D03*
X028830Y010392D03*
X030830Y010392D03*
X032830Y010392D03*
X030830Y026892D03*
X028830Y026892D03*
X026830Y026892D03*
X024830Y026892D03*
X022830Y026892D03*
X020830Y026892D03*
X018830Y026892D03*
X016830Y026892D03*
X014830Y026892D03*
X012830Y026892D03*
X010830Y026892D03*
X008830Y026892D03*
X006830Y026892D03*
X004830Y026892D03*
X002830Y026892D03*
D16*
X013230Y018892D02*
X013430Y018892D01*
X016230Y018892D02*
X016430Y018892D01*
X018230Y018392D02*
X018430Y018392D01*
X021230Y018392D02*
X021430Y018392D01*
X035730Y026392D02*
X035930Y026392D01*
X035830Y030292D02*
X035830Y030492D01*
X041830Y030492D02*
X041830Y030292D01*
D17*
X035930Y028692D02*
X035930Y028392D01*
X035930Y028092D01*
X035730Y028092D02*
X035730Y028392D01*
X035730Y028692D01*
X035730Y027692D02*
X035730Y027392D01*
X035730Y027092D01*
X035930Y027092D02*
X035930Y027392D01*
X035930Y027692D01*
X034630Y025992D02*
X034330Y025992D01*
X034030Y025992D01*
X034030Y025792D02*
X034330Y025792D01*
X034630Y025792D01*
X035730Y025692D02*
X035730Y025392D01*
X035730Y025092D01*
X035930Y025092D02*
X035930Y025392D01*
X035930Y025692D01*
X024130Y018992D02*
X023830Y018992D01*
X023530Y018992D01*
X023530Y018792D02*
X023830Y018792D01*
X024130Y018792D01*
X011630Y018492D02*
X011330Y018492D01*
X011030Y018492D01*
X011030Y018292D02*
X011330Y018292D01*
X011630Y018292D01*
X004630Y018292D02*
X004330Y018292D01*
X004030Y018292D01*
X004030Y018492D02*
X004330Y018492D01*
X004630Y018492D01*
X001330Y025892D02*
X001330Y026142D01*
X001830Y026142D01*
X001830Y026642D01*
X000830Y026642D01*
X000830Y026142D01*
X001330Y026142D01*
X001830Y026642D02*
X001830Y028642D01*
X001330Y028642D01*
X001330Y028892D01*
X001330Y028642D02*
X000830Y028642D01*
X000830Y026642D01*
D18*
X001990Y028110D02*
X001990Y028220D01*
X002027Y028257D01*
X002173Y028257D01*
X002210Y028220D01*
X002210Y028110D01*
X001990Y028110D01*
X002063Y028331D02*
X001990Y028404D01*
X002210Y028404D01*
X002210Y028331D02*
X002210Y028478D01*
X013340Y015622D02*
X013340Y015439D01*
X013377Y015402D01*
X013450Y015402D01*
X013487Y015439D01*
X013487Y015622D01*
X013561Y015585D02*
X013598Y015622D01*
X013671Y015622D01*
X013708Y015585D01*
X013708Y015549D01*
X013561Y015402D01*
X013708Y015402D01*
X020898Y021699D02*
X020935Y021662D01*
X021008Y021662D01*
X021045Y021699D01*
X021045Y021882D01*
X021119Y021845D02*
X021156Y021882D01*
X021229Y021882D01*
X021266Y021845D01*
X021266Y021809D01*
X021229Y021772D01*
X021266Y021735D01*
X021266Y021699D01*
X021229Y021662D01*
X021156Y021662D01*
X021119Y021699D01*
X021192Y021772D02*
X021229Y021772D01*
X020898Y021699D02*
X020898Y021882D01*
M02*
