G75*
G70*
%OFA0B0*%
%FSLAX24Y24*%
%IPPOS*%
%LPD*%
%AMOC8*
5,1,8,0,0,1.08239X$1,22.5*
%
%ADD10OC8,0.0710*%
%ADD11C,0.0940*%
%ADD12C,0.0552*%
%ADD13R,0.0820X0.0820*%
%ADD14C,0.0820*%
%ADD15C,0.0680*%
%ADD16OC8,0.0600*%
%ADD17C,0.0860*%
%ADD18C,0.0730*%
%ADD19R,0.0730X0.0730*%
%ADD20C,0.1380*%
%ADD21C,0.1340*%
%ADD22C,0.0600*%
%ADD23R,0.0880X0.0880*%
%ADD24C,0.0880*%
%ADD25C,0.0530*%
%ADD26C,0.0476*%
D10*
X037330Y025392D03*
X037330Y026392D03*
X037330Y027392D03*
X037330Y028392D03*
X040330Y028392D03*
X040330Y027392D03*
X040330Y026392D03*
X040330Y025392D03*
D11*
X040799Y030923D03*
X039814Y030923D03*
X037846Y030923D03*
X036861Y030923D03*
X038830Y032892D03*
D12*
X040799Y032892D03*
X040799Y033876D03*
X038830Y030923D03*
X036861Y032892D03*
X036861Y033876D03*
D13*
X031580Y030392D03*
X025580Y030392D03*
X019580Y030392D03*
X013580Y030392D03*
X007580Y030392D03*
X006330Y019892D03*
X004080Y006892D03*
X010080Y006892D03*
X016080Y006892D03*
X022080Y006892D03*
X028080Y006892D03*
X039830Y004392D03*
X029380Y019892D03*
X035830Y023392D03*
D14*
X036830Y023392D03*
X037830Y023392D03*
X039830Y023392D03*
X039830Y022392D03*
X039830Y021392D03*
X039830Y020392D03*
X039830Y019392D03*
X039830Y018392D03*
X039830Y017392D03*
X039830Y016392D03*
X039830Y015392D03*
X039830Y014392D03*
X039830Y013392D03*
X039830Y012392D03*
X039830Y011392D03*
X039830Y010392D03*
X039830Y009392D03*
X039830Y008392D03*
X039830Y007392D03*
X039830Y006392D03*
X039830Y005392D03*
X033830Y005392D03*
X033830Y006392D03*
X033830Y007392D03*
X033830Y008392D03*
X033830Y009392D03*
X033830Y010392D03*
X033830Y011392D03*
X033830Y012392D03*
X033830Y013392D03*
X033830Y014392D03*
X033830Y015392D03*
X033830Y016392D03*
X033830Y017392D03*
X033830Y018392D03*
X033830Y019392D03*
X033830Y020392D03*
X033830Y021392D03*
X033830Y022392D03*
X033830Y023392D03*
X035830Y020392D03*
X036830Y020392D03*
X036830Y019392D03*
X035830Y019392D03*
X035830Y018392D03*
X036830Y018392D03*
X036830Y017392D03*
X035830Y017392D03*
X029380Y017892D03*
X029280Y016892D03*
X029280Y018892D03*
X029080Y029392D03*
X030080Y029392D03*
X031080Y029392D03*
X030580Y030392D03*
X029580Y030392D03*
X028580Y030392D03*
X028080Y029392D03*
X025080Y029392D03*
X024080Y029392D03*
X023080Y029392D03*
X022080Y029392D03*
X022580Y030392D03*
X023580Y030392D03*
X024580Y030392D03*
X019080Y029392D03*
X018080Y029392D03*
X017080Y029392D03*
X016080Y029392D03*
X016580Y030392D03*
X017580Y030392D03*
X018580Y030392D03*
X013080Y029392D03*
X012080Y029392D03*
X011080Y029392D03*
X010080Y029392D03*
X010580Y030392D03*
X011580Y030392D03*
X012580Y030392D03*
X007080Y029392D03*
X006080Y029392D03*
X005080Y029392D03*
X004080Y029392D03*
X004580Y030392D03*
X005580Y030392D03*
X006580Y030392D03*
X006330Y018892D03*
X006330Y017892D03*
X006580Y007892D03*
X005580Y007892D03*
X004580Y007892D03*
X005080Y006892D03*
X006080Y006892D03*
X007080Y006892D03*
X007580Y007892D03*
X010580Y007892D03*
X011580Y007892D03*
X012580Y007892D03*
X013580Y007892D03*
X013080Y006892D03*
X012080Y006892D03*
X011080Y006892D03*
X016580Y007892D03*
X017580Y007892D03*
X018580Y007892D03*
X019580Y007892D03*
X019080Y006892D03*
X018080Y006892D03*
X017080Y006892D03*
X022580Y007892D03*
X023580Y007892D03*
X024580Y007892D03*
X025580Y007892D03*
X025080Y006892D03*
X024080Y006892D03*
X023080Y006892D03*
X028580Y007892D03*
X029580Y007892D03*
X030580Y007892D03*
X031580Y007892D03*
X031080Y006892D03*
X030080Y006892D03*
X029080Y006892D03*
X033830Y004392D03*
D15*
X032130Y009392D02*
X031530Y009392D01*
X031530Y010392D02*
X032130Y010392D01*
X032130Y011392D02*
X031530Y011392D01*
X030130Y011392D02*
X029530Y011392D01*
X029530Y010392D02*
X030130Y010392D01*
X030130Y009392D02*
X029530Y009392D01*
X028130Y009392D02*
X027530Y009392D01*
X027530Y010392D02*
X028130Y010392D01*
X028130Y011392D02*
X027530Y011392D01*
X026130Y011392D02*
X025530Y011392D01*
X025530Y010392D02*
X026130Y010392D01*
X026130Y009392D02*
X025530Y009392D01*
X024130Y009392D02*
X023530Y009392D01*
X023530Y010392D02*
X024130Y010392D01*
X024130Y011392D02*
X023530Y011392D01*
X022130Y011392D02*
X021530Y011392D01*
X021530Y010392D02*
X022130Y010392D01*
X022130Y009392D02*
X021530Y009392D01*
X020130Y009392D02*
X019530Y009392D01*
X019530Y010392D02*
X020130Y010392D01*
X020130Y011392D02*
X019530Y011392D01*
X018130Y011392D02*
X017530Y011392D01*
X017530Y010392D02*
X018130Y010392D01*
X018130Y009392D02*
X017530Y009392D01*
X016130Y009392D02*
X015530Y009392D01*
X015530Y010392D02*
X016130Y010392D01*
X016130Y011392D02*
X015530Y011392D01*
X014130Y011392D02*
X013530Y011392D01*
X013530Y010392D02*
X014130Y010392D01*
X014130Y009392D02*
X013530Y009392D01*
X012130Y009392D02*
X011530Y009392D01*
X011530Y010392D02*
X012130Y010392D01*
X012130Y011392D02*
X011530Y011392D01*
X010130Y011392D02*
X009530Y011392D01*
X009530Y010392D02*
X010130Y010392D01*
X010130Y009392D02*
X009530Y009392D01*
X008130Y009392D02*
X007530Y009392D01*
X007530Y010392D02*
X008130Y010392D01*
X008130Y011392D02*
X007530Y011392D01*
X006130Y011392D02*
X005530Y011392D01*
X005530Y010392D02*
X006130Y010392D01*
X006130Y009392D02*
X005530Y009392D01*
X004130Y009392D02*
X003530Y009392D01*
X003530Y010392D02*
X004130Y010392D01*
X004130Y011392D02*
X003530Y011392D01*
X003530Y025892D02*
X004130Y025892D01*
X004130Y026892D02*
X003530Y026892D01*
X003530Y027892D02*
X004130Y027892D01*
X005530Y027892D02*
X006130Y027892D01*
X006130Y026892D02*
X005530Y026892D01*
X005530Y025892D02*
X006130Y025892D01*
X007530Y025892D02*
X008130Y025892D01*
X008130Y026892D02*
X007530Y026892D01*
X007530Y027892D02*
X008130Y027892D01*
X009530Y027892D02*
X010130Y027892D01*
X010130Y026892D02*
X009530Y026892D01*
X009530Y025892D02*
X010130Y025892D01*
X011530Y025892D02*
X012130Y025892D01*
X012130Y026892D02*
X011530Y026892D01*
X011530Y027892D02*
X012130Y027892D01*
X013530Y027892D02*
X014130Y027892D01*
X014130Y026892D02*
X013530Y026892D01*
X013530Y025892D02*
X014130Y025892D01*
X015530Y025892D02*
X016130Y025892D01*
X016130Y026892D02*
X015530Y026892D01*
X015530Y027892D02*
X016130Y027892D01*
X017530Y027892D02*
X018130Y027892D01*
X018130Y026892D02*
X017530Y026892D01*
X017530Y025892D02*
X018130Y025892D01*
X019530Y025892D02*
X020130Y025892D01*
X020130Y026892D02*
X019530Y026892D01*
X019530Y027892D02*
X020130Y027892D01*
X021530Y027892D02*
X022130Y027892D01*
X022130Y026892D02*
X021530Y026892D01*
X021530Y025892D02*
X022130Y025892D01*
X023530Y025892D02*
X024130Y025892D01*
X024130Y026892D02*
X023530Y026892D01*
X023530Y027892D02*
X024130Y027892D01*
X025530Y027892D02*
X026130Y027892D01*
X026130Y026892D02*
X025530Y026892D01*
X025530Y025892D02*
X026130Y025892D01*
X027530Y025892D02*
X028130Y025892D01*
X028130Y026892D02*
X027530Y026892D01*
X027530Y027892D02*
X028130Y027892D01*
X029530Y027892D02*
X030130Y027892D01*
X030130Y026892D02*
X029530Y026892D01*
X029530Y025892D02*
X030130Y025892D01*
X031530Y025892D02*
X032130Y025892D01*
X032130Y026892D02*
X031530Y026892D01*
X031530Y027892D02*
X032130Y027892D01*
D16*
X034330Y026392D03*
X034330Y025392D03*
X035330Y025392D03*
X035330Y026392D03*
X036330Y026392D03*
X036330Y025392D03*
X036330Y027392D03*
X035330Y027392D03*
X035330Y028392D03*
X036330Y028392D03*
X035830Y029892D03*
X035830Y030892D03*
X041830Y030892D03*
X041830Y029892D03*
X023830Y019392D03*
X023830Y018392D03*
X021830Y018392D03*
X020830Y018392D03*
X018830Y018392D03*
X017830Y018392D03*
X016830Y018892D03*
X015830Y018892D03*
X013830Y018892D03*
X012830Y018892D03*
X011330Y018892D03*
X011330Y017892D03*
X004330Y017892D03*
X004330Y018892D03*
D17*
X001330Y025392D03*
X001330Y029392D03*
D18*
X002830Y022392D03*
X003830Y020892D03*
X002830Y019392D03*
D19*
X001830Y019392D03*
X004830Y020892D03*
X001830Y022392D03*
D20*
X001330Y004392D03*
X001330Y033192D03*
X042670Y033192D03*
X042670Y004392D03*
D21*
X032080Y004392D03*
X027580Y004392D03*
X026080Y004392D03*
X021580Y004392D03*
X020080Y004392D03*
X015580Y004392D03*
X014080Y004392D03*
X009580Y004392D03*
X008080Y004392D03*
X003580Y004392D03*
X003580Y032892D03*
X008080Y032892D03*
X009580Y032892D03*
X014080Y032892D03*
X015580Y032892D03*
X020080Y032892D03*
X021580Y032892D03*
X026080Y032892D03*
X027580Y032892D03*
X032080Y032892D03*
D22*
X021830Y023652D02*
X021830Y023132D01*
X020830Y023132D02*
X020830Y023652D01*
X019830Y023652D02*
X019830Y023132D01*
X018830Y023132D02*
X018830Y023652D01*
X017830Y023652D02*
X017830Y023132D01*
X016830Y023132D02*
X016830Y023652D01*
X015830Y023652D02*
X015830Y023132D01*
X014830Y023132D02*
X014830Y023652D01*
X013830Y023652D02*
X013830Y023132D01*
X012830Y023132D02*
X012830Y023652D01*
X011830Y023652D02*
X011830Y023132D01*
X010830Y023132D02*
X010830Y023652D01*
X009830Y023652D02*
X009830Y023132D01*
X008830Y023132D02*
X008830Y023652D01*
X008830Y020652D02*
X008830Y020132D01*
X009830Y020132D02*
X009830Y020652D01*
X010830Y020652D02*
X010830Y020132D01*
X011830Y020132D02*
X011830Y020652D01*
X012830Y020652D02*
X012830Y020132D01*
X013830Y020132D02*
X013830Y020652D01*
X014830Y020652D02*
X014830Y020132D01*
X015830Y020132D02*
X015830Y020652D01*
X016830Y020652D02*
X016830Y020132D01*
X017830Y020132D02*
X017830Y020652D01*
X018830Y020652D02*
X018830Y020132D01*
X019830Y020132D02*
X019830Y020652D01*
X020830Y020652D02*
X020830Y020132D01*
X021830Y020132D02*
X021830Y020652D01*
X021830Y017152D02*
X021830Y016632D01*
X020830Y016632D02*
X020830Y017152D01*
X019830Y017152D02*
X019830Y016632D01*
X018830Y016632D02*
X018830Y017152D01*
X017830Y017152D02*
X017830Y016632D01*
X016830Y016632D02*
X016830Y017152D01*
X015830Y017152D02*
X015830Y016632D01*
X014830Y016632D02*
X014830Y017152D01*
X013830Y017152D02*
X013830Y016632D01*
X012830Y016632D02*
X012830Y017152D01*
X012830Y014152D02*
X012830Y013632D01*
X013830Y013632D02*
X013830Y014152D01*
X014830Y014152D02*
X014830Y013632D01*
X015830Y013632D02*
X015830Y014152D01*
X016830Y014152D02*
X016830Y013632D01*
X017830Y013632D02*
X017830Y014152D01*
X018830Y014152D02*
X018830Y013632D01*
X019830Y013632D02*
X019830Y014152D01*
X020830Y014152D02*
X020830Y013632D01*
X021830Y013632D02*
X021830Y014152D01*
X022830Y014152D02*
X022830Y013632D01*
X023830Y013632D02*
X023830Y014152D01*
X024830Y014152D02*
X024830Y013632D01*
X025830Y013632D02*
X025830Y014152D01*
X025830Y016632D02*
X025830Y017152D01*
X024830Y017152D02*
X024830Y016632D01*
X023830Y016632D02*
X023830Y017152D01*
X022830Y017152D02*
X022830Y016632D01*
D23*
X001830Y014392D03*
X001830Y009892D03*
D24*
X001830Y011860D03*
X001830Y016360D03*
D25*
X035970Y010292D03*
X036990Y010292D03*
D26*
X035330Y010392D03*
X035330Y009392D03*
X034830Y006892D03*
X038830Y009892D03*
X042330Y011392D03*
X043330Y010392D03*
X036830Y015392D03*
X036330Y019892D03*
X037830Y020892D03*
X038830Y019892D03*
X034830Y021392D03*
X032830Y025392D03*
X032830Y027892D03*
X040830Y024392D03*
X042330Y024392D03*
X042830Y027392D03*
X043330Y028392D03*
X042830Y016892D03*
X030330Y016892D03*
X028330Y015892D03*
X026330Y018392D03*
X026830Y019892D03*
X024830Y019892D03*
X021830Y021392D03*
X022330Y015892D03*
X018330Y015392D03*
X017330Y015392D03*
X013830Y017892D03*
M02*
