%
M48
M72
T01C0.0236
T02C0.0250
T03C0.0276
T04C0.0320
T05C0.0394
T06C0.0400
T07C0.0472
T08C0.0512
T09C0.1260
T10C0.1300
%
T01
X17330Y15392
X18330Y15392
X22330Y15892
X26330Y18392
X26830Y19892
X24830Y19892
X21830Y21392
X28330Y15892
X30330Y16892
X34830Y21392
X36330Y19892
X37830Y20892
X38830Y19892
X42830Y16892
X36830Y15392
X42330Y11392
X43330Y10392
X38830Y9892
X35330Y10392
X35330Y9392
X34830Y6892
X40830Y24392
X42330Y24392
X42830Y27392
X43330Y28392
X32830Y27892
X32830Y25392
X13830Y17892
T02
X35970Y10292
X36990Y10292
T03
X4830Y20892
X3830Y20892
X2830Y22392
X1830Y22392
X1830Y19392
X2830Y19392
T04
X4330Y18892
X4330Y17892
X8830Y20392
X9830Y20392
X10830Y20392
X11830Y20392
X12830Y20392
X13830Y20392
X14830Y20392
X15830Y20392
X16830Y20392
X17830Y20392
X18830Y20392
X19830Y20392
X20830Y20392
X21830Y20392
X21830Y18392
X20830Y18392
X20830Y16892
X19830Y16892
X18830Y16892
X17830Y16892
X16830Y16892
X15830Y16892
X14830Y16892
X13830Y16892
X12830Y16892
X11330Y17892
X11330Y18892
X12830Y18892
X13830Y18892
X15830Y18892
X16830Y18892
X17830Y18392
X18830Y18392
X21830Y16892
X22830Y16892
X23830Y16892
X24830Y16892
X25830Y16892
X23830Y18392
X23830Y19392
X21830Y23392
X20830Y23392
X19830Y23392
X18830Y23392
X17830Y23392
X16830Y23392
X15830Y23392
X14830Y23392
X13830Y23392
X12830Y23392
X11830Y23392
X10830Y23392
X9830Y23392
X8830Y23392
X12830Y13892
X13830Y13892
X14830Y13892
X15830Y13892
X16830Y13892
X17830Y13892
X18830Y13892
X19830Y13892
X20830Y13892
X21830Y13892
X22830Y13892
X23830Y13892
X24830Y13892
X25830Y13892
X34330Y25392
X34330Y26392
X35330Y26392
X36330Y26392
X37330Y26392
X37330Y25392
X36330Y25392
X35330Y25392
X35330Y27392
X36330Y27392
X37330Y27392
X37330Y28392
X36330Y28392
X35330Y28392
X35830Y29892
X35830Y30892
X40330Y28392
X40330Y27392
X40330Y26392
X40330Y25392
X41830Y29892
X41830Y30892
T05
X31580Y30392
X30580Y30392
X29580Y30392
X28580Y30392
X28080Y29392
X29080Y29392
X30080Y29392
X31080Y29392
X25580Y30392
X24580Y30392
X23580Y30392
X22580Y30392
X22080Y29392
X23080Y29392
X24080Y29392
X25080Y29392
X19580Y30392
X18580Y30392
X17580Y30392
X16580Y30392
X16080Y29392
X17080Y29392
X18080Y29392
X19080Y29392
X13580Y30392
X12580Y30392
X11580Y30392
X10580Y30392
X10080Y29392
X11080Y29392
X12080Y29392
X13080Y29392
X7580Y30392
X6580Y30392
X5580Y30392
X4580Y30392
X4080Y29392
X5080Y29392
X6080Y29392
X7080Y29392
X1330Y29392
X1330Y25392
X6330Y19892
X6330Y18892
X6330Y17892
X6580Y7892
X5580Y7892
X4580Y7892
X4080Y6892
X5080Y6892
X6080Y6892
X7080Y6892
X7580Y7892
X10080Y6892
X11080Y6892
X12080Y6892
X13080Y6892
X12580Y7892
X11580Y7892
X10580Y7892
X13580Y7892
X16080Y6892
X17080Y6892
X18080Y6892
X19080Y6892
X18580Y7892
X19580Y7892
X17580Y7892
X16580Y7892
X22080Y6892
X23080Y6892
X24080Y6892
X25080Y6892
X24580Y7892
X23580Y7892
X22580Y7892
X25580Y7892
X28080Y6892
X29080Y6892
X30080Y6892
X31080Y6892
X30580Y7892
X29580Y7892
X28580Y7892
X31580Y7892
T06
X31830Y9392
X31830Y10392
X31830Y11392
X33830Y11392
X33830Y12392
X33830Y13392
X33830Y14392
X33830Y15392
X33830Y16392
X33830Y17392
X33830Y18392
X33830Y19392
X33830Y20392
X33830Y21392
X33830Y22392
X33830Y23392
X35830Y23392
X36830Y23392
X37830Y23392
X39830Y23392
X39830Y22392
X39830Y21392
X39830Y20392
X39830Y19392
X39830Y18392
X39830Y17392
X39830Y16392
X39830Y15392
X39830Y14392
X39830Y13392
X39830Y12392
X39830Y11392
X39830Y10392
X39830Y9392
X39830Y8392
X39830Y7392
X39830Y6392
X39830Y5392
X39830Y4392
X33830Y4392
X33830Y5392
X33830Y6392
X33830Y7392
X33830Y8392
X33830Y9392
X33830Y10392
X29830Y10392
X29830Y9392
X27830Y9392
X27830Y10392
X27830Y11392
X29830Y11392
X25830Y11392
X25830Y10392
X25830Y9392
X23830Y9392
X23830Y10392
X23830Y11392
X21830Y11392
X21830Y10392
X21830Y9392
X19830Y9392
X19830Y10392
X19830Y11392
X17830Y11392
X17830Y10392
X17830Y9392
X15830Y9392
X15830Y10392
X15830Y11392
X13830Y11392
X13830Y10392
X13830Y9392
X11830Y9392
X11830Y10392
X11830Y11392
X9830Y11392
X9830Y10392
X9830Y9392
X7830Y9392
X7830Y10392
X7830Y11392
X5830Y11392
X5830Y10392
X5830Y9392
X3830Y9392
X3830Y10392
X3830Y11392
X3830Y25892
X3830Y26892
X3830Y27892
X5830Y27892
X5830Y26892
X5830Y25892
X7830Y25892
X7830Y26892
X7830Y27892
X9830Y27892
X9830Y26892
X9830Y25892
X11830Y25892
X11830Y26892
X11830Y27892
X13830Y27892
X13830Y26892
X13830Y25892
X15830Y25892
X15830Y26892
X15830Y27892
X17830Y27892
X17830Y26892
X17830Y25892
X19830Y25892
X19830Y26892
X19830Y27892
X21830Y27892
X21830Y26892
X21830Y25892
X23830Y25892
X23830Y26892
X23830Y27892
X25830Y27892
X25830Y26892
X25830Y25892
X27830Y25892
X27830Y26892
X27830Y27892
X29830Y27892
X29830Y26892
X29830Y25892
X31830Y25892
X31830Y26892
X31830Y27892
X35830Y20392
X36830Y20392
X36830Y19392
X35830Y19392
X35830Y18392
X36830Y18392
X36830Y17392
X35830Y17392
X29380Y17892
X29280Y16892
X29280Y18892
X29380Y19892
T07
X38830Y30923
X36861Y32892
X36861Y33876
X40799Y33876
X40799Y32892
T08
X38830Y32892
X37846Y30923
X36861Y30923
X39814Y30923
X40799Y30923
X1830Y16360
X1830Y14392
X1830Y11860
X1830Y9892
T09
X3580Y4392
X8080Y4392
X9580Y4392
X14080Y4392
X15580Y4392
X20080Y4392
X21580Y4392
X26080Y4392
X27580Y4392
X32080Y4392
X32080Y32892
X27580Y32892
X26080Y32892
X21580Y32892
X20080Y32892
X15580Y32892
X14080Y32892
X9580Y32892
X8080Y32892
X3580Y32892
T10
X1330Y4392
X1330Y33192
X42670Y33192
X42670Y4392
M30
