G75*
G70*
%OFA0B0*%
%FSLAX24Y24*%
%IPPOS*%
%LPD*%
%AMOC8*
5,1,8,0,0,1.08239X$1,22.5*
%
%ADD10OC8,0.0630*%
%ADD11C,0.0860*%
%ADD12R,0.0740X0.0740*%
%ADD13C,0.0740*%
%ADD14C,0.0600*%
%ADD15OC8,0.0480*%
%ADD16C,0.0780*%
%ADD17C,0.0650*%
%ADD18R,0.0650X0.0650*%
%ADD19C,0.0480*%
%ADD20C,0.0480*%
%ADD21R,0.0800X0.0800*%
%ADD22C,0.0800*%
%ADD23C,0.0160*%
%ADD24C,0.0240*%
%ADD25C,0.0376*%
%ADD26C,0.1000*%
%ADD27C,0.0500*%
%ADD28C,0.0120*%
D10*
X028861Y017894D03*
X029861Y017894D03*
X030861Y017894D03*
X031861Y017894D03*
X031861Y020894D03*
X030861Y020894D03*
X029861Y020894D03*
X028861Y020894D03*
D11*
X029392Y026426D03*
X030376Y026426D03*
X032345Y026426D03*
X033329Y026426D03*
X031361Y028394D03*
D12*
X034811Y017894D03*
X028611Y006894D03*
X022611Y006894D03*
X016611Y006894D03*
X010611Y006894D03*
X004611Y006894D03*
X008361Y017894D03*
X007611Y025694D03*
D13*
X006611Y025694D03*
X005611Y025694D03*
X004611Y025694D03*
X005111Y024694D03*
X004111Y024694D03*
X006111Y024694D03*
X007111Y024694D03*
X008361Y019894D03*
X008361Y018894D03*
X008111Y007894D03*
X007111Y007894D03*
X006111Y007894D03*
X005111Y007894D03*
X005611Y006894D03*
X006611Y006894D03*
X007611Y006894D03*
X011111Y007894D03*
X012111Y007894D03*
X013111Y007894D03*
X014111Y007894D03*
X013611Y006894D03*
X012611Y006894D03*
X011611Y006894D03*
X017111Y007894D03*
X018111Y007894D03*
X019111Y007894D03*
X020111Y007894D03*
X019611Y006894D03*
X018611Y006894D03*
X017611Y006894D03*
X023111Y007894D03*
X024111Y007894D03*
X025111Y007894D03*
X026111Y007894D03*
X025611Y006894D03*
X024611Y006894D03*
X023611Y006894D03*
X029111Y007894D03*
X030111Y007894D03*
X031111Y007894D03*
X032111Y007894D03*
X031611Y006894D03*
X030611Y006894D03*
X029611Y006894D03*
X034911Y018894D03*
X034811Y019894D03*
X034911Y020894D03*
X028251Y025114D03*
X026471Y025114D03*
X026471Y027674D03*
X028251Y027674D03*
D14*
X028061Y011394D02*
X028661Y011394D01*
X028661Y010394D02*
X028061Y010394D01*
X028061Y009394D02*
X028661Y009394D01*
X030061Y009394D02*
X030661Y009394D01*
X030661Y010394D02*
X030061Y010394D01*
X030061Y011394D02*
X030661Y011394D01*
X032061Y011394D02*
X032661Y011394D01*
X032661Y010394D02*
X032061Y010394D01*
X032061Y009394D02*
X032661Y009394D01*
X026661Y009394D02*
X026061Y009394D01*
X026061Y010394D02*
X026661Y010394D01*
X026661Y011394D02*
X026061Y011394D01*
X024661Y011394D02*
X024061Y011394D01*
X024061Y010394D02*
X024661Y010394D01*
X024661Y009394D02*
X024061Y009394D01*
X022661Y009394D02*
X022061Y009394D01*
X022061Y010394D02*
X022661Y010394D01*
X022661Y011394D02*
X022061Y011394D01*
X020661Y011394D02*
X020061Y011394D01*
X020061Y010394D02*
X020661Y010394D01*
X020661Y009394D02*
X020061Y009394D01*
X018661Y009394D02*
X018061Y009394D01*
X018061Y010394D02*
X018661Y010394D01*
X018661Y011394D02*
X018061Y011394D01*
X016661Y011394D02*
X016061Y011394D01*
X016061Y010394D02*
X016661Y010394D01*
X016661Y009394D02*
X016061Y009394D01*
X014661Y009394D02*
X014061Y009394D01*
X014061Y010394D02*
X014661Y010394D01*
X014661Y011394D02*
X014061Y011394D01*
X012661Y011394D02*
X012061Y011394D01*
X012061Y010394D02*
X012661Y010394D01*
X012661Y009394D02*
X012061Y009394D01*
X010661Y009394D02*
X010061Y009394D01*
X010061Y010394D02*
X010661Y010394D01*
X010661Y011394D02*
X010061Y011394D01*
X008661Y011394D02*
X008061Y011394D01*
X008061Y010394D02*
X008661Y010394D01*
X008661Y009394D02*
X008061Y009394D01*
X006661Y009394D02*
X006061Y009394D01*
X006061Y010394D02*
X006661Y010394D01*
X006661Y011394D02*
X006061Y011394D01*
X004661Y011394D02*
X004061Y011394D01*
X004061Y010394D02*
X004661Y010394D01*
X004661Y009394D02*
X004061Y009394D01*
D15*
X003861Y012894D03*
X004861Y012894D03*
X005861Y012894D03*
X006861Y012894D03*
X007861Y012894D03*
X008861Y012894D03*
X009861Y012894D03*
X010861Y012894D03*
X011861Y012894D03*
X012861Y012894D03*
X013861Y012894D03*
X014861Y012894D03*
X015861Y012894D03*
X016861Y012894D03*
X017861Y012894D03*
X018861Y012894D03*
X019861Y012894D03*
X020861Y012894D03*
X021861Y012894D03*
X022861Y012894D03*
X023861Y012894D03*
X024861Y012894D03*
X025861Y012894D03*
X026861Y012894D03*
X027861Y012894D03*
X028861Y012894D03*
X029861Y012894D03*
X030861Y012894D03*
X031861Y012894D03*
X032861Y012894D03*
X029861Y016894D03*
X028861Y016894D03*
X027361Y016894D03*
X027361Y015894D03*
X027361Y018394D03*
X027361Y019394D03*
X027361Y020894D03*
X027361Y021894D03*
X027861Y023394D03*
X026861Y023394D03*
X024861Y024394D03*
X024861Y025394D03*
X020861Y026894D03*
X019861Y026894D03*
X018861Y026894D03*
X017861Y026894D03*
X019361Y024894D03*
X020361Y024894D03*
X020861Y018894D03*
X021861Y018894D03*
X017861Y018894D03*
X016861Y018894D03*
X004861Y018894D03*
X004861Y019894D03*
X029361Y024394D03*
X030361Y024394D03*
X031861Y022894D03*
X031861Y021894D03*
X032361Y024394D03*
X033361Y024394D03*
D16*
X001861Y022394D03*
X001861Y026394D03*
D17*
X002361Y019894D03*
X002361Y016894D03*
X003861Y015394D03*
D18*
X004861Y015394D03*
X001361Y016894D03*
X001361Y019894D03*
D19*
X011857Y019751D02*
X011857Y020231D01*
X012857Y020231D02*
X012857Y019751D01*
X013857Y019751D02*
X013857Y020231D01*
X014857Y020231D02*
X014857Y019751D01*
X015857Y019751D02*
X015857Y020231D01*
X016857Y020231D02*
X016857Y019751D01*
X017857Y019751D02*
X017857Y020231D01*
X018857Y020231D02*
X018857Y019751D01*
X019857Y019751D02*
X019857Y020231D01*
X020857Y020231D02*
X020857Y019751D01*
X021857Y019751D02*
X021857Y020231D01*
X022857Y020231D02*
X022857Y019751D01*
X023857Y019751D02*
X023857Y020231D01*
X024857Y020231D02*
X024857Y019751D01*
X024861Y018134D02*
X024861Y017654D01*
X025861Y017654D02*
X025861Y018134D01*
X023861Y018134D02*
X023861Y017654D01*
X022861Y017654D02*
X022861Y018134D01*
X021861Y018134D02*
X021861Y017654D01*
X020861Y017654D02*
X020861Y018134D01*
X019861Y018134D02*
X019861Y017654D01*
X018861Y017654D02*
X018861Y018134D01*
X017861Y018134D02*
X017861Y017654D01*
X016861Y017654D02*
X016861Y018134D01*
X015861Y018134D02*
X015861Y017654D01*
X014861Y017654D02*
X014861Y018134D01*
X013861Y018134D02*
X013861Y017654D01*
X012861Y017654D02*
X012861Y018134D01*
X012861Y015134D02*
X012861Y014654D01*
X013861Y014654D02*
X013861Y015134D01*
X014861Y015134D02*
X014861Y014654D01*
X015861Y014654D02*
X015861Y015134D01*
X016861Y015134D02*
X016861Y014654D01*
X017861Y014654D02*
X017861Y015134D01*
X018861Y015134D02*
X018861Y014654D01*
X019861Y014654D02*
X019861Y015134D01*
X020861Y015134D02*
X020861Y014654D01*
X021861Y014654D02*
X021861Y015134D01*
X022861Y015134D02*
X022861Y014654D01*
X023861Y014654D02*
X023861Y015134D01*
X024861Y015134D02*
X024861Y014654D01*
X025861Y014654D02*
X025861Y015134D01*
X024857Y022751D02*
X024857Y023231D01*
X023857Y023231D02*
X023857Y022751D01*
X022857Y022751D02*
X022857Y023231D01*
X021857Y023231D02*
X021857Y022751D01*
X020857Y022751D02*
X020857Y023231D01*
X019857Y023231D02*
X019857Y022751D01*
X018857Y022751D02*
X018857Y023231D01*
X017857Y023231D02*
X017857Y022751D01*
X016857Y022751D02*
X016857Y023231D01*
X015857Y023231D02*
X015857Y022751D01*
X014857Y022751D02*
X014857Y023231D01*
X013857Y023231D02*
X013857Y022751D01*
X012857Y022751D02*
X012857Y023231D01*
X011857Y023231D02*
X011857Y022751D01*
D20*
X015411Y024894D03*
X017311Y024894D03*
D21*
X015861Y027894D03*
X011361Y027894D03*
D22*
X009983Y027894D03*
X013892Y027894D03*
D23*
X020857Y022991D02*
X020857Y022398D01*
X022361Y020894D01*
X022361Y018394D01*
X022861Y017894D01*
X021861Y017894D02*
X021861Y017394D01*
X021861Y016894D02*
X019861Y016894D01*
X019861Y017894D01*
X019861Y018394D01*
X019361Y018894D01*
X017861Y018894D01*
X017861Y019894D01*
X017857Y019898D01*
X017857Y019991D01*
X016861Y018894D02*
X017861Y017894D01*
X016861Y017894D02*
X016861Y017394D01*
X016361Y016894D01*
X013861Y016894D01*
X013361Y017394D01*
X013361Y018394D01*
X011861Y019894D01*
X013857Y019898D02*
X014861Y018894D01*
X014861Y017894D01*
X015861Y017894D02*
X015861Y019894D01*
X015857Y019898D01*
X015857Y019991D01*
X013857Y019991D02*
X013857Y019898D01*
X020861Y018894D02*
X020861Y017894D01*
X027361Y019394D02*
X027361Y020894D01*
X028861Y020894D01*
X031861Y020894D02*
X031861Y021894D01*
X031861Y022894D02*
X032361Y023394D01*
X032361Y024394D01*
X033361Y024394D02*
X033361Y026426D01*
X033329Y026426D01*
X030361Y024394D02*
X031861Y022894D01*
X029361Y024394D02*
X029361Y026426D01*
X029392Y026426D01*
D24*
X027361Y024394D02*
X026861Y024894D01*
X026361Y024894D01*
X026471Y025004D01*
X026471Y025114D01*
X025141Y025114D01*
X024861Y025394D01*
X023857Y022991D02*
X023857Y022898D01*
X023861Y022894D01*
X023861Y022394D01*
X025861Y020394D01*
X027361Y018394D02*
X026361Y017394D01*
X026361Y016894D01*
X027361Y016894D01*
X026361Y016894D02*
X021861Y016894D01*
X021861Y017394D01*
X021861Y018894D02*
X021361Y019394D01*
X021361Y020894D01*
X020861Y021394D01*
X019861Y021394D01*
X019361Y021394D01*
X017857Y022898D01*
X017857Y022991D01*
X017861Y021894D02*
X019361Y020394D01*
X017861Y021894D02*
X008361Y021894D01*
X008861Y020894D02*
X005361Y020894D01*
X005361Y024394D01*
X005111Y024644D01*
X005111Y024694D01*
X006111Y024694D02*
X006111Y021644D01*
X006361Y021394D01*
X010861Y021394D01*
X011861Y019894D01*
X011857Y019898D01*
X011857Y019991D01*
X009861Y019894D02*
X008861Y020894D01*
X009861Y019894D02*
X009861Y017894D01*
X010361Y017394D01*
X010861Y017394D01*
X011861Y016394D01*
X014361Y016394D01*
X014361Y013394D02*
X013361Y013394D01*
X012861Y012894D01*
X012361Y013394D01*
X011361Y013394D01*
X010861Y012894D01*
X010361Y013394D01*
X009361Y013394D01*
X008861Y012894D01*
X008361Y013394D01*
X007361Y013394D01*
X006861Y012894D01*
X006361Y013394D01*
X005361Y013394D01*
X004861Y012894D01*
X004361Y013394D01*
X003361Y013394D01*
X007861Y014394D02*
X007861Y015394D01*
X009861Y014394D02*
X009861Y016394D01*
X008361Y018894D02*
X004861Y018894D01*
X004861Y019894D02*
X004361Y019894D01*
X003361Y020894D01*
X003361Y025394D01*
X003861Y025894D01*
X004361Y025894D01*
X004561Y025694D01*
X004611Y025694D01*
X005361Y026394D02*
X003361Y026394D01*
X002861Y025894D01*
X002861Y021894D01*
X002361Y021394D01*
X005611Y025694D02*
X005611Y026144D01*
X005361Y026394D01*
X006611Y026144D02*
X006611Y025694D01*
X006611Y026144D02*
X006861Y026394D01*
X008361Y026394D01*
X009361Y025394D01*
X009861Y025394D02*
X009861Y027894D01*
X009983Y027894D01*
X011361Y027894D02*
X011361Y026894D01*
X012861Y025394D01*
X013161Y024694D02*
X014361Y025894D01*
X020861Y025894D01*
X021361Y025394D01*
X021361Y023894D01*
X020861Y023394D01*
X020861Y022894D01*
X020857Y022898D01*
X020857Y022991D01*
X021857Y022991D02*
X021857Y021898D01*
X023361Y020394D01*
X023361Y019394D01*
X023861Y018894D01*
X031361Y018894D01*
X031861Y018394D01*
X031861Y017894D01*
X033361Y015894D02*
X034811Y017344D01*
X034811Y017894D01*
X033361Y015894D02*
X029361Y015894D01*
X028861Y016394D01*
X028861Y016894D01*
X028861Y017894D01*
X027861Y017894D01*
X027361Y018394D01*
X029861Y020894D02*
X028361Y022394D01*
X027861Y022394D01*
X027361Y022894D01*
X027361Y024394D01*
X027861Y023394D02*
X028361Y023394D01*
X030861Y020894D01*
X031361Y013394D02*
X032361Y013394D01*
X032861Y012894D01*
X031361Y013394D02*
X030861Y012894D01*
X030361Y013394D01*
X029361Y013394D01*
X028861Y012894D01*
X028361Y013394D01*
X027361Y013394D01*
X026861Y012894D01*
X026361Y013394D01*
X025361Y013394D01*
X024861Y012894D01*
X024361Y013394D01*
X023361Y013394D01*
X022861Y012894D01*
X022361Y013394D01*
X021361Y013394D01*
X020861Y012894D01*
X020361Y013394D01*
X019361Y013394D01*
X018861Y012894D01*
X018361Y013394D01*
X017361Y013394D01*
X016861Y012894D01*
X016361Y013394D01*
X015361Y013394D01*
X014861Y012894D01*
X014361Y013394D01*
X016861Y019894D02*
X016861Y020394D01*
X016361Y020894D01*
X014361Y020894D01*
X013861Y022894D02*
X013857Y022898D01*
X013361Y023394D01*
X013361Y023894D01*
X012861Y023394D02*
X012861Y022894D01*
X012857Y022898D01*
X012857Y022991D01*
X012861Y023394D02*
X012361Y023894D01*
X011361Y023894D01*
X010861Y023394D01*
X010361Y023394D01*
X009861Y023894D01*
X007111Y024694D02*
X013161Y024694D01*
X013857Y022991D02*
X013857Y022898D01*
X016857Y019991D02*
X016857Y019898D01*
X016861Y019894D01*
D25*
X014361Y020894D03*
X013361Y023894D03*
X012861Y025394D03*
X009861Y025394D03*
X009361Y025394D03*
X009861Y023894D03*
X008361Y021894D03*
X002361Y021394D03*
X007861Y015394D03*
X007861Y014394D03*
X009861Y014394D03*
X009861Y016394D03*
X014361Y016394D03*
X019361Y020394D03*
X019861Y021394D03*
X025861Y020394D03*
X003361Y013394D03*
X002361Y011394D03*
D26*
X004361Y009394D02*
X006361Y009394D01*
X008361Y009394D01*
X010361Y009394D01*
X012361Y009394D01*
X014361Y009394D01*
X016361Y009394D01*
X018361Y009394D01*
X020361Y009394D01*
X022361Y009394D01*
X024361Y009394D01*
X026361Y009394D01*
X028361Y009394D01*
X030361Y009394D01*
X032361Y009394D01*
D27*
X002201Y003750D02*
X002060Y003609D01*
X003439Y003609D01*
X003286Y003762D01*
X003151Y003997D01*
X003081Y004259D01*
X003081Y004530D01*
X003151Y004792D01*
X003286Y005027D01*
X003478Y005218D01*
X003713Y005354D01*
X003975Y005424D01*
X004246Y005424D01*
X004508Y005354D01*
X004743Y005218D01*
X004935Y005027D01*
X005070Y004792D01*
X005141Y004530D01*
X005141Y004259D01*
X005070Y003997D01*
X004935Y003762D01*
X004782Y003609D01*
X007939Y003609D01*
X007786Y003762D01*
X007651Y003997D01*
X007581Y004259D01*
X007581Y004530D01*
X007651Y004792D01*
X007786Y005027D01*
X007978Y005218D01*
X008213Y005354D01*
X008475Y005424D01*
X008746Y005424D01*
X009008Y005354D01*
X009243Y005218D01*
X009361Y005101D01*
X009478Y005218D01*
X009713Y005354D01*
X009975Y005424D01*
X010246Y005424D01*
X010508Y005354D01*
X010743Y005218D01*
X010935Y005027D01*
X011070Y004792D01*
X011141Y004530D01*
X011141Y004259D01*
X011070Y003997D01*
X010935Y003762D01*
X010782Y003609D01*
X013939Y003609D01*
X013786Y003762D01*
X013651Y003997D01*
X013581Y004259D01*
X013581Y004530D01*
X013651Y004792D01*
X013786Y005027D01*
X013978Y005218D01*
X014213Y005354D01*
X014475Y005424D01*
X014746Y005424D01*
X015008Y005354D01*
X015243Y005218D01*
X015361Y005101D01*
X015478Y005218D01*
X015713Y005354D01*
X015975Y005424D01*
X016246Y005424D01*
X016508Y005354D01*
X016743Y005218D01*
X016935Y005027D01*
X017070Y004792D01*
X017141Y004530D01*
X017141Y004259D01*
X017070Y003997D01*
X016935Y003762D01*
X016782Y003609D01*
X019939Y003609D01*
X019786Y003762D01*
X019651Y003997D01*
X019581Y004259D01*
X019581Y004530D01*
X019651Y004792D01*
X019786Y005027D01*
X019978Y005218D01*
X020213Y005354D01*
X020475Y005424D01*
X020746Y005424D01*
X021008Y005354D01*
X021243Y005218D01*
X021361Y005101D01*
X021478Y005218D01*
X021713Y005354D01*
X021975Y005424D01*
X022246Y005424D01*
X022508Y005354D01*
X022743Y005218D01*
X022935Y005027D01*
X023070Y004792D01*
X023141Y004530D01*
X023141Y004259D01*
X023070Y003997D01*
X022935Y003762D01*
X022782Y003609D01*
X025939Y003609D01*
X025786Y003762D01*
X025651Y003997D01*
X025581Y004259D01*
X025581Y004530D01*
X025651Y004792D01*
X025786Y005027D01*
X025978Y005218D01*
X026213Y005354D01*
X026475Y005424D01*
X026746Y005424D01*
X027008Y005354D01*
X027243Y005218D01*
X027361Y005101D01*
X027478Y005218D01*
X027713Y005354D01*
X027975Y005424D01*
X028246Y005424D01*
X028508Y005354D01*
X028743Y005218D01*
X028935Y005027D01*
X029070Y004792D01*
X029141Y004530D01*
X029141Y004259D01*
X029070Y003997D01*
X028935Y003762D01*
X028782Y003609D01*
X031939Y003609D01*
X031786Y003762D01*
X031651Y003997D01*
X031581Y004259D01*
X031581Y004530D01*
X031651Y004792D01*
X031786Y005027D01*
X031978Y005218D01*
X032213Y005354D01*
X032475Y005424D01*
X032746Y005424D01*
X033008Y005354D01*
X033243Y005218D01*
X033435Y005027D01*
X033570Y004792D01*
X033641Y004530D01*
X033641Y004259D01*
X033570Y003997D01*
X033435Y003762D01*
X033282Y003609D01*
X034461Y003609D01*
X034320Y003750D01*
X034182Y003989D01*
X034111Y004256D01*
X034111Y004533D01*
X034182Y004800D01*
X034320Y005039D01*
X034516Y005235D01*
X034755Y005373D01*
X035022Y005444D01*
X035299Y005444D01*
X035566Y005373D01*
X035805Y005235D01*
X035905Y005135D01*
X035905Y027474D01*
X035805Y027374D01*
X035566Y027236D01*
X035299Y027164D01*
X035022Y027164D01*
X034755Y027236D01*
X034516Y027374D01*
X034320Y027570D01*
X034182Y027809D01*
X034111Y028076D01*
X034111Y028353D01*
X034182Y028620D01*
X034320Y028859D01*
X034441Y028979D01*
X033830Y028979D01*
X033737Y028886D01*
X033868Y028755D01*
X033965Y028521D01*
X033965Y028268D01*
X033868Y028034D01*
X033689Y027855D01*
X033456Y027758D01*
X033203Y027758D01*
X032969Y027855D01*
X032790Y028034D01*
X032693Y028268D01*
X032693Y028521D01*
X032790Y028755D01*
X032922Y028886D01*
X032829Y028979D01*
X031822Y028979D01*
X031988Y028814D01*
X032101Y028542D01*
X032101Y028247D01*
X031988Y027975D01*
X031780Y027767D01*
X031508Y027654D01*
X031213Y027654D01*
X030941Y027767D01*
X030733Y027975D01*
X030621Y028247D01*
X030621Y028542D01*
X030733Y028814D01*
X030899Y028979D01*
X029893Y028979D01*
X029800Y028886D01*
X029931Y028755D01*
X030028Y028521D01*
X030028Y028268D01*
X029931Y028034D01*
X029752Y027855D01*
X029519Y027758D01*
X029266Y027758D01*
X029032Y027855D01*
X028853Y028034D01*
X028756Y028268D01*
X028756Y028521D01*
X028853Y028755D01*
X028985Y028886D01*
X028892Y028979D01*
X008782Y028979D01*
X008935Y028827D01*
X009070Y028592D01*
X009141Y028330D01*
X009141Y028059D01*
X009070Y027797D01*
X008935Y027562D01*
X008743Y027370D01*
X008508Y027235D01*
X008246Y027164D01*
X007975Y027164D01*
X007713Y027235D01*
X007478Y027370D01*
X007286Y027562D01*
X007151Y027797D01*
X007081Y028059D01*
X007081Y028330D01*
X007151Y028592D01*
X007286Y028827D01*
X007439Y028979D01*
X004282Y028979D01*
X004435Y028827D01*
X004570Y028592D01*
X004641Y028330D01*
X004641Y028059D01*
X004570Y027797D01*
X004435Y027562D01*
X004243Y027370D01*
X004008Y027235D01*
X003746Y027164D01*
X003475Y027164D01*
X003213Y027235D01*
X002978Y027370D01*
X002786Y027562D01*
X002651Y027797D01*
X002581Y028059D01*
X002581Y028330D01*
X002651Y028592D01*
X002786Y028827D01*
X002939Y028979D01*
X002080Y028979D01*
X002201Y028859D01*
X002339Y028620D01*
X002411Y028353D01*
X002411Y028076D01*
X002339Y027809D01*
X002201Y027570D01*
X002005Y027374D01*
X001766Y027236D01*
X001499Y027164D01*
X001222Y027164D01*
X000955Y027236D01*
X000716Y027374D01*
X000613Y027477D01*
X000613Y005131D01*
X000716Y005235D01*
X000955Y005373D01*
X001222Y005444D01*
X001499Y005444D01*
X001766Y005373D01*
X002005Y005235D01*
X002201Y005039D01*
X002339Y004800D01*
X002411Y004533D01*
X002411Y004256D01*
X002339Y003989D01*
X002201Y003750D01*
X002285Y003896D02*
X003209Y003896D01*
X003081Y004394D02*
X002411Y004394D01*
X002285Y004893D02*
X003209Y004893D01*
X003853Y005391D02*
X001696Y005391D01*
X001025Y005391D02*
X000613Y005391D01*
X000613Y005890D02*
X035905Y005890D01*
X035905Y006389D02*
X032066Y006389D01*
X031996Y006318D02*
X032187Y006509D01*
X032291Y006759D01*
X032291Y007030D01*
X032214Y007214D01*
X032246Y007214D01*
X032496Y007318D01*
X032687Y007509D01*
X032791Y007759D01*
X032791Y008030D01*
X032687Y008279D01*
X032496Y008471D01*
X032246Y008574D01*
X031975Y008574D01*
X031725Y008471D01*
X031611Y008356D01*
X031496Y008471D01*
X031246Y008574D01*
X030975Y008574D01*
X030725Y008471D01*
X030611Y008356D01*
X030496Y008471D01*
X030246Y008574D01*
X029975Y008574D01*
X029725Y008471D01*
X029639Y008384D01*
X029518Y008505D01*
X029326Y008584D01*
X030199Y008584D01*
X032522Y008584D01*
X032819Y008708D01*
X032977Y008865D01*
X033006Y008877D01*
X033178Y009049D01*
X033271Y009273D01*
X033271Y009516D01*
X033178Y009740D01*
X033023Y009894D01*
X033178Y010049D01*
X033271Y010273D01*
X033271Y010516D01*
X033178Y010740D01*
X033023Y010894D01*
X033178Y011049D01*
X033271Y011273D01*
X033271Y011516D01*
X033178Y011740D01*
X033006Y011911D01*
X032782Y012004D01*
X031939Y012004D01*
X031715Y011911D01*
X031544Y011740D01*
X031451Y011516D01*
X031451Y011273D01*
X031544Y011049D01*
X031698Y010894D01*
X031544Y010740D01*
X031451Y010516D01*
X031451Y010273D01*
X031479Y010204D01*
X031242Y010204D01*
X031271Y010273D01*
X031271Y010516D01*
X031178Y010740D01*
X031023Y010894D01*
X031178Y011049D01*
X031271Y011273D01*
X031271Y011516D01*
X031178Y011740D01*
X031006Y011911D01*
X030782Y012004D01*
X029939Y012004D01*
X029715Y011911D01*
X029544Y011740D01*
X029451Y011516D01*
X029451Y011273D01*
X029544Y011049D01*
X029698Y010894D01*
X029544Y010740D01*
X029451Y010516D01*
X029451Y010273D01*
X029479Y010204D01*
X029242Y010204D01*
X029271Y010273D01*
X029271Y010516D01*
X029178Y010740D01*
X029023Y010894D01*
X029178Y011049D01*
X029271Y011273D01*
X029271Y011516D01*
X029178Y011740D01*
X029006Y011911D01*
X028782Y012004D01*
X027939Y012004D01*
X027715Y011911D01*
X027544Y011740D01*
X027451Y011516D01*
X027451Y011273D01*
X027544Y011049D01*
X027698Y010894D01*
X027544Y010740D01*
X027451Y010516D01*
X027451Y010273D01*
X027479Y010204D01*
X027242Y010204D01*
X027271Y010273D01*
X027271Y010516D01*
X027178Y010740D01*
X027023Y010894D01*
X027178Y011049D01*
X027271Y011273D01*
X027271Y011516D01*
X027178Y011740D01*
X027006Y011911D01*
X026782Y012004D01*
X025939Y012004D01*
X025715Y011911D01*
X025544Y011740D01*
X025451Y011516D01*
X025451Y011273D01*
X025544Y011049D01*
X025698Y010894D01*
X025544Y010740D01*
X025451Y010516D01*
X025451Y010273D01*
X025479Y010204D01*
X025242Y010204D01*
X025271Y010273D01*
X025271Y010516D01*
X025178Y010740D01*
X025023Y010894D01*
X025178Y011049D01*
X025271Y011273D01*
X025271Y011516D01*
X025178Y011740D01*
X025006Y011911D01*
X024782Y012004D01*
X023939Y012004D01*
X023715Y011911D01*
X023544Y011740D01*
X023451Y011516D01*
X023451Y011273D01*
X023544Y011049D01*
X023698Y010894D01*
X023544Y010740D01*
X023451Y010516D01*
X023451Y010273D01*
X023479Y010204D01*
X023242Y010204D01*
X023271Y010273D01*
X023271Y010516D01*
X023178Y010740D01*
X023023Y010894D01*
X023178Y011049D01*
X023271Y011273D01*
X023271Y011516D01*
X023178Y011740D01*
X023006Y011911D01*
X022782Y012004D01*
X021939Y012004D01*
X021715Y011911D01*
X021544Y011740D01*
X021451Y011516D01*
X021451Y011273D01*
X021544Y011049D01*
X021698Y010894D01*
X021544Y010740D01*
X021451Y010516D01*
X021451Y010273D01*
X021479Y010204D01*
X021242Y010204D01*
X021271Y010273D01*
X021271Y010516D01*
X021178Y010740D01*
X021023Y010894D01*
X021178Y011049D01*
X021271Y011273D01*
X021271Y011516D01*
X021178Y011740D01*
X021006Y011911D01*
X020782Y012004D01*
X019939Y012004D01*
X019715Y011911D01*
X019544Y011740D01*
X019451Y011516D01*
X019451Y011273D01*
X019544Y011049D01*
X019698Y010894D01*
X019544Y010740D01*
X019451Y010516D01*
X019451Y010273D01*
X019479Y010204D01*
X019242Y010204D01*
X019271Y010273D01*
X019271Y010516D01*
X019178Y010740D01*
X019023Y010894D01*
X019178Y011049D01*
X019271Y011273D01*
X019271Y011516D01*
X019178Y011740D01*
X019006Y011911D01*
X018782Y012004D01*
X017939Y012004D01*
X017715Y011911D01*
X017544Y011740D01*
X017451Y011516D01*
X017451Y011273D01*
X017544Y011049D01*
X017698Y010894D01*
X017544Y010740D01*
X017451Y010516D01*
X017451Y010273D01*
X017479Y010204D01*
X017242Y010204D01*
X017271Y010273D01*
X017271Y010516D01*
X017178Y010740D01*
X017023Y010894D01*
X017178Y011049D01*
X017271Y011273D01*
X017271Y011516D01*
X017178Y011740D01*
X017006Y011911D01*
X016782Y012004D01*
X015939Y012004D01*
X015715Y011911D01*
X015544Y011740D01*
X015451Y011516D01*
X015451Y011273D01*
X015544Y011049D01*
X015698Y010894D01*
X015544Y010740D01*
X015451Y010516D01*
X015451Y010273D01*
X015479Y010204D01*
X015242Y010204D01*
X015271Y010273D01*
X015271Y010516D01*
X015178Y010740D01*
X015023Y010894D01*
X015178Y011049D01*
X015271Y011273D01*
X015271Y011516D01*
X015178Y011740D01*
X015006Y011911D01*
X014782Y012004D01*
X013939Y012004D01*
X013715Y011911D01*
X013544Y011740D01*
X013451Y011516D01*
X013451Y011273D01*
X013544Y011049D01*
X013698Y010894D01*
X013544Y010740D01*
X013451Y010516D01*
X013451Y010273D01*
X013479Y010204D01*
X013242Y010204D01*
X013271Y010273D01*
X013271Y010516D01*
X013178Y010740D01*
X013023Y010894D01*
X013178Y011049D01*
X013271Y011273D01*
X013271Y011516D01*
X013178Y011740D01*
X013006Y011911D01*
X012782Y012004D01*
X011939Y012004D01*
X011715Y011911D01*
X011544Y011740D01*
X011451Y011516D01*
X011451Y011273D01*
X011544Y011049D01*
X011698Y010894D01*
X011544Y010740D01*
X011451Y010516D01*
X011451Y010273D01*
X011479Y010204D01*
X011242Y010204D01*
X011271Y010273D01*
X011271Y010516D01*
X011178Y010740D01*
X011023Y010894D01*
X011178Y011049D01*
X011271Y011273D01*
X011271Y011516D01*
X011178Y011740D01*
X011006Y011911D01*
X010782Y012004D01*
X009939Y012004D01*
X009715Y011911D01*
X009544Y011740D01*
X009451Y011516D01*
X009451Y011273D01*
X009544Y011049D01*
X009698Y010894D01*
X009544Y010740D01*
X009451Y010516D01*
X009451Y010273D01*
X009479Y010204D01*
X009242Y010204D01*
X009271Y010273D01*
X009271Y010516D01*
X009178Y010740D01*
X009023Y010894D01*
X009178Y011049D01*
X009271Y011273D01*
X009271Y011516D01*
X009178Y011740D01*
X009006Y011911D01*
X008782Y012004D01*
X007939Y012004D01*
X007715Y011911D01*
X007544Y011740D01*
X007451Y011516D01*
X007451Y011273D01*
X007544Y011049D01*
X007698Y010894D01*
X007544Y010740D01*
X007451Y010516D01*
X007451Y010273D01*
X007479Y010204D01*
X007242Y010204D01*
X007271Y010273D01*
X007271Y010516D01*
X007178Y010740D01*
X007023Y010894D01*
X007178Y011049D01*
X007271Y011273D01*
X007271Y011516D01*
X007178Y011740D01*
X007006Y011911D01*
X006782Y012004D01*
X005939Y012004D01*
X005715Y011911D01*
X005544Y011740D01*
X005451Y011516D01*
X005451Y011273D01*
X005544Y011049D01*
X005698Y010894D01*
X005544Y010740D01*
X005451Y010516D01*
X005451Y010273D01*
X005479Y010204D01*
X005242Y010204D01*
X005271Y010273D01*
X005271Y010516D01*
X005178Y010740D01*
X005023Y010894D01*
X005178Y011049D01*
X005271Y011273D01*
X005271Y011516D01*
X005178Y011740D01*
X005006Y011911D01*
X004782Y012004D01*
X003939Y012004D01*
X003715Y011911D01*
X003544Y011740D01*
X003451Y011516D01*
X003451Y011273D01*
X003544Y011049D01*
X003698Y010894D01*
X003544Y010740D01*
X003451Y010516D01*
X003451Y010273D01*
X003544Y010049D01*
X003698Y009894D01*
X003544Y009740D01*
X003451Y009516D01*
X003451Y009273D01*
X003544Y009049D01*
X003715Y008877D01*
X003744Y008865D01*
X003902Y008708D01*
X004199Y008584D01*
X004895Y008584D01*
X004703Y008505D01*
X004500Y008302D01*
X004391Y008038D01*
X004391Y007894D01*
X004391Y007751D01*
X004447Y007614D01*
X004171Y007614D01*
X004042Y007561D01*
X003944Y007463D01*
X003891Y007334D01*
X003891Y006894D01*
X003891Y006455D01*
X003944Y006326D01*
X004042Y006228D01*
X004171Y006174D01*
X004610Y006174D01*
X004610Y006894D01*
X003891Y006894D01*
X004610Y006894D01*
X004610Y006894D01*
X004611Y006894D01*
X004611Y006174D01*
X005050Y006174D01*
X005179Y006228D01*
X005256Y006305D01*
X005475Y006214D01*
X005746Y006214D01*
X005996Y006318D01*
X006111Y006433D01*
X006225Y006318D01*
X006475Y006214D01*
X006746Y006214D01*
X006996Y006318D01*
X007111Y006433D01*
X007225Y006318D01*
X007475Y006214D01*
X007746Y006214D01*
X007996Y006318D01*
X008187Y006509D01*
X008291Y006759D01*
X008291Y007030D01*
X008214Y007214D01*
X008246Y007214D01*
X008496Y007318D01*
X008687Y007509D01*
X008791Y007759D01*
X008791Y008030D01*
X008687Y008279D01*
X008496Y008471D01*
X008246Y008574D01*
X007975Y008574D01*
X007725Y008471D01*
X007611Y008356D01*
X007496Y008471D01*
X007246Y008574D01*
X006975Y008574D01*
X006725Y008471D01*
X006611Y008356D01*
X006496Y008471D01*
X006246Y008574D01*
X005975Y008574D01*
X005725Y008471D01*
X005639Y008384D01*
X005518Y008505D01*
X005326Y008584D01*
X006199Y008584D01*
X008199Y008584D01*
X010199Y008584D01*
X010895Y008584D01*
X010703Y008505D01*
X010500Y008302D01*
X010391Y008038D01*
X010391Y007894D01*
X010391Y007751D01*
X010447Y007614D01*
X010171Y007614D01*
X010042Y007561D01*
X009944Y007463D01*
X009891Y007334D01*
X009891Y006894D01*
X009891Y006455D01*
X009944Y006326D01*
X010042Y006228D01*
X010171Y006174D01*
X010610Y006174D01*
X010610Y006894D01*
X009891Y006894D01*
X010610Y006894D01*
X010610Y006894D01*
X010611Y006894D01*
X010611Y006174D01*
X011050Y006174D01*
X011179Y006228D01*
X011256Y006305D01*
X011475Y006214D01*
X011746Y006214D01*
X011996Y006318D01*
X012111Y006433D01*
X012225Y006318D01*
X012475Y006214D01*
X012746Y006214D01*
X012996Y006318D01*
X013111Y006433D01*
X013225Y006318D01*
X013475Y006214D01*
X013746Y006214D01*
X013996Y006318D01*
X014187Y006509D01*
X014291Y006759D01*
X014291Y007030D01*
X014214Y007214D01*
X014246Y007214D01*
X014496Y007318D01*
X014687Y007509D01*
X014791Y007759D01*
X014791Y008030D01*
X014687Y008279D01*
X014496Y008471D01*
X014246Y008574D01*
X013975Y008574D01*
X013725Y008471D01*
X013611Y008356D01*
X013496Y008471D01*
X013246Y008574D01*
X012975Y008574D01*
X012725Y008471D01*
X012611Y008356D01*
X012496Y008471D01*
X012246Y008574D01*
X011975Y008574D01*
X011725Y008471D01*
X011639Y008384D01*
X011518Y008505D01*
X011326Y008584D01*
X012199Y008584D01*
X014199Y008584D01*
X016199Y008584D01*
X016895Y008584D01*
X016703Y008505D01*
X016500Y008302D01*
X016391Y008038D01*
X016391Y007894D01*
X016391Y007751D01*
X016447Y007614D01*
X016171Y007614D01*
X016042Y007561D01*
X015944Y007463D01*
X015891Y007334D01*
X015891Y006894D01*
X015891Y006455D01*
X015944Y006326D01*
X016042Y006228D01*
X016171Y006174D01*
X016610Y006174D01*
X016610Y006894D01*
X015891Y006894D01*
X016610Y006894D01*
X016610Y006894D01*
X016611Y006894D01*
X016611Y006174D01*
X017050Y006174D01*
X017179Y006228D01*
X017256Y006305D01*
X017475Y006214D01*
X017746Y006214D01*
X017996Y006318D01*
X018111Y006433D01*
X018225Y006318D01*
X018475Y006214D01*
X018746Y006214D01*
X018996Y006318D01*
X019111Y006433D01*
X019225Y006318D01*
X019475Y006214D01*
X019746Y006214D01*
X019996Y006318D01*
X020187Y006509D01*
X020291Y006759D01*
X020291Y007030D01*
X020214Y007214D01*
X020246Y007214D01*
X020496Y007318D01*
X020687Y007509D01*
X020791Y007759D01*
X020791Y008030D01*
X020687Y008279D01*
X020496Y008471D01*
X020246Y008574D01*
X019975Y008574D01*
X019725Y008471D01*
X019611Y008356D01*
X019496Y008471D01*
X019246Y008574D01*
X018975Y008574D01*
X018725Y008471D01*
X018611Y008356D01*
X018496Y008471D01*
X018246Y008574D01*
X017975Y008574D01*
X017725Y008471D01*
X017639Y008384D01*
X017518Y008505D01*
X017326Y008584D01*
X018199Y008584D01*
X020199Y008584D01*
X022199Y008584D01*
X022895Y008584D01*
X022703Y008505D01*
X022500Y008302D01*
X022391Y008038D01*
X022391Y007894D01*
X022391Y007751D01*
X022447Y007614D01*
X022171Y007614D01*
X022042Y007561D01*
X021944Y007463D01*
X021891Y007334D01*
X021891Y006894D01*
X021891Y006455D01*
X021944Y006326D01*
X022042Y006228D01*
X022171Y006174D01*
X022610Y006174D01*
X022610Y006894D01*
X021891Y006894D01*
X022610Y006894D01*
X022610Y006894D01*
X022611Y006894D01*
X022611Y006174D01*
X023050Y006174D01*
X023179Y006228D01*
X023256Y006305D01*
X023475Y006214D01*
X023746Y006214D01*
X023996Y006318D01*
X024111Y006433D01*
X024225Y006318D01*
X024475Y006214D01*
X024746Y006214D01*
X024996Y006318D01*
X025111Y006433D01*
X025225Y006318D01*
X025475Y006214D01*
X025746Y006214D01*
X025996Y006318D01*
X026187Y006509D01*
X026291Y006759D01*
X026291Y007030D01*
X026214Y007214D01*
X026246Y007214D01*
X026496Y007318D01*
X026687Y007509D01*
X026791Y007759D01*
X026791Y008030D01*
X026687Y008279D01*
X026496Y008471D01*
X026246Y008574D01*
X025975Y008574D01*
X025725Y008471D01*
X025611Y008356D01*
X025496Y008471D01*
X025246Y008574D01*
X024975Y008574D01*
X024725Y008471D01*
X024611Y008356D01*
X024496Y008471D01*
X024246Y008574D01*
X023975Y008574D01*
X023725Y008471D01*
X023639Y008384D01*
X023518Y008505D01*
X023326Y008584D01*
X024522Y008584D01*
X026199Y008584D01*
X028199Y008584D01*
X028895Y008584D01*
X028703Y008505D01*
X028500Y008302D01*
X028391Y008038D01*
X028391Y007894D01*
X028391Y007751D01*
X028447Y007614D01*
X028171Y007614D01*
X028042Y007561D01*
X027944Y007463D01*
X027891Y007334D01*
X027891Y006894D01*
X027891Y006455D01*
X027944Y006326D01*
X028042Y006228D01*
X028171Y006174D01*
X028610Y006174D01*
X028610Y006894D01*
X027891Y006894D01*
X028610Y006894D01*
X028610Y006894D01*
X028611Y006894D01*
X028611Y006174D01*
X029050Y006174D01*
X029179Y006228D01*
X029256Y006305D01*
X029475Y006214D01*
X029746Y006214D01*
X029996Y006318D01*
X030111Y006433D01*
X030225Y006318D01*
X030475Y006214D01*
X030746Y006214D01*
X030996Y006318D01*
X031111Y006433D01*
X031225Y006318D01*
X031475Y006214D01*
X031746Y006214D01*
X031996Y006318D01*
X032291Y006887D02*
X035905Y006887D01*
X035905Y007386D02*
X032564Y007386D01*
X032791Y007884D02*
X035905Y007884D01*
X035905Y008383D02*
X032584Y008383D01*
X033010Y008881D02*
X035905Y008881D01*
X035905Y009380D02*
X033271Y009380D01*
X033039Y009878D02*
X035905Y009878D01*
X035905Y010377D02*
X033271Y010377D01*
X033042Y010875D02*
X035905Y010875D01*
X035905Y011374D02*
X033271Y011374D01*
X033045Y011872D02*
X035905Y011872D01*
X035905Y012371D02*
X033115Y012371D01*
X033088Y012344D02*
X033411Y012666D01*
X033411Y013122D01*
X033088Y013444D01*
X032919Y013444D01*
X032604Y013759D01*
X032446Y013824D01*
X032275Y013824D01*
X031275Y013824D01*
X031117Y013759D01*
X030996Y013638D01*
X030861Y013502D01*
X030604Y013759D01*
X030446Y013824D01*
X030275Y013824D01*
X029275Y013824D01*
X029117Y013759D01*
X028996Y013638D01*
X028861Y013502D01*
X028604Y013759D01*
X028446Y013824D01*
X028275Y013824D01*
X027275Y013824D01*
X027117Y013759D01*
X026996Y013638D01*
X026861Y013502D01*
X026604Y013759D01*
X026446Y013824D01*
X026275Y013824D01*
X025275Y013824D01*
X025117Y013759D01*
X024996Y013638D01*
X024861Y013502D01*
X024604Y013759D01*
X024446Y013824D01*
X024275Y013824D01*
X023275Y013824D01*
X023117Y013759D01*
X022996Y013638D01*
X022861Y013502D01*
X022604Y013759D01*
X022446Y013824D01*
X022275Y013824D01*
X021275Y013824D01*
X021117Y013759D01*
X020996Y013638D01*
X020996Y013638D01*
X020861Y013502D01*
X020604Y013759D01*
X020446Y013824D01*
X020275Y013824D01*
X019275Y013824D01*
X019117Y013759D01*
X018996Y013638D01*
X018861Y013502D01*
X018604Y013759D01*
X018446Y013824D01*
X018275Y013824D01*
X017275Y013824D01*
X017117Y013759D01*
X016996Y013638D01*
X016861Y013502D01*
X016604Y013759D01*
X016446Y013824D01*
X016275Y013824D01*
X015275Y013824D01*
X015117Y013759D01*
X014996Y013638D01*
X014861Y013502D01*
X014604Y013759D01*
X014446Y013824D01*
X014275Y013824D01*
X013275Y013824D01*
X013117Y013759D01*
X012996Y013638D01*
X012861Y013502D01*
X012604Y013759D01*
X012446Y013824D01*
X012275Y013824D01*
X011275Y013824D01*
X011117Y013759D01*
X010996Y013638D01*
X010861Y013502D01*
X010604Y013759D01*
X010446Y013824D01*
X010275Y013824D01*
X009275Y013824D01*
X009117Y013759D01*
X008996Y013638D01*
X008861Y013502D01*
X008604Y013759D01*
X008446Y013824D01*
X008275Y013824D01*
X007275Y013824D01*
X007117Y013759D01*
X006996Y013638D01*
X006861Y013502D01*
X006604Y013759D01*
X006446Y013824D01*
X006275Y013824D01*
X005275Y013824D01*
X005117Y013759D01*
X004996Y013638D01*
X004861Y013502D01*
X004725Y013638D01*
X004604Y013759D01*
X004446Y013824D01*
X003624Y013824D01*
X003460Y013892D01*
X003262Y013892D01*
X003078Y013817D01*
X002938Y013676D01*
X002863Y013493D01*
X002863Y013295D01*
X002938Y013112D01*
X003078Y012972D01*
X003262Y012896D01*
X003311Y012896D01*
X003311Y012666D01*
X003633Y012344D01*
X004088Y012344D01*
X004361Y012617D01*
X004633Y012344D01*
X005088Y012344D01*
X005361Y012617D01*
X005633Y012344D01*
X006088Y012344D01*
X006361Y012617D01*
X006633Y012344D01*
X007088Y012344D01*
X007361Y012617D01*
X007633Y012344D01*
X008088Y012344D01*
X008361Y012617D01*
X008633Y012344D01*
X009088Y012344D01*
X009361Y012617D01*
X009633Y012344D01*
X010088Y012344D01*
X010361Y012617D01*
X010633Y012344D01*
X011088Y012344D01*
X011361Y012617D01*
X011633Y012344D01*
X012088Y012344D01*
X012361Y012617D01*
X012633Y012344D01*
X013088Y012344D01*
X013361Y012617D01*
X013633Y012344D01*
X014088Y012344D01*
X014361Y012617D01*
X014633Y012344D01*
X015088Y012344D01*
X015361Y012617D01*
X015633Y012344D01*
X016088Y012344D01*
X016361Y012617D01*
X016633Y012344D01*
X017088Y012344D01*
X017361Y012617D01*
X017633Y012344D01*
X018088Y012344D01*
X018361Y012617D01*
X018633Y012344D01*
X019088Y012344D01*
X019361Y012617D01*
X019633Y012344D01*
X020088Y012344D01*
X020361Y012617D01*
X020633Y012344D01*
X021088Y012344D01*
X021361Y012617D01*
X021633Y012344D01*
X022088Y012344D01*
X022361Y012617D01*
X022633Y012344D01*
X023088Y012344D01*
X023361Y012617D01*
X023633Y012344D01*
X024088Y012344D01*
X024361Y012617D01*
X024633Y012344D01*
X025088Y012344D01*
X025361Y012617D01*
X025633Y012344D01*
X026088Y012344D01*
X026361Y012617D01*
X026633Y012344D01*
X027088Y012344D01*
X027361Y012617D01*
X027633Y012344D01*
X028088Y012344D01*
X028361Y012617D01*
X028633Y012344D01*
X029088Y012344D01*
X029361Y012617D01*
X029633Y012344D01*
X030088Y012344D01*
X030361Y012617D01*
X030633Y012344D01*
X031088Y012344D01*
X031361Y012617D01*
X031633Y012344D01*
X032088Y012344D01*
X032361Y012617D01*
X032633Y012344D01*
X033088Y012344D01*
X032606Y012371D02*
X032115Y012371D01*
X031606Y012371D02*
X031115Y012371D01*
X031045Y011872D02*
X031676Y011872D01*
X031451Y011374D02*
X031271Y011374D01*
X031042Y010875D02*
X031679Y010875D01*
X031451Y010377D02*
X031271Y010377D01*
X029679Y010875D02*
X029042Y010875D01*
X029271Y011374D02*
X029451Y011374D01*
X029676Y011872D02*
X029045Y011872D01*
X029115Y012371D02*
X029606Y012371D01*
X030115Y012371D02*
X030606Y012371D01*
X028606Y012371D02*
X028115Y012371D01*
X027606Y012371D02*
X027115Y012371D01*
X027045Y011872D02*
X027676Y011872D01*
X027451Y011374D02*
X027271Y011374D01*
X027042Y010875D02*
X027679Y010875D01*
X027451Y010377D02*
X027271Y010377D01*
X025679Y010875D02*
X025042Y010875D01*
X025271Y011374D02*
X025451Y011374D01*
X025676Y011872D02*
X025045Y011872D01*
X025115Y012371D02*
X025606Y012371D01*
X026115Y012371D02*
X026606Y012371D01*
X024606Y012371D02*
X024115Y012371D01*
X023606Y012371D02*
X023115Y012371D01*
X023045Y011872D02*
X023676Y011872D01*
X023451Y011374D02*
X023271Y011374D01*
X023042Y010875D02*
X023679Y010875D01*
X023451Y010377D02*
X023271Y010377D01*
X021679Y010875D02*
X021042Y010875D01*
X021271Y011374D02*
X021451Y011374D01*
X021676Y011872D02*
X021045Y011872D01*
X021115Y012371D02*
X021606Y012371D01*
X022115Y012371D02*
X022606Y012371D01*
X020606Y012371D02*
X020115Y012371D01*
X019606Y012371D02*
X019115Y012371D01*
X019045Y011872D02*
X019676Y011872D01*
X019451Y011374D02*
X019271Y011374D01*
X019042Y010875D02*
X019679Y010875D01*
X019451Y010377D02*
X019271Y010377D01*
X017679Y010875D02*
X017042Y010875D01*
X017271Y011374D02*
X017451Y011374D01*
X017676Y011872D02*
X017045Y011872D01*
X017115Y012371D02*
X017606Y012371D01*
X018115Y012371D02*
X018606Y012371D01*
X016606Y012371D02*
X016115Y012371D01*
X015606Y012371D02*
X015115Y012371D01*
X015045Y011872D02*
X015676Y011872D01*
X015451Y011374D02*
X015271Y011374D01*
X015042Y010875D02*
X015679Y010875D01*
X015451Y010377D02*
X015271Y010377D01*
X013679Y010875D02*
X013042Y010875D01*
X013271Y011374D02*
X013451Y011374D01*
X013676Y011872D02*
X013045Y011872D01*
X013115Y012371D02*
X013606Y012371D01*
X014115Y012371D02*
X014606Y012371D01*
X012606Y012371D02*
X012115Y012371D01*
X011606Y012371D02*
X011115Y012371D01*
X011045Y011872D02*
X011676Y011872D01*
X011451Y011374D02*
X011271Y011374D01*
X011042Y010875D02*
X011679Y010875D01*
X011451Y010377D02*
X011271Y010377D01*
X009679Y010875D02*
X009042Y010875D01*
X009271Y011374D02*
X009451Y011374D01*
X009676Y011872D02*
X009045Y011872D01*
X009115Y012371D02*
X009606Y012371D01*
X010115Y012371D02*
X010606Y012371D01*
X009960Y013896D02*
X009762Y013896D01*
X009578Y013972D01*
X009438Y014112D01*
X009363Y014295D01*
X009363Y014493D01*
X009431Y014658D01*
X009431Y016131D01*
X009363Y016295D01*
X009363Y016493D01*
X009438Y016676D01*
X009578Y016817D01*
X009762Y016892D01*
X009960Y016892D01*
X010143Y016817D01*
X010283Y016676D01*
X010359Y016493D01*
X010359Y016295D01*
X010291Y016131D01*
X010291Y014658D01*
X010359Y014493D01*
X010359Y014295D01*
X010283Y014112D01*
X010143Y013972D01*
X009960Y013896D01*
X010359Y014365D02*
X012385Y014365D01*
X012394Y014343D02*
X012549Y014188D01*
X012751Y014104D01*
X012970Y014104D01*
X013172Y014188D01*
X013327Y014343D01*
X013361Y014424D01*
X013394Y014343D01*
X013549Y014188D01*
X013751Y014104D01*
X013970Y014104D01*
X014172Y014188D01*
X014327Y014343D01*
X014361Y014424D01*
X014394Y014343D01*
X014549Y014188D01*
X014751Y014104D01*
X014970Y014104D01*
X015172Y014188D01*
X015327Y014343D01*
X015361Y014424D01*
X015394Y014343D01*
X015549Y014188D01*
X015751Y014104D01*
X015970Y014104D01*
X016172Y014188D01*
X016327Y014343D01*
X016361Y014424D01*
X016394Y014343D01*
X016549Y014188D01*
X016751Y014104D01*
X016970Y014104D01*
X017172Y014188D01*
X017327Y014343D01*
X017361Y014424D01*
X017394Y014343D01*
X017549Y014188D01*
X017751Y014104D01*
X017970Y014104D01*
X018172Y014188D01*
X018327Y014343D01*
X018361Y014424D01*
X018394Y014343D01*
X018549Y014188D01*
X018751Y014104D01*
X018970Y014104D01*
X019172Y014188D01*
X019327Y014343D01*
X019361Y014424D01*
X019394Y014343D01*
X019549Y014188D01*
X019751Y014104D01*
X019970Y014104D01*
X020172Y014188D01*
X020327Y014343D01*
X020361Y014424D01*
X020394Y014343D01*
X020549Y014188D01*
X020751Y014104D01*
X020970Y014104D01*
X021172Y014188D01*
X021327Y014343D01*
X021361Y014424D01*
X021394Y014343D01*
X021549Y014188D01*
X021751Y014104D01*
X021970Y014104D01*
X022172Y014188D01*
X022327Y014343D01*
X022361Y014424D01*
X022394Y014343D01*
X022549Y014188D01*
X022751Y014104D01*
X022970Y014104D01*
X023172Y014188D01*
X023327Y014343D01*
X023361Y014424D01*
X023394Y014343D01*
X023549Y014188D01*
X023751Y014104D01*
X023970Y014104D01*
X024172Y014188D01*
X024327Y014343D01*
X024361Y014424D01*
X024394Y014343D01*
X024549Y014188D01*
X024751Y014104D01*
X024970Y014104D01*
X025172Y014188D01*
X025327Y014343D01*
X025361Y014424D01*
X025394Y014343D01*
X025549Y014188D01*
X025751Y014104D01*
X025970Y014104D01*
X026172Y014188D01*
X026327Y014343D01*
X026411Y014545D01*
X026411Y015244D01*
X026327Y015446D01*
X026172Y015601D01*
X025970Y015684D01*
X025751Y015684D01*
X025549Y015601D01*
X025394Y015446D01*
X025361Y015364D01*
X025327Y015446D01*
X025172Y015601D01*
X024970Y015684D01*
X024751Y015684D01*
X024549Y015601D01*
X024394Y015446D01*
X024361Y015364D01*
X024327Y015446D01*
X024172Y015601D01*
X023970Y015684D01*
X023751Y015684D01*
X023549Y015601D01*
X023394Y015446D01*
X023361Y015364D01*
X023327Y015446D01*
X023172Y015601D01*
X022970Y015684D01*
X022751Y015684D01*
X022549Y015601D01*
X022394Y015446D01*
X022361Y015364D01*
X022327Y015446D01*
X022172Y015601D01*
X021970Y015684D01*
X021751Y015684D01*
X021549Y015601D01*
X021394Y015446D01*
X021361Y015364D01*
X021327Y015446D01*
X021172Y015601D01*
X020970Y015684D01*
X020751Y015684D01*
X020549Y015601D01*
X020394Y015446D01*
X020361Y015364D01*
X020327Y015446D01*
X020172Y015601D01*
X019970Y015684D01*
X019751Y015684D01*
X019549Y015601D01*
X019394Y015446D01*
X019361Y015364D01*
X019327Y015446D01*
X019172Y015601D01*
X018970Y015684D01*
X018751Y015684D01*
X018549Y015601D01*
X018394Y015446D01*
X018361Y015364D01*
X018327Y015446D01*
X018172Y015601D01*
X017970Y015684D01*
X017751Y015684D01*
X017549Y015601D01*
X017394Y015446D01*
X017361Y015364D01*
X017327Y015446D01*
X017172Y015601D01*
X016970Y015684D01*
X016751Y015684D01*
X016549Y015601D01*
X016394Y015446D01*
X016361Y015364D01*
X016327Y015446D01*
X016172Y015601D01*
X015970Y015684D01*
X015751Y015684D01*
X015549Y015601D01*
X015394Y015446D01*
X015361Y015364D01*
X015327Y015446D01*
X015172Y015601D01*
X014970Y015684D01*
X014751Y015684D01*
X014549Y015601D01*
X014394Y015446D01*
X014361Y015364D01*
X014327Y015446D01*
X014172Y015601D01*
X013970Y015684D01*
X013751Y015684D01*
X013549Y015601D01*
X013394Y015446D01*
X013361Y015364D01*
X013327Y015446D01*
X013172Y015601D01*
X012970Y015684D01*
X012751Y015684D01*
X012549Y015601D01*
X012394Y015446D01*
X012311Y015244D01*
X012311Y014545D01*
X012394Y014343D01*
X012311Y014864D02*
X010291Y014864D01*
X010291Y015362D02*
X012360Y015362D01*
X011946Y015964D02*
X014097Y015964D01*
X014262Y015896D01*
X014460Y015896D01*
X014643Y015972D01*
X014783Y016112D01*
X014859Y016295D01*
X014859Y016493D01*
X014854Y016504D01*
X016438Y016504D01*
X016582Y016564D01*
X016691Y016673D01*
X016691Y016673D01*
X017191Y017173D01*
X017215Y017231D01*
X017327Y017343D01*
X017361Y017424D01*
X017394Y017343D01*
X017549Y017188D01*
X017751Y017104D01*
X017970Y017104D01*
X018172Y017188D01*
X018327Y017343D01*
X018361Y017424D01*
X018394Y017343D01*
X018549Y017188D01*
X018751Y017104D01*
X018970Y017104D01*
X019172Y017188D01*
X019327Y017343D01*
X019361Y017424D01*
X019394Y017343D01*
X019471Y017267D01*
X019471Y016972D01*
X019471Y016817D01*
X019530Y016673D01*
X019640Y016564D01*
X019783Y016504D01*
X021679Y016504D01*
X021775Y016464D01*
X021946Y016464D01*
X026275Y016464D01*
X027013Y016464D01*
X027083Y016394D01*
X026811Y016122D01*
X026811Y015666D01*
X027133Y015344D01*
X027588Y015344D01*
X027911Y015666D01*
X027911Y016122D01*
X027638Y016394D01*
X027911Y016666D01*
X027911Y017122D01*
X027588Y017444D01*
X027133Y017444D01*
X027013Y017324D01*
X026899Y017324D01*
X027361Y017786D01*
X027617Y017530D01*
X027775Y017464D01*
X027946Y017464D01*
X028407Y017464D01*
X028431Y017440D01*
X028431Y017242D01*
X028311Y017122D01*
X028311Y016666D01*
X028431Y016546D01*
X028431Y016480D01*
X028431Y016309D01*
X028496Y016151D01*
X028996Y015651D01*
X029117Y015530D01*
X029275Y015464D01*
X033275Y015464D01*
X033446Y015464D01*
X033604Y015530D01*
X035175Y017101D01*
X035222Y017214D01*
X035242Y017214D01*
X035356Y017262D01*
X035443Y017349D01*
X035491Y017463D01*
X035491Y018326D01*
X035443Y018440D01*
X035431Y018453D01*
X035487Y018509D01*
X035591Y018759D01*
X035591Y019030D01*
X035487Y019279D01*
X035322Y019444D01*
X035387Y019509D01*
X035491Y019759D01*
X035491Y020030D01*
X035387Y020279D01*
X035322Y020344D01*
X035487Y020509D01*
X035591Y020759D01*
X035591Y021030D01*
X035487Y021279D01*
X035296Y021471D01*
X035046Y021574D01*
X034775Y021574D01*
X034525Y021471D01*
X034334Y021279D01*
X034231Y021030D01*
X034231Y020759D01*
X034334Y020509D01*
X034399Y020444D01*
X034234Y020279D01*
X034131Y020030D01*
X034131Y019759D01*
X034234Y019509D01*
X034399Y019344D01*
X034334Y019279D01*
X034231Y019030D01*
X034231Y018759D01*
X034318Y018549D01*
X034265Y018527D01*
X034178Y018440D01*
X034131Y018326D01*
X034131Y017463D01*
X034178Y017349D01*
X034192Y017334D01*
X033183Y016324D01*
X029539Y016324D01*
X029304Y016559D01*
X029361Y016617D01*
X029633Y016344D01*
X030088Y016344D01*
X030411Y016666D01*
X030411Y017122D01*
X030191Y017341D01*
X030361Y017510D01*
X030602Y017269D01*
X031119Y017269D01*
X031361Y017510D01*
X031602Y017269D01*
X032119Y017269D01*
X032486Y017635D01*
X032486Y018153D01*
X032291Y018348D01*
X032291Y018480D01*
X032225Y018638D01*
X032104Y018759D01*
X031604Y019259D01*
X031446Y019324D01*
X031275Y019324D01*
X027911Y019324D01*
X027911Y019622D01*
X027751Y019782D01*
X027751Y020504D01*
X028367Y020504D01*
X028602Y020269D01*
X029119Y020269D01*
X029361Y020510D01*
X029602Y020269D01*
X030119Y020269D01*
X030361Y020510D01*
X030602Y020269D01*
X031119Y020269D01*
X031361Y020510D01*
X031602Y020269D01*
X032119Y020269D01*
X032486Y020635D01*
X032486Y021153D01*
X032251Y021388D01*
X032251Y021506D01*
X032411Y021666D01*
X032411Y022122D01*
X032138Y022394D01*
X032411Y022666D01*
X032411Y022893D01*
X032691Y023173D01*
X032751Y023317D01*
X032751Y023472D01*
X032751Y024006D01*
X032861Y024117D01*
X033133Y023844D01*
X033588Y023844D01*
X033911Y024166D01*
X033911Y024622D01*
X033751Y024782D01*
X033751Y025801D01*
X033956Y026007D01*
X034069Y026279D01*
X034069Y026573D01*
X033956Y026845D01*
X033748Y027053D01*
X033476Y027166D01*
X033182Y027166D01*
X032910Y027053D01*
X032837Y026980D01*
X032764Y027053D01*
X032492Y027166D01*
X032198Y027166D01*
X031926Y027053D01*
X031779Y026907D01*
X031721Y026965D01*
X031487Y027062D01*
X031234Y027062D01*
X031000Y026965D01*
X030942Y026907D01*
X030796Y027053D01*
X030524Y027166D01*
X030229Y027166D01*
X029957Y027053D01*
X029884Y026980D01*
X029811Y027053D01*
X029539Y027166D01*
X029245Y027166D01*
X028973Y027053D01*
X028765Y026845D01*
X028652Y026573D01*
X028652Y026279D01*
X028765Y026007D01*
X028971Y025801D01*
X028971Y024782D01*
X028811Y024622D01*
X028811Y024166D01*
X029133Y023844D01*
X029588Y023844D01*
X029861Y024117D01*
X030133Y023844D01*
X030359Y023844D01*
X031311Y022893D01*
X031311Y022666D01*
X031583Y022394D01*
X031311Y022122D01*
X031311Y021666D01*
X031471Y021506D01*
X031471Y021388D01*
X031361Y021278D01*
X031119Y021519D01*
X030844Y021519D01*
X028604Y023759D01*
X028446Y023824D01*
X028275Y023824D01*
X028208Y023824D01*
X028088Y023944D01*
X027791Y023944D01*
X027791Y024309D01*
X027791Y024480D01*
X027725Y024638D01*
X027225Y025138D01*
X027151Y025212D01*
X027151Y025250D01*
X027047Y025499D01*
X026856Y025691D01*
X026606Y025794D01*
X026335Y025794D01*
X026085Y025691D01*
X025939Y025544D01*
X025411Y025544D01*
X025411Y025622D01*
X025088Y025944D01*
X024633Y025944D01*
X024311Y025622D01*
X024311Y025166D01*
X024583Y024894D01*
X024311Y024622D01*
X024311Y024166D01*
X024633Y023844D01*
X025088Y023844D01*
X025411Y024166D01*
X025411Y024622D01*
X025348Y024684D01*
X025939Y024684D01*
X026085Y024538D01*
X026335Y024434D01*
X026606Y024434D01*
X026678Y024464D01*
X026683Y024464D01*
X026931Y024216D01*
X026931Y023944D01*
X026633Y023944D01*
X026311Y023622D01*
X026311Y023166D01*
X026633Y022844D01*
X026931Y022844D01*
X026931Y022809D01*
X026996Y022651D01*
X027117Y022530D01*
X027203Y022444D01*
X027133Y022444D01*
X026811Y022122D01*
X026811Y021666D01*
X027083Y021394D01*
X026811Y021122D01*
X026811Y020666D01*
X026971Y020507D01*
X026971Y019782D01*
X026811Y019622D01*
X026811Y019324D01*
X025208Y019324D01*
X025323Y019439D01*
X025407Y019641D01*
X025407Y020188D01*
X025438Y020112D01*
X025578Y019972D01*
X025762Y019896D01*
X025960Y019896D01*
X026143Y019972D01*
X026283Y020112D01*
X026359Y020295D01*
X026359Y020493D01*
X026283Y020676D01*
X026143Y020817D01*
X025978Y020885D01*
X024602Y022261D01*
X024748Y022201D01*
X024966Y022201D01*
X025169Y022284D01*
X025323Y022439D01*
X025407Y022641D01*
X025407Y023340D01*
X025323Y023542D01*
X025169Y023697D01*
X024966Y023781D01*
X024748Y023781D01*
X024545Y023697D01*
X024391Y023542D01*
X024357Y023461D01*
X024323Y023542D01*
X024169Y023697D01*
X023966Y023781D01*
X023748Y023781D01*
X023545Y023697D01*
X023391Y023542D01*
X023357Y023461D01*
X023323Y023542D01*
X023169Y023697D01*
X022966Y023781D01*
X022748Y023781D01*
X022545Y023697D01*
X022391Y023542D01*
X022357Y023461D01*
X022323Y023542D01*
X022169Y023697D01*
X021966Y023781D01*
X021779Y023781D01*
X021791Y023809D01*
X021791Y023980D01*
X021791Y025480D01*
X021725Y025638D01*
X021604Y025759D01*
X021104Y026259D01*
X020946Y026324D01*
X020775Y026324D01*
X014275Y026324D01*
X014117Y026259D01*
X013996Y026138D01*
X013357Y025498D01*
X013283Y025676D01*
X013143Y025817D01*
X012978Y025885D01*
X011791Y027072D01*
X011791Y027184D01*
X011822Y027184D01*
X011936Y027232D01*
X012023Y027319D01*
X012071Y027433D01*
X012071Y028356D01*
X012023Y028470D01*
X011936Y028557D01*
X011822Y028604D01*
X010899Y028604D01*
X010785Y028557D01*
X010698Y028470D01*
X010651Y028356D01*
X010651Y028137D01*
X010585Y028296D01*
X010385Y028496D01*
X010124Y028604D01*
X009841Y028604D01*
X009580Y028496D01*
X009381Y028296D01*
X009273Y028036D01*
X009273Y027753D01*
X009381Y027492D01*
X009431Y027442D01*
X009431Y025932D01*
X008604Y026759D01*
X008446Y026824D01*
X008275Y026824D01*
X006775Y026824D01*
X006617Y026759D01*
X006496Y026638D01*
X006246Y026388D01*
X006181Y026230D01*
X006181Y026226D01*
X006111Y026156D01*
X006041Y026226D01*
X006041Y026230D01*
X005975Y026388D01*
X005725Y026638D01*
X005604Y026759D01*
X005446Y026824D01*
X003446Y026824D01*
X003275Y026824D01*
X003117Y026759D01*
X002617Y026259D01*
X002597Y026239D01*
X002601Y026247D01*
X002601Y026394D01*
X001861Y026394D01*
X001861Y026394D01*
X001861Y025654D01*
X002008Y025654D01*
X002280Y025767D01*
X002431Y025918D01*
X002431Y022814D01*
X002257Y022988D01*
X002000Y023094D01*
X001721Y023094D01*
X001464Y022988D01*
X001267Y022791D01*
X001161Y022534D01*
X001161Y022255D01*
X001229Y022091D01*
X000911Y020503D01*
X000860Y020482D01*
X000773Y020395D01*
X000726Y020281D01*
X000726Y019508D01*
X000773Y019394D01*
X000801Y019366D01*
X000801Y019006D01*
X000801Y018783D01*
X000886Y018577D01*
X001043Y018420D01*
X001249Y018334D01*
X002629Y018334D01*
X003386Y017577D01*
X003543Y017420D01*
X003749Y017334D01*
X007742Y017334D01*
X007815Y017262D01*
X007929Y017214D01*
X008792Y017214D01*
X008906Y017262D01*
X008993Y017349D01*
X009041Y017463D01*
X009041Y018326D01*
X008993Y018440D01*
X008931Y018503D01*
X008937Y018509D01*
X009041Y018759D01*
X009041Y019030D01*
X008937Y019279D01*
X008822Y019394D01*
X008937Y019509D01*
X009041Y019759D01*
X009041Y020030D01*
X008986Y020161D01*
X009431Y019716D01*
X009431Y017809D01*
X009496Y017651D01*
X009617Y017530D01*
X010117Y017030D01*
X010275Y016964D01*
X010446Y016964D01*
X010683Y016964D01*
X011617Y016030D01*
X011775Y015964D01*
X011946Y015964D01*
X011287Y016359D02*
X010359Y016359D01*
X010043Y016858D02*
X010789Y016858D01*
X009678Y016858D02*
X002996Y016858D01*
X002996Y016768D02*
X002996Y017021D01*
X002899Y017254D01*
X002720Y017433D01*
X002487Y017529D01*
X002234Y017529D01*
X002001Y017433D01*
X001983Y017415D01*
X001982Y017418D01*
X001884Y017516D01*
X001755Y017569D01*
X001361Y017569D01*
X001361Y016895D01*
X001360Y016895D01*
X001360Y017569D01*
X000966Y017569D01*
X000837Y017516D01*
X000739Y017418D01*
X000686Y017289D01*
X000686Y016894D01*
X000686Y016500D01*
X000739Y016371D01*
X000837Y016273D01*
X000966Y016219D01*
X001360Y016219D01*
X001360Y016894D01*
X000686Y016894D01*
X001360Y016894D01*
X001360Y016894D01*
X001361Y016894D01*
X001361Y016219D01*
X001755Y016219D01*
X001884Y016273D01*
X001982Y016371D01*
X001983Y016374D01*
X002001Y016356D01*
X002234Y016259D01*
X002487Y016259D01*
X002720Y016356D01*
X002899Y016535D01*
X002996Y016768D01*
X002724Y016359D02*
X009363Y016359D01*
X009431Y015861D02*
X008036Y015861D01*
X007960Y015892D02*
X007762Y015892D01*
X007578Y015817D01*
X007438Y015676D01*
X007363Y015493D01*
X007363Y015295D01*
X007431Y015131D01*
X007431Y014658D01*
X007363Y014493D01*
X007363Y014295D01*
X007438Y014112D01*
X007578Y013972D01*
X007762Y013896D01*
X007960Y013896D01*
X008143Y013972D01*
X008283Y014112D01*
X008359Y014295D01*
X008359Y014493D01*
X008291Y014658D01*
X008291Y015131D01*
X008359Y015295D01*
X008359Y015493D01*
X008283Y015676D01*
X008143Y015817D01*
X007960Y015892D01*
X007685Y015861D02*
X005463Y015861D01*
X005448Y015895D02*
X005361Y015982D01*
X005247Y016029D01*
X004474Y016029D01*
X004360Y015982D01*
X004273Y015895D01*
X004269Y015884D01*
X004220Y015933D01*
X003987Y016029D01*
X003734Y016029D01*
X003501Y015933D01*
X003322Y015754D01*
X003226Y015521D01*
X003226Y015268D01*
X003322Y015035D01*
X003501Y014856D01*
X003734Y014759D01*
X003987Y014759D01*
X004220Y014856D01*
X004269Y014904D01*
X004273Y014894D01*
X004360Y014807D01*
X004474Y014759D01*
X005247Y014759D01*
X005361Y014807D01*
X005448Y014894D01*
X005496Y015008D01*
X005496Y015781D01*
X005448Y015895D01*
X005496Y015362D02*
X007363Y015362D01*
X007431Y014864D02*
X005418Y014864D01*
X004303Y014864D02*
X004228Y014864D01*
X003493Y014864D02*
X000613Y014864D01*
X000613Y014365D02*
X007363Y014365D01*
X008359Y014365D02*
X009363Y014365D01*
X009431Y014864D02*
X008291Y014864D01*
X008359Y015362D02*
X009431Y015362D01*
X010291Y015861D02*
X026811Y015861D01*
X027115Y015362D02*
X026361Y015362D01*
X026411Y014864D02*
X035905Y014864D01*
X035905Y014365D02*
X026336Y014365D01*
X025385Y014365D02*
X025336Y014365D01*
X024385Y014365D02*
X024336Y014365D01*
X023385Y014365D02*
X023336Y014365D01*
X022385Y014365D02*
X022336Y014365D01*
X021385Y014365D02*
X021336Y014365D01*
X020385Y014365D02*
X020336Y014365D01*
X019385Y014365D02*
X019336Y014365D01*
X018385Y014365D02*
X018336Y014365D01*
X017385Y014365D02*
X017336Y014365D01*
X016385Y014365D02*
X016336Y014365D01*
X015385Y014365D02*
X015336Y014365D01*
X014385Y014365D02*
X014336Y014365D01*
X013385Y014365D02*
X013336Y014365D01*
X014859Y016359D02*
X027048Y016359D01*
X027673Y016359D02*
X028431Y016359D01*
X028311Y016858D02*
X027911Y016858D01*
X027676Y017356D02*
X028431Y017356D01*
X029504Y016359D02*
X029618Y016359D01*
X030103Y016359D02*
X033218Y016359D01*
X033716Y016858D02*
X030411Y016858D01*
X030515Y017356D02*
X030207Y017356D01*
X031207Y017356D02*
X031515Y017356D01*
X032207Y017356D02*
X034175Y017356D01*
X034131Y017855D02*
X032486Y017855D01*
X032291Y018354D02*
X034142Y018354D01*
X034231Y018852D02*
X032011Y018852D01*
X032104Y018759D02*
X032104Y018759D01*
X032198Y020348D02*
X034302Y020348D01*
X034231Y020846D02*
X032486Y020846D01*
X032294Y021345D02*
X034399Y021345D01*
X035422Y021345D02*
X035905Y021345D01*
X035905Y021843D02*
X032411Y021843D01*
X032191Y022342D02*
X035905Y022342D01*
X035905Y022840D02*
X032411Y022840D01*
X032751Y023339D02*
X035905Y023339D01*
X035905Y023838D02*
X032751Y023838D01*
X033911Y024336D02*
X035905Y024336D01*
X035905Y024835D02*
X033751Y024835D01*
X033751Y025333D02*
X035905Y025333D01*
X035905Y025832D02*
X033782Y025832D01*
X034069Y026330D02*
X035905Y026330D01*
X035905Y026829D02*
X033963Y026829D01*
X034597Y027327D02*
X028843Y027327D01*
X028827Y027289D02*
X028931Y027539D01*
X028931Y027810D01*
X028827Y028059D01*
X028636Y028251D01*
X028386Y028354D01*
X028115Y028354D01*
X027865Y028251D01*
X027674Y028059D01*
X027571Y027810D01*
X027571Y027539D01*
X027674Y027289D01*
X027865Y027098D01*
X028115Y026994D01*
X028386Y026994D01*
X028636Y027098D01*
X028827Y027289D01*
X028758Y026829D02*
X021411Y026829D01*
X021411Y026666D02*
X021088Y026344D01*
X020633Y026344D01*
X020361Y026617D01*
X020088Y026344D01*
X019633Y026344D01*
X019361Y026617D01*
X019088Y026344D01*
X018633Y026344D01*
X018361Y026617D01*
X018088Y026344D01*
X017633Y026344D01*
X017311Y026666D01*
X017311Y027122D01*
X017633Y027444D01*
X018088Y027444D01*
X018361Y027172D01*
X018633Y027444D01*
X019088Y027444D01*
X019361Y027172D01*
X019633Y027444D01*
X020088Y027444D01*
X020361Y027172D01*
X020633Y027444D01*
X021088Y027444D01*
X021411Y027122D01*
X021411Y026666D01*
X021205Y027327D02*
X025878Y027327D01*
X025894Y027289D02*
X026085Y027098D01*
X026335Y026994D01*
X026606Y026994D01*
X026856Y027098D01*
X027047Y027289D01*
X027151Y027539D01*
X027151Y027810D01*
X027047Y028059D01*
X026856Y028251D01*
X026606Y028354D01*
X026335Y028354D01*
X026085Y028251D01*
X025894Y028059D01*
X025791Y027810D01*
X025791Y027539D01*
X025894Y027289D01*
X025797Y027826D02*
X016571Y027826D01*
X016571Y027433D02*
X016571Y028356D01*
X016523Y028470D01*
X016436Y028557D01*
X016322Y028604D01*
X015399Y028604D01*
X015285Y028557D01*
X015198Y028470D01*
X015151Y028356D01*
X015151Y027433D01*
X015198Y027319D01*
X015285Y027232D01*
X015399Y027184D01*
X016322Y027184D01*
X016436Y027232D01*
X016523Y027319D01*
X016571Y027433D01*
X016527Y027327D02*
X017516Y027327D01*
X017311Y026829D02*
X012034Y026829D01*
X012027Y027327D02*
X013398Y027327D01*
X013467Y027259D02*
X013743Y027144D01*
X013892Y027144D01*
X013892Y027894D01*
X013892Y027894D01*
X013892Y027144D01*
X014041Y027144D01*
X014317Y027259D01*
X014528Y027469D01*
X014642Y027745D01*
X014642Y027894D01*
X013893Y027894D01*
X013893Y027894D01*
X014642Y027894D01*
X014642Y028044D01*
X014528Y028319D01*
X014317Y028530D01*
X014041Y028644D01*
X013892Y028644D01*
X013743Y028644D01*
X013467Y028530D01*
X013256Y028319D01*
X013142Y028044D01*
X013142Y027894D01*
X013142Y027745D01*
X013256Y027469D01*
X013467Y027259D01*
X013892Y027327D02*
X013892Y027327D01*
X014386Y027327D02*
X015194Y027327D01*
X015151Y027826D02*
X014642Y027826D01*
X014523Y028324D02*
X015151Y028324D01*
X013892Y028324D02*
X013892Y028324D01*
X013892Y028644D02*
X013892Y027895D01*
X013892Y027895D01*
X013892Y028644D01*
X013262Y028324D02*
X012071Y028324D01*
X012071Y027826D02*
X013142Y027826D01*
X013142Y027894D02*
X013892Y027894D01*
X013892Y027894D01*
X013142Y027894D01*
X013892Y027826D02*
X013892Y027826D01*
X012533Y026330D02*
X028652Y026330D01*
X028940Y025832D02*
X025201Y025832D01*
X024520Y025832D02*
X021531Y025832D01*
X021791Y025333D02*
X024311Y025333D01*
X024523Y024835D02*
X021791Y024835D01*
X021791Y024336D02*
X024311Y024336D01*
X025411Y024336D02*
X026811Y024336D01*
X026526Y023838D02*
X021791Y023838D01*
X025226Y022342D02*
X027030Y022342D01*
X026811Y021843D02*
X025020Y021843D01*
X025518Y021345D02*
X027033Y021345D01*
X026811Y020846D02*
X026071Y020846D01*
X026359Y020348D02*
X026971Y020348D01*
X026971Y019849D02*
X025407Y019849D01*
X025235Y019351D02*
X026811Y019351D01*
X027751Y019849D02*
X034131Y019849D01*
X034393Y019351D02*
X027911Y019351D01*
X027751Y020348D02*
X028523Y020348D01*
X029198Y020348D02*
X029523Y020348D01*
X030198Y020348D02*
X030523Y020348D01*
X031198Y020348D02*
X031523Y020348D01*
X031427Y021345D02*
X031294Y021345D01*
X031311Y021843D02*
X030520Y021843D01*
X030021Y022342D02*
X031530Y022342D01*
X031311Y022840D02*
X029523Y022840D01*
X029024Y023339D02*
X030864Y023339D01*
X030366Y023838D02*
X028195Y023838D01*
X028115Y024434D02*
X028386Y024434D01*
X028636Y024538D01*
X028827Y024729D01*
X028931Y024979D01*
X028931Y025250D01*
X028827Y025499D01*
X028636Y025691D01*
X028386Y025794D01*
X028115Y025794D01*
X027865Y025691D01*
X027674Y025499D01*
X027571Y025250D01*
X027571Y024979D01*
X027674Y024729D01*
X027865Y024538D01*
X028115Y024434D01*
X027791Y024336D02*
X028811Y024336D01*
X028871Y024835D02*
X028971Y024835D01*
X028971Y025333D02*
X028896Y025333D01*
X027605Y025333D02*
X027116Y025333D01*
X027528Y024835D02*
X027630Y024835D01*
X026311Y023339D02*
X025407Y023339D01*
X025407Y022840D02*
X026931Y022840D01*
X027063Y027327D02*
X027658Y027327D01*
X027577Y027826D02*
X027144Y027826D01*
X026678Y028324D02*
X028043Y028324D01*
X028458Y028324D02*
X028756Y028324D01*
X028924Y027826D02*
X029102Y027826D01*
X029682Y027826D02*
X030883Y027826D01*
X030621Y028324D02*
X030028Y028324D01*
X029863Y028823D02*
X030743Y028823D01*
X031839Y027826D02*
X033039Y027826D01*
X032693Y028324D02*
X032101Y028324D01*
X031979Y028823D02*
X032858Y028823D01*
X033800Y028823D02*
X034300Y028823D01*
X034111Y028324D02*
X033965Y028324D01*
X034178Y027826D02*
X033619Y027826D01*
X035724Y027327D02*
X035905Y027327D01*
X028921Y028823D02*
X008937Y028823D01*
X009141Y028324D02*
X009409Y028324D01*
X009273Y027826D02*
X009078Y027826D01*
X009431Y027327D02*
X008669Y027327D01*
X009431Y026829D02*
X002473Y026829D01*
X002488Y026814D02*
X002280Y027022D01*
X002008Y027134D01*
X001861Y027134D01*
X001861Y026395D01*
X001860Y026395D01*
X001860Y027134D01*
X001713Y027134D01*
X001441Y027022D01*
X001233Y026814D01*
X001121Y026542D01*
X001121Y026394D01*
X001121Y026247D01*
X001233Y025975D01*
X001441Y025767D01*
X001713Y025654D01*
X001860Y025654D01*
X001860Y026394D01*
X001121Y026394D01*
X001860Y026394D01*
X001860Y026394D01*
X001861Y026394D01*
X002601Y026394D01*
X002601Y026542D01*
X002488Y026814D01*
X001861Y026829D02*
X001860Y026829D01*
X001924Y027327D02*
X003052Y027327D01*
X002643Y027826D02*
X002344Y027826D01*
X002411Y028324D02*
X002581Y028324D01*
X002784Y028823D02*
X002222Y028823D01*
X000797Y027327D02*
X000613Y027327D01*
X000613Y026829D02*
X001249Y026829D01*
X001121Y026330D02*
X000613Y026330D01*
X000613Y025832D02*
X001377Y025832D01*
X001860Y025832D02*
X001861Y025832D01*
X002344Y025832D02*
X002431Y025832D01*
X002601Y026330D02*
X002688Y026330D01*
X001861Y026330D02*
X001860Y026330D01*
X002431Y025333D02*
X000613Y025333D01*
X000613Y024835D02*
X002431Y024835D01*
X002431Y024336D02*
X000613Y024336D01*
X000613Y023838D02*
X002431Y023838D01*
X002431Y023339D02*
X000613Y023339D01*
X000613Y022840D02*
X001317Y022840D01*
X001161Y022342D02*
X000613Y022342D01*
X000613Y021843D02*
X001179Y021843D01*
X001080Y021345D02*
X000613Y021345D01*
X000613Y020846D02*
X000980Y020846D01*
X000753Y020348D02*
X000613Y020348D01*
X000613Y019849D02*
X000726Y019849D01*
X000801Y019351D02*
X000613Y019351D01*
X000613Y018852D02*
X000801Y018852D01*
X000613Y018354D02*
X001203Y018354D01*
X001361Y018894D02*
X002861Y018894D01*
X003861Y017894D01*
X008361Y017894D01*
X009041Y017855D02*
X009431Y017855D01*
X009790Y017356D02*
X008997Y017356D01*
X009029Y018354D02*
X009431Y018354D01*
X009431Y018852D02*
X009041Y018852D01*
X008866Y019351D02*
X009431Y019351D01*
X009298Y019849D02*
X009041Y019849D01*
X003696Y017356D02*
X002796Y017356D01*
X003108Y017855D02*
X000613Y017855D01*
X000613Y017356D02*
X000714Y017356D01*
X000686Y016858D02*
X000613Y016858D01*
X000613Y016359D02*
X000751Y016359D01*
X001360Y016359D02*
X001361Y016359D01*
X001360Y016858D02*
X001361Y016858D01*
X001360Y017356D02*
X001361Y017356D01*
X001971Y016359D02*
X001998Y016359D01*
X003226Y015362D02*
X000613Y015362D01*
X000613Y015861D02*
X003429Y015861D01*
X003522Y013867D02*
X035905Y013867D01*
X035905Y013368D02*
X033165Y013368D01*
X033411Y012870D02*
X035905Y012870D01*
X035905Y015362D02*
X027606Y015362D01*
X027911Y015861D02*
X028786Y015861D01*
X027045Y017356D02*
X026931Y017356D01*
X033935Y015861D02*
X035905Y015861D01*
X035905Y016359D02*
X034434Y016359D01*
X034932Y016858D02*
X035905Y016858D01*
X035905Y017356D02*
X035447Y017356D01*
X035491Y017855D02*
X035905Y017855D01*
X035905Y018354D02*
X035479Y018354D01*
X035591Y018852D02*
X035905Y018852D01*
X035905Y019351D02*
X035416Y019351D01*
X035491Y019849D02*
X035905Y019849D01*
X035905Y020348D02*
X035326Y020348D01*
X035591Y020846D02*
X035905Y020846D01*
X026263Y028324D02*
X016571Y028324D01*
X018205Y027327D02*
X018516Y027327D01*
X019205Y027327D02*
X019516Y027327D01*
X020205Y027327D02*
X020516Y027327D01*
X013690Y025832D02*
X013106Y025832D01*
X010651Y028324D02*
X010557Y028324D01*
X009431Y026330D02*
X009033Y026330D01*
X007552Y027327D02*
X004169Y027327D01*
X004578Y027826D02*
X007143Y027826D01*
X007081Y028324D02*
X004641Y028324D01*
X004437Y028823D02*
X007284Y028823D01*
X006222Y026330D02*
X005999Y026330D01*
X002431Y022840D02*
X002404Y022840D01*
X001861Y022394D02*
X001361Y019894D01*
X001361Y018894D01*
X000613Y013867D02*
X003199Y013867D01*
X002863Y013368D02*
X000613Y013368D01*
X000613Y012870D02*
X003311Y012870D01*
X003606Y012371D02*
X000613Y012371D01*
X000613Y011872D02*
X003676Y011872D01*
X004115Y012371D02*
X004606Y012371D01*
X005115Y012371D02*
X005606Y012371D01*
X005676Y011872D02*
X005045Y011872D01*
X005271Y011374D02*
X005451Y011374D01*
X005679Y010875D02*
X005042Y010875D01*
X005271Y010377D02*
X005451Y010377D01*
X003682Y009878D02*
X000613Y009878D01*
X000613Y010377D02*
X003451Y010377D01*
X003679Y010875D02*
X000613Y010875D01*
X000613Y011374D02*
X003451Y011374D01*
X003451Y009380D02*
X000613Y009380D01*
X000613Y008881D02*
X003711Y008881D01*
X004581Y008383D02*
X000613Y008383D01*
X000613Y007884D02*
X004391Y007884D01*
X004391Y007894D02*
X005110Y007894D01*
X005110Y007894D01*
X004391Y007894D01*
X003912Y007386D02*
X000613Y007386D01*
X000613Y006887D02*
X003891Y006887D01*
X003918Y006389D02*
X000613Y006389D01*
X004369Y005391D02*
X008353Y005391D01*
X008869Y005391D02*
X009853Y005391D01*
X010369Y005391D02*
X014353Y005391D01*
X014869Y005391D02*
X015853Y005391D01*
X016369Y005391D02*
X020353Y005391D01*
X020869Y005391D02*
X021853Y005391D01*
X022369Y005391D02*
X026353Y005391D01*
X025709Y004893D02*
X023012Y004893D01*
X023141Y004394D02*
X025581Y004394D01*
X025709Y003896D02*
X023012Y003896D01*
X022610Y006389D02*
X022611Y006389D01*
X022610Y006887D02*
X022611Y006887D01*
X021891Y006887D02*
X020291Y006887D01*
X020564Y007386D02*
X021912Y007386D01*
X022391Y007884D02*
X020791Y007884D01*
X020584Y008383D02*
X022581Y008383D01*
X022391Y007894D02*
X023110Y007894D01*
X022391Y007894D01*
X023110Y007894D02*
X023110Y007894D01*
X024584Y008383D02*
X024637Y008383D01*
X025584Y008383D02*
X025637Y008383D01*
X026584Y008383D02*
X028581Y008383D01*
X028391Y007894D02*
X029110Y007894D01*
X028391Y007894D01*
X028391Y007884D02*
X026791Y007884D01*
X026564Y007386D02*
X027912Y007386D01*
X027891Y006887D02*
X026291Y006887D01*
X026066Y006389D02*
X027918Y006389D01*
X028610Y006389D02*
X028611Y006389D01*
X028610Y006887D02*
X028611Y006887D01*
X029110Y007894D02*
X029110Y007894D01*
X030584Y008383D02*
X030637Y008383D01*
X031584Y008383D02*
X031637Y008383D01*
X031155Y006389D02*
X031066Y006389D01*
X030155Y006389D02*
X030066Y006389D01*
X029012Y004893D02*
X031709Y004893D01*
X031581Y004394D02*
X029141Y004394D01*
X029012Y003896D02*
X031709Y003896D01*
X032353Y005391D02*
X028369Y005391D01*
X027853Y005391D02*
X026869Y005391D01*
X025155Y006389D02*
X025066Y006389D01*
X024155Y006389D02*
X024066Y006389D01*
X021918Y006389D02*
X020066Y006389D01*
X019155Y006389D02*
X019066Y006389D01*
X018155Y006389D02*
X018066Y006389D01*
X016611Y006389D02*
X016610Y006389D01*
X016610Y006887D02*
X016611Y006887D01*
X015891Y006887D02*
X014291Y006887D01*
X014564Y007386D02*
X015912Y007386D01*
X016391Y007884D02*
X014791Y007884D01*
X014584Y008383D02*
X016581Y008383D01*
X016391Y007894D02*
X017110Y007894D01*
X016391Y007894D01*
X017110Y007894D02*
X017110Y007894D01*
X018584Y008383D02*
X018637Y008383D01*
X019584Y008383D02*
X019637Y008383D01*
X021271Y010377D02*
X021451Y010377D01*
X025271Y010377D02*
X025451Y010377D01*
X029271Y010377D02*
X029451Y010377D01*
X032869Y005391D02*
X034825Y005391D01*
X034236Y004893D02*
X033512Y004893D01*
X033641Y004394D02*
X034111Y004394D01*
X034236Y003896D02*
X033512Y003896D01*
X035496Y005391D02*
X035905Y005391D01*
X019709Y004893D02*
X017012Y004893D01*
X017141Y004394D02*
X019581Y004394D01*
X019709Y003896D02*
X017012Y003896D01*
X015918Y006389D02*
X014066Y006389D01*
X013155Y006389D02*
X013066Y006389D01*
X012155Y006389D02*
X012066Y006389D01*
X010611Y006389D02*
X010610Y006389D01*
X009918Y006389D02*
X008066Y006389D01*
X008291Y006887D02*
X009891Y006887D01*
X009912Y007386D02*
X008564Y007386D01*
X008791Y007884D02*
X010391Y007884D01*
X010391Y007894D02*
X011110Y007894D01*
X011110Y007894D01*
X010391Y007894D01*
X010581Y008383D02*
X008584Y008383D01*
X007637Y008383D02*
X007584Y008383D01*
X006637Y008383D02*
X006584Y008383D01*
X004610Y006887D02*
X004611Y006887D01*
X004610Y006389D02*
X004611Y006389D01*
X006066Y006389D02*
X006155Y006389D01*
X007066Y006389D02*
X007155Y006389D01*
X007709Y004893D02*
X005012Y004893D01*
X005141Y004394D02*
X007581Y004394D01*
X007709Y003896D02*
X005012Y003896D01*
X010610Y006887D02*
X010611Y006887D01*
X011012Y004893D02*
X013709Y004893D01*
X013581Y004394D02*
X011141Y004394D01*
X011012Y003896D02*
X013709Y003896D01*
X013637Y008383D02*
X013584Y008383D01*
X012637Y008383D02*
X012584Y008383D01*
X013271Y010377D02*
X013451Y010377D01*
X017271Y010377D02*
X017451Y010377D01*
X016876Y016858D02*
X019471Y016858D01*
X019389Y017356D02*
X019333Y017356D01*
X018389Y017356D02*
X018333Y017356D01*
X017389Y017356D02*
X017333Y017356D01*
X009451Y010377D02*
X009271Y010377D01*
X007679Y010875D02*
X007042Y010875D01*
X007271Y011374D02*
X007451Y011374D01*
X007676Y011872D02*
X007045Y011872D01*
X007115Y012371D02*
X007606Y012371D01*
X008115Y012371D02*
X008606Y012371D01*
X006606Y012371D02*
X006115Y012371D01*
X004725Y013638D02*
X004725Y013638D01*
X007271Y010377D02*
X007451Y010377D01*
D28*
X033329Y024426D02*
X033361Y024394D01*
M02*
