G75*
G70*
%OFA0B0*%
%FSLAX24Y24*%
%IPPOS*%
%LPD*%
%AMOC8*
5,1,8,0,0,1.08239X$1,22.5*
%
%ADD10OC8,0.0630*%
%ADD11C,0.0860*%
%ADD12R,0.0740X0.0740*%
%ADD13C,0.0740*%
%ADD14C,0.0600*%
%ADD15OC8,0.0480*%
%ADD16C,0.0780*%
%ADD17C,0.0650*%
%ADD18R,0.0650X0.0650*%
%ADD19C,0.0480*%
%ADD20C,0.0480*%
%ADD21R,0.0800X0.0800*%
%ADD22C,0.0800*%
%ADD23R,0.1000X0.0500*%
%ADD24C,0.0240*%
%ADD25C,0.0376*%
%ADD26C,0.0500*%
%ADD27C,0.0560*%
%ADD28C,0.0160*%
D10*
X028861Y017894D03*
X029861Y017894D03*
X030861Y017894D03*
X031861Y017894D03*
X031861Y020894D03*
X030861Y020894D03*
X029861Y020894D03*
X028861Y020894D03*
D11*
X029392Y026426D03*
X030376Y026426D03*
X032345Y026426D03*
X033329Y026426D03*
X031361Y028394D03*
D12*
X034811Y017894D03*
X028611Y006894D03*
X022611Y006894D03*
X016611Y006894D03*
X010611Y006894D03*
X004611Y006894D03*
X008361Y017894D03*
X007611Y025694D03*
D13*
X006611Y025694D03*
X005611Y025694D03*
X004611Y025694D03*
X005111Y024694D03*
X004111Y024694D03*
X006111Y024694D03*
X007111Y024694D03*
X008361Y019894D03*
X008361Y018894D03*
X008111Y007894D03*
X007111Y007894D03*
X006111Y007894D03*
X005111Y007894D03*
X005611Y006894D03*
X006611Y006894D03*
X007611Y006894D03*
X011111Y007894D03*
X012111Y007894D03*
X013111Y007894D03*
X014111Y007894D03*
X013611Y006894D03*
X012611Y006894D03*
X011611Y006894D03*
X017111Y007894D03*
X018111Y007894D03*
X019111Y007894D03*
X020111Y007894D03*
X019611Y006894D03*
X018611Y006894D03*
X017611Y006894D03*
X023111Y007894D03*
X024111Y007894D03*
X025111Y007894D03*
X026111Y007894D03*
X025611Y006894D03*
X024611Y006894D03*
X023611Y006894D03*
X029111Y007894D03*
X030111Y007894D03*
X031111Y007894D03*
X032111Y007894D03*
X031611Y006894D03*
X030611Y006894D03*
X029611Y006894D03*
X034911Y018894D03*
X034811Y019894D03*
X034911Y020894D03*
X028251Y025114D03*
X026471Y025114D03*
X026471Y027674D03*
X028251Y027674D03*
D14*
X028061Y011394D02*
X028661Y011394D01*
X028661Y010394D02*
X028061Y010394D01*
X028061Y009394D02*
X028661Y009394D01*
X030061Y009394D02*
X030661Y009394D01*
X030661Y010394D02*
X030061Y010394D01*
X030061Y011394D02*
X030661Y011394D01*
X032061Y011394D02*
X032661Y011394D01*
X032661Y010394D02*
X032061Y010394D01*
X032061Y009394D02*
X032661Y009394D01*
X026661Y009394D02*
X026061Y009394D01*
X026061Y010394D02*
X026661Y010394D01*
X026661Y011394D02*
X026061Y011394D01*
X024661Y011394D02*
X024061Y011394D01*
X024061Y010394D02*
X024661Y010394D01*
X024661Y009394D02*
X024061Y009394D01*
X022661Y009394D02*
X022061Y009394D01*
X022061Y010394D02*
X022661Y010394D01*
X022661Y011394D02*
X022061Y011394D01*
X020661Y011394D02*
X020061Y011394D01*
X020061Y010394D02*
X020661Y010394D01*
X020661Y009394D02*
X020061Y009394D01*
X018661Y009394D02*
X018061Y009394D01*
X018061Y010394D02*
X018661Y010394D01*
X018661Y011394D02*
X018061Y011394D01*
X016661Y011394D02*
X016061Y011394D01*
X016061Y010394D02*
X016661Y010394D01*
X016661Y009394D02*
X016061Y009394D01*
X014661Y009394D02*
X014061Y009394D01*
X014061Y010394D02*
X014661Y010394D01*
X014661Y011394D02*
X014061Y011394D01*
X012661Y011394D02*
X012061Y011394D01*
X012061Y010394D02*
X012661Y010394D01*
X012661Y009394D02*
X012061Y009394D01*
X010661Y009394D02*
X010061Y009394D01*
X010061Y010394D02*
X010661Y010394D01*
X010661Y011394D02*
X010061Y011394D01*
X008661Y011394D02*
X008061Y011394D01*
X008061Y010394D02*
X008661Y010394D01*
X008661Y009394D02*
X008061Y009394D01*
X006661Y009394D02*
X006061Y009394D01*
X006061Y010394D02*
X006661Y010394D01*
X006661Y011394D02*
X006061Y011394D01*
X004661Y011394D02*
X004061Y011394D01*
X004061Y010394D02*
X004661Y010394D01*
X004661Y009394D02*
X004061Y009394D01*
D15*
X003861Y012894D03*
X004861Y012894D03*
X005861Y012894D03*
X006861Y012894D03*
X007861Y012894D03*
X008861Y012894D03*
X009861Y012894D03*
X010861Y012894D03*
X011861Y012894D03*
X012861Y012894D03*
X013861Y012894D03*
X014861Y012894D03*
X015861Y012894D03*
X016861Y012894D03*
X017861Y012894D03*
X018861Y012894D03*
X019861Y012894D03*
X020861Y012894D03*
X021861Y012894D03*
X022861Y012894D03*
X023861Y012894D03*
X024861Y012894D03*
X025861Y012894D03*
X026861Y012894D03*
X027861Y012894D03*
X028861Y012894D03*
X029861Y012894D03*
X030861Y012894D03*
X031861Y012894D03*
X032861Y012894D03*
X029861Y016894D03*
X028861Y016894D03*
X027361Y016894D03*
X027361Y015894D03*
X027361Y018394D03*
X027361Y019394D03*
X027361Y020894D03*
X027361Y021894D03*
X027861Y023394D03*
X026861Y023394D03*
X024861Y024394D03*
X024861Y025394D03*
X020861Y026894D03*
X019861Y026894D03*
X018861Y026894D03*
X017861Y026894D03*
X019361Y024894D03*
X020361Y024894D03*
X020861Y018894D03*
X021861Y018894D03*
X017861Y018894D03*
X016861Y018894D03*
X004861Y018894D03*
X004861Y019894D03*
X029361Y024394D03*
X030361Y024394D03*
X031861Y022894D03*
X031861Y021894D03*
X032361Y024394D03*
X033361Y024394D03*
D16*
X001861Y022394D03*
X001861Y026394D03*
D17*
X002361Y019894D03*
X002361Y016894D03*
X003861Y015394D03*
D18*
X004861Y015394D03*
X001361Y016894D03*
X001361Y019894D03*
D19*
X011857Y019751D02*
X011857Y020231D01*
X012857Y020231D02*
X012857Y019751D01*
X013857Y019751D02*
X013857Y020231D01*
X014857Y020231D02*
X014857Y019751D01*
X015857Y019751D02*
X015857Y020231D01*
X016857Y020231D02*
X016857Y019751D01*
X017857Y019751D02*
X017857Y020231D01*
X018857Y020231D02*
X018857Y019751D01*
X019857Y019751D02*
X019857Y020231D01*
X020857Y020231D02*
X020857Y019751D01*
X021857Y019751D02*
X021857Y020231D01*
X022857Y020231D02*
X022857Y019751D01*
X023857Y019751D02*
X023857Y020231D01*
X024857Y020231D02*
X024857Y019751D01*
X024861Y018134D02*
X024861Y017654D01*
X025861Y017654D02*
X025861Y018134D01*
X023861Y018134D02*
X023861Y017654D01*
X022861Y017654D02*
X022861Y018134D01*
X021861Y018134D02*
X021861Y017654D01*
X020861Y017654D02*
X020861Y018134D01*
X019861Y018134D02*
X019861Y017654D01*
X018861Y017654D02*
X018861Y018134D01*
X017861Y018134D02*
X017861Y017654D01*
X016861Y017654D02*
X016861Y018134D01*
X015861Y018134D02*
X015861Y017654D01*
X014861Y017654D02*
X014861Y018134D01*
X013861Y018134D02*
X013861Y017654D01*
X012861Y017654D02*
X012861Y018134D01*
X012861Y015134D02*
X012861Y014654D01*
X013861Y014654D02*
X013861Y015134D01*
X014861Y015134D02*
X014861Y014654D01*
X015861Y014654D02*
X015861Y015134D01*
X016861Y015134D02*
X016861Y014654D01*
X017861Y014654D02*
X017861Y015134D01*
X018861Y015134D02*
X018861Y014654D01*
X019861Y014654D02*
X019861Y015134D01*
X020861Y015134D02*
X020861Y014654D01*
X021861Y014654D02*
X021861Y015134D01*
X022861Y015134D02*
X022861Y014654D01*
X023861Y014654D02*
X023861Y015134D01*
X024861Y015134D02*
X024861Y014654D01*
X025861Y014654D02*
X025861Y015134D01*
X024857Y022751D02*
X024857Y023231D01*
X023857Y023231D02*
X023857Y022751D01*
X022857Y022751D02*
X022857Y023231D01*
X021857Y023231D02*
X021857Y022751D01*
X020857Y022751D02*
X020857Y023231D01*
X019857Y023231D02*
X019857Y022751D01*
X018857Y022751D02*
X018857Y023231D01*
X017857Y023231D02*
X017857Y022751D01*
X016857Y022751D02*
X016857Y023231D01*
X015857Y023231D02*
X015857Y022751D01*
X014857Y022751D02*
X014857Y023231D01*
X013857Y023231D02*
X013857Y022751D01*
X012857Y022751D02*
X012857Y023231D01*
X011857Y023231D02*
X011857Y022751D01*
D20*
X015411Y024894D03*
X017311Y024894D03*
D21*
X015861Y027894D03*
X011361Y027894D03*
D22*
X009983Y027894D03*
X013892Y027894D03*
D23*
X002361Y014394D03*
X002361Y013394D03*
X002361Y012394D03*
D24*
X002361Y011394D01*
X003861Y011894D02*
X004361Y011394D01*
X003861Y011894D02*
X003861Y012894D01*
X003861Y013394D01*
X004361Y013894D01*
X004861Y013894D01*
X006361Y015394D01*
X006861Y015394D01*
X007361Y015894D01*
X007861Y015894D01*
X008861Y016894D01*
X012361Y016894D01*
X012861Y017394D01*
X012861Y017894D01*
X013861Y017894D02*
X013861Y017394D01*
X014361Y016894D01*
X018361Y016894D01*
X018861Y017394D01*
X018861Y017894D01*
X018861Y019894D01*
X018861Y020894D01*
X019361Y021394D01*
X019861Y021394D01*
X020361Y020894D02*
X019861Y020394D01*
X019861Y019894D01*
X019857Y019898D01*
X019857Y019991D01*
X019361Y020394D02*
X019361Y016394D01*
X023861Y016394D01*
X023861Y017894D01*
X024861Y018894D02*
X024361Y019394D01*
X024361Y020394D01*
X023861Y020894D01*
X020361Y020894D01*
X018857Y019991D02*
X018857Y019898D01*
X018861Y019894D01*
X017861Y019894D02*
X017857Y019898D01*
X017764Y019991D01*
X016857Y019991D01*
X016361Y019394D02*
X016861Y018894D01*
X016361Y019394D02*
X016361Y020894D01*
X015361Y021894D01*
X009861Y021894D01*
X009361Y022394D01*
X009361Y025394D01*
X009861Y025394D02*
X009861Y023894D01*
X008361Y025394D02*
X008361Y021894D01*
X009361Y020894D02*
X014361Y020894D01*
X014861Y021394D02*
X015861Y020394D01*
X015861Y019894D01*
X015857Y019898D01*
X015857Y019991D01*
X014861Y021394D02*
X002361Y021394D01*
X004861Y019894D02*
X005361Y019894D01*
X005861Y019394D01*
X006361Y019894D01*
X008361Y019894D01*
X009361Y020894D01*
X008361Y018894D02*
X012861Y018894D01*
X013861Y017894D01*
X014361Y016394D02*
X014861Y015894D01*
X025361Y015894D01*
X025861Y016394D01*
X025861Y017894D01*
X024861Y018894D02*
X030361Y018894D01*
X030861Y018394D01*
X030861Y017894D01*
X034811Y019894D02*
X026361Y019894D01*
X025861Y020394D01*
X027861Y021394D02*
X028361Y021894D01*
X030361Y021894D01*
X030861Y022394D01*
X034361Y022394D01*
X034861Y021894D01*
X034861Y020894D01*
X034911Y020894D01*
X027861Y021394D02*
X023361Y021394D01*
X022857Y021898D01*
X022857Y022991D01*
X022361Y024394D02*
X020861Y024394D01*
X019861Y023394D01*
X019861Y022894D01*
X019857Y022898D01*
X019857Y022991D01*
X018857Y022991D02*
X018857Y022898D01*
X018861Y022894D01*
X018861Y023394D01*
X019361Y023894D01*
X019361Y024894D01*
X017361Y024894D02*
X016857Y024391D01*
X016857Y022991D01*
X015857Y022991D02*
X015857Y024398D01*
X015361Y024894D01*
X015411Y024894D01*
X017861Y026894D01*
X019861Y026894D02*
X017311Y024894D01*
X017361Y024894D01*
X018861Y022894D02*
X018861Y022394D01*
X018361Y021894D01*
X018361Y020894D01*
X017857Y020391D01*
X017857Y019991D01*
X017857Y019898D01*
X013361Y016394D02*
X009861Y016394D01*
X008361Y015894D02*
X007861Y015394D01*
X008361Y015894D02*
X013361Y015894D01*
X013861Y015394D01*
X013861Y014894D01*
X012861Y014894D02*
X006361Y014894D01*
X005861Y014394D01*
X005861Y012894D01*
X005861Y011894D01*
X006361Y011394D01*
X007861Y011894D02*
X008361Y011394D01*
X007861Y011894D02*
X007861Y012894D01*
X007861Y014394D01*
X009861Y014394D02*
X009861Y012894D01*
X009861Y011894D01*
X010361Y011394D01*
X011861Y011894D02*
X012361Y011394D01*
X011861Y011894D02*
X011861Y012894D01*
X012361Y013394D01*
X013361Y013394D01*
X013861Y013894D01*
X015361Y013894D01*
X015861Y014394D01*
X015861Y014894D01*
X016861Y014894D02*
X016861Y014394D01*
X015861Y013394D01*
X014361Y013394D01*
X013861Y012894D01*
X013861Y011894D01*
X014361Y011394D01*
X015861Y011894D02*
X016361Y011394D01*
X015861Y011894D02*
X015861Y012894D01*
X016361Y013394D01*
X017361Y013394D01*
X017861Y013894D01*
X017861Y014894D01*
X018861Y014894D02*
X018861Y013894D01*
X017861Y012894D01*
X017861Y011894D01*
X018361Y011394D01*
X019861Y011894D02*
X020361Y011394D01*
X019861Y011894D02*
X019861Y012894D01*
X019861Y014894D01*
X020861Y014894D02*
X020861Y013894D01*
X021861Y012894D01*
X021861Y011894D01*
X022361Y011394D01*
X023861Y011894D02*
X024361Y011394D01*
X023861Y011894D02*
X023861Y012894D01*
X023361Y013394D01*
X022361Y013394D01*
X021861Y013894D01*
X021861Y014894D01*
X022861Y014894D02*
X022861Y014394D01*
X023861Y013394D01*
X025361Y013394D01*
X025861Y012894D01*
X025861Y011894D01*
X026361Y011394D01*
X027861Y011894D02*
X028361Y011394D01*
X027861Y011894D02*
X027861Y012894D01*
X027361Y013394D01*
X025861Y013394D01*
X025361Y013894D01*
X024361Y013894D01*
X023861Y014394D01*
X023861Y014894D01*
X024861Y014894D02*
X025861Y013894D01*
X027861Y013894D01*
X028361Y013394D01*
X029361Y013394D01*
X029861Y012894D01*
X029861Y011894D01*
X030361Y011394D01*
X031861Y011894D02*
X032361Y011394D01*
X031861Y011894D02*
X031861Y012894D01*
X031361Y013394D01*
X030361Y013394D01*
X029861Y013894D01*
X028361Y013894D01*
X027861Y014394D01*
X026361Y014394D01*
X025861Y014894D01*
X024861Y022894D02*
X024861Y022991D01*
X024861Y023894D01*
X024861Y024394D01*
X024861Y023894D02*
X024857Y023891D01*
X024857Y022991D02*
X024861Y022991D01*
X024861Y025394D02*
X023361Y025394D01*
X022361Y024394D01*
X013361Y023894D02*
X012861Y024394D01*
X012861Y025394D01*
X008361Y025394D02*
X008061Y025694D01*
X007611Y025694D01*
X005861Y019394D02*
X005861Y016394D01*
X004861Y015394D01*
X003861Y014394D01*
X002361Y014394D01*
X002361Y013394D02*
X003361Y013394D01*
X013361Y016394D02*
X014861Y014894D01*
D25*
X014361Y016394D03*
X009861Y016394D03*
X007861Y015394D03*
X007861Y014394D03*
X009861Y014394D03*
X003361Y013394D03*
X002361Y011394D03*
X002361Y021394D03*
X008361Y021894D03*
X009861Y023894D03*
X009861Y025394D03*
X009361Y025394D03*
X012861Y025394D03*
X013361Y023894D03*
X014361Y020894D03*
X019361Y020394D03*
X019861Y021394D03*
X025861Y020394D03*
D26*
X002201Y003750D02*
X002060Y003609D01*
X003439Y003609D01*
X003286Y003762D01*
X003151Y003997D01*
X003081Y004259D01*
X003081Y004530D01*
X003151Y004792D01*
X003286Y005027D01*
X003478Y005218D01*
X003713Y005354D01*
X003975Y005424D01*
X004246Y005424D01*
X004508Y005354D01*
X004743Y005218D01*
X004935Y005027D01*
X005070Y004792D01*
X005141Y004530D01*
X005141Y004259D01*
X005070Y003997D01*
X004935Y003762D01*
X004782Y003609D01*
X007939Y003609D01*
X007786Y003762D01*
X007651Y003997D01*
X007581Y004259D01*
X007581Y004530D01*
X007651Y004792D01*
X007786Y005027D01*
X007978Y005218D01*
X008213Y005354D01*
X008475Y005424D01*
X008746Y005424D01*
X009008Y005354D01*
X009243Y005218D01*
X009361Y005101D01*
X009478Y005218D01*
X009713Y005354D01*
X009975Y005424D01*
X010246Y005424D01*
X010508Y005354D01*
X010743Y005218D01*
X010935Y005027D01*
X011070Y004792D01*
X011141Y004530D01*
X011141Y004259D01*
X011070Y003997D01*
X010935Y003762D01*
X010782Y003609D01*
X013939Y003609D01*
X013786Y003762D01*
X013651Y003997D01*
X013581Y004259D01*
X013581Y004530D01*
X013651Y004792D01*
X013786Y005027D01*
X013978Y005218D01*
X014213Y005354D01*
X014475Y005424D01*
X014746Y005424D01*
X015008Y005354D01*
X015243Y005218D01*
X015361Y005101D01*
X015478Y005218D01*
X015713Y005354D01*
X015975Y005424D01*
X016246Y005424D01*
X016508Y005354D01*
X016743Y005218D01*
X016935Y005027D01*
X017070Y004792D01*
X017141Y004530D01*
X017141Y004259D01*
X017070Y003997D01*
X016935Y003762D01*
X016782Y003609D01*
X019939Y003609D01*
X019786Y003762D01*
X019651Y003997D01*
X019581Y004259D01*
X019581Y004530D01*
X019651Y004792D01*
X019786Y005027D01*
X019978Y005218D01*
X020213Y005354D01*
X020475Y005424D01*
X020746Y005424D01*
X021008Y005354D01*
X021243Y005218D01*
X021361Y005101D01*
X021478Y005218D01*
X021713Y005354D01*
X021975Y005424D01*
X022246Y005424D01*
X022508Y005354D01*
X022743Y005218D01*
X022935Y005027D01*
X023070Y004792D01*
X023141Y004530D01*
X023141Y004259D01*
X023070Y003997D01*
X022935Y003762D01*
X022782Y003609D01*
X025939Y003609D01*
X025786Y003762D01*
X025651Y003997D01*
X025581Y004259D01*
X025581Y004530D01*
X025651Y004792D01*
X025786Y005027D01*
X025978Y005218D01*
X026213Y005354D01*
X026475Y005424D01*
X026746Y005424D01*
X027008Y005354D01*
X027243Y005218D01*
X027361Y005101D01*
X027478Y005218D01*
X027713Y005354D01*
X027975Y005424D01*
X028246Y005424D01*
X028508Y005354D01*
X028743Y005218D01*
X028935Y005027D01*
X029070Y004792D01*
X029141Y004530D01*
X029141Y004259D01*
X029070Y003997D01*
X028935Y003762D01*
X028782Y003609D01*
X031939Y003609D01*
X031786Y003762D01*
X031651Y003997D01*
X031581Y004259D01*
X031581Y004530D01*
X031651Y004792D01*
X031786Y005027D01*
X031978Y005218D01*
X032213Y005354D01*
X032475Y005424D01*
X032746Y005424D01*
X033008Y005354D01*
X033243Y005218D01*
X033435Y005027D01*
X033570Y004792D01*
X033641Y004530D01*
X033641Y004259D01*
X033570Y003997D01*
X033435Y003762D01*
X033282Y003609D01*
X034461Y003609D01*
X034320Y003750D01*
X034182Y003989D01*
X034111Y004256D01*
X034111Y004533D01*
X034182Y004800D01*
X034320Y005039D01*
X034516Y005235D01*
X034755Y005373D01*
X035022Y005444D01*
X035299Y005444D01*
X035566Y005373D01*
X035805Y005235D01*
X035905Y005135D01*
X035905Y027474D01*
X035805Y027374D01*
X035566Y027236D01*
X035299Y027164D01*
X035022Y027164D01*
X034755Y027236D01*
X034516Y027374D01*
X034320Y027570D01*
X034182Y027809D01*
X034111Y028076D01*
X034111Y028353D01*
X034182Y028620D01*
X034320Y028859D01*
X034441Y028979D01*
X033830Y028979D01*
X033737Y028886D01*
X033868Y028755D01*
X033965Y028521D01*
X033965Y028268D01*
X033868Y028034D01*
X033689Y027855D01*
X033456Y027758D01*
X033203Y027758D01*
X032969Y027855D01*
X032790Y028034D01*
X032693Y028268D01*
X032693Y028521D01*
X032790Y028755D01*
X032922Y028886D01*
X032829Y028979D01*
X031879Y028979D01*
X032022Y028836D01*
X032141Y028549D01*
X032141Y028394D01*
X031361Y028394D01*
X031361Y028394D01*
X031361Y027614D01*
X031516Y027614D01*
X031802Y027733D01*
X032022Y027952D01*
X032141Y028239D01*
X032141Y028394D01*
X031361Y028394D01*
X031360Y028394D01*
X030581Y028394D01*
X030581Y028239D01*
X030699Y027952D01*
X030919Y027733D01*
X031205Y027614D01*
X031360Y027614D01*
X031360Y028394D01*
X031360Y028394D01*
X030581Y028394D01*
X030581Y028549D01*
X030699Y028836D01*
X030843Y028979D01*
X029893Y028979D01*
X029800Y028886D01*
X029931Y028755D01*
X030028Y028521D01*
X030028Y028268D01*
X029931Y028034D01*
X029752Y027855D01*
X029519Y027758D01*
X029266Y027758D01*
X029032Y027855D01*
X028853Y028034D01*
X028756Y028268D01*
X028756Y028521D01*
X028853Y028755D01*
X028985Y028886D01*
X028892Y028979D01*
X008782Y028979D01*
X008935Y028827D01*
X009070Y028592D01*
X009141Y028330D01*
X009141Y028059D01*
X009070Y027797D01*
X008935Y027562D01*
X008743Y027370D01*
X008508Y027235D01*
X008246Y027164D01*
X007975Y027164D01*
X007713Y027235D01*
X007478Y027370D01*
X007286Y027562D01*
X007151Y027797D01*
X007081Y028059D01*
X007081Y028330D01*
X007151Y028592D01*
X007286Y028827D01*
X007439Y028979D01*
X004282Y028979D01*
X004435Y028827D01*
X004570Y028592D01*
X004641Y028330D01*
X004641Y028059D01*
X004570Y027797D01*
X004435Y027562D01*
X004243Y027370D01*
X004008Y027235D01*
X003746Y027164D01*
X003475Y027164D01*
X003213Y027235D01*
X002978Y027370D01*
X002786Y027562D01*
X002651Y027797D01*
X002581Y028059D01*
X002581Y028330D01*
X002651Y028592D01*
X002786Y028827D01*
X002939Y028979D01*
X002080Y028979D01*
X002201Y028859D01*
X002339Y028620D01*
X002411Y028353D01*
X002411Y028076D01*
X002339Y027809D01*
X002201Y027570D01*
X002005Y027374D01*
X001766Y027236D01*
X001499Y027164D01*
X001222Y027164D01*
X000955Y027236D01*
X000716Y027374D01*
X000613Y027477D01*
X000613Y005131D01*
X000716Y005235D01*
X000955Y005373D01*
X001222Y005444D01*
X001499Y005444D01*
X001766Y005373D01*
X002005Y005235D01*
X002201Y005039D01*
X002339Y004800D01*
X002411Y004533D01*
X002411Y004256D01*
X002339Y003989D01*
X002201Y003750D01*
X002285Y003896D02*
X003209Y003896D01*
X003081Y004394D02*
X002411Y004394D01*
X002285Y004893D02*
X003209Y004893D01*
X003853Y005391D02*
X001696Y005391D01*
X001025Y005391D02*
X000613Y005391D01*
X000613Y005890D02*
X035905Y005890D01*
X035905Y006389D02*
X032181Y006389D01*
X032195Y006394D02*
X032361Y006560D01*
X032451Y006777D01*
X032451Y007012D01*
X032451Y007299D01*
X032496Y007318D01*
X032687Y007509D01*
X032791Y007759D01*
X032791Y007804D01*
X032978Y007804D01*
X033195Y007894D01*
X033361Y008060D01*
X033861Y008560D01*
X033951Y008777D01*
X033951Y009012D01*
X033951Y010512D01*
X033861Y010729D01*
X033695Y010894D01*
X033478Y010984D01*
X033243Y010984D01*
X033113Y010984D01*
X033178Y011049D01*
X033271Y011273D01*
X033271Y011516D01*
X033178Y011740D01*
X033006Y011911D01*
X032782Y012004D01*
X032359Y012004D01*
X032291Y012072D01*
X032291Y012547D01*
X032361Y012617D01*
X032633Y012344D01*
X033088Y012344D01*
X033411Y012666D01*
X033411Y013122D01*
X033088Y013444D01*
X032633Y013444D01*
X032361Y013172D01*
X032088Y013444D01*
X031919Y013444D01*
X031604Y013759D01*
X031446Y013824D01*
X031275Y013824D01*
X030539Y013824D01*
X030104Y014259D01*
X029946Y014324D01*
X029775Y014324D01*
X028539Y014324D01*
X028104Y014759D01*
X027946Y014824D01*
X027775Y014824D01*
X026539Y014824D01*
X026411Y014952D01*
X026411Y015244D01*
X026327Y015446D01*
X026172Y015601D01*
X025970Y015684D01*
X025759Y015684D01*
X026225Y016151D01*
X026291Y016309D01*
X026291Y016480D01*
X026291Y017306D01*
X026327Y017343D01*
X026411Y017545D01*
X026411Y018244D01*
X026327Y018446D01*
X026308Y018464D01*
X026811Y018464D01*
X026811Y018166D01*
X027133Y017844D01*
X027588Y017844D01*
X027911Y018166D01*
X027911Y018464D01*
X028547Y018464D01*
X028236Y018153D01*
X028236Y017635D01*
X028530Y017341D01*
X028311Y017122D01*
X028311Y016666D01*
X028633Y016344D01*
X029088Y016344D01*
X029332Y016588D01*
X029616Y016304D01*
X029860Y016304D01*
X029860Y016894D01*
X029861Y016894D01*
X029861Y016894D01*
X030451Y016894D01*
X030451Y016650D01*
X030105Y016304D01*
X029861Y016304D01*
X029861Y016894D01*
X030451Y016894D01*
X030451Y017139D01*
X030248Y017341D01*
X030389Y017482D01*
X030602Y017269D01*
X031119Y017269D01*
X031361Y017510D01*
X031602Y017269D01*
X032119Y017269D01*
X032486Y017635D01*
X032486Y018153D01*
X032119Y018519D01*
X031602Y018519D01*
X031361Y018278D01*
X031291Y018348D01*
X031291Y018480D01*
X031225Y018638D01*
X030725Y019138D01*
X030604Y019259D01*
X030446Y019324D01*
X027911Y019324D01*
X027911Y019464D01*
X034279Y019464D01*
X034371Y019373D01*
X034300Y019302D01*
X034191Y019038D01*
X034191Y018894D01*
X034191Y018751D01*
X034281Y018534D01*
X034265Y018527D01*
X034178Y018440D01*
X034131Y018326D01*
X034131Y017463D01*
X034178Y017349D01*
X034265Y017262D01*
X034379Y017214D01*
X035242Y017214D01*
X035356Y017262D01*
X035443Y017349D01*
X035491Y017463D01*
X035491Y018326D01*
X035452Y018418D01*
X035521Y018486D01*
X035631Y018751D01*
X035631Y018894D01*
X034911Y018894D01*
X034911Y018894D01*
X035631Y018894D01*
X035631Y019038D01*
X035521Y019302D01*
X035351Y019473D01*
X035387Y019509D01*
X035491Y019759D01*
X035491Y020030D01*
X035387Y020279D01*
X035322Y020344D01*
X035487Y020509D01*
X035591Y020759D01*
X035591Y021030D01*
X035487Y021279D01*
X035296Y021471D01*
X035291Y021473D01*
X035291Y021980D01*
X035225Y022138D01*
X035104Y022259D01*
X034604Y022759D01*
X034446Y022824D01*
X034275Y022824D01*
X032411Y022824D01*
X032411Y023122D01*
X032088Y023444D01*
X031633Y023444D01*
X031311Y023122D01*
X031311Y022824D01*
X030775Y022824D01*
X030617Y022759D01*
X030496Y022638D01*
X030183Y022324D01*
X028275Y022324D01*
X028117Y022259D01*
X027996Y022138D01*
X027951Y022092D01*
X027951Y022139D01*
X027605Y022484D01*
X027361Y022484D01*
X027361Y021895D01*
X027360Y021895D01*
X027360Y022484D01*
X027116Y022484D01*
X026771Y022139D01*
X026771Y021894D01*
X026771Y021824D01*
X023539Y021824D01*
X023287Y022076D01*
X023287Y022403D01*
X023323Y022439D01*
X023357Y022521D01*
X023391Y022439D01*
X023545Y022284D01*
X023748Y022201D01*
X023966Y022201D01*
X024169Y022284D01*
X024323Y022439D01*
X024357Y022521D01*
X024391Y022439D01*
X024545Y022284D01*
X024748Y022201D01*
X024966Y022201D01*
X025169Y022284D01*
X025323Y022439D01*
X025407Y022641D01*
X025407Y023340D01*
X025323Y023542D01*
X025291Y023575D01*
X025291Y023809D01*
X025291Y024046D01*
X025411Y024166D01*
X025411Y024622D01*
X025138Y024894D01*
X025411Y025166D01*
X025411Y025622D01*
X025088Y025944D01*
X024633Y025944D01*
X024513Y025824D01*
X023446Y025824D01*
X023275Y025824D01*
X023117Y025759D01*
X022183Y024824D01*
X020951Y024824D01*
X020951Y024894D01*
X020361Y024894D01*
X020361Y024894D01*
X020951Y024894D01*
X020951Y025139D01*
X020605Y025484D01*
X020361Y025484D01*
X020361Y024895D01*
X020360Y024895D01*
X020360Y025484D01*
X020116Y025484D01*
X019832Y025200D01*
X019588Y025444D01*
X019133Y025444D01*
X018811Y025122D01*
X018811Y024666D01*
X018931Y024546D01*
X018931Y024072D01*
X018617Y023759D01*
X018562Y023704D01*
X018545Y023697D01*
X018391Y023542D01*
X018379Y023513D01*
X018357Y023565D01*
X018191Y023731D01*
X017974Y023821D01*
X017857Y023821D01*
X017740Y023821D01*
X017523Y023731D01*
X017357Y023565D01*
X017335Y023513D01*
X017323Y023542D01*
X017287Y023579D01*
X017287Y024213D01*
X017419Y024344D01*
X017420Y024344D01*
X017622Y024428D01*
X017777Y024583D01*
X017857Y024776D01*
X019856Y026344D01*
X020088Y026344D01*
X020332Y026588D01*
X020616Y026304D01*
X020860Y026304D01*
X020860Y026894D01*
X020861Y026894D01*
X020861Y026894D01*
X021451Y026894D01*
X021451Y026650D01*
X021105Y026304D01*
X020861Y026304D01*
X020861Y026894D01*
X021451Y026894D01*
X021451Y027139D01*
X021105Y027484D01*
X020861Y027484D01*
X020861Y026895D01*
X020860Y026895D01*
X020860Y027484D01*
X020616Y027484D01*
X020332Y027200D01*
X020088Y027444D01*
X019633Y027444D01*
X019389Y027200D01*
X019105Y027484D01*
X018861Y027484D01*
X018861Y026895D01*
X018860Y026895D01*
X018860Y027484D01*
X018616Y027484D01*
X018332Y027200D01*
X018088Y027444D01*
X017633Y027444D01*
X017311Y027122D01*
X017311Y027000D01*
X015404Y025444D01*
X015301Y025444D01*
X015099Y025361D01*
X014944Y025206D01*
X014861Y025004D01*
X014861Y024785D01*
X014944Y024583D01*
X015099Y024428D01*
X015301Y024344D01*
X015303Y024344D01*
X015427Y024220D01*
X015427Y023579D01*
X015391Y023542D01*
X015357Y023461D01*
X015323Y023542D01*
X015169Y023697D01*
X014966Y023781D01*
X014748Y023781D01*
X014545Y023697D01*
X014391Y023542D01*
X014357Y023461D01*
X014323Y023542D01*
X014169Y023697D01*
X013966Y023781D01*
X013853Y023781D01*
X013859Y023795D01*
X013859Y023993D01*
X013783Y024176D01*
X013643Y024317D01*
X013478Y024385D01*
X013291Y024572D01*
X013291Y025131D01*
X013359Y025295D01*
X013359Y025493D01*
X013283Y025676D01*
X013143Y025817D01*
X012960Y025892D01*
X012762Y025892D01*
X012578Y025817D01*
X012438Y025676D01*
X012363Y025493D01*
X012363Y025295D01*
X012431Y025131D01*
X012431Y024480D01*
X012431Y024309D01*
X012496Y024151D01*
X012866Y023781D01*
X012748Y023781D01*
X012545Y023697D01*
X012391Y023542D01*
X012357Y023461D01*
X012323Y023542D01*
X012169Y023697D01*
X011966Y023781D01*
X011748Y023781D01*
X011545Y023697D01*
X011391Y023542D01*
X011307Y023340D01*
X011307Y022641D01*
X011391Y022439D01*
X011506Y022324D01*
X010039Y022324D01*
X009791Y022572D01*
X009791Y023396D01*
X009960Y023396D01*
X010143Y023472D01*
X010283Y023612D01*
X010359Y023795D01*
X010359Y023993D01*
X010291Y024158D01*
X010291Y025131D01*
X010359Y025295D01*
X010359Y025493D01*
X010283Y025676D01*
X010143Y025817D01*
X009960Y025892D01*
X009762Y025892D01*
X009611Y025830D01*
X009460Y025892D01*
X009262Y025892D01*
X009078Y025817D01*
X008938Y025676D01*
X008863Y025493D01*
X008863Y025295D01*
X008931Y025131D01*
X008931Y022480D01*
X008931Y022309D01*
X008996Y022151D01*
X009323Y021824D01*
X008859Y021824D01*
X008859Y021993D01*
X008791Y022158D01*
X008791Y025480D01*
X008725Y025638D01*
X008604Y025759D01*
X008304Y026059D01*
X008291Y026064D01*
X008291Y026126D01*
X008243Y026240D01*
X008156Y026327D01*
X008042Y026374D01*
X007179Y026374D01*
X007065Y026327D01*
X007002Y026264D01*
X006996Y026271D01*
X006746Y026374D01*
X006475Y026374D01*
X006225Y026271D01*
X006111Y026156D01*
X005996Y026271D01*
X005746Y026374D01*
X005475Y026374D01*
X005225Y026271D01*
X005111Y026156D01*
X004996Y026271D01*
X004746Y026374D01*
X004475Y026374D01*
X004225Y026271D01*
X004034Y026079D01*
X003931Y025830D01*
X003931Y025559D01*
X003991Y025414D01*
X003967Y025414D01*
X003703Y025305D01*
X003500Y025102D01*
X003391Y024838D01*
X003391Y024694D01*
X003391Y024551D01*
X003500Y024286D01*
X003703Y024084D01*
X003967Y023974D01*
X004110Y023974D01*
X004110Y024694D01*
X003391Y024694D01*
X004110Y024694D01*
X004110Y024694D01*
X004111Y024694D01*
X004111Y023974D01*
X004254Y023974D01*
X004518Y024084D01*
X004639Y024204D01*
X004725Y024118D01*
X004975Y024014D01*
X005246Y024014D01*
X005496Y024118D01*
X005611Y024233D01*
X005725Y024118D01*
X005975Y024014D01*
X006246Y024014D01*
X006496Y024118D01*
X006611Y024233D01*
X006725Y024118D01*
X006975Y024014D01*
X007246Y024014D01*
X007496Y024118D01*
X007687Y024309D01*
X007791Y024559D01*
X007791Y024830D01*
X007714Y025014D01*
X007931Y025014D01*
X007931Y022158D01*
X007863Y021993D01*
X007863Y021824D01*
X002624Y021824D01*
X002460Y021892D01*
X002349Y021892D01*
X002454Y021998D01*
X002561Y022255D01*
X002561Y022534D01*
X002454Y022791D01*
X002257Y022988D01*
X002000Y023094D01*
X001721Y023094D01*
X001464Y022988D01*
X001267Y022791D01*
X001161Y022534D01*
X001161Y022255D01*
X001267Y021998D01*
X001464Y021801D01*
X001721Y021694D01*
X001956Y021694D01*
X001938Y021676D01*
X001863Y021493D01*
X001863Y021295D01*
X001938Y021112D01*
X002078Y020972D01*
X002262Y020896D01*
X002460Y020896D01*
X002624Y020964D01*
X008823Y020964D01*
X008433Y020574D01*
X008225Y020574D01*
X007975Y020471D01*
X007829Y020324D01*
X006446Y020324D01*
X006275Y020324D01*
X006117Y020259D01*
X005861Y020002D01*
X005604Y020259D01*
X005446Y020324D01*
X005275Y020324D01*
X005208Y020324D01*
X005088Y020444D01*
X004633Y020444D01*
X004311Y020122D01*
X004311Y019666D01*
X004555Y019423D01*
X004271Y019139D01*
X004271Y018894D01*
X004271Y018650D01*
X004616Y018304D01*
X004860Y018304D01*
X004860Y018894D01*
X004271Y018894D01*
X004860Y018894D01*
X004860Y018894D01*
X004861Y018894D01*
X004861Y018304D01*
X005105Y018304D01*
X005431Y018630D01*
X005431Y016572D01*
X004888Y016029D01*
X004474Y016029D01*
X004360Y015982D01*
X004294Y015916D01*
X004243Y015967D01*
X003995Y016069D01*
X003861Y016069D01*
X003861Y015395D01*
X003860Y015395D01*
X003860Y016069D01*
X003726Y016069D01*
X003478Y015967D01*
X003288Y015777D01*
X003186Y015529D01*
X003186Y015394D01*
X003186Y015260D01*
X003288Y015012D01*
X003476Y014824D01*
X003119Y014824D01*
X003036Y014907D01*
X002922Y014954D01*
X001799Y014954D01*
X001685Y014907D01*
X001598Y014820D01*
X001551Y014706D01*
X001551Y014083D01*
X001598Y013969D01*
X001672Y013894D01*
X001598Y013820D01*
X001551Y013706D01*
X001551Y013083D01*
X001598Y012969D01*
X001672Y012894D01*
X001598Y012820D01*
X001551Y012706D01*
X001551Y012083D01*
X001598Y011969D01*
X001685Y011882D01*
X001799Y011834D01*
X001931Y011834D01*
X001931Y011658D01*
X001863Y011493D01*
X001863Y011295D01*
X001938Y011112D01*
X002078Y010972D01*
X002262Y010896D01*
X002460Y010896D01*
X002643Y010972D01*
X002783Y011112D01*
X002859Y011295D01*
X002859Y011493D01*
X002791Y011658D01*
X002791Y011834D01*
X002922Y011834D01*
X003036Y011882D01*
X003123Y011969D01*
X003171Y012083D01*
X003171Y012706D01*
X003123Y012820D01*
X003049Y012894D01*
X003113Y012958D01*
X003262Y012896D01*
X003311Y012896D01*
X003311Y012666D01*
X003431Y012547D01*
X003431Y011980D01*
X003431Y011809D01*
X003496Y011651D01*
X003504Y011643D01*
X003451Y011516D01*
X003451Y011273D01*
X003544Y011049D01*
X003698Y010894D01*
X003544Y010740D01*
X003451Y010516D01*
X003451Y010273D01*
X003544Y010049D01*
X003670Y009923D01*
X003510Y009763D01*
X003411Y009524D01*
X003411Y009394D01*
X003411Y009265D01*
X003510Y009026D01*
X003692Y008843D01*
X003931Y008744D01*
X004360Y008744D01*
X004360Y009394D01*
X003411Y009394D01*
X004360Y009394D01*
X004360Y009394D01*
X004361Y009394D01*
X004361Y008744D01*
X004784Y008744D01*
X004860Y008560D01*
X004884Y008536D01*
X004725Y008471D01*
X004534Y008279D01*
X004431Y008030D01*
X004431Y007759D01*
X004507Y007574D01*
X004179Y007574D01*
X004065Y007527D01*
X003978Y007440D01*
X003931Y007326D01*
X003931Y006463D01*
X003978Y006349D01*
X004065Y006262D01*
X004179Y006214D01*
X005042Y006214D01*
X005156Y006262D01*
X005219Y006324D01*
X005225Y006318D01*
X005475Y006214D01*
X005746Y006214D01*
X005963Y006304D01*
X005978Y006304D01*
X006163Y006381D01*
X006225Y006318D01*
X006475Y006214D01*
X006746Y006214D01*
X006963Y006304D01*
X006978Y006304D01*
X007163Y006381D01*
X007225Y006318D01*
X007475Y006214D01*
X007746Y006214D01*
X007963Y006304D01*
X007978Y006304D01*
X008195Y006394D01*
X008361Y006560D01*
X008451Y006777D01*
X008451Y007012D01*
X008451Y007299D01*
X008496Y007318D01*
X008687Y007509D01*
X008791Y007759D01*
X008791Y007804D01*
X008978Y007804D01*
X009195Y007894D01*
X009361Y008060D01*
X009861Y008560D01*
X009937Y008744D01*
X010360Y008744D01*
X010360Y009394D01*
X010361Y009394D01*
X010361Y008744D01*
X010784Y008744D01*
X010860Y008560D01*
X010884Y008536D01*
X010725Y008471D01*
X010534Y008279D01*
X010431Y008030D01*
X010431Y007759D01*
X010507Y007574D01*
X010179Y007574D01*
X010065Y007527D01*
X009978Y007440D01*
X009931Y007326D01*
X009931Y006463D01*
X009978Y006349D01*
X010065Y006262D01*
X010179Y006214D01*
X011042Y006214D01*
X011156Y006262D01*
X011219Y006324D01*
X011225Y006318D01*
X011475Y006214D01*
X011746Y006214D01*
X011963Y006304D01*
X011978Y006304D01*
X012163Y006381D01*
X012225Y006318D01*
X012475Y006214D01*
X012746Y006214D01*
X012963Y006304D01*
X012978Y006304D01*
X013163Y006381D01*
X013225Y006318D01*
X013475Y006214D01*
X013746Y006214D01*
X013963Y006304D01*
X013978Y006304D01*
X014195Y006394D01*
X014361Y006560D01*
X014451Y006777D01*
X014451Y007012D01*
X014451Y007299D01*
X014496Y007318D01*
X014687Y007509D01*
X014791Y007759D01*
X014791Y007804D01*
X014978Y007804D01*
X015195Y007894D01*
X015361Y008060D01*
X015861Y008560D01*
X015937Y008744D01*
X016360Y008744D01*
X016360Y009394D01*
X016361Y009394D01*
X016361Y008744D01*
X016784Y008744D01*
X016860Y008560D01*
X016884Y008536D01*
X016725Y008471D01*
X016534Y008279D01*
X016431Y008030D01*
X016431Y007759D01*
X016507Y007574D01*
X016179Y007574D01*
X016065Y007527D01*
X015978Y007440D01*
X015931Y007326D01*
X015931Y006463D01*
X015978Y006349D01*
X016065Y006262D01*
X016179Y006214D01*
X017042Y006214D01*
X017156Y006262D01*
X017219Y006324D01*
X017225Y006318D01*
X017475Y006214D01*
X017746Y006214D01*
X017963Y006304D01*
X017978Y006304D01*
X018163Y006381D01*
X018225Y006318D01*
X018475Y006214D01*
X018746Y006214D01*
X018963Y006304D01*
X018978Y006304D01*
X019163Y006381D01*
X019225Y006318D01*
X019475Y006214D01*
X019746Y006214D01*
X019963Y006304D01*
X019978Y006304D01*
X020195Y006394D01*
X020361Y006560D01*
X020451Y006777D01*
X020451Y007012D01*
X020451Y007299D01*
X020496Y007318D01*
X020687Y007509D01*
X020791Y007759D01*
X020791Y007804D01*
X020978Y007804D01*
X021195Y007894D01*
X021361Y008060D01*
X021861Y008560D01*
X021937Y008744D01*
X022360Y008744D01*
X022360Y009394D01*
X022361Y009394D01*
X022361Y008744D01*
X022784Y008744D01*
X022860Y008560D01*
X022884Y008536D01*
X022725Y008471D01*
X022534Y008279D01*
X022431Y008030D01*
X022431Y007759D01*
X022507Y007574D01*
X022179Y007574D01*
X022065Y007527D01*
X021978Y007440D01*
X021931Y007326D01*
X021931Y006463D01*
X021978Y006349D01*
X022065Y006262D01*
X022179Y006214D01*
X023042Y006214D01*
X023156Y006262D01*
X023219Y006324D01*
X023225Y006318D01*
X023475Y006214D01*
X023746Y006214D01*
X023963Y006304D01*
X023978Y006304D01*
X024163Y006381D01*
X024225Y006318D01*
X024475Y006214D01*
X024746Y006214D01*
X024963Y006304D01*
X024978Y006304D01*
X025163Y006381D01*
X025225Y006318D01*
X025475Y006214D01*
X025746Y006214D01*
X025963Y006304D01*
X025978Y006304D01*
X026195Y006394D01*
X026361Y006560D01*
X026451Y006777D01*
X026451Y007012D01*
X026451Y007299D01*
X026496Y007318D01*
X026687Y007509D01*
X026791Y007759D01*
X026791Y007804D01*
X026978Y007804D01*
X027195Y007894D01*
X027361Y008060D01*
X027861Y008560D01*
X027937Y008744D01*
X028360Y008744D01*
X028360Y009394D01*
X028361Y009394D01*
X028361Y008744D01*
X028784Y008744D01*
X028860Y008560D01*
X028884Y008536D01*
X028725Y008471D01*
X028534Y008279D01*
X028431Y008030D01*
X028431Y007759D01*
X028507Y007574D01*
X028179Y007574D01*
X028065Y007527D01*
X027978Y007440D01*
X027931Y007326D01*
X027931Y006463D01*
X027978Y006349D01*
X028065Y006262D01*
X028179Y006214D01*
X029042Y006214D01*
X029156Y006262D01*
X029219Y006324D01*
X029225Y006318D01*
X029475Y006214D01*
X029746Y006214D01*
X029963Y006304D01*
X029978Y006304D01*
X030163Y006381D01*
X030225Y006318D01*
X030475Y006214D01*
X030746Y006214D01*
X030963Y006304D01*
X030978Y006304D01*
X031163Y006381D01*
X031225Y006318D01*
X031475Y006214D01*
X031746Y006214D01*
X031963Y006304D01*
X031978Y006304D01*
X032195Y006394D01*
X032451Y006887D02*
X035905Y006887D01*
X035905Y007386D02*
X032564Y007386D01*
X033171Y007884D02*
X035905Y007884D01*
X035905Y008383D02*
X033683Y008383D01*
X033951Y008881D02*
X035905Y008881D01*
X035905Y009380D02*
X033951Y009380D01*
X033951Y009878D02*
X035905Y009878D01*
X035905Y010377D02*
X033951Y010377D01*
X033714Y010875D02*
X035905Y010875D01*
X035905Y011374D02*
X033271Y011374D01*
X033045Y011872D02*
X035905Y011872D01*
X035905Y012371D02*
X033115Y012371D01*
X032606Y012371D02*
X032291Y012371D01*
X033411Y012870D02*
X035905Y012870D01*
X035905Y013368D02*
X033165Y013368D01*
X032557Y013368D02*
X032165Y013368D01*
X030496Y013867D02*
X035905Y013867D01*
X035905Y014365D02*
X028498Y014365D01*
X027605Y015304D02*
X027951Y015650D01*
X027951Y015894D01*
X027361Y015894D01*
X027361Y015894D01*
X027361Y015304D01*
X027605Y015304D01*
X027663Y015362D02*
X035905Y015362D01*
X035905Y015861D02*
X027951Y015861D01*
X027951Y015894D02*
X027951Y016139D01*
X027667Y016423D01*
X027911Y016666D01*
X027911Y017122D01*
X027588Y017444D01*
X027133Y017444D01*
X026811Y017122D01*
X026811Y016666D01*
X027055Y016423D01*
X026771Y016139D01*
X026771Y015894D01*
X026771Y015650D01*
X027116Y015304D01*
X027360Y015304D01*
X027360Y015894D01*
X026771Y015894D01*
X027360Y015894D01*
X027360Y015894D01*
X027361Y015894D01*
X027951Y015894D01*
X027730Y016359D02*
X028618Y016359D01*
X028311Y016858D02*
X027911Y016858D01*
X027676Y017356D02*
X028515Y017356D01*
X028236Y017855D02*
X027599Y017855D01*
X027122Y017855D02*
X026411Y017855D01*
X026333Y017356D02*
X027045Y017356D01*
X026811Y016858D02*
X026291Y016858D01*
X026291Y016359D02*
X026991Y016359D01*
X026771Y015861D02*
X025935Y015861D01*
X026361Y015362D02*
X027058Y015362D01*
X027360Y015362D02*
X027361Y015362D01*
X027360Y015861D02*
X027361Y015861D01*
X026499Y014864D02*
X035905Y014864D01*
X035905Y016359D02*
X030160Y016359D01*
X029861Y016359D02*
X029860Y016359D01*
X029561Y016359D02*
X029103Y016359D01*
X029860Y016858D02*
X029861Y016858D01*
X029860Y016895D02*
X029860Y017484D01*
X029860Y017894D01*
X029861Y017894D01*
X029861Y017484D01*
X029861Y016895D01*
X029860Y016895D01*
X030451Y016858D02*
X035905Y016858D01*
X035905Y017356D02*
X035447Y017356D01*
X035491Y017855D02*
X035905Y017855D01*
X035905Y018354D02*
X035479Y018354D01*
X035631Y018852D02*
X035905Y018852D01*
X035905Y019351D02*
X035473Y019351D01*
X035491Y019849D02*
X035905Y019849D01*
X035905Y020348D02*
X035326Y020348D01*
X035591Y020846D02*
X035905Y020846D01*
X035905Y021345D02*
X035422Y021345D01*
X035291Y021843D02*
X035905Y021843D01*
X035905Y022342D02*
X035021Y022342D01*
X035905Y022840D02*
X032411Y022840D01*
X032194Y023339D02*
X035905Y023339D01*
X035905Y023838D02*
X028195Y023838D01*
X028088Y023944D02*
X027633Y023944D01*
X027389Y023700D01*
X027105Y023984D01*
X026861Y023984D01*
X026861Y023395D01*
X026860Y023395D01*
X026860Y023984D01*
X026616Y023984D01*
X026271Y023639D01*
X026271Y023394D01*
X026271Y023150D01*
X026616Y022804D01*
X026860Y022804D01*
X026860Y023394D01*
X026271Y023394D01*
X026860Y023394D01*
X026860Y023394D01*
X026861Y023394D01*
X026861Y022804D01*
X027105Y022804D01*
X027389Y023088D01*
X027633Y022844D01*
X028088Y022844D01*
X028411Y023166D01*
X028411Y023622D01*
X028088Y023944D01*
X028107Y024394D02*
X027843Y024504D01*
X027640Y024706D01*
X027531Y024971D01*
X027531Y025114D01*
X028250Y025114D01*
X028250Y025114D01*
X028251Y025114D01*
X028251Y025114D01*
X028971Y025114D01*
X028971Y024971D01*
X028861Y024706D01*
X028658Y024504D01*
X028394Y024394D01*
X028251Y024394D01*
X028251Y025114D01*
X028971Y025114D01*
X028971Y025258D01*
X028861Y025522D01*
X028658Y025725D01*
X028394Y025834D01*
X028251Y025834D01*
X028251Y025115D01*
X028250Y025115D01*
X028250Y025834D01*
X028107Y025834D01*
X027843Y025725D01*
X027640Y025522D01*
X027531Y025258D01*
X027531Y025114D01*
X028250Y025114D01*
X028250Y024394D01*
X028107Y024394D01*
X028250Y024835D02*
X028251Y024835D01*
X028250Y025333D02*
X028251Y025333D01*
X027562Y025333D02*
X027116Y025333D01*
X027151Y025250D02*
X027047Y025499D01*
X026856Y025691D01*
X026606Y025794D01*
X026335Y025794D01*
X026085Y025691D01*
X025894Y025499D01*
X025791Y025250D01*
X025791Y024979D01*
X025894Y024729D01*
X026085Y024538D01*
X026335Y024434D01*
X026606Y024434D01*
X026856Y024538D01*
X027047Y024729D01*
X027151Y024979D01*
X027151Y025250D01*
X027091Y024835D02*
X027587Y024835D01*
X027526Y023838D02*
X027252Y023838D01*
X026861Y023838D02*
X026860Y023838D01*
X026469Y023838D02*
X025291Y023838D01*
X025411Y024336D02*
X028811Y024336D01*
X028811Y024166D02*
X029133Y023844D01*
X029588Y023844D01*
X029861Y024117D01*
X030133Y023844D01*
X030588Y023844D01*
X030911Y024166D01*
X030911Y024622D01*
X030588Y024944D01*
X030133Y024944D01*
X029861Y024672D01*
X029588Y024944D01*
X029133Y024944D01*
X028811Y024622D01*
X028811Y024166D01*
X028914Y024835D02*
X029023Y024835D01*
X028939Y025333D02*
X035905Y025333D01*
X035905Y024835D02*
X033698Y024835D01*
X033588Y024944D02*
X033133Y024944D01*
X032861Y024672D01*
X032588Y024944D01*
X032133Y024944D01*
X031811Y024622D01*
X031811Y024166D01*
X032133Y023844D01*
X032588Y023844D01*
X032861Y024117D01*
X033133Y023844D01*
X033588Y023844D01*
X033911Y024166D01*
X033911Y024622D01*
X033588Y024944D01*
X033023Y024835D02*
X032698Y024835D01*
X032023Y024835D02*
X030698Y024835D01*
X030911Y024336D02*
X031811Y024336D01*
X031527Y023339D02*
X028411Y023339D01*
X027747Y022342D02*
X030200Y022342D01*
X031311Y022840D02*
X027141Y022840D01*
X026861Y022840D02*
X026860Y022840D01*
X026580Y022840D02*
X025407Y022840D01*
X025407Y023339D02*
X026271Y023339D01*
X026860Y023339D02*
X026861Y023339D01*
X026974Y022342D02*
X025226Y022342D01*
X024488Y022342D02*
X024226Y022342D01*
X023520Y021843D02*
X026771Y021843D01*
X026771Y021894D02*
X027360Y021894D01*
X027360Y021894D01*
X026771Y021894D01*
X027360Y022342D02*
X027361Y022342D01*
X025850Y024835D02*
X025198Y024835D01*
X025411Y025333D02*
X025825Y025333D01*
X025201Y025832D02*
X028101Y025832D01*
X028250Y025832D02*
X028251Y025832D01*
X028400Y025832D02*
X028940Y025832D01*
X028973Y025798D02*
X029245Y025686D01*
X029539Y025686D01*
X029811Y025798D01*
X029884Y025871D01*
X029957Y025798D01*
X030229Y025686D01*
X030524Y025686D01*
X030796Y025798D01*
X030942Y025945D01*
X031000Y025886D01*
X031234Y025790D01*
X031487Y025790D01*
X031721Y025886D01*
X031779Y025945D01*
X031926Y025798D01*
X032198Y025686D01*
X032492Y025686D01*
X032764Y025798D01*
X032837Y025871D01*
X032910Y025798D01*
X033182Y025686D01*
X033476Y025686D01*
X033748Y025798D01*
X033956Y026007D01*
X034069Y026279D01*
X034069Y026573D01*
X033956Y026845D01*
X033748Y027053D01*
X033476Y027166D01*
X033182Y027166D01*
X032910Y027053D01*
X032837Y026980D01*
X032764Y027053D01*
X032492Y027166D01*
X032198Y027166D01*
X031926Y027053D01*
X031779Y026907D01*
X031721Y026965D01*
X031487Y027062D01*
X031234Y027062D01*
X031000Y026965D01*
X030942Y026907D01*
X030796Y027053D01*
X030524Y027166D01*
X030229Y027166D01*
X029957Y027053D01*
X029884Y026980D01*
X029811Y027053D01*
X029539Y027166D01*
X029245Y027166D01*
X028973Y027053D01*
X028765Y026845D01*
X028652Y026573D01*
X028652Y026279D01*
X028765Y026007D01*
X028973Y025798D01*
X028652Y026330D02*
X021131Y026330D01*
X020861Y026330D02*
X020860Y026330D01*
X020590Y026330D02*
X019838Y026330D01*
X019202Y025832D02*
X024520Y025832D01*
X025894Y027289D02*
X026085Y027098D01*
X026335Y026994D01*
X026606Y026994D01*
X026856Y027098D01*
X027047Y027289D01*
X027151Y027539D01*
X027151Y027810D01*
X027047Y028059D01*
X026856Y028251D01*
X026606Y028354D01*
X026335Y028354D01*
X026085Y028251D01*
X025894Y028059D01*
X025791Y027810D01*
X025791Y027539D01*
X025894Y027289D01*
X025878Y027327D02*
X021262Y027327D01*
X020861Y027327D02*
X020860Y027327D01*
X020459Y027327D02*
X020205Y027327D01*
X020860Y026829D02*
X020861Y026829D01*
X021451Y026829D02*
X028758Y026829D01*
X028636Y027098D02*
X028827Y027289D01*
X028931Y027539D01*
X028931Y027810D01*
X028827Y028059D01*
X028636Y028251D01*
X028386Y028354D01*
X028115Y028354D01*
X027865Y028251D01*
X027674Y028059D01*
X027571Y027810D01*
X027571Y027539D01*
X027674Y027289D01*
X027865Y027098D01*
X028115Y026994D01*
X028386Y026994D01*
X028636Y027098D01*
X028843Y027327D02*
X034597Y027327D01*
X034178Y027826D02*
X033619Y027826D01*
X033965Y028324D02*
X034111Y028324D01*
X034300Y028823D02*
X033800Y028823D01*
X032858Y028823D02*
X032027Y028823D01*
X032141Y028324D02*
X032693Y028324D01*
X033039Y027826D02*
X031895Y027826D01*
X031361Y027826D02*
X031360Y027826D01*
X031360Y028324D02*
X031361Y028324D01*
X030826Y027826D02*
X029682Y027826D01*
X029102Y027826D02*
X028924Y027826D01*
X028756Y028324D02*
X028458Y028324D01*
X028043Y028324D02*
X026678Y028324D01*
X026263Y028324D02*
X016611Y028324D01*
X016611Y028364D02*
X016611Y027894D01*
X015861Y027894D01*
X015861Y027894D01*
X015861Y027144D01*
X016330Y027144D01*
X016459Y027198D01*
X016557Y027296D01*
X016611Y027425D01*
X016611Y027894D01*
X015861Y027894D01*
X015860Y027894D01*
X015111Y027894D01*
X015111Y027425D01*
X015164Y027296D01*
X015262Y027198D01*
X015391Y027144D01*
X015860Y027144D01*
X015860Y027894D01*
X015860Y027894D01*
X015111Y027894D01*
X015111Y028364D01*
X015164Y028493D01*
X015262Y028591D01*
X015391Y028644D01*
X015860Y028644D01*
X015860Y027895D01*
X015861Y027895D01*
X015861Y028644D01*
X016330Y028644D01*
X016459Y028591D01*
X016557Y028493D01*
X016611Y028364D01*
X016611Y027826D02*
X025797Y027826D01*
X027144Y027826D02*
X027577Y027826D01*
X027658Y027327D02*
X027063Y027327D01*
X028921Y028823D02*
X008937Y028823D01*
X009141Y028324D02*
X009409Y028324D01*
X009381Y028296D02*
X009273Y028036D01*
X009273Y027753D01*
X009381Y027492D01*
X009580Y027292D01*
X009841Y027184D01*
X010124Y027184D01*
X010385Y027292D01*
X010585Y027492D01*
X010651Y027652D01*
X010651Y027433D01*
X010698Y027319D01*
X010785Y027232D01*
X010899Y027184D01*
X011822Y027184D01*
X011936Y027232D01*
X012023Y027319D01*
X012071Y027433D01*
X012071Y028356D01*
X012023Y028470D01*
X011936Y028557D01*
X011822Y028604D01*
X010899Y028604D01*
X010785Y028557D01*
X010698Y028470D01*
X010651Y028356D01*
X010651Y028137D01*
X010585Y028296D01*
X010385Y028496D01*
X010124Y028604D01*
X009841Y028604D01*
X009580Y028496D01*
X009381Y028296D01*
X009273Y027826D02*
X009078Y027826D01*
X008669Y027327D02*
X009546Y027327D01*
X010420Y027327D02*
X010694Y027327D01*
X010651Y028324D02*
X010557Y028324D01*
X012071Y028324D02*
X013318Y028324D01*
X013290Y028296D02*
X013182Y028036D01*
X013182Y027753D01*
X013290Y027492D01*
X013490Y027292D01*
X013751Y027184D01*
X014033Y027184D01*
X014294Y027292D01*
X014494Y027492D01*
X014602Y027753D01*
X014602Y028036D01*
X014494Y028296D01*
X014294Y028496D01*
X014033Y028604D01*
X013751Y028604D01*
X013490Y028496D01*
X013290Y028296D01*
X013182Y027826D02*
X012071Y027826D01*
X012027Y027327D02*
X013455Y027327D01*
X014329Y027327D02*
X015151Y027327D01*
X015111Y027826D02*
X014602Y027826D01*
X014466Y028324D02*
X015111Y028324D01*
X015860Y028324D02*
X015861Y028324D01*
X015860Y027826D02*
X015861Y027826D01*
X015860Y027327D02*
X015861Y027327D01*
X016570Y027327D02*
X017516Y027327D01*
X017100Y026829D02*
X002416Y026829D01*
X002454Y026791D02*
X002257Y026988D01*
X002000Y027094D01*
X001721Y027094D01*
X001464Y026988D01*
X001267Y026791D01*
X001161Y026534D01*
X001161Y026255D01*
X001267Y025998D01*
X001464Y025801D01*
X001721Y025694D01*
X002000Y025694D01*
X002257Y025801D01*
X002454Y025998D01*
X002561Y026255D01*
X002561Y026534D01*
X002454Y026791D01*
X001924Y027327D02*
X003052Y027327D01*
X002643Y027826D02*
X002344Y027826D01*
X002411Y028324D02*
X002581Y028324D01*
X002784Y028823D02*
X002222Y028823D01*
X000797Y027327D02*
X000613Y027327D01*
X000613Y026829D02*
X001305Y026829D01*
X001161Y026330D02*
X000613Y026330D01*
X000613Y025832D02*
X001433Y025832D01*
X000613Y025333D02*
X003771Y025333D01*
X003391Y024835D02*
X000613Y024835D01*
X000613Y024336D02*
X003480Y024336D01*
X004110Y024336D02*
X004111Y024336D01*
X003932Y025832D02*
X002288Y025832D01*
X002561Y026330D02*
X004369Y026330D01*
X004852Y026330D02*
X005369Y026330D01*
X005852Y026330D02*
X006369Y026330D01*
X006852Y026330D02*
X007073Y026330D01*
X008149Y026330D02*
X016490Y026330D01*
X015879Y025832D02*
X013106Y025832D01*
X012615Y025832D02*
X010106Y025832D01*
X009615Y025832D02*
X009606Y025832D01*
X009115Y025832D02*
X008531Y025832D01*
X008604Y025759D02*
X008604Y025759D01*
X008791Y025333D02*
X008863Y025333D01*
X008931Y024835D02*
X008791Y024835D01*
X008791Y024336D02*
X008931Y024336D01*
X008931Y023838D02*
X008791Y023838D01*
X008791Y023339D02*
X008931Y023339D01*
X008931Y022840D02*
X008791Y022840D01*
X008791Y022342D02*
X008931Y022342D01*
X008859Y021843D02*
X009304Y021843D01*
X010021Y022342D02*
X011488Y022342D01*
X011307Y022840D02*
X009791Y022840D01*
X009791Y023339D02*
X011307Y023339D01*
X010359Y023838D02*
X012809Y023838D01*
X012431Y024336D02*
X010291Y024336D01*
X010291Y024835D02*
X012431Y024835D01*
X012363Y025333D02*
X010359Y025333D01*
X007931Y024835D02*
X007789Y024835D01*
X007698Y024336D02*
X007931Y024336D01*
X007931Y023838D02*
X000613Y023838D01*
X000613Y023339D02*
X007931Y023339D01*
X007931Y022840D02*
X002404Y022840D01*
X002561Y022342D02*
X007931Y022342D01*
X007863Y021843D02*
X002578Y021843D01*
X001863Y021345D02*
X000613Y021345D01*
X000613Y021843D02*
X001422Y021843D01*
X001161Y022342D02*
X000613Y022342D01*
X000613Y022840D02*
X001317Y022840D01*
X000613Y020846D02*
X008705Y020846D01*
X009422Y020348D02*
X011310Y020348D01*
X011307Y020340D02*
X011307Y019641D01*
X011391Y019439D01*
X011545Y019284D01*
X011748Y019201D01*
X011966Y019201D01*
X012169Y019284D01*
X012323Y019439D01*
X012357Y019521D01*
X012391Y019439D01*
X012545Y019284D01*
X012748Y019201D01*
X012966Y019201D01*
X012992Y019211D01*
X013530Y018673D01*
X013556Y018647D01*
X013526Y018634D01*
X013360Y018469D01*
X013339Y018417D01*
X013327Y018446D01*
X013172Y018601D01*
X012970Y018684D01*
X012751Y018684D01*
X012549Y018601D01*
X012394Y018446D01*
X012311Y018244D01*
X012311Y017545D01*
X012338Y017479D01*
X012183Y017324D01*
X008969Y017324D01*
X008993Y017349D01*
X009041Y017463D01*
X009041Y018326D01*
X008993Y018440D01*
X008959Y018474D01*
X008971Y018486D01*
X009081Y018751D01*
X009081Y018894D01*
X008361Y018894D01*
X008361Y018894D01*
X009081Y018894D01*
X009081Y019038D01*
X008971Y019302D01*
X008851Y019423D01*
X008937Y019509D01*
X009041Y019759D01*
X009041Y019966D01*
X009539Y020464D01*
X011359Y020464D01*
X011307Y020340D01*
X011307Y019849D02*
X009041Y019849D01*
X008923Y019351D02*
X011479Y019351D01*
X012235Y019351D02*
X012479Y019351D01*
X013351Y018852D02*
X009081Y018852D01*
X009029Y018354D02*
X012356Y018354D01*
X012311Y017855D02*
X009041Y017855D01*
X008997Y017356D02*
X012215Y017356D01*
X012899Y016824D02*
X013104Y017030D01*
X013225Y017151D01*
X013289Y017305D01*
X013327Y017343D01*
X013339Y017372D01*
X013360Y017320D01*
X013526Y017154D01*
X013743Y017064D01*
X013860Y017064D01*
X013860Y017894D01*
X013861Y017894D01*
X013861Y017064D01*
X013978Y017064D01*
X014195Y017154D01*
X014361Y017320D01*
X014382Y017372D01*
X014394Y017343D01*
X014549Y017188D01*
X014751Y017104D01*
X014970Y017104D01*
X015172Y017188D01*
X015327Y017343D01*
X015361Y017424D01*
X015394Y017343D01*
X015549Y017188D01*
X015751Y017104D01*
X015970Y017104D01*
X016172Y017188D01*
X016327Y017343D01*
X016361Y017424D01*
X016394Y017343D01*
X016549Y017188D01*
X016751Y017104D01*
X016970Y017104D01*
X017172Y017188D01*
X017327Y017343D01*
X017361Y017424D01*
X017394Y017343D01*
X017549Y017188D01*
X017751Y017104D01*
X017970Y017104D01*
X018172Y017188D01*
X018327Y017343D01*
X018339Y017372D01*
X018360Y017320D01*
X018526Y017154D01*
X018743Y017064D01*
X018860Y017064D01*
X018860Y017894D01*
X018861Y017894D01*
X018861Y017064D01*
X018931Y017064D01*
X018931Y016480D01*
X018931Y016324D01*
X015039Y016324D01*
X014851Y016512D01*
X014783Y016676D01*
X014643Y016817D01*
X014460Y016892D01*
X014262Y016892D01*
X014078Y016817D01*
X013938Y016676D01*
X013865Y016498D01*
X013725Y016638D01*
X013604Y016759D01*
X013446Y016824D01*
X012899Y016824D01*
X012932Y016858D02*
X014178Y016858D01*
X014543Y016858D02*
X018931Y016858D01*
X018931Y016359D02*
X015004Y016359D01*
X015333Y017356D02*
X015389Y017356D01*
X014389Y017356D02*
X014376Y017356D01*
X013861Y017356D02*
X013860Y017356D01*
X013860Y017855D02*
X013861Y017855D01*
X013345Y017356D02*
X013332Y017356D01*
X016333Y017356D02*
X016389Y017356D01*
X017333Y017356D02*
X017389Y017356D01*
X018332Y017356D02*
X018345Y017356D01*
X018860Y017356D02*
X018861Y017356D01*
X018860Y017855D02*
X018861Y017855D01*
X018860Y017895D02*
X018860Y018724D01*
X018743Y018724D01*
X018526Y018634D01*
X018360Y018469D01*
X018339Y018417D01*
X018327Y018446D01*
X018258Y018514D01*
X018411Y018666D01*
X018411Y019122D01*
X018208Y019324D01*
X018323Y019439D01*
X018335Y019468D01*
X018357Y019417D01*
X018523Y019251D01*
X018740Y019161D01*
X018857Y019161D01*
X018931Y019161D01*
X018931Y018724D01*
X018861Y018724D01*
X018861Y017895D01*
X018860Y017895D01*
X018860Y018354D02*
X018861Y018354D01*
X018931Y018852D02*
X018411Y018852D01*
X018857Y019161D02*
X018857Y019990D01*
X018857Y019161D01*
X018857Y019351D02*
X018857Y019351D01*
X018423Y019351D02*
X018235Y019351D01*
X018857Y019849D02*
X018857Y019849D01*
X018857Y019990D02*
X018857Y019990D01*
X018857Y019991D02*
X018857Y020821D01*
X018791Y020821D01*
X018791Y021716D01*
X019104Y022030D01*
X019225Y022151D01*
X019291Y022309D01*
X019291Y022407D01*
X019323Y022439D01*
X019357Y022521D01*
X019391Y022439D01*
X019545Y022284D01*
X019748Y022201D01*
X019966Y022201D01*
X020169Y022284D01*
X020323Y022439D01*
X020357Y022521D01*
X020391Y022439D01*
X020545Y022284D01*
X020748Y022201D01*
X020966Y022201D01*
X021169Y022284D01*
X021323Y022439D01*
X021357Y022521D01*
X021391Y022439D01*
X021545Y022284D01*
X021748Y022201D01*
X021966Y022201D01*
X022169Y022284D01*
X022323Y022439D01*
X022357Y022521D01*
X022391Y022439D01*
X022427Y022403D01*
X022427Y021983D01*
X022427Y021812D01*
X022493Y021654D01*
X022823Y021324D01*
X020446Y021324D01*
X020275Y021324D01*
X020117Y021259D01*
X019659Y020801D01*
X019643Y020817D01*
X019460Y020892D01*
X019262Y020892D01*
X019078Y020817D01*
X019051Y020789D01*
X018974Y020821D01*
X018857Y020821D01*
X018857Y019991D01*
X018857Y019991D01*
X018857Y020348D02*
X018857Y020348D01*
X018791Y020846D02*
X019150Y020846D01*
X019571Y020846D02*
X019704Y020846D01*
X018791Y021345D02*
X022802Y021345D01*
X022427Y021843D02*
X018918Y021843D01*
X019291Y022342D02*
X019488Y022342D01*
X020226Y022342D02*
X020488Y022342D01*
X021226Y022342D02*
X021488Y022342D01*
X022226Y022342D02*
X022427Y022342D01*
X023287Y022342D02*
X023488Y022342D01*
X022193Y024835D02*
X020951Y024835D01*
X020756Y025333D02*
X022691Y025333D01*
X020361Y025333D02*
X020360Y025333D01*
X019965Y025333D02*
X019700Y025333D01*
X019022Y025333D02*
X018567Y025333D01*
X018811Y024835D02*
X017931Y024835D01*
X017410Y024336D02*
X018931Y024336D01*
X018696Y023838D02*
X017287Y023838D01*
X017857Y023821D02*
X017857Y022991D01*
X017857Y022991D01*
X017857Y023821D01*
X017857Y023339D02*
X017857Y023339D01*
X017857Y022990D02*
X017857Y022161D01*
X017974Y022161D01*
X018051Y022192D01*
X017996Y022138D01*
X017931Y021980D01*
X017931Y021809D01*
X017931Y021072D01*
X017562Y020704D01*
X017545Y020697D01*
X017391Y020542D01*
X017357Y020461D01*
X017323Y020542D01*
X017169Y020697D01*
X016966Y020781D01*
X016791Y020781D01*
X016791Y020980D01*
X016725Y021138D01*
X016604Y021259D01*
X015604Y022259D01*
X015446Y022324D01*
X015275Y022324D01*
X015208Y022324D01*
X015323Y022439D01*
X015357Y022521D01*
X015391Y022439D01*
X015545Y022284D01*
X015748Y022201D01*
X015966Y022201D01*
X016169Y022284D01*
X016323Y022439D01*
X016357Y022521D01*
X016391Y022439D01*
X016545Y022284D01*
X016748Y022201D01*
X016966Y022201D01*
X017169Y022284D01*
X017323Y022439D01*
X017335Y022468D01*
X017357Y022417D01*
X017523Y022251D01*
X017740Y022161D01*
X017857Y022161D01*
X017857Y022990D01*
X017857Y022990D01*
X017857Y022840D02*
X017857Y022840D01*
X017857Y022342D02*
X017857Y022342D01*
X017431Y022342D02*
X017226Y022342D01*
X016488Y022342D02*
X016226Y022342D01*
X016020Y021843D02*
X017931Y021843D01*
X017931Y021345D02*
X016518Y021345D01*
X016791Y020846D02*
X017705Y020846D01*
X015488Y022342D02*
X015226Y022342D01*
X015427Y023838D02*
X013859Y023838D01*
X013596Y024336D02*
X015311Y024336D01*
X014861Y024835D02*
X013291Y024835D01*
X013359Y025333D02*
X015072Y025333D01*
X018205Y027327D02*
X018459Y027327D01*
X018860Y027327D02*
X018861Y027327D01*
X019262Y027327D02*
X019516Y027327D01*
X022357Y019521D02*
X022391Y019439D01*
X022545Y019284D01*
X022748Y019201D01*
X022966Y019201D01*
X023169Y019284D01*
X023323Y019439D01*
X023357Y019521D01*
X023391Y019439D01*
X023545Y019284D01*
X023748Y019201D01*
X023966Y019201D01*
X023974Y019204D01*
X023996Y019151D01*
X024117Y019030D01*
X024548Y018599D01*
X024394Y018446D01*
X024361Y018364D01*
X024327Y018446D01*
X024172Y018601D01*
X023970Y018684D01*
X023751Y018684D01*
X023549Y018601D01*
X023394Y018446D01*
X023361Y018364D01*
X023327Y018446D01*
X023172Y018601D01*
X022970Y018684D01*
X022751Y018684D01*
X022549Y018601D01*
X022394Y018446D01*
X022361Y018364D01*
X022327Y018446D01*
X022287Y018486D01*
X022451Y018650D01*
X022451Y018894D01*
X021861Y018894D01*
X021861Y018894D01*
X022451Y018894D01*
X022451Y019139D01*
X022237Y019353D01*
X022323Y019439D01*
X022357Y019521D01*
X022239Y019351D02*
X022479Y019351D01*
X022451Y018852D02*
X024295Y018852D01*
X023479Y019351D02*
X023235Y019351D01*
X026365Y018354D02*
X026811Y018354D01*
X027911Y018354D02*
X028436Y018354D01*
X027911Y019351D02*
X034349Y019351D01*
X034191Y018894D02*
X034910Y018894D01*
X034191Y018894D01*
X034191Y018852D02*
X031011Y018852D01*
X031291Y018354D02*
X031436Y018354D01*
X032285Y018354D02*
X034142Y018354D01*
X034131Y017855D02*
X032486Y017855D01*
X032207Y017356D02*
X034175Y017356D01*
X034910Y018894D02*
X034910Y018894D01*
X031515Y017356D02*
X031207Y017356D01*
X030515Y017356D02*
X030263Y017356D01*
X029861Y017356D02*
X029860Y017356D01*
X029860Y017855D02*
X029861Y017855D01*
X033911Y024336D02*
X035905Y024336D01*
X035905Y025832D02*
X033782Y025832D01*
X034069Y026330D02*
X035905Y026330D01*
X035905Y026829D02*
X033963Y026829D01*
X032877Y025832D02*
X032797Y025832D01*
X031892Y025832D02*
X031589Y025832D01*
X031132Y025832D02*
X030829Y025832D01*
X029924Y025832D02*
X029845Y025832D01*
X029698Y024835D02*
X030023Y024835D01*
X030028Y028324D02*
X030581Y028324D01*
X030694Y028823D02*
X029863Y028823D01*
X035724Y027327D02*
X035905Y027327D01*
X028360Y009380D02*
X028361Y009380D01*
X028360Y008881D02*
X028361Y008881D01*
X028637Y008383D02*
X027683Y008383D01*
X027171Y007884D02*
X028431Y007884D01*
X027955Y007386D02*
X026564Y007386D01*
X026451Y006887D02*
X027931Y006887D01*
X027961Y006389D02*
X026181Y006389D01*
X026353Y005391D02*
X022369Y005391D01*
X021853Y005391D02*
X020869Y005391D01*
X020353Y005391D02*
X016369Y005391D01*
X015853Y005391D02*
X014869Y005391D01*
X014353Y005391D02*
X010369Y005391D01*
X011012Y004893D02*
X013709Y004893D01*
X013581Y004394D02*
X011141Y004394D01*
X011012Y003896D02*
X013709Y003896D01*
X014181Y006389D02*
X015961Y006389D01*
X015931Y006887D02*
X014451Y006887D01*
X014564Y007386D02*
X015955Y007386D01*
X016431Y007884D02*
X015171Y007884D01*
X015683Y008383D02*
X016637Y008383D01*
X016360Y008881D02*
X016361Y008881D01*
X016360Y009380D02*
X016361Y009380D01*
X020181Y006389D02*
X021961Y006389D01*
X021931Y006887D02*
X020451Y006887D01*
X020564Y007386D02*
X021955Y007386D01*
X022431Y007884D02*
X021171Y007884D01*
X021683Y008383D02*
X022637Y008383D01*
X022360Y008881D02*
X022361Y008881D01*
X022360Y009380D02*
X022361Y009380D01*
X023012Y004893D02*
X025709Y004893D01*
X025581Y004394D02*
X023141Y004394D01*
X023012Y003896D02*
X025709Y003896D01*
X026869Y005391D02*
X027853Y005391D01*
X028369Y005391D02*
X032353Y005391D01*
X032869Y005391D02*
X034825Y005391D01*
X034236Y004893D02*
X033512Y004893D01*
X033641Y004394D02*
X034111Y004394D01*
X034236Y003896D02*
X033512Y003896D01*
X031709Y003896D02*
X029012Y003896D01*
X029141Y004394D02*
X031581Y004394D01*
X031709Y004893D02*
X029012Y004893D01*
X035496Y005391D02*
X035905Y005391D01*
X019709Y004893D02*
X017012Y004893D01*
X017141Y004394D02*
X019581Y004394D01*
X019709Y003896D02*
X017012Y003896D01*
X010431Y007884D02*
X009171Y007884D01*
X009683Y008383D02*
X010637Y008383D01*
X010360Y008881D02*
X010361Y008881D01*
X010360Y009380D02*
X010361Y009380D01*
X009955Y007386D02*
X008564Y007386D01*
X008451Y006887D02*
X009931Y006887D01*
X009961Y006389D02*
X008181Y006389D01*
X008353Y005391D02*
X004369Y005391D01*
X005012Y004893D02*
X007709Y004893D01*
X007581Y004394D02*
X005141Y004394D01*
X005012Y003896D02*
X007709Y003896D01*
X008869Y005391D02*
X009853Y005391D01*
X004431Y007884D02*
X000613Y007884D01*
X000613Y008383D02*
X004637Y008383D01*
X004360Y008881D02*
X004361Y008881D01*
X004360Y009380D02*
X004361Y009380D01*
X003654Y008881D02*
X000613Y008881D01*
X000613Y009380D02*
X003411Y009380D01*
X003625Y009878D02*
X000613Y009878D01*
X000613Y010377D02*
X003451Y010377D01*
X003679Y010875D02*
X000613Y010875D01*
X000613Y011374D02*
X001863Y011374D01*
X001707Y011872D02*
X000613Y011872D01*
X000613Y012371D02*
X001551Y012371D01*
X001648Y012870D02*
X000613Y012870D01*
X000613Y013368D02*
X001551Y013368D01*
X001645Y013867D02*
X000613Y013867D01*
X000613Y014365D02*
X001551Y014365D01*
X001642Y014864D02*
X000613Y014864D01*
X000613Y015362D02*
X003186Y015362D01*
X003186Y015394D02*
X003860Y015394D01*
X003860Y015394D01*
X003186Y015394D01*
X003373Y015861D02*
X000613Y015861D01*
X000860Y016307D02*
X000974Y016259D01*
X001747Y016259D01*
X001861Y016307D01*
X001928Y016373D01*
X001978Y016322D01*
X002226Y016219D01*
X002360Y016219D01*
X002360Y016894D01*
X002361Y016894D01*
X002361Y016894D01*
X003036Y016894D01*
X003036Y016760D01*
X002933Y016512D01*
X002743Y016322D01*
X002495Y016219D01*
X002361Y016219D01*
X002361Y016894D01*
X003036Y016894D01*
X003036Y017029D01*
X002933Y017277D01*
X002743Y017467D01*
X002495Y017569D01*
X002361Y017569D01*
X002361Y016895D01*
X002360Y016895D01*
X002360Y017569D01*
X002226Y017569D01*
X001978Y017467D01*
X001928Y017416D01*
X001861Y017482D01*
X001747Y017529D01*
X000974Y017529D01*
X000860Y017482D01*
X000773Y017395D01*
X000726Y017281D01*
X000726Y016508D01*
X000773Y016394D01*
X000860Y016307D01*
X000807Y016359D02*
X000613Y016359D01*
X000613Y016858D02*
X000726Y016858D01*
X000757Y017356D02*
X000613Y017356D01*
X000613Y017855D02*
X005431Y017855D01*
X005431Y017356D02*
X002853Y017356D01*
X002361Y017356D02*
X002360Y017356D01*
X002360Y016858D02*
X002361Y016858D01*
X002360Y016359D02*
X002361Y016359D01*
X002780Y016359D02*
X005218Y016359D01*
X005431Y016858D02*
X003036Y016858D01*
X001941Y016359D02*
X001914Y016359D01*
X003080Y014864D02*
X003437Y014864D01*
X003860Y015861D02*
X003861Y015861D01*
X005496Y015421D02*
X005496Y015137D01*
X005996Y015638D01*
X006117Y015759D01*
X006275Y015824D01*
X006683Y015824D01*
X006996Y016138D01*
X007117Y016259D01*
X007275Y016324D01*
X007683Y016324D01*
X008496Y017138D01*
X008573Y017214D01*
X007929Y017214D01*
X007815Y017262D01*
X007728Y017349D01*
X007681Y017463D01*
X007681Y018326D01*
X007728Y018440D01*
X007762Y018474D01*
X007750Y018486D01*
X007641Y018751D01*
X007641Y018894D01*
X008360Y018894D01*
X008360Y018894D01*
X007641Y018894D01*
X007641Y019038D01*
X007750Y019302D01*
X007871Y019423D01*
X007829Y019464D01*
X006539Y019464D01*
X006291Y019216D01*
X006291Y016480D01*
X006291Y016309D01*
X006225Y016151D01*
X005496Y015421D01*
X005496Y015362D02*
X005721Y015362D01*
X005935Y015861D02*
X006719Y015861D01*
X006291Y016359D02*
X007718Y016359D01*
X008216Y016858D02*
X006291Y016858D01*
X006291Y017356D02*
X007725Y017356D01*
X007681Y017855D02*
X006291Y017855D01*
X006291Y018354D02*
X007692Y018354D01*
X007641Y018852D02*
X006291Y018852D01*
X006425Y019351D02*
X007799Y019351D01*
X007852Y020348D02*
X005185Y020348D01*
X004536Y020348D02*
X002862Y020348D01*
X002933Y020277D02*
X002743Y020467D01*
X002495Y020569D01*
X002361Y020569D01*
X002361Y019895D01*
X002360Y019895D01*
X002360Y020569D01*
X002226Y020569D01*
X001978Y020467D01*
X001928Y020416D01*
X001861Y020482D01*
X001747Y020529D01*
X000974Y020529D01*
X000860Y020482D01*
X000773Y020395D01*
X000726Y020281D01*
X000726Y019508D01*
X000773Y019394D01*
X000860Y019307D01*
X000974Y019259D01*
X001747Y019259D01*
X001861Y019307D01*
X001928Y019373D01*
X001978Y019322D01*
X002226Y019219D01*
X002360Y019219D01*
X002360Y019894D01*
X002361Y019894D01*
X002361Y019894D01*
X003036Y019894D01*
X003036Y019760D01*
X002933Y019512D01*
X002743Y019322D01*
X002495Y019219D01*
X002361Y019219D01*
X002361Y019894D01*
X003036Y019894D01*
X003036Y020029D01*
X002933Y020277D01*
X002361Y020348D02*
X002360Y020348D01*
X002360Y019849D02*
X002361Y019849D01*
X002360Y019351D02*
X002361Y019351D01*
X002771Y019351D02*
X004483Y019351D01*
X004311Y019849D02*
X003036Y019849D01*
X001950Y019351D02*
X001905Y019351D01*
X000816Y019351D02*
X000613Y019351D01*
X000613Y019849D02*
X000726Y019849D01*
X000753Y020348D02*
X000613Y020348D01*
X000613Y018852D02*
X004271Y018852D01*
X004567Y018354D02*
X000613Y018354D01*
X004860Y018354D02*
X004861Y018354D01*
X005154Y018354D02*
X005431Y018354D01*
X004861Y018852D02*
X004860Y018852D01*
X003311Y012870D02*
X003074Y012870D01*
X003171Y012371D02*
X003431Y012371D01*
X003431Y011872D02*
X003014Y011872D01*
X002859Y011374D02*
X003451Y011374D01*
X003955Y007386D02*
X000613Y007386D01*
X000613Y006887D02*
X003931Y006887D01*
X003961Y006389D02*
X000613Y006389D01*
X004169Y027327D02*
X007552Y027327D01*
X007143Y027826D02*
X004578Y027826D01*
X004641Y028324D02*
X007081Y028324D01*
X007284Y028823D02*
X004437Y028823D01*
D27*
X004361Y010394D02*
X005361Y010394D01*
X005361Y008894D01*
X005861Y008394D01*
X005861Y007894D01*
X006111Y007894D01*
X005861Y007894D02*
X005861Y006894D01*
X005611Y006894D01*
X006611Y006894D02*
X006861Y006894D01*
X006861Y007894D01*
X007111Y007894D01*
X006861Y007894D02*
X006861Y008394D01*
X007361Y008894D01*
X007361Y010394D01*
X006361Y010394D01*
X008361Y010394D02*
X009361Y010394D01*
X009361Y008894D01*
X008861Y008394D01*
X008361Y008394D01*
X007861Y007894D01*
X008111Y007894D01*
X007861Y007894D02*
X007861Y006894D01*
X007611Y006894D01*
X011361Y008894D02*
X011361Y010394D01*
X010361Y010394D01*
X011361Y008894D02*
X011861Y008394D01*
X011861Y007894D01*
X012111Y007894D01*
X011861Y007894D02*
X011861Y006894D01*
X011611Y006894D01*
X012611Y006894D02*
X012861Y006894D01*
X012861Y007894D01*
X013111Y007894D01*
X012861Y007894D02*
X012861Y008394D01*
X013361Y008894D01*
X013361Y010394D01*
X012361Y010394D01*
X014361Y010394D02*
X015361Y010394D01*
X015361Y008894D01*
X014861Y008394D01*
X014361Y008394D01*
X013861Y007894D01*
X014111Y007894D01*
X013861Y007894D02*
X013861Y006894D01*
X013611Y006894D01*
X017611Y006894D02*
X017861Y006894D01*
X017861Y007894D01*
X018111Y007894D01*
X017861Y007894D02*
X017861Y008394D01*
X017361Y008894D01*
X017361Y010394D01*
X016361Y010394D01*
X018361Y010394D02*
X019361Y010394D01*
X019361Y008894D01*
X018861Y008394D01*
X018861Y007894D01*
X019111Y007894D01*
X018861Y007894D02*
X018861Y006894D01*
X018611Y006894D01*
X019611Y006894D02*
X019861Y006894D01*
X019861Y007894D01*
X020111Y007894D01*
X019861Y007894D02*
X020361Y008394D01*
X020861Y008394D01*
X021361Y008894D01*
X021361Y010394D01*
X020361Y010394D01*
X022361Y010394D02*
X023361Y010394D01*
X023361Y008894D01*
X023861Y008394D01*
X023861Y007894D01*
X024111Y007894D01*
X023861Y007894D02*
X023861Y006894D01*
X023611Y006894D01*
X024611Y006894D02*
X024861Y006894D01*
X024861Y007894D01*
X025111Y007894D01*
X024861Y007894D02*
X024861Y008394D01*
X025361Y008894D01*
X025361Y010394D01*
X024361Y010394D01*
X026361Y010394D02*
X027361Y010394D01*
X027361Y008894D01*
X026861Y008394D01*
X026361Y008394D01*
X025861Y007894D01*
X026111Y007894D01*
X025861Y007894D02*
X025861Y006894D01*
X025611Y006894D01*
X029361Y008894D02*
X029361Y010394D01*
X028361Y010394D01*
X029361Y008894D02*
X029861Y008394D01*
X029861Y007894D01*
X030111Y007894D01*
X029861Y007894D02*
X029861Y006894D01*
X029611Y006894D01*
X030611Y006894D02*
X030861Y006894D01*
X030861Y007894D01*
X031111Y007894D01*
X030861Y007894D02*
X030861Y008394D01*
X031361Y008894D01*
X031361Y010394D01*
X030361Y010394D01*
X032361Y010394D02*
X033361Y010394D01*
X033361Y008894D01*
X032861Y008394D01*
X032361Y008394D01*
X031861Y007894D01*
X032111Y007894D01*
X031861Y007894D02*
X031861Y006894D01*
X031611Y006894D01*
D28*
X016861Y018894D02*
X013861Y018894D01*
X012857Y019898D01*
X012857Y019991D01*
M02*
