%
M48
M72
T01C0.0236
T02C0.0276
T03C0.0320
T04C0.0394
T05C0.0400
T06C0.0472
T07C0.0512
T08C0.1260
T09C0.1300
%
T01
X2361Y11394
X3361Y13394
X7861Y14394
X7861Y15394
X9861Y14394
X9861Y16394
X14361Y16394
X19361Y20394
X19861Y21394
X14361Y20894
X13361Y23894
X12861Y25394
X9861Y25394
X9361Y25394
X9861Y23894
X8361Y21894
X2361Y21394
X25861Y20394
T02
X4861Y15394
X3861Y15394
X2361Y16894
X1361Y16894
X1361Y19894
X2361Y19894
T03
X4861Y19894
X4861Y18894
X4861Y12894
X5861Y12894
X6861Y12894
X7861Y12894
X8861Y12894
X9861Y12894
X10861Y12894
X11861Y12894
X12861Y12894
X13861Y12894
X14861Y12894
X15861Y12894
X16861Y12894
X17861Y12894
X18861Y12894
X19861Y12894
X20861Y12894
X21861Y12894
X22861Y12894
X23861Y12894
X24861Y12894
X25861Y12894
X26861Y12894
X27861Y12894
X28861Y12894
X29861Y12894
X30861Y12894
X31861Y12894
X32861Y12894
X29861Y16894
X29861Y17894
X30861Y17894
X31861Y17894
X28861Y17894
X28861Y16894
X27361Y16894
X27361Y15894
X25861Y14894
X24861Y14894
X23861Y14894
X22861Y14894
X21861Y14894
X20861Y14894
X19861Y14894
X18861Y14894
X17861Y14894
X16861Y14894
X15861Y14894
X14861Y14894
X13861Y14894
X12861Y14894
X12861Y17894
X13861Y17894
X14861Y17894
X15861Y17894
X16861Y17894
X17861Y17894
X18861Y17894
X19861Y17894
X20861Y17894
X21861Y17894
X22861Y17894
X23861Y17894
X24861Y17894
X25861Y17894
X27361Y18394
X27361Y19394
X27361Y20894
X27361Y21894
X27861Y23394
X26861Y23394
X24857Y22991
X23857Y22991
X22857Y22991
X21857Y22991
X20857Y22991
X19857Y22991
X18857Y22991
X17857Y22991
X16857Y22991
X15857Y22991
X14857Y22991
X13857Y22991
X12857Y22991
X11857Y22991
X11857Y19991
X12857Y19991
X13857Y19991
X14857Y19991
X15857Y19991
X16857Y19991
X17857Y19991
X18857Y19991
X19857Y19991
X20857Y19991
X21857Y19991
X22857Y19991
X23857Y19991
X24857Y19991
X21861Y18894
X20861Y18894
X17861Y18894
X16861Y18894
X17311Y24894
X19361Y24894
X20361Y24894
X20861Y26894
X19861Y26894
X18861Y26894
X17861Y26894
X15411Y24894
X24861Y24394
X24861Y25394
X29361Y24394
X30361Y24394
X31861Y22894
X31861Y21894
X31861Y20894
X30861Y20894
X29861Y20894
X28861Y20894
X32361Y24394
X33361Y24394
X3861Y12894
T04
X5111Y7894
X6111Y7894
X7111Y7894
X8111Y7894
X7611Y6894
X6611Y6894
X5611Y6894
X4611Y6894
X10611Y6894
X11611Y6894
X12611Y6894
X13611Y6894
X14111Y7894
X13111Y7894
X12111Y7894
X11111Y7894
X16611Y6894
X17611Y6894
X18611Y6894
X19611Y6894
X20111Y7894
X19111Y7894
X18111Y7894
X17111Y7894
X22611Y6894
X23611Y6894
X24611Y6894
X25611Y6894
X26111Y7894
X25111Y7894
X24111Y7894
X23111Y7894
X28611Y6894
X29611Y6894
X30611Y6894
X31611Y6894
X32111Y7894
X31111Y7894
X30111Y7894
X29111Y7894
X8361Y17894
X8361Y18894
X8361Y19894
X7111Y24694
X6111Y24694
X5111Y24694
X4111Y24694
X4611Y25694
X5611Y25694
X6611Y25694
X7611Y25694
X1861Y26394
X1861Y22394
T05
X4361Y11394
X4361Y10394
X4361Y9394
X6361Y9394
X6361Y10394
X6361Y11394
X8361Y11394
X8361Y10394
X8361Y9394
X10361Y9394
X10361Y10394
X10361Y11394
X12361Y11394
X12361Y10394
X12361Y9394
X14361Y9394
X14361Y10394
X14361Y11394
X16361Y11394
X16361Y10394
X16361Y9394
X18361Y9394
X18361Y10394
X18361Y11394
X20361Y11394
X20361Y10394
X20361Y9394
X22361Y9394
X22361Y10394
X22361Y11394
X24361Y11394
X24361Y10394
X24361Y9394
X26361Y9394
X26361Y10394
X26361Y11394
X28361Y11394
X28361Y10394
X28361Y9394
X30361Y9394
X30361Y10394
X30361Y11394
X32361Y11394
X32361Y10394
X32361Y9394
X34811Y17894
X34911Y18894
X34811Y19894
X34911Y20894
X28251Y25114
X26471Y25114
X26471Y27674
X28251Y27674
T06
X29392Y28394
X29392Y29379
X31361Y26426
X33329Y28394
X33329Y29379
X11361Y27894
X9983Y27894
T07
X13892Y27894
X15861Y27894
X29392Y26426
X30376Y26426
X32345Y26426
X33329Y26426
X31361Y28394
T08
X8111Y28194
X3611Y28194
X4111Y4394
X8611Y4394
X10111Y4394
X14611Y4394
X16111Y4394
X20611Y4394
X22111Y4394
X26611Y4394
X28111Y4394
X32611Y4394
T09
X1361Y4394
X1361Y28214
X35161Y28214
X35161Y4394
M30
