G75*
G70*
%OFA0B0*%
%FSLAX24Y24*%
%IPPOS*%
%LPD*%
%AMOC8*
5,1,8,0,0,1.08239X$1,22.5*
%
%ADD10C,0.0000*%
%ADD11C,0.0060*%
%ADD12C,0.0080*%
%ADD13C,0.0050*%
%ADD14C,0.0010*%
%ADD15R,0.0400X0.4000*%
%ADD16C,0.0240*%
%ADD17C,0.0100*%
%ADD18C,0.0020*%
%ADD19C,0.0160*%
D10*
X000213Y003209D02*
X000213Y029379D01*
X036305Y029379D01*
X036305Y003209D01*
X000213Y003209D01*
X000711Y004394D02*
X000746Y004605D01*
X000848Y004793D01*
X001005Y004938D01*
X001201Y005024D01*
X001415Y005042D01*
X001622Y004989D01*
X001801Y004872D01*
X001933Y004703D01*
X002002Y004501D01*
X002002Y004287D01*
X001933Y004085D01*
X001801Y003916D01*
X001622Y003799D01*
X001415Y003746D01*
X001201Y003764D01*
X001005Y003850D01*
X000848Y003995D01*
X000746Y004183D01*
X000711Y004394D01*
X003481Y004394D02*
X003519Y004609D01*
X003628Y004799D01*
X003796Y004940D01*
X004002Y005014D01*
X004220Y005014D01*
X004426Y004940D01*
X004594Y004799D01*
X004703Y004609D01*
X004741Y004394D01*
X004703Y004179D01*
X004594Y003989D01*
X004426Y003848D01*
X004220Y003774D01*
X004002Y003774D01*
X003796Y003848D01*
X003628Y003989D01*
X003519Y004179D01*
X003481Y004394D01*
X007981Y004394D02*
X008019Y004609D01*
X008128Y004799D01*
X008296Y004940D01*
X008502Y005014D01*
X008720Y005014D01*
X008926Y004940D01*
X009094Y004799D01*
X009203Y004609D01*
X009241Y004394D01*
X009203Y004179D01*
X009094Y003989D01*
X008926Y003848D01*
X008720Y003774D01*
X008502Y003774D01*
X008296Y003848D01*
X008128Y003989D01*
X008019Y004179D01*
X007981Y004394D01*
X009481Y004394D02*
X009519Y004609D01*
X009628Y004799D01*
X009796Y004940D01*
X010002Y005014D01*
X010220Y005014D01*
X010426Y004940D01*
X010594Y004799D01*
X010703Y004609D01*
X010741Y004394D01*
X010703Y004179D01*
X010594Y003989D01*
X010426Y003848D01*
X010220Y003774D01*
X010002Y003774D01*
X009796Y003848D01*
X009628Y003989D01*
X009519Y004179D01*
X009481Y004394D01*
X013981Y004394D02*
X014019Y004609D01*
X014128Y004799D01*
X014296Y004940D01*
X014502Y005014D01*
X014720Y005014D01*
X014926Y004940D01*
X015094Y004799D01*
X015203Y004609D01*
X015241Y004394D01*
X015203Y004179D01*
X015094Y003989D01*
X014926Y003848D01*
X014720Y003774D01*
X014502Y003774D01*
X014296Y003848D01*
X014128Y003989D01*
X014019Y004179D01*
X013981Y004394D01*
X015481Y004394D02*
X015519Y004609D01*
X015628Y004799D01*
X015796Y004940D01*
X016002Y005014D01*
X016220Y005014D01*
X016426Y004940D01*
X016594Y004799D01*
X016703Y004609D01*
X016741Y004394D01*
X016703Y004179D01*
X016594Y003989D01*
X016426Y003848D01*
X016220Y003774D01*
X016002Y003774D01*
X015796Y003848D01*
X015628Y003989D01*
X015519Y004179D01*
X015481Y004394D01*
X019981Y004394D02*
X020019Y004609D01*
X020128Y004799D01*
X020296Y004940D01*
X020502Y005014D01*
X020720Y005014D01*
X020926Y004940D01*
X021094Y004799D01*
X021203Y004609D01*
X021241Y004394D01*
X021203Y004179D01*
X021094Y003989D01*
X020926Y003848D01*
X020720Y003774D01*
X020502Y003774D01*
X020296Y003848D01*
X020128Y003989D01*
X020019Y004179D01*
X019981Y004394D01*
X021481Y004394D02*
X021519Y004609D01*
X021628Y004799D01*
X021796Y004940D01*
X022002Y005014D01*
X022220Y005014D01*
X022426Y004940D01*
X022594Y004799D01*
X022703Y004609D01*
X022741Y004394D01*
X022703Y004179D01*
X022594Y003989D01*
X022426Y003848D01*
X022220Y003774D01*
X022002Y003774D01*
X021796Y003848D01*
X021628Y003989D01*
X021519Y004179D01*
X021481Y004394D01*
X025981Y004394D02*
X026019Y004609D01*
X026128Y004799D01*
X026296Y004940D01*
X026502Y005014D01*
X026720Y005014D01*
X026926Y004940D01*
X027094Y004799D01*
X027203Y004609D01*
X027241Y004394D01*
X027203Y004179D01*
X027094Y003989D01*
X026926Y003848D01*
X026720Y003774D01*
X026502Y003774D01*
X026296Y003848D01*
X026128Y003989D01*
X026019Y004179D01*
X025981Y004394D01*
X027481Y004394D02*
X027519Y004609D01*
X027628Y004799D01*
X027796Y004940D01*
X028002Y005014D01*
X028220Y005014D01*
X028426Y004940D01*
X028594Y004799D01*
X028703Y004609D01*
X028741Y004394D01*
X028703Y004179D01*
X028594Y003989D01*
X028426Y003848D01*
X028220Y003774D01*
X028002Y003774D01*
X027796Y003848D01*
X027628Y003989D01*
X027519Y004179D01*
X027481Y004394D01*
X031981Y004394D02*
X032019Y004609D01*
X032128Y004799D01*
X032296Y004940D01*
X032502Y005014D01*
X032720Y005014D01*
X032926Y004940D01*
X033094Y004799D01*
X033203Y004609D01*
X033241Y004394D01*
X033203Y004179D01*
X033094Y003989D01*
X032926Y003848D01*
X032720Y003774D01*
X032502Y003774D01*
X032296Y003848D01*
X032128Y003989D01*
X032019Y004179D01*
X031981Y004394D01*
X034511Y004394D02*
X034546Y004605D01*
X034648Y004793D01*
X034805Y004938D01*
X035001Y005024D01*
X035215Y005042D01*
X035422Y004989D01*
X035601Y004872D01*
X035733Y004703D01*
X035802Y004501D01*
X035802Y004287D01*
X035733Y004085D01*
X035601Y003916D01*
X035422Y003799D01*
X035215Y003746D01*
X035001Y003764D01*
X034805Y003850D01*
X034648Y003995D01*
X034546Y004183D01*
X034511Y004394D01*
X031125Y026426D02*
X031162Y026554D01*
X031263Y026641D01*
X031395Y026660D01*
X031516Y026604D01*
X031587Y026492D01*
X031587Y026360D01*
X031516Y026248D01*
X031395Y026192D01*
X031263Y026211D01*
X031162Y026298D01*
X031125Y026426D01*
X029156Y028394D02*
X029193Y028522D01*
X029294Y028609D01*
X029426Y028628D01*
X029547Y028572D01*
X029618Y028460D01*
X029618Y028328D01*
X029547Y028216D01*
X029426Y028160D01*
X029294Y028179D01*
X029193Y028266D01*
X029156Y028394D01*
X029156Y029379D02*
X029193Y029507D01*
X029294Y029594D01*
X029426Y029613D01*
X029547Y029557D01*
X029618Y029445D01*
X029618Y029313D01*
X029547Y029201D01*
X029426Y029145D01*
X029294Y029164D01*
X029193Y029251D01*
X029156Y029379D01*
X033093Y029379D02*
X033130Y029507D01*
X033231Y029594D01*
X033363Y029613D01*
X033484Y029557D01*
X033555Y029445D01*
X033555Y029313D01*
X033484Y029201D01*
X033363Y029145D01*
X033231Y029164D01*
X033130Y029251D01*
X033093Y029379D01*
X033093Y028394D02*
X033130Y028522D01*
X033231Y028609D01*
X033363Y028628D01*
X033484Y028572D01*
X033555Y028460D01*
X033555Y028328D01*
X033484Y028216D01*
X033363Y028160D01*
X033231Y028179D01*
X033130Y028266D01*
X033093Y028394D01*
X034511Y028214D02*
X034546Y028425D01*
X034648Y028613D01*
X034805Y028758D01*
X035001Y028844D01*
X035215Y028862D01*
X035422Y028809D01*
X035601Y028692D01*
X035733Y028523D01*
X035802Y028321D01*
X035802Y028107D01*
X035733Y027905D01*
X035601Y027736D01*
X035422Y027619D01*
X035215Y027566D01*
X035001Y027584D01*
X034805Y027670D01*
X034648Y027815D01*
X034546Y028003D01*
X034511Y028214D01*
X007481Y028194D02*
X007519Y028409D01*
X007628Y028599D01*
X007796Y028740D01*
X008002Y028814D01*
X008220Y028814D01*
X008426Y028740D01*
X008594Y028599D01*
X008703Y028409D01*
X008741Y028194D01*
X008703Y027979D01*
X008594Y027789D01*
X008426Y027648D01*
X008220Y027574D01*
X008002Y027574D01*
X007796Y027648D01*
X007628Y027789D01*
X007519Y027979D01*
X007481Y028194D01*
X002981Y028194D02*
X003019Y028409D01*
X003128Y028599D01*
X003296Y028740D01*
X003502Y028814D01*
X003720Y028814D01*
X003926Y028740D01*
X004094Y028599D01*
X004203Y028409D01*
X004241Y028194D01*
X004203Y027979D01*
X004094Y027789D01*
X003926Y027648D01*
X003720Y027574D01*
X003502Y027574D01*
X003296Y027648D01*
X003128Y027789D01*
X003019Y027979D01*
X002981Y028194D01*
X000711Y028214D02*
X000746Y028425D01*
X000848Y028613D01*
X001005Y028758D01*
X001201Y028844D01*
X001415Y028862D01*
X001622Y028809D01*
X001801Y028692D01*
X001933Y028523D01*
X002002Y028321D01*
X002002Y028107D01*
X001933Y027905D01*
X001801Y027736D01*
X001622Y027619D01*
X001415Y027566D01*
X001201Y027584D01*
X001005Y027670D01*
X000848Y027815D01*
X000746Y028003D01*
X000711Y028214D01*
D11*
X004461Y020344D02*
X005261Y020344D01*
X005311Y020331D01*
X005348Y020294D01*
X005361Y020244D01*
X005361Y018544D01*
X005348Y018494D01*
X005311Y018457D01*
X005261Y018444D01*
X004461Y018444D01*
X004411Y018457D01*
X004374Y018494D01*
X004361Y018544D01*
X004361Y020244D01*
X004374Y020294D01*
X004411Y020331D01*
X004461Y020344D01*
X004861Y019544D02*
X004861Y019494D01*
X004861Y019294D02*
X004861Y019244D01*
X002861Y014744D02*
X001861Y014744D01*
X001811Y014731D01*
X001774Y014694D01*
X001761Y014644D01*
X001761Y012144D01*
X001774Y012094D01*
X001811Y012057D01*
X001861Y012044D01*
X002861Y012044D01*
X002911Y012057D01*
X002948Y012094D01*
X002961Y012144D01*
X002961Y014644D01*
X002948Y014694D01*
X002911Y014731D01*
X002861Y014744D01*
X004361Y012894D02*
X004399Y013085D01*
X004507Y013248D01*
X004670Y013356D01*
X004861Y013394D01*
X005052Y013356D01*
X005215Y013248D01*
X005323Y013085D01*
X005361Y012894D01*
X005323Y012703D01*
X005215Y012540D01*
X005052Y012432D01*
X004861Y012394D01*
X004670Y012432D01*
X004507Y012540D01*
X004399Y012703D01*
X004361Y012894D01*
X006361Y012894D02*
X006399Y013085D01*
X006507Y013248D01*
X006670Y013356D01*
X006861Y013394D01*
X007052Y013356D01*
X007215Y013248D01*
X007323Y013085D01*
X007361Y012894D01*
X007323Y012703D01*
X007215Y012540D01*
X007052Y012432D01*
X006861Y012394D01*
X006670Y012432D01*
X006507Y012540D01*
X006399Y012703D01*
X006361Y012894D01*
X008361Y012894D02*
X008399Y013085D01*
X008507Y013248D01*
X008670Y013356D01*
X008861Y013394D01*
X009052Y013356D01*
X009215Y013248D01*
X009323Y013085D01*
X009361Y012894D01*
X009323Y012703D01*
X009215Y012540D01*
X009052Y012432D01*
X008861Y012394D01*
X008670Y012432D01*
X008507Y012540D01*
X008399Y012703D01*
X008361Y012894D01*
X010361Y012894D02*
X010399Y013085D01*
X010507Y013248D01*
X010670Y013356D01*
X010861Y013394D01*
X011052Y013356D01*
X011215Y013248D01*
X011323Y013085D01*
X011361Y012894D01*
X011323Y012703D01*
X011215Y012540D01*
X011052Y012432D01*
X010861Y012394D01*
X010670Y012432D01*
X010507Y012540D01*
X010399Y012703D01*
X010361Y012894D01*
X012361Y012894D02*
X012399Y013085D01*
X012507Y013248D01*
X012670Y013356D01*
X012861Y013394D01*
X013052Y013356D01*
X013215Y013248D01*
X013323Y013085D01*
X013361Y012894D01*
X013323Y012703D01*
X013215Y012540D01*
X013052Y012432D01*
X012861Y012394D01*
X012670Y012432D01*
X012507Y012540D01*
X012399Y012703D01*
X012361Y012894D01*
X014361Y012894D02*
X014399Y013085D01*
X014507Y013248D01*
X014670Y013356D01*
X014861Y013394D01*
X015052Y013356D01*
X015215Y013248D01*
X015323Y013085D01*
X015361Y012894D01*
X015323Y012703D01*
X015215Y012540D01*
X015052Y012432D01*
X014861Y012394D01*
X014670Y012432D01*
X014507Y012540D01*
X014399Y012703D01*
X014361Y012894D01*
X016361Y012894D02*
X016399Y013085D01*
X016507Y013248D01*
X016670Y013356D01*
X016861Y013394D01*
X017052Y013356D01*
X017215Y013248D01*
X017323Y013085D01*
X017361Y012894D01*
X017323Y012703D01*
X017215Y012540D01*
X017052Y012432D01*
X016861Y012394D01*
X016670Y012432D01*
X016507Y012540D01*
X016399Y012703D01*
X016361Y012894D01*
X018361Y012894D02*
X018399Y013085D01*
X018507Y013248D01*
X018670Y013356D01*
X018861Y013394D01*
X019052Y013356D01*
X019215Y013248D01*
X019323Y013085D01*
X019361Y012894D01*
X019323Y012703D01*
X019215Y012540D01*
X019052Y012432D01*
X018861Y012394D01*
X018670Y012432D01*
X018507Y012540D01*
X018399Y012703D01*
X018361Y012894D01*
X020361Y012894D02*
X020399Y013085D01*
X020507Y013248D01*
X020670Y013356D01*
X020861Y013394D01*
X021052Y013356D01*
X021215Y013248D01*
X021323Y013085D01*
X021361Y012894D01*
X021323Y012703D01*
X021215Y012540D01*
X021052Y012432D01*
X020861Y012394D01*
X020670Y012432D01*
X020507Y012540D01*
X020399Y012703D01*
X020361Y012894D01*
X022361Y012894D02*
X022399Y013085D01*
X022507Y013248D01*
X022670Y013356D01*
X022861Y013394D01*
X023052Y013356D01*
X023215Y013248D01*
X023323Y013085D01*
X023361Y012894D01*
X023323Y012703D01*
X023215Y012540D01*
X023052Y012432D01*
X022861Y012394D01*
X022670Y012432D01*
X022507Y012540D01*
X022399Y012703D01*
X022361Y012894D01*
X024361Y012894D02*
X024399Y013085D01*
X024507Y013248D01*
X024670Y013356D01*
X024861Y013394D01*
X025052Y013356D01*
X025215Y013248D01*
X025323Y013085D01*
X025361Y012894D01*
X025323Y012703D01*
X025215Y012540D01*
X025052Y012432D01*
X024861Y012394D01*
X024670Y012432D01*
X024507Y012540D01*
X024399Y012703D01*
X024361Y012894D01*
X026361Y012894D02*
X026399Y013085D01*
X026507Y013248D01*
X026670Y013356D01*
X026861Y013394D01*
X027052Y013356D01*
X027215Y013248D01*
X027323Y013085D01*
X027361Y012894D01*
X027323Y012703D01*
X027215Y012540D01*
X027052Y012432D01*
X026861Y012394D01*
X026670Y012432D01*
X026507Y012540D01*
X026399Y012703D01*
X026361Y012894D01*
X028361Y012894D02*
X028399Y013085D01*
X028507Y013248D01*
X028670Y013356D01*
X028861Y013394D01*
X029052Y013356D01*
X029215Y013248D01*
X029323Y013085D01*
X029361Y012894D01*
X029323Y012703D01*
X029215Y012540D01*
X029052Y012432D01*
X028861Y012394D01*
X028670Y012432D01*
X028507Y012540D01*
X028399Y012703D01*
X028361Y012894D01*
X030361Y012894D02*
X030399Y013085D01*
X030507Y013248D01*
X030670Y013356D01*
X030861Y013394D01*
X031052Y013356D01*
X031215Y013248D01*
X031323Y013085D01*
X031361Y012894D01*
X031323Y012703D01*
X031215Y012540D01*
X031052Y012432D01*
X030861Y012394D01*
X030670Y012432D01*
X030507Y012540D01*
X030399Y012703D01*
X030361Y012894D01*
X032361Y012894D02*
X032399Y013085D01*
X032507Y013248D01*
X032670Y013356D01*
X032861Y013394D01*
X033052Y013356D01*
X033215Y013248D01*
X033323Y013085D01*
X033361Y012894D01*
X033323Y012703D01*
X033215Y012540D01*
X033052Y012432D01*
X032861Y012394D01*
X032670Y012432D01*
X032507Y012540D01*
X032399Y012703D01*
X032361Y012894D01*
X030211Y016394D02*
X028511Y016394D01*
X028461Y016407D01*
X028424Y016444D01*
X028411Y016494D01*
X028411Y017294D01*
X028424Y017344D01*
X028461Y017381D01*
X028511Y017394D01*
X030211Y017394D01*
X030261Y017381D01*
X030298Y017344D01*
X030311Y017294D01*
X030311Y016494D01*
X030298Y016444D01*
X030261Y016407D01*
X030211Y016394D01*
X029511Y016894D02*
X029461Y016894D01*
X029261Y016894D02*
X029211Y016894D01*
X028361Y017394D02*
X028361Y018394D01*
X028361Y018994D01*
X028514Y019024D01*
X028644Y019111D01*
X028731Y019241D01*
X028761Y019394D01*
X028731Y019547D01*
X028644Y019677D01*
X028514Y019764D01*
X028361Y019794D01*
X028361Y020394D02*
X032361Y020394D01*
X032361Y018394D01*
X032361Y017394D01*
X028361Y017394D01*
X027861Y017244D02*
X027861Y015544D01*
X027848Y015494D01*
X027811Y015457D01*
X027761Y015444D01*
X026961Y015444D01*
X026911Y015457D01*
X026874Y015494D01*
X026861Y015544D01*
X026861Y017244D01*
X026874Y017294D01*
X026911Y017331D01*
X026961Y017344D01*
X027761Y017344D01*
X027811Y017331D01*
X027848Y017294D01*
X027861Y017244D01*
X027361Y016544D02*
X027361Y016494D01*
X027361Y016294D02*
X027361Y016244D01*
X028361Y018394D02*
X032361Y018394D01*
X032361Y020394D02*
X032361Y021394D01*
X028361Y021394D01*
X028361Y020394D01*
X027861Y020544D02*
X027861Y022244D01*
X027848Y022294D01*
X027811Y022331D01*
X027761Y022344D01*
X026961Y022344D01*
X026911Y022331D01*
X026874Y022294D01*
X026861Y022244D01*
X026861Y020544D01*
X026874Y020494D01*
X026911Y020457D01*
X026961Y020444D01*
X027761Y020444D01*
X027811Y020457D01*
X027848Y020494D01*
X027861Y020544D01*
X027361Y021244D02*
X027361Y021294D01*
X027361Y021494D02*
X027361Y021544D01*
X028211Y022894D02*
X026511Y022894D01*
X026461Y022907D01*
X026424Y022944D01*
X026411Y022994D01*
X026411Y023794D01*
X026424Y023844D01*
X026461Y023881D01*
X026511Y023894D01*
X028211Y023894D01*
X028261Y023881D01*
X028298Y023844D01*
X028311Y023794D01*
X028311Y022994D01*
X028298Y022944D01*
X028261Y022907D01*
X028211Y022894D01*
X027511Y023394D02*
X027461Y023394D01*
X027261Y023394D02*
X027211Y023394D01*
X024361Y024394D02*
X024399Y024585D01*
X024507Y024748D01*
X024670Y024856D01*
X024861Y024894D01*
X025052Y024856D01*
X025215Y024748D01*
X025323Y024585D01*
X025361Y024394D01*
X025323Y024203D01*
X025215Y024040D01*
X025052Y023932D01*
X024861Y023894D01*
X024670Y023932D01*
X024507Y024040D01*
X024399Y024203D01*
X024361Y024394D01*
X021311Y026494D02*
X021311Y027294D01*
X021298Y027344D01*
X021261Y027381D01*
X021211Y027394D01*
X019511Y027394D01*
X019461Y027381D01*
X019424Y027344D01*
X019411Y027294D01*
X019411Y026494D01*
X019424Y026444D01*
X019461Y026407D01*
X019511Y026394D01*
X021211Y026394D01*
X021261Y026407D01*
X021298Y026444D01*
X021311Y026494D01*
X020511Y026894D02*
X020461Y026894D01*
X020261Y026894D02*
X020211Y026894D01*
X019311Y026494D02*
X019311Y027294D01*
X019298Y027344D01*
X019261Y027381D01*
X019211Y027394D01*
X017511Y027394D01*
X017461Y027381D01*
X017424Y027344D01*
X017411Y027294D01*
X017411Y026494D01*
X017424Y026444D01*
X017461Y026407D01*
X017511Y026394D01*
X019211Y026394D01*
X019261Y026407D01*
X019298Y026444D01*
X019311Y026494D01*
X018511Y026894D02*
X018461Y026894D01*
X018261Y026894D02*
X018211Y026894D01*
X017511Y025594D02*
X015211Y025594D01*
X014995Y025560D01*
X014800Y025460D01*
X014645Y025305D01*
X014545Y025110D01*
X014511Y024894D01*
X014545Y024678D01*
X014645Y024483D01*
X014800Y024328D01*
X014995Y024228D01*
X015211Y024194D01*
X017511Y024194D01*
X017727Y024228D01*
X017922Y024328D01*
X018077Y024483D01*
X018177Y024678D01*
X018211Y024894D01*
X018177Y025110D01*
X018077Y025305D01*
X017922Y025460D01*
X017727Y025560D01*
X017511Y025594D01*
X016861Y024894D02*
X016611Y024894D01*
X016611Y024544D01*
X016461Y024544D02*
X016261Y024544D01*
X016261Y025244D01*
X016461Y025244D01*
X016461Y024544D01*
X016111Y024544D02*
X016111Y024894D01*
X015861Y024894D01*
X016111Y024894D02*
X016111Y025244D01*
X016611Y025244D02*
X016611Y024894D01*
X018911Y025294D02*
X018911Y024494D01*
X018924Y024444D01*
X018961Y024407D01*
X019011Y024394D01*
X020711Y024394D01*
X020761Y024407D01*
X020798Y024444D01*
X020811Y024494D01*
X020811Y025294D01*
X020798Y025344D01*
X020761Y025381D01*
X020711Y025394D01*
X019011Y025394D01*
X018961Y025381D01*
X018924Y025344D01*
X018911Y025294D01*
X019711Y024894D02*
X019761Y024894D01*
X019961Y024894D02*
X020011Y024894D01*
X020361Y018894D02*
X020399Y019085D01*
X020507Y019248D01*
X020670Y019356D01*
X020861Y019394D01*
X021052Y019356D01*
X021215Y019248D01*
X021323Y019085D01*
X021361Y018894D01*
X021323Y018703D01*
X021215Y018540D01*
X021052Y018432D01*
X020861Y018394D01*
X020670Y018432D01*
X020507Y018540D01*
X020399Y018703D01*
X020361Y018894D01*
X016361Y018894D02*
X016399Y019085D01*
X016507Y019248D01*
X016670Y019356D01*
X016861Y019394D01*
X017052Y019356D01*
X017215Y019248D01*
X017323Y019085D01*
X017361Y018894D01*
X017323Y018703D01*
X017215Y018540D01*
X017052Y018432D01*
X016861Y018394D01*
X016670Y018432D01*
X016507Y018540D01*
X016399Y018703D01*
X016361Y018894D01*
X026861Y019394D02*
X026899Y019585D01*
X027007Y019748D01*
X027170Y019856D01*
X027361Y019894D01*
X027552Y019856D01*
X027715Y019748D01*
X027823Y019585D01*
X027861Y019394D01*
X027823Y019203D01*
X027715Y019040D01*
X027552Y018932D01*
X027361Y018894D01*
X027170Y018932D01*
X027007Y019040D01*
X026899Y019203D01*
X026861Y019394D01*
X031361Y021544D02*
X031361Y023244D01*
X031374Y023294D01*
X031411Y023331D01*
X031461Y023344D01*
X032261Y023344D01*
X032311Y023331D01*
X032348Y023294D01*
X032361Y023244D01*
X032361Y021544D01*
X032348Y021494D01*
X032311Y021457D01*
X032261Y021444D01*
X031461Y021444D01*
X031411Y021457D01*
X031374Y021494D01*
X031361Y021544D01*
X031861Y022244D02*
X031861Y022294D01*
X031861Y022494D02*
X031861Y022544D01*
X031861Y024394D02*
X031899Y024585D01*
X032007Y024748D01*
X032170Y024856D01*
X032361Y024894D01*
X032552Y024856D01*
X032715Y024748D01*
X032823Y024585D01*
X032861Y024394D01*
X032823Y024203D01*
X032715Y024040D01*
X032552Y023932D01*
X032361Y023894D01*
X032170Y023932D01*
X032007Y024040D01*
X031899Y024203D01*
X031861Y024394D01*
X029861Y024394D02*
X029899Y024585D01*
X030007Y024748D01*
X030170Y024856D01*
X030361Y024894D01*
X030552Y024856D01*
X030715Y024748D01*
X030823Y024585D01*
X030861Y024394D01*
X030823Y024203D01*
X030715Y024040D01*
X030552Y023932D01*
X030361Y023894D01*
X030170Y023932D01*
X030007Y024040D01*
X029899Y024203D01*
X029861Y024394D01*
D12*
X028998Y025442D02*
X028998Y025835D01*
X028998Y025442D02*
X033723Y025442D01*
X033723Y025835D01*
X033723Y027016D02*
X033723Y029772D01*
X028998Y029772D01*
X028998Y027016D01*
X028561Y027244D02*
X028561Y025544D01*
X027761Y025194D02*
X026956Y025194D01*
X026161Y025544D02*
X026161Y027244D01*
X026968Y027594D02*
X027761Y027594D01*
X026661Y026394D02*
X026699Y026621D01*
X026809Y026824D01*
X026978Y026980D01*
X027189Y027073D01*
X027419Y027092D01*
X027642Y027035D01*
X027835Y026909D01*
X027977Y026727D01*
X028051Y026509D01*
X028051Y026279D01*
X027977Y026061D01*
X027835Y025879D01*
X027642Y025753D01*
X027419Y025696D01*
X027189Y025715D01*
X026978Y025808D01*
X026809Y025964D01*
X026699Y026167D01*
X026661Y026394D01*
X025357Y022691D02*
X025257Y022691D01*
X025357Y022691D02*
X025357Y021991D01*
X025186Y021961D01*
X025036Y021874D01*
X024924Y021741D01*
X024865Y021578D01*
X024865Y021404D01*
X024924Y021241D01*
X025036Y021108D01*
X025186Y021021D01*
X025357Y020991D01*
X025357Y020291D01*
X025257Y020291D01*
X026261Y017594D02*
X026361Y017594D01*
X026361Y015194D01*
X026261Y015194D01*
X026211Y012394D02*
X027161Y012394D01*
X027561Y012394D01*
X027561Y008394D01*
X027161Y008394D01*
X027161Y012394D01*
X027861Y012044D02*
X027861Y011894D01*
X027860Y012045D02*
X027884Y012180D01*
X027960Y012295D01*
X028075Y012371D01*
X028210Y012395D01*
X028211Y012394D02*
X029161Y012394D01*
X029561Y012394D01*
X029561Y008394D01*
X029161Y008394D01*
X029161Y012394D01*
X029861Y012044D02*
X029861Y011894D01*
X029860Y012045D02*
X029884Y012180D01*
X029960Y012295D01*
X030075Y012371D01*
X030210Y012395D01*
X030211Y012394D02*
X031161Y012394D01*
X031561Y012394D01*
X031561Y008394D01*
X031161Y008394D01*
X031161Y012394D01*
X031861Y012044D02*
X031861Y011894D01*
X031860Y012045D02*
X031884Y012180D01*
X031960Y012295D01*
X032075Y012371D01*
X032210Y012395D01*
X032211Y012394D02*
X033161Y012394D01*
X033561Y012394D01*
X033561Y008394D01*
X033161Y008394D01*
X033161Y012394D01*
X031861Y008894D02*
X031861Y008744D01*
X031860Y008744D02*
X031884Y008609D01*
X031960Y008494D01*
X032075Y008418D01*
X032210Y008394D01*
X032211Y008394D02*
X033161Y008394D01*
X033361Y008331D02*
X033361Y003213D01*
X027361Y003213D01*
X027361Y008331D01*
X033361Y008331D01*
X031161Y008394D02*
X030211Y008394D01*
X030210Y008394D02*
X030075Y008418D01*
X029960Y008494D01*
X029884Y008609D01*
X029860Y008744D01*
X029861Y008744D02*
X029861Y008894D01*
X029161Y008394D02*
X028211Y008394D01*
X028210Y008394D02*
X028075Y008418D01*
X027960Y008494D01*
X027884Y008609D01*
X027860Y008744D01*
X027861Y008744D02*
X027861Y008894D01*
X027361Y008331D02*
X027361Y003213D01*
X021361Y003213D01*
X021361Y008331D01*
X027361Y008331D01*
X027161Y008394D02*
X026211Y008394D01*
X026210Y008394D02*
X026075Y008418D01*
X025960Y008494D01*
X025884Y008609D01*
X025860Y008744D01*
X025861Y008744D02*
X025861Y008894D01*
X025561Y008394D02*
X025161Y008394D01*
X025161Y012394D01*
X025561Y012394D01*
X025561Y008394D01*
X025161Y008394D02*
X024211Y008394D01*
X024210Y008394D02*
X024075Y008418D01*
X023960Y008494D01*
X023884Y008609D01*
X023860Y008744D01*
X023861Y008744D02*
X023861Y008894D01*
X023561Y008394D02*
X023161Y008394D01*
X023161Y012394D01*
X023561Y012394D01*
X023561Y008394D01*
X023161Y008394D02*
X022211Y008394D01*
X022210Y008394D02*
X022075Y008418D01*
X021960Y008494D01*
X021884Y008609D01*
X021860Y008744D01*
X021861Y008744D02*
X021861Y008894D01*
X021561Y008394D02*
X021161Y008394D01*
X021161Y012394D01*
X021561Y012394D01*
X021561Y008394D01*
X021361Y008331D02*
X021361Y003213D01*
X015361Y003213D01*
X015361Y008331D01*
X021361Y008331D01*
X021161Y008394D02*
X020211Y008394D01*
X020210Y008394D02*
X020075Y008418D01*
X019960Y008494D01*
X019884Y008609D01*
X019860Y008744D01*
X019861Y008744D02*
X019861Y008894D01*
X019561Y008394D02*
X019161Y008394D01*
X019161Y012394D01*
X019561Y012394D01*
X019561Y008394D01*
X019161Y008394D02*
X018211Y008394D01*
X018210Y008394D02*
X018075Y008418D01*
X017960Y008494D01*
X017884Y008609D01*
X017860Y008744D01*
X017861Y008744D02*
X017861Y008894D01*
X017561Y008394D02*
X017161Y008394D01*
X017161Y012394D01*
X017561Y012394D01*
X017561Y008394D01*
X017161Y008394D02*
X016211Y008394D01*
X016210Y008394D02*
X016075Y008418D01*
X015960Y008494D01*
X015884Y008609D01*
X015860Y008744D01*
X015861Y008744D02*
X015861Y008894D01*
X015561Y008394D02*
X015161Y008394D01*
X015161Y012394D01*
X015561Y012394D01*
X015561Y008394D01*
X015361Y008331D02*
X015361Y003213D01*
X009361Y003213D01*
X009361Y008331D01*
X015361Y008331D01*
X015161Y008394D02*
X014211Y008394D01*
X014210Y008394D02*
X014075Y008418D01*
X013960Y008494D01*
X013884Y008609D01*
X013860Y008744D01*
X013861Y008744D02*
X013861Y008894D01*
X013561Y008394D02*
X013161Y008394D01*
X013161Y012394D01*
X013561Y012394D01*
X013561Y008394D01*
X013161Y008394D02*
X012211Y008394D01*
X012210Y008394D02*
X012075Y008418D01*
X011960Y008494D01*
X011884Y008609D01*
X011860Y008744D01*
X011861Y008744D02*
X011861Y008894D01*
X011561Y008394D02*
X011161Y008394D01*
X011161Y012394D01*
X011561Y012394D01*
X011561Y008394D01*
X011161Y008394D02*
X010211Y008394D01*
X010210Y008394D02*
X010075Y008418D01*
X009960Y008494D01*
X009884Y008609D01*
X009860Y008744D01*
X009861Y008744D02*
X009861Y008894D01*
X009561Y008394D02*
X009161Y008394D01*
X009161Y012394D01*
X009561Y012394D01*
X009561Y008394D01*
X009361Y008331D02*
X009361Y003213D01*
X003361Y003213D01*
X003361Y008331D01*
X009361Y008331D01*
X009161Y008394D02*
X008211Y008394D01*
X008210Y008394D02*
X008075Y008418D01*
X007960Y008494D01*
X007884Y008609D01*
X007860Y008744D01*
X007861Y008744D02*
X007861Y008894D01*
X007561Y008394D02*
X007161Y008394D01*
X007161Y012394D01*
X007561Y012394D01*
X007561Y008394D01*
X007161Y008394D02*
X006211Y008394D01*
X006210Y008394D02*
X006075Y008418D01*
X005960Y008494D01*
X005884Y008609D01*
X005860Y008744D01*
X005861Y008744D02*
X005861Y008894D01*
X005561Y008394D02*
X005161Y008394D01*
X005161Y012394D01*
X005561Y012394D01*
X005561Y008394D01*
X005161Y008394D02*
X004211Y008394D01*
X004210Y008394D02*
X004075Y008418D01*
X003960Y008494D01*
X003884Y008609D01*
X003860Y008744D01*
X003861Y008744D02*
X003861Y008894D01*
X003861Y011894D02*
X003861Y012044D01*
X003860Y012045D02*
X003884Y012180D01*
X003960Y012295D01*
X004075Y012371D01*
X004210Y012395D01*
X004211Y012394D02*
X005161Y012394D01*
X005861Y012044D02*
X005861Y011894D01*
X005860Y012045D02*
X005884Y012180D01*
X005960Y012295D01*
X006075Y012371D01*
X006210Y012395D01*
X006211Y012394D02*
X007161Y012394D01*
X007861Y012044D02*
X007861Y011894D01*
X007860Y012045D02*
X007884Y012180D01*
X007960Y012295D01*
X008075Y012371D01*
X008210Y012395D01*
X008211Y012394D02*
X009161Y012394D01*
X009861Y012044D02*
X009861Y011894D01*
X009860Y012045D02*
X009884Y012180D01*
X009960Y012295D01*
X010075Y012371D01*
X010210Y012395D01*
X010211Y012394D02*
X011161Y012394D01*
X011861Y012044D02*
X011861Y011894D01*
X011860Y012045D02*
X011884Y012180D01*
X011960Y012295D01*
X012075Y012371D01*
X012210Y012395D01*
X012211Y012394D02*
X013161Y012394D01*
X013861Y012044D02*
X013861Y011894D01*
X013860Y012045D02*
X013884Y012180D01*
X013960Y012295D01*
X014075Y012371D01*
X014210Y012395D01*
X014211Y012394D02*
X015161Y012394D01*
X015861Y012044D02*
X015861Y011894D01*
X015860Y012045D02*
X015884Y012180D01*
X015960Y012295D01*
X016075Y012371D01*
X016210Y012395D01*
X016211Y012394D02*
X017161Y012394D01*
X017861Y012044D02*
X017861Y011894D01*
X017860Y012045D02*
X017884Y012180D01*
X017960Y012295D01*
X018075Y012371D01*
X018210Y012395D01*
X018211Y012394D02*
X019161Y012394D01*
X019861Y012044D02*
X019861Y011894D01*
X019860Y012045D02*
X019884Y012180D01*
X019960Y012295D01*
X020075Y012371D01*
X020210Y012395D01*
X020211Y012394D02*
X021161Y012394D01*
X021861Y012044D02*
X021861Y011894D01*
X021860Y012045D02*
X021884Y012180D01*
X021960Y012295D01*
X022075Y012371D01*
X022210Y012395D01*
X022211Y012394D02*
X023161Y012394D01*
X023861Y012044D02*
X023861Y011894D01*
X023860Y012045D02*
X023884Y012180D01*
X023960Y012295D01*
X024075Y012371D01*
X024210Y012395D01*
X024211Y012394D02*
X025161Y012394D01*
X025861Y012044D02*
X025861Y011894D01*
X025860Y012045D02*
X025884Y012180D01*
X025960Y012295D01*
X026075Y012371D01*
X026210Y012395D01*
X028361Y019794D02*
X028361Y020394D01*
X034361Y020144D02*
X034361Y019644D01*
X034611Y019394D01*
X034361Y019144D01*
X034361Y018644D01*
X034611Y018394D01*
X034361Y018144D01*
X034361Y017644D01*
X034611Y017394D01*
X035111Y017394D01*
X035361Y017644D01*
X035361Y018144D01*
X035111Y018394D01*
X035361Y018644D01*
X035361Y019144D01*
X035111Y019394D01*
X035361Y019644D01*
X035361Y020144D01*
X035111Y020394D01*
X035361Y020644D01*
X035361Y021144D01*
X035111Y021394D01*
X034611Y021394D01*
X034361Y021144D01*
X034361Y020644D01*
X034611Y020394D01*
X034361Y020144D01*
X017081Y026241D02*
X017081Y028800D01*
X012672Y028800D01*
X012672Y029194D01*
X017081Y029194D01*
X017081Y028800D01*
X017081Y026241D02*
X012672Y026241D01*
X012672Y028800D01*
X012050Y028997D02*
X009294Y028997D01*
X009294Y029312D01*
X012050Y029312D01*
X012050Y028997D01*
X012050Y026556D01*
X009294Y026556D01*
X009294Y028997D01*
X008861Y029375D02*
X002861Y029375D01*
X002861Y024257D01*
X008861Y024257D01*
X008861Y029375D01*
X011357Y022691D02*
X011457Y022691D01*
X011357Y022691D02*
X011357Y020291D01*
X011457Y020291D01*
X009111Y020894D02*
X007611Y020894D01*
X007611Y016894D01*
X007361Y016894D01*
X007361Y020894D01*
X007611Y020894D01*
X009111Y020894D02*
X009111Y016894D01*
X007611Y016894D01*
X003377Y015394D02*
X003413Y015659D01*
X003520Y015905D01*
X003689Y016113D01*
X003908Y016268D01*
X004161Y016357D01*
X004428Y016376D01*
X004691Y016321D01*
X004928Y016198D01*
X005124Y016015D01*
X005264Y015786D01*
X005336Y015528D01*
X005336Y015260D01*
X005264Y015002D01*
X005124Y014773D01*
X004928Y014590D01*
X004691Y014467D01*
X004428Y014412D01*
X004161Y014431D01*
X003908Y014520D01*
X003689Y014675D01*
X003520Y014883D01*
X003413Y015129D01*
X003377Y015394D01*
X003661Y015944D02*
X004061Y015944D01*
X002611Y016394D02*
X002111Y016394D01*
X000581Y016894D02*
X000618Y017200D01*
X000728Y017489D01*
X000903Y017743D01*
X001134Y017947D01*
X001407Y018091D01*
X001707Y018165D01*
X002015Y018165D01*
X002315Y018091D01*
X002588Y017947D01*
X002819Y017743D01*
X002994Y017489D01*
X003104Y017200D01*
X003141Y016894D01*
X003104Y016588D01*
X002994Y016299D01*
X002819Y016045D01*
X002588Y015841D01*
X002315Y015697D01*
X002015Y015623D01*
X001707Y015623D01*
X001407Y015697D01*
X001134Y015841D01*
X000903Y016045D01*
X000728Y016299D01*
X000618Y016588D01*
X000581Y016894D01*
X002111Y019394D02*
X002611Y019394D01*
X000581Y019894D02*
X000618Y020200D01*
X000728Y020489D01*
X000903Y020743D01*
X001134Y020947D01*
X001407Y021091D01*
X001707Y021165D01*
X002015Y021165D01*
X002315Y021091D01*
X002588Y020947D01*
X002819Y020743D01*
X002994Y020489D01*
X003104Y020200D01*
X003141Y019894D01*
X003104Y019588D01*
X002994Y019299D01*
X002819Y019045D01*
X002588Y018841D01*
X002315Y018697D01*
X002015Y018623D01*
X001707Y018623D01*
X001407Y018697D01*
X001134Y018841D01*
X000903Y019045D01*
X000728Y019299D01*
X000618Y019588D01*
X000581Y019894D01*
X012361Y017594D02*
X012361Y016894D01*
X012532Y016864D01*
X012682Y016777D01*
X012794Y016644D01*
X012853Y016481D01*
X012853Y016307D01*
X012794Y016144D01*
X012682Y016011D01*
X012532Y015924D01*
X012361Y015894D01*
X012361Y015194D01*
X012461Y015194D01*
X012461Y017594D02*
X012361Y017594D01*
D13*
X017366Y019319D02*
X017366Y019770D01*
X017591Y019770D01*
X017666Y019695D01*
X017666Y019544D01*
X017591Y019469D01*
X017366Y019469D01*
X017516Y019469D02*
X017666Y019319D01*
X017826Y019319D02*
X018126Y019620D01*
X018126Y019695D01*
X018051Y019770D01*
X017901Y019770D01*
X017826Y019695D01*
X017826Y019319D02*
X018126Y019319D01*
X021366Y019319D02*
X021366Y019770D01*
X021591Y019770D01*
X021666Y019695D01*
X021666Y019544D01*
X021591Y019469D01*
X021366Y019469D01*
X021516Y019469D02*
X021666Y019319D01*
X021826Y019319D02*
X022126Y019620D01*
X022126Y019695D01*
X022051Y019770D01*
X021901Y019770D01*
X021826Y019695D01*
X021826Y019319D02*
X022126Y019319D01*
X022286Y019319D02*
X022587Y019319D01*
X022436Y019319D02*
X022436Y019770D01*
X022286Y019620D01*
X026561Y024019D02*
X026711Y024019D01*
X026786Y024094D01*
X026946Y024019D02*
X027246Y024320D01*
X027246Y024395D01*
X027171Y024470D01*
X027021Y024470D01*
X026946Y024395D01*
X026786Y024395D02*
X026711Y024470D01*
X026561Y024470D01*
X026486Y024395D01*
X026486Y024094D01*
X026561Y024019D01*
X026946Y024019D02*
X027246Y024019D01*
X028524Y023970D02*
X028524Y023519D01*
X028524Y023669D02*
X028750Y023669D01*
X028825Y023744D01*
X028825Y023895D01*
X028750Y023970D01*
X028524Y023970D01*
X028675Y023669D02*
X028825Y023519D01*
X028985Y023519D02*
X029285Y023519D01*
X029135Y023519D02*
X029135Y023970D01*
X028985Y023820D01*
X029445Y023820D02*
X029520Y023744D01*
X029745Y023744D01*
X029745Y023594D02*
X029745Y023895D01*
X029670Y023970D01*
X029520Y023970D01*
X029445Y023895D01*
X029445Y023820D01*
X029445Y023594D02*
X029520Y023519D01*
X029670Y023519D01*
X029745Y023594D01*
X028436Y022159D02*
X028436Y021859D01*
X028436Y022009D02*
X027985Y022009D01*
X028135Y021859D01*
X028060Y021699D02*
X027985Y021624D01*
X027985Y021474D01*
X028060Y021399D01*
X028361Y021399D01*
X028436Y021474D01*
X028436Y021624D01*
X028361Y021699D01*
X028086Y019140D02*
X028086Y018840D01*
X028086Y018779D02*
X028161Y018779D01*
X028236Y018704D01*
X028236Y018554D01*
X028161Y018479D01*
X028086Y018479D01*
X028010Y018554D01*
X028010Y018704D01*
X028086Y018779D01*
X028010Y018704D02*
X027935Y018779D01*
X027860Y018779D01*
X027785Y018704D01*
X027785Y018554D01*
X027860Y018479D01*
X027935Y018479D01*
X028010Y018554D01*
X028086Y018605D02*
X028086Y018455D01*
X028011Y018380D01*
X028011Y018220D02*
X027635Y018220D01*
X027785Y018169D02*
X028236Y018169D01*
X028236Y018019D02*
X028236Y018319D01*
X028161Y018530D02*
X027560Y018530D01*
X027635Y018455D02*
X027635Y018605D01*
X027710Y018680D01*
X027860Y018605D02*
X027860Y018455D01*
X027785Y018380D01*
X027710Y018380D01*
X027635Y018455D01*
X027860Y018605D02*
X027936Y018680D01*
X028011Y018680D01*
X028086Y018605D01*
X027785Y018840D02*
X027635Y018990D01*
X028086Y018990D01*
X028011Y018220D02*
X028086Y018144D01*
X028086Y017994D01*
X028011Y017919D01*
X027635Y017919D01*
X027785Y017783D02*
X027860Y017858D01*
X028010Y017858D01*
X028086Y017783D01*
X028086Y017558D01*
X028236Y017558D02*
X027785Y017558D01*
X027785Y017783D01*
X027935Y018019D02*
X027785Y018169D01*
X028236Y017858D02*
X028086Y017708D01*
X028210Y017159D02*
X028210Y016859D01*
X027985Y017084D01*
X028436Y017084D01*
X028361Y016699D02*
X028436Y016624D01*
X028436Y016474D01*
X028361Y016399D01*
X028060Y016399D01*
X027985Y016474D01*
X027985Y016624D01*
X028060Y016699D01*
X029365Y016195D02*
X029365Y015894D01*
X029440Y015819D01*
X029590Y015819D01*
X029665Y015894D01*
X029825Y015894D02*
X029825Y015819D01*
X029825Y015894D02*
X030125Y016195D01*
X030125Y016270D01*
X029825Y016270D01*
X029665Y016195D02*
X029590Y016270D01*
X029440Y016270D01*
X029365Y016195D01*
X029250Y012470D02*
X029325Y012395D01*
X029325Y012244D01*
X029250Y012169D01*
X029024Y012169D01*
X029024Y012019D02*
X029024Y012470D01*
X029250Y012470D01*
X029485Y012320D02*
X029635Y012470D01*
X029635Y012019D01*
X029485Y012019D02*
X029785Y012019D01*
X029945Y012094D02*
X030020Y012019D01*
X030170Y012019D01*
X030245Y012094D01*
X030245Y012169D01*
X030170Y012244D01*
X029945Y012244D01*
X029945Y012094D01*
X029945Y012244D02*
X030095Y012395D01*
X030245Y012470D01*
X031024Y012470D02*
X031024Y012019D01*
X031024Y012169D02*
X031250Y012169D01*
X031325Y012244D01*
X031325Y012395D01*
X031250Y012470D01*
X031024Y012470D01*
X031175Y012169D02*
X031325Y012019D01*
X031485Y012019D02*
X031785Y012019D01*
X031635Y012019D02*
X031635Y012470D01*
X031485Y012320D01*
X031945Y012470D02*
X032245Y012470D01*
X032245Y012395D01*
X031945Y012094D01*
X031945Y012019D01*
X031960Y011359D02*
X031960Y011059D01*
X031735Y011284D01*
X032186Y011284D01*
X032186Y010899D02*
X032186Y010599D01*
X032186Y010749D02*
X031735Y010749D01*
X031885Y010599D01*
X031810Y010438D02*
X032111Y010438D01*
X032186Y010363D01*
X032186Y010213D01*
X032111Y010138D01*
X031810Y010138D01*
X031735Y010213D01*
X031735Y010363D01*
X031810Y010438D01*
X032036Y010288D02*
X032186Y010438D01*
X033735Y010363D02*
X033810Y010438D01*
X034111Y010438D01*
X034186Y010363D01*
X034186Y010213D01*
X034111Y010138D01*
X033810Y010138D01*
X033735Y010213D01*
X033735Y010363D01*
X033885Y010599D02*
X033735Y010749D01*
X034186Y010749D01*
X034186Y010599D02*
X034186Y010899D01*
X034111Y011059D02*
X034186Y011134D01*
X034186Y011284D01*
X034111Y011359D01*
X033960Y011359D01*
X033885Y011284D01*
X033885Y011209D01*
X033960Y011059D01*
X033735Y011059D01*
X033735Y011359D01*
X034186Y010438D02*
X034036Y010288D01*
X030186Y010213D02*
X030111Y010138D01*
X029810Y010138D01*
X029735Y010213D01*
X029735Y010363D01*
X029810Y010438D01*
X030111Y010438D01*
X030186Y010363D01*
X030186Y010213D01*
X030036Y010288D02*
X030186Y010438D01*
X030186Y010599D02*
X030186Y010899D01*
X030186Y010749D02*
X029735Y010749D01*
X029885Y010599D01*
X029810Y011059D02*
X029735Y011134D01*
X029735Y011284D01*
X029810Y011359D01*
X029885Y011359D01*
X029960Y011284D01*
X030036Y011359D01*
X030111Y011359D01*
X030186Y011284D01*
X030186Y011134D01*
X030111Y011059D01*
X029960Y011209D02*
X029960Y011284D01*
X029325Y012019D02*
X029175Y012169D01*
X028245Y012094D02*
X028170Y012019D01*
X028020Y012019D01*
X027945Y012094D01*
X027945Y012244D02*
X028095Y012320D01*
X028170Y012320D01*
X028245Y012244D01*
X028245Y012094D01*
X027945Y012244D02*
X027945Y012470D01*
X028245Y012470D01*
X027635Y012470D02*
X027635Y012019D01*
X027485Y012019D02*
X027785Y012019D01*
X027485Y012320D02*
X027635Y012470D01*
X027325Y012395D02*
X027325Y012244D01*
X027250Y012169D01*
X027024Y012169D01*
X027024Y012019D02*
X027024Y012470D01*
X027250Y012470D01*
X027325Y012395D01*
X027175Y012169D02*
X027325Y012019D01*
X027810Y011359D02*
X027735Y011284D01*
X027735Y011134D01*
X027810Y011059D01*
X027810Y011359D02*
X027885Y011359D01*
X028186Y011059D01*
X028186Y011359D01*
X028186Y010899D02*
X028186Y010599D01*
X028186Y010749D02*
X027735Y010749D01*
X027885Y010599D01*
X027810Y010438D02*
X028111Y010438D01*
X028186Y010363D01*
X028186Y010213D01*
X028111Y010138D01*
X027810Y010138D01*
X027735Y010213D01*
X027735Y010363D01*
X027810Y010438D01*
X028036Y010288D02*
X028186Y010438D01*
X026186Y010438D02*
X026036Y010288D01*
X026186Y010213D02*
X026111Y010138D01*
X025810Y010138D01*
X025735Y010213D01*
X025735Y010363D01*
X025810Y010438D01*
X026111Y010438D01*
X026186Y010363D01*
X026186Y010213D01*
X026186Y010599D02*
X026186Y010899D01*
X026186Y010749D02*
X025735Y010749D01*
X025885Y010599D01*
X025885Y011059D02*
X025735Y011209D01*
X026186Y011209D01*
X026186Y011059D02*
X026186Y011359D01*
X026170Y012019D02*
X026170Y012470D01*
X025945Y012244D01*
X026245Y012244D01*
X025785Y012019D02*
X025485Y012019D01*
X025635Y012019D02*
X025635Y012470D01*
X025485Y012320D01*
X025325Y012395D02*
X025325Y012244D01*
X025250Y012169D01*
X025024Y012169D01*
X025024Y012019D02*
X025024Y012470D01*
X025250Y012470D01*
X025325Y012395D01*
X025175Y012169D02*
X025325Y012019D01*
X024245Y012094D02*
X024170Y012019D01*
X024020Y012019D01*
X023945Y012094D01*
X023785Y012019D02*
X023485Y012019D01*
X023635Y012019D02*
X023635Y012470D01*
X023485Y012320D01*
X023325Y012395D02*
X023325Y012244D01*
X023250Y012169D01*
X023024Y012169D01*
X023024Y012019D02*
X023024Y012470D01*
X023250Y012470D01*
X023325Y012395D01*
X023175Y012169D02*
X023325Y012019D01*
X023945Y012395D02*
X024020Y012470D01*
X024170Y012470D01*
X024245Y012395D01*
X024245Y012320D01*
X024170Y012244D01*
X024245Y012169D01*
X024245Y012094D01*
X024170Y012244D02*
X024095Y012244D01*
X024111Y011359D02*
X023810Y011359D01*
X024111Y011059D01*
X024186Y011134D01*
X024186Y011284D01*
X024111Y011359D01*
X024111Y011059D02*
X023810Y011059D01*
X023735Y011134D01*
X023735Y011284D01*
X023810Y011359D01*
X024186Y010899D02*
X024186Y010599D01*
X024186Y010749D02*
X023735Y010749D01*
X023885Y010599D01*
X023810Y010438D02*
X024111Y010438D01*
X024186Y010363D01*
X024186Y010213D01*
X024111Y010138D01*
X023810Y010138D01*
X023735Y010213D01*
X023735Y010363D01*
X023810Y010438D01*
X024036Y010288D02*
X024186Y010438D01*
X022186Y010674D02*
X022111Y010599D01*
X021810Y010599D01*
X021735Y010674D01*
X021735Y010824D01*
X021810Y010899D01*
X022111Y010899D01*
X022186Y010824D01*
X022186Y010674D01*
X022036Y010749D02*
X022186Y010899D01*
X022111Y011059D02*
X022186Y011134D01*
X022186Y011284D01*
X022111Y011359D01*
X021810Y011359D01*
X021735Y011284D01*
X021735Y011134D01*
X021810Y011059D01*
X021885Y011059D01*
X021960Y011134D01*
X021960Y011359D01*
X021945Y012019D02*
X022245Y012320D01*
X022245Y012395D01*
X022170Y012470D01*
X022020Y012470D01*
X021945Y012395D01*
X021635Y012470D02*
X021485Y012320D01*
X021325Y012395D02*
X021325Y012244D01*
X021250Y012169D01*
X021024Y012169D01*
X021024Y012019D02*
X021024Y012470D01*
X021250Y012470D01*
X021325Y012395D01*
X021175Y012169D02*
X021325Y012019D01*
X021485Y012019D02*
X021785Y012019D01*
X021635Y012019D02*
X021635Y012470D01*
X021945Y012019D02*
X022245Y012019D01*
X020245Y012019D02*
X019945Y012019D01*
X020095Y012019D02*
X020095Y012470D01*
X019945Y012320D01*
X019785Y012019D02*
X019485Y012019D01*
X019635Y012019D02*
X019635Y012470D01*
X019485Y012320D01*
X019325Y012395D02*
X019325Y012244D01*
X019250Y012169D01*
X019024Y012169D01*
X019024Y012019D02*
X019024Y012470D01*
X019250Y012470D01*
X019325Y012395D01*
X019175Y012169D02*
X019325Y012019D01*
X019810Y011359D02*
X019885Y011359D01*
X019960Y011284D01*
X019960Y011134D01*
X019885Y011059D01*
X019810Y011059D01*
X019735Y011134D01*
X019735Y011284D01*
X019810Y011359D01*
X019960Y011284D02*
X020036Y011359D01*
X020111Y011359D01*
X020186Y011284D01*
X020186Y011134D01*
X020111Y011059D01*
X020036Y011059D01*
X019960Y011134D01*
X019810Y010899D02*
X020111Y010899D01*
X020186Y010824D01*
X020186Y010674D01*
X020111Y010599D01*
X019810Y010599D01*
X019735Y010674D01*
X019735Y010824D01*
X019810Y010899D01*
X020036Y010749D02*
X020186Y010899D01*
X018186Y010899D02*
X018036Y010749D01*
X018186Y010824D02*
X018186Y010674D01*
X018111Y010599D01*
X017810Y010599D01*
X017735Y010674D01*
X017735Y010824D01*
X017810Y010899D01*
X018111Y010899D01*
X018186Y010824D01*
X018186Y011059D02*
X018111Y011059D01*
X017810Y011359D01*
X017735Y011359D01*
X017735Y011059D01*
X017785Y012019D02*
X017485Y012019D01*
X017635Y012019D02*
X017635Y012470D01*
X017485Y012320D01*
X017325Y012395D02*
X017325Y012244D01*
X017250Y012169D01*
X017024Y012169D01*
X017024Y012019D02*
X017024Y012470D01*
X017250Y012470D01*
X017325Y012395D01*
X017175Y012169D02*
X017325Y012019D01*
X017945Y012094D02*
X018245Y012395D01*
X018245Y012094D01*
X018170Y012019D01*
X018020Y012019D01*
X017945Y012094D01*
X017945Y012395D01*
X018020Y012470D01*
X018170Y012470D01*
X018245Y012395D01*
X016245Y012395D02*
X016245Y012094D01*
X016170Y012019D01*
X016020Y012019D01*
X015945Y012094D01*
X016020Y012244D02*
X016245Y012244D01*
X016245Y012395D02*
X016170Y012470D01*
X016020Y012470D01*
X015945Y012395D01*
X015945Y012320D01*
X016020Y012244D01*
X015785Y012244D02*
X015785Y012395D01*
X015710Y012470D01*
X015485Y012470D01*
X015485Y012019D01*
X015485Y012169D02*
X015710Y012169D01*
X015785Y012244D01*
X015635Y012169D02*
X015785Y012019D01*
X015735Y011359D02*
X015810Y011209D01*
X015960Y011059D01*
X015960Y011284D01*
X016036Y011359D01*
X016111Y011359D01*
X016186Y011284D01*
X016186Y011134D01*
X016111Y011059D01*
X015960Y011059D01*
X015810Y010899D02*
X016111Y010899D01*
X016186Y010824D01*
X016186Y010674D01*
X016111Y010599D01*
X015810Y010599D01*
X015735Y010674D01*
X015735Y010824D01*
X015810Y010899D01*
X016036Y010749D02*
X016186Y010899D01*
X014186Y010899D02*
X014036Y010749D01*
X014186Y010824D02*
X014186Y010674D01*
X014111Y010599D01*
X013810Y010599D01*
X013735Y010674D01*
X013735Y010824D01*
X013810Y010899D01*
X014111Y010899D01*
X014186Y010824D01*
X014111Y011059D02*
X014186Y011134D01*
X014186Y011284D01*
X014111Y011359D01*
X013960Y011359D01*
X013885Y011284D01*
X013885Y011209D01*
X013960Y011059D01*
X013735Y011059D01*
X013735Y011359D01*
X013785Y012019D02*
X013635Y012169D01*
X013710Y012169D02*
X013485Y012169D01*
X013485Y012019D02*
X013485Y012470D01*
X013710Y012470D01*
X013785Y012395D01*
X013785Y012244D01*
X013710Y012169D01*
X013945Y012169D02*
X014020Y012244D01*
X014170Y012244D01*
X014245Y012169D01*
X014245Y012094D01*
X014170Y012019D01*
X014020Y012019D01*
X013945Y012094D01*
X013945Y012169D01*
X014020Y012244D02*
X013945Y012320D01*
X013945Y012395D01*
X014020Y012470D01*
X014170Y012470D01*
X014245Y012395D01*
X014245Y012320D01*
X014170Y012244D01*
X012245Y012395D02*
X011945Y012094D01*
X011945Y012019D01*
X011785Y012019D02*
X011635Y012169D01*
X011710Y012169D02*
X011485Y012169D01*
X011485Y012019D02*
X011485Y012470D01*
X011710Y012470D01*
X011785Y012395D01*
X011785Y012244D01*
X011710Y012169D01*
X011945Y012470D02*
X012245Y012470D01*
X012245Y012395D01*
X011960Y011359D02*
X011960Y011059D01*
X011735Y011284D01*
X012186Y011284D01*
X012186Y010899D02*
X012036Y010749D01*
X012111Y010899D02*
X012186Y010824D01*
X012186Y010674D01*
X012111Y010599D01*
X011810Y010599D01*
X011735Y010674D01*
X011735Y010824D01*
X011810Y010899D01*
X012111Y010899D01*
X010186Y010899D02*
X010036Y010749D01*
X010186Y010824D02*
X010186Y010674D01*
X010111Y010599D01*
X009810Y010599D01*
X009735Y010674D01*
X009735Y010824D01*
X009810Y010899D01*
X010111Y010899D01*
X010186Y010824D01*
X010111Y011059D02*
X010186Y011134D01*
X010186Y011284D01*
X010111Y011359D01*
X010036Y011359D01*
X009960Y011284D01*
X009960Y011209D01*
X009960Y011284D02*
X009885Y011359D01*
X009810Y011359D01*
X009735Y011284D01*
X009735Y011134D01*
X009810Y011059D01*
X009785Y012019D02*
X009635Y012169D01*
X009710Y012169D02*
X009485Y012169D01*
X009485Y012019D02*
X009485Y012470D01*
X009710Y012470D01*
X009785Y012395D01*
X009785Y012244D01*
X009710Y012169D01*
X009945Y012094D02*
X010020Y012019D01*
X010170Y012019D01*
X010245Y012094D01*
X010245Y012169D01*
X010170Y012244D01*
X009945Y012244D01*
X009945Y012094D01*
X009945Y012244D02*
X010095Y012395D01*
X010245Y012470D01*
X008245Y012470D02*
X007945Y012470D01*
X007945Y012244D01*
X008095Y012320D01*
X008170Y012320D01*
X008245Y012244D01*
X008245Y012094D01*
X008170Y012019D01*
X008020Y012019D01*
X007945Y012094D01*
X007785Y012019D02*
X007635Y012169D01*
X007710Y012169D02*
X007485Y012169D01*
X007485Y012019D02*
X007485Y012470D01*
X007710Y012470D01*
X007785Y012395D01*
X007785Y012244D01*
X007710Y012169D01*
X007810Y011359D02*
X007735Y011284D01*
X007735Y011134D01*
X007810Y011059D01*
X007810Y010899D02*
X008111Y010899D01*
X008186Y010824D01*
X008186Y010674D01*
X008111Y010599D01*
X007810Y010599D01*
X007735Y010674D01*
X007735Y010824D01*
X007810Y010899D01*
X008036Y010749D02*
X008186Y010899D01*
X008186Y011059D02*
X007885Y011359D01*
X007810Y011359D01*
X008186Y011359D02*
X008186Y011059D01*
X006245Y012244D02*
X005945Y012244D01*
X006170Y012470D01*
X006170Y012019D01*
X005785Y012019D02*
X005635Y012169D01*
X005710Y012169D02*
X005485Y012169D01*
X005485Y012019D02*
X005485Y012470D01*
X005710Y012470D01*
X005785Y012395D01*
X005785Y012244D01*
X005710Y012169D01*
X006186Y011359D02*
X006186Y011059D01*
X006186Y011209D02*
X005735Y011209D01*
X005885Y011059D01*
X005810Y010899D02*
X006111Y010899D01*
X006186Y010824D01*
X006186Y010674D01*
X006111Y010599D01*
X005810Y010599D01*
X005735Y010674D01*
X005735Y010824D01*
X005810Y010899D01*
X006036Y010749D02*
X006186Y010899D01*
X004245Y012094D02*
X004170Y012019D01*
X004020Y012019D01*
X003945Y012094D01*
X003785Y012019D02*
X003635Y012169D01*
X003710Y012169D02*
X003485Y012169D01*
X003485Y012019D02*
X003485Y012470D01*
X003710Y012470D01*
X003785Y012395D01*
X003785Y012244D01*
X003710Y012169D01*
X003945Y012395D02*
X004020Y012470D01*
X004170Y012470D01*
X004245Y012395D01*
X004245Y012320D01*
X004170Y012244D01*
X004245Y012169D01*
X004245Y012094D01*
X004170Y012244D02*
X004095Y012244D01*
X001636Y012219D02*
X001561Y012294D01*
X001185Y012294D01*
X001185Y012219D02*
X001185Y012370D01*
X001185Y012530D02*
X001185Y012755D01*
X001260Y012830D01*
X001410Y012830D01*
X001486Y012755D01*
X001486Y012530D01*
X001636Y012530D02*
X001185Y012530D01*
X001260Y012990D02*
X001185Y013065D01*
X001185Y013215D01*
X001260Y013290D01*
X001335Y013290D01*
X001410Y013215D01*
X001486Y013290D01*
X001561Y013290D01*
X001636Y013215D01*
X001636Y013065D01*
X001561Y012990D01*
X001410Y013140D02*
X001410Y013215D01*
X001636Y012219D02*
X001636Y012144D01*
X001561Y012069D01*
X003860Y018519D02*
X004161Y018519D01*
X004236Y018594D01*
X004236Y018744D01*
X004161Y018820D01*
X004236Y018980D02*
X004236Y019280D01*
X004236Y019130D02*
X003785Y019130D01*
X003935Y018980D01*
X003860Y018820D02*
X003785Y018744D01*
X003785Y018594D01*
X003860Y018519D01*
X004010Y019440D02*
X004010Y019740D01*
X003785Y019665D02*
X004010Y019440D01*
X004236Y019665D02*
X003785Y019665D01*
X002036Y023359D02*
X002036Y023593D01*
X002036Y023476D02*
X001685Y023476D01*
X001802Y023359D01*
X001685Y023728D02*
X002036Y023961D01*
X001685Y023961D01*
X001861Y024096D02*
X001685Y024271D01*
X002036Y024271D01*
X001861Y024330D02*
X001861Y024096D01*
X002036Y023728D02*
X001685Y023728D01*
X001744Y024464D02*
X001685Y024523D01*
X001685Y024639D01*
X001744Y024698D01*
X001977Y024464D01*
X002036Y024523D01*
X002036Y024639D01*
X001977Y024698D01*
X001744Y024698D01*
X001744Y024833D02*
X001685Y024891D01*
X001685Y025008D01*
X001744Y025066D01*
X001977Y024833D01*
X002036Y024891D01*
X002036Y025008D01*
X001977Y025066D01*
X001744Y025066D01*
X001861Y025201D02*
X001685Y025376D01*
X002036Y025376D01*
X001861Y025434D02*
X001861Y025201D01*
X001977Y024833D02*
X001744Y024833D01*
X001744Y024464D02*
X001977Y024464D01*
X014386Y026445D02*
X014536Y026294D01*
X014536Y026069D01*
X014536Y026294D02*
X014686Y026445D01*
X014686Y026520D01*
X014846Y026370D02*
X014996Y026520D01*
X014996Y026069D01*
X014846Y026069D02*
X015146Y026069D01*
X014386Y026445D02*
X014386Y026520D01*
X017904Y026195D02*
X017904Y025894D01*
X017980Y025819D01*
X018130Y025819D01*
X018205Y025894D01*
X018365Y025819D02*
X018665Y025819D01*
X018515Y025819D02*
X018515Y026270D01*
X018365Y026120D01*
X018205Y026195D02*
X018130Y026270D01*
X017980Y026270D01*
X017904Y026195D01*
X018825Y026195D02*
X018825Y025894D01*
X019125Y026195D01*
X019125Y025894D01*
X019050Y025819D01*
X018900Y025819D01*
X018825Y025894D01*
X018986Y025895D02*
X018986Y025594D01*
X019061Y025519D01*
X019211Y025519D01*
X019286Y025594D01*
X019446Y025519D02*
X019746Y025519D01*
X019596Y025519D02*
X019596Y025970D01*
X019446Y025820D01*
X019286Y025895D02*
X019211Y025970D01*
X019061Y025970D01*
X018986Y025895D01*
X019125Y026195D02*
X019050Y026270D01*
X018900Y026270D01*
X018825Y026195D01*
X019906Y025895D02*
X019981Y025970D01*
X020131Y025970D01*
X020207Y025895D01*
X020207Y025820D01*
X020131Y025744D01*
X020207Y025669D01*
X020207Y025594D01*
X020131Y025519D01*
X019981Y025519D01*
X019906Y025594D01*
X020056Y025744D02*
X020131Y025744D01*
X020365Y025894D02*
X020440Y025819D01*
X020590Y025819D01*
X020665Y025894D01*
X020825Y025894D02*
X020900Y025819D01*
X021050Y025819D01*
X021125Y025894D01*
X021125Y026195D01*
X021050Y026270D01*
X020900Y026270D01*
X020825Y026195D01*
X020825Y026120D01*
X020900Y026044D01*
X021125Y026044D01*
X020665Y026195D02*
X020590Y026270D01*
X020440Y026270D01*
X020365Y026195D01*
X020365Y025894D01*
X023985Y025510D02*
X024135Y025360D01*
X024060Y025200D02*
X024210Y025200D01*
X024286Y025124D01*
X024286Y024899D01*
X024436Y024899D02*
X023985Y024899D01*
X023985Y025124D01*
X024060Y025200D01*
X024286Y025049D02*
X024436Y025200D01*
X024436Y025360D02*
X024436Y025660D01*
X024436Y025510D02*
X023985Y025510D01*
X025385Y025494D02*
X025460Y025419D01*
X025535Y025419D01*
X025610Y025494D01*
X025610Y025644D01*
X025686Y025720D01*
X025761Y025720D01*
X025836Y025644D01*
X025836Y025494D01*
X025761Y025419D01*
X025385Y025494D02*
X025385Y025644D01*
X025460Y025720D01*
X025535Y025880D02*
X025385Y026030D01*
X025836Y026030D01*
X025836Y025880D02*
X025836Y026180D01*
X032485Y023084D02*
X032560Y023159D01*
X032635Y023159D01*
X032710Y023084D01*
X032786Y023159D01*
X032861Y023159D01*
X032936Y023084D01*
X032936Y022934D01*
X032861Y022859D01*
X032861Y022699D02*
X032936Y022624D01*
X032936Y022474D01*
X032861Y022399D01*
X032560Y022399D01*
X032485Y022474D01*
X032485Y022624D01*
X032560Y022699D01*
X032560Y022859D02*
X032485Y022934D01*
X032485Y023084D01*
X032710Y023084D02*
X032710Y023009D01*
X032866Y024819D02*
X032866Y025270D01*
X033091Y025270D01*
X033166Y025195D01*
X033166Y025044D01*
X033091Y024969D01*
X032866Y024969D01*
X033016Y024969D02*
X033166Y024819D01*
X033326Y024819D02*
X033626Y025120D01*
X033626Y025195D01*
X033551Y025270D01*
X033401Y025270D01*
X033326Y025195D01*
X033326Y024819D02*
X033626Y024819D01*
X033786Y024894D02*
X034087Y025195D01*
X034087Y024894D01*
X034011Y024819D01*
X033861Y024819D01*
X033786Y024894D01*
X033786Y025195D01*
X033861Y025270D01*
X034011Y025270D01*
X034087Y025195D01*
X034116Y018610D02*
X034116Y018310D01*
X034116Y018460D02*
X033665Y018460D01*
X033815Y018310D01*
X033740Y018150D02*
X033890Y018150D01*
X033966Y018075D01*
X033966Y017850D01*
X034116Y017850D02*
X033665Y017850D01*
X033665Y018075D01*
X033740Y018150D01*
X033665Y017690D02*
X033665Y017539D01*
X033665Y017614D02*
X034041Y017614D01*
X034116Y017539D01*
X034116Y017464D01*
X034041Y017389D01*
D14*
X032491Y028605D02*
X032516Y028630D01*
X032516Y028680D01*
X032491Y028705D01*
X032366Y028705D01*
X032416Y028752D02*
X032366Y028802D01*
X032516Y028802D01*
X032516Y028752D02*
X032516Y028852D01*
X032491Y028605D02*
X032366Y028605D01*
X016318Y026864D02*
X016293Y026889D01*
X016243Y026889D01*
X016218Y026864D01*
X016171Y026864D02*
X016171Y026814D01*
X016146Y026789D01*
X016071Y026789D01*
X016071Y026739D02*
X016071Y026889D01*
X016146Y026889D01*
X016171Y026864D01*
X016218Y026739D02*
X016318Y026839D01*
X016318Y026864D01*
X016318Y026739D02*
X016218Y026739D01*
X015999Y026764D02*
X015999Y026889D01*
X015974Y026889D02*
X016024Y026889D01*
X015999Y026764D02*
X015974Y026739D01*
X015949Y026739D01*
X015924Y026764D01*
X011818Y026764D02*
X011793Y026739D01*
X011743Y026739D01*
X011718Y026764D01*
X011718Y026789D01*
X011743Y026814D01*
X011793Y026814D01*
X011818Y026789D01*
X011818Y026764D01*
X011793Y026814D02*
X011818Y026839D01*
X011818Y026864D01*
X011793Y026889D01*
X011743Y026889D01*
X011718Y026864D01*
X011718Y026839D01*
X011743Y026814D01*
X011671Y026814D02*
X011646Y026789D01*
X011571Y026789D01*
X011571Y026739D02*
X011571Y026889D01*
X011646Y026889D01*
X011671Y026864D01*
X011671Y026814D01*
X011524Y026889D02*
X011474Y026889D01*
X011499Y026889D02*
X011499Y026764D01*
X011474Y026739D01*
X011449Y026739D01*
X011424Y026764D01*
X002118Y019239D02*
X002018Y019239D01*
X002018Y019164D01*
X002068Y019189D01*
X002093Y019189D01*
X002118Y019164D01*
X002118Y019114D01*
X002093Y019089D01*
X002043Y019089D01*
X002018Y019114D01*
X001971Y019114D02*
X001946Y019089D01*
X001896Y019089D01*
X001871Y019114D01*
X001871Y019214D01*
X001896Y019239D01*
X001946Y019239D01*
X001971Y019214D01*
X001946Y016239D02*
X001896Y016239D01*
X001871Y016214D01*
X001871Y016114D01*
X001896Y016089D01*
X001946Y016089D01*
X001971Y016114D01*
X002018Y016114D02*
X002018Y016139D01*
X002043Y016164D01*
X002093Y016164D01*
X002118Y016139D01*
X002118Y016114D01*
X002093Y016089D01*
X002043Y016089D01*
X002018Y016114D01*
X002043Y016164D02*
X002018Y016189D01*
X002018Y016214D01*
X002043Y016239D01*
X002093Y016239D01*
X002118Y016214D01*
X002118Y016189D01*
X002093Y016164D01*
X001971Y016214D02*
X001946Y016239D01*
X004016Y016124D02*
X004016Y016024D01*
X004041Y015999D01*
X004091Y015999D01*
X004116Y016024D01*
X004163Y016024D02*
X004188Y015999D01*
X004238Y015999D01*
X004263Y016024D01*
X004263Y016049D01*
X004238Y016074D01*
X004163Y016074D01*
X004163Y016024D01*
X004163Y016074D02*
X004213Y016124D01*
X004263Y016149D01*
X004116Y016124D02*
X004091Y016149D01*
X004041Y016149D01*
X004016Y016124D01*
D15*
X005361Y010394D03*
X007361Y010394D03*
X009361Y010394D03*
X011361Y010394D03*
X013361Y010394D03*
X015361Y010394D03*
X017361Y010394D03*
X019361Y010394D03*
X021361Y010394D03*
X023361Y010394D03*
X025361Y010394D03*
X027361Y010394D03*
X029361Y010394D03*
X031361Y010394D03*
X033361Y010394D03*
D16*
X032461Y012894D02*
X032261Y012894D01*
X030461Y012894D02*
X030261Y012894D01*
X028461Y012894D02*
X028261Y012894D01*
X026461Y012894D02*
X026261Y012894D01*
X024461Y012894D02*
X024261Y012894D01*
X022461Y012894D02*
X022261Y012894D01*
X020461Y012894D02*
X020261Y012894D01*
X018461Y012894D02*
X018261Y012894D01*
X016461Y012894D02*
X016261Y012894D01*
X014461Y012894D02*
X014261Y012894D01*
X012461Y012894D02*
X012261Y012894D01*
X010461Y012894D02*
X010261Y012894D01*
X008461Y012894D02*
X008261Y012894D01*
X006461Y012894D02*
X006261Y012894D01*
X004461Y012894D02*
X004261Y012894D01*
X017261Y018894D02*
X017461Y018894D01*
X021261Y018894D02*
X021461Y018894D01*
X027361Y018994D02*
X027361Y018794D01*
X029761Y024394D02*
X029961Y024394D01*
X032761Y024394D02*
X032961Y024394D01*
X024861Y024794D02*
X024861Y024994D01*
D17*
X027261Y023694D02*
X027261Y023394D01*
X027261Y023094D01*
X027461Y023094D02*
X027461Y023394D01*
X027461Y023694D01*
X027361Y021494D02*
X027061Y021494D01*
X027061Y021294D02*
X027361Y021294D01*
X027661Y021294D01*
X027661Y021494D02*
X027361Y021494D01*
X031561Y022294D02*
X031861Y022294D01*
X032161Y022294D01*
X032161Y022494D02*
X031861Y022494D01*
X031561Y022494D01*
X029461Y017194D02*
X029461Y016894D01*
X029461Y016594D01*
X029261Y016594D02*
X029261Y016894D01*
X029261Y017194D01*
X027661Y016494D02*
X027361Y016494D01*
X027061Y016494D01*
X027061Y016294D02*
X027361Y016294D01*
X027661Y016294D01*
X019961Y024594D02*
X019961Y024894D01*
X019961Y025194D01*
X019761Y025194D02*
X019761Y024894D01*
X019761Y024594D01*
X020261Y026594D02*
X020261Y026894D01*
X020261Y027194D01*
X020461Y027194D02*
X020461Y026894D01*
X020461Y026594D01*
X018461Y026594D02*
X018461Y026894D01*
X018461Y027194D01*
X018261Y027194D02*
X018261Y026894D01*
X018261Y026594D01*
X005161Y019494D02*
X004861Y019494D01*
X004561Y019494D01*
X004561Y019294D02*
X004861Y019294D01*
X005161Y019294D01*
X001861Y022894D02*
X001861Y023144D01*
X002361Y023144D01*
X002361Y023644D01*
X001361Y023644D01*
X001361Y023144D01*
X001861Y023144D01*
X002361Y023644D02*
X002361Y025644D01*
X001861Y025644D01*
X001861Y025894D01*
X001861Y025644D02*
X001361Y025644D01*
X001361Y023644D01*
D18*
X002520Y025112D02*
X002520Y025222D01*
X002557Y025259D01*
X002704Y025259D01*
X002741Y025222D01*
X002741Y025112D01*
X002520Y025112D01*
X002594Y025333D02*
X002520Y025407D01*
X002741Y025407D01*
X002741Y025480D02*
X002741Y025333D01*
X013371Y016624D02*
X013371Y016441D01*
X013407Y016404D01*
X013481Y016404D01*
X013517Y016441D01*
X013517Y016624D01*
X013592Y016588D02*
X013628Y016624D01*
X013702Y016624D01*
X013738Y016588D01*
X013738Y016551D01*
X013592Y016404D01*
X013738Y016404D01*
X023778Y021261D02*
X023851Y021261D01*
X023814Y021261D02*
X023814Y021481D01*
X023778Y021481D02*
X023851Y021481D01*
X023925Y021444D02*
X023925Y021297D01*
X023962Y021261D01*
X024035Y021261D01*
X024072Y021297D01*
X024146Y021261D02*
X024293Y021408D01*
X024293Y021444D01*
X024256Y021481D01*
X024183Y021481D01*
X024146Y021444D01*
X024072Y021444D02*
X024035Y021481D01*
X023962Y021481D01*
X023925Y021444D01*
X024146Y021261D02*
X024293Y021261D01*
D19*
X017511Y023994D02*
X015211Y023994D01*
X014957Y024030D01*
X014724Y024137D01*
X014531Y024305D01*
X014392Y024520D01*
X014320Y024766D01*
X014320Y025022D01*
X014392Y025268D01*
X014531Y025483D01*
X014724Y025651D01*
X014957Y025758D01*
X015211Y025794D01*
X017511Y025794D01*
X017765Y025758D01*
X017998Y025651D01*
X018191Y025483D01*
X018330Y025268D01*
X018402Y025022D01*
X018402Y024766D01*
X018330Y024520D01*
X018191Y024305D01*
X017998Y024137D01*
X017765Y024030D01*
X017511Y023994D01*
M02*
